/* XPM */
static char *controle_2[] = {
/* columns rows colors chars-per-pixel */
"133 60 190 2 ",
"   c #383F49",
".  c #39404A",
"X  c #3A414A",
"o  c #3A414B",
"O  c #3B424C",
"+  c #3C434D",
"@  c #3D444D",
"#  c #3E454F",
"$  c #3F464F",
"%  c #404750",
"&  c #414751",
"*  c #424952",
"=  c #434A53",
"-  c #444953",
";  c #444B54",
":  c #454C55",
">  c #474D57",
",  c #484E57",
"<  c #484F58",
"1  c #4A5059",
"2  c #4C535C",
"3  c #4D535C",
"4  c #4E545D",
"5  c #4F555E",
"6  c #4F565E",
"7  c #515760",
"8  c #525861",
"9  c #545962",
"0  c #555A62",
"q  c #555B63",
"w  c #565C64",
"e  c #585E66",
"r  c #5A5F67",
"t  c #5A5F68",
"y  c #5B6068",
"u  c #5B6169",
"i  c #5C626A",
"p  c #5D626B",
"a  c #5D636B",
"s  c #5E646C",
"d  c #5F656D",
"f  c #60656D",
"g  c #61666E",
"h  c #61676F",
"j  c #626870",
"k  c #646971",
"l  c #656B72",
"z  c #666B73",
"x  c #676C74",
"c  c #686E75",
"v  c #6A6F77",
"b  c #6B7077",
"n  c #6C7179",
"m  c #6F737B",
"M  c #6F747B",
"N  c #6F747C",
"B  c #70757C",
"V  c #71757C",
"C  c #71767D",
"Z  c #73777F",
"A  c #747980",
"S  c #757980",
"D  c #757A81",
"F  c #767A81",
"G  c #767B82",
"H  c #777B82",
"J  c #787D84",
"K  c #797D84",
"L  c #7B7F85",
"P  c #7B8086",
"I  c #7C8187",
"U  c #7D8289",
"Y  c #7F8389",
"T  c #81858B",
"R  c #81868C",
"E  c #83868D",
"W  c #82878D",
"Q  c #84878D",
"!  c #84888E",
"~  c #86898F",
"^  c #878B91",
"/  c #888B91",
"(  c #888C92",
")  c #898D93",
"_  c #8B8E94",
"`  c #8C9095",
"'  c #8C9096",
"]  c #8D9197",
"[  c #8E9197",
"{  c #90949A",
"}  c #92959A",
"|  c #93959B",
" . c #92969B",
".. c #93979D",
"X. c #96989E",
"o. c #96999F",
"O. c #989BA0",
"+. c #9A9CA1",
"@. c #9A9DA2",
"#. c #9A9EA3",
"$. c #9C9FA4",
"%. c #9DA0A5",
"&. c #9DA1A6",
"*. c #9FA1A6",
"=. c #A1A3A8",
"-. c #A1A4A8",
";. c #A2A5AA",
":. c #A3A5AA",
">. c #A4A7AB",
",. c #A5A7AC",
"<. c #A5A8AD",
"1. c #A7AAAE",
"2. c #A8ABAF",
"3. c #ABADB2",
"4. c #ABAEB2",
"5. c #ABAEB3",
"6. c #ACAEB2",
"7. c #ACAFB3",
"8. c #ADB0B4",
"9. c #AFB1B5",
"0. c #B0B2B6",
"q. c #B1B4B8",
"w. c #B3B4B8",
"e. c #B3B5B9",
"r. c #B3B6BA",
"t. c #B6B8BC",
"y. c #B9BABE",
"u. c #B9BBBF",
"i. c #BABDC0",
"p. c #BCBDC1",
"a. c #BEC0C3",
"s. c #C0C1C4",
"d. c #C4C5C8",
"f. c #C4C6C8",
"g. c #C5C6C9",
"h. c #C7C8CB",
"j. c #C8C9CB",
"k. c #C8C9CC",
"l. c #C9CACD",
"z. c #CACBCD",
"x. c #CFD0D2",
"c. c #D1D2D4",
"v. c #D2D2D5",
"b. c #D3D4D6",
"n. c #D4D5D7",
"m. c #D4D6D8",
"M. c #D6D7D9",
"N. c #D6D8DA",
"B. c #D7D8DA",
"V. c #D8D8DA",
"C. c #D9D9DB",
"Z. c #DBDBDD",
"A. c #DDDDDF",
"S. c #DEDEE0",
"D. c #DFDFE1",
"F. c #E1E2E4",
"G. c #E2E2E4",
"H. c #E3E3E4",
"J. c #E3E4E5",
"K. c #E6E6E7",
"L. c #E7E7E8",
"P. c #E8E7E9",
"I. c #E8E8E9",
"U. c #EAEAEB",
"Y. c #EBEAEB",
"T. c #EBEBEC",
"R. c #ECECED",
"E. c #EDEDEE",
"W. c #EEEDEE",
"Q. c #EFEFF0",
"!. c gray94",
"~. c #F1F0F1",
"^. c #F0F1F1",
"/. c #F1F1F2",
"(. c #F3F3F3",
"). c #F5F4F5",
"_. c #F6F5F5",
"`. c #F6F6F6",
"'. c #F7F6F7",
"]. c #F8F7F8",
"[. c #F9F8F8",
"{. c #FAF9F9",
"}. c #FAF9FA",
"|. c #FBFAFA",
" X c #FBFBFB",
".X c #FCFBFB",
"XX c #FDFCFC",
"oX c #FDFCFD",
"OX c #FEFDFD",
"+X c #FFFEFE",
/* pixels */
"                                                                                                                                                                                                                                                                          ",
"                                                                                                                                                                                                                                                                          ",
"                                                                                                                                                                                                                                                                          ",
"                                                                                                                                                                                                                                                                          ",
"                                                                                                                                                                                                                                                                          ",
"                                                                                                                                                                                                                                                                          ",
"                                                                                                                                                                                                                                                                          ",
"                                                                                                                                                                                                                                                                          ",
"                                                                                                                                                                                                                                                                          ",
"                                                                                                                                                                                                                                                                          ",
"                                                                                                                                                                                                                                                                          ",
"                                                                                                                                                                                                                                                                          ",
"                                                                                                                                                                                                                                                                          ",
"                                                                                                                                                                                                                                                                          ",
"                                                                                                                                                                                                                                                                          ",
"                                                                                                                            : j J W T G s *                                                                                                                               ",
"                                                                                                                    . a >.Z..X[.I.S.D.Y.}.}.m.$.w                                                                                                                         ",
"                                                                                                                . Z v.|.j.` y %         * f  .c. Xh.z                                                                                                                     ",
"                                                                                                              7 f.`.1.6                         e r.{.t.,                                                                                                                 ",
"                                                                                                            D ~.g.8                                 p b.P.l                                                                                                               ",
"                                                                                                          _ [.} X                                     @ <.`.F                                                                                                             ",
"                                                                                                        ^ ].K                                             ] [.C                                                                                                           ",
"                                                                                                      n {.I                                                 ..).r                                                                                                         ",
"                                                                                                    < T.%.                                                  . t.A.#                                                                                                       ",
"                                                                                                    e.n.O                 # U u.D.!.Q.Z.w.S O                 * K.+.                                                                                                      ",
"                                                                                                  i |.g               . ! T.W.9.Q m B ( t.(.G.A                 H _.1                                                                                                     ",
"                                                                                                  y.s.              # i.(.[ #             - &.{.1.X             X V.=.                                                                                                    ",
"                                                                                                > [.c             O d.G.0                     / +X8.              W Y.+                                                                                                   ",
"                                                                                                ! K.o             $.Y.6                     s Q.p.`.E             = _.b                                                                                                   ",
"                                                                                                y.0.            9 [.C                     s Q.7.X ` Q.;             k.*.                                                                                                  ",
"                                                                                                G.R             4.z.                    d Q.5.X   O F.|             @.l.                                                                                                  ",
"                                                                                              . |.j           o R.I                   s Q.6.X       X.M.            L L.                                                                                                  ",
"                                                                                              O +X5           w oX<                 d Q.3.X         g }.&           x _.                                                                                                  ",
"                                                                                              + XX;           M ^.o               s Q.6.X           ; +Xq           u |.                                                                                                  ",
"                                                                                                j             A T..               %.2.X             # +Xy           X h                                                                                                   ",
"                                                                                                              x '.+                                 3 OX4                                                                                                                 ",
"                                                                                                              < .Xt                                 Z /.o                                                                                                                 ",
"                                                                                                                N.O.                                q.a.                                                                                                                  ",
"                                                                                                                ) U.&                             2 '.V                                                                                                                   ",
"                                                                                                                # H.,.                          . a.x..                                                                                                                   ",
"                                                                                                                  x [.!                         #.(.q                                                                                                                     ",
"                                                                                                                    Y {.O.O                 $ 3._.b                                                                                                                       ",
"                                                                                                                      N E.C.P %         ; ~ J.H.g                                                                                                                         ",
"                                                                                                                        > :.Q._.b.a.s.B.[.I.o.&                                                                                                                           ",
"                                                                                                                            # v { ;.-.' k +                                                                                                                               ",
"                                                                                                                                                                                                                                                                          ",
"                                                                                                                                                                                                                                                                          ",
"                                                                                                                                                                                                                                                                          ",
"                                                                                                                                                                                                                                                                          ",
"                                                                                                                                                                                                                                                                          ",
"                                                                                                                                                                                                                                                                          ",
"                                                                                                                                                                                                                                                                          ",
"                                                                                                                                                                                                                                                                          ",
"                                                                                                                                                                                                                                                                          ",
"                                                                                                                                                                                                                                                                          ",
"                                                                                                                                                                                                                                                                          ",
"                                                                                                                                                                                                                                                                          ",
"                                                                                                                                                                                                                                                                          ",
"                                                                                                                                                                                                                                                                          ",
"                                                                                                                                                                                                                                                                          "
};
