/* XPM */
static char *controle_1[] = {
/* columns rows colors chars-per-pixel */
"133 60 189 2 ",
"   c #323842",
".  c #333943",
"X  c #343A43",
"o  c #343A44",
"O  c #353B45",
"+  c #363C46",
"@  c #373D46",
"#  c #383E48",
"$  c #393F49",
"%  c #3A4049",
"&  c #3B414A",
"*  c #3C424C",
"=  c #3D434C",
"-  c #3E434C",
";  c #3F444E",
":  c #40454F",
">  c #414750",
",  c #424851",
"<  c #434852",
"1  c #444A53",
"2  c #474C55",
"3  c #484D56",
"4  c #494E57",
"5  c #494F57",
"6  c #4A4F58",
"7  c #4C515A",
"8  c #4D525A",
"9  c #4F535C",
"0  c #50545C",
"q  c #50555D",
"w  c #51565E",
"e  c #535860",
"r  c #555962",
"t  c #555A62",
"y  c #565A62",
"u  c #565B63",
"i  c #575C64",
"p  c #585D65",
"a  c #595D66",
"s  c #595E66",
"d  c #5A5F67",
"f  c #5B6068",
"g  c #5C6169",
"h  c #5D6169",
"j  c #5D626A",
"k  c #5F646C",
"l  c #61656D",
"z  c #61666E",
"x  c #62676E",
"c  c #646870",
"v  c #656A71",
"b  c #666B72",
"n  c #686C74",
"m  c #6B6E76",
"M  c #6A6F76",
"N  c #6B6F77",
"B  c #6C7077",
"V  c #6D7077",
"C  c #6D7178",
"Z  c #6E737A",
"A  c #70747B",
"S  c #71747B",
"D  c #71757C",
"F  c #72767D",
"G  c #73767D",
"H  c #74787F",
"J  c #757980",
"K  c #777A81",
"L  c #777B82",
"P  c #787C82",
"I  c #7A7D84",
"U  c #7B7E84",
"Y  c #7E8087",
"T  c #7E8188",
"R  c #7E8288",
"E  c #7F8288",
"W  c #808389",
"Q  c #80848A",
"!  c #82858B",
"~  c #83878D",
"^  c #84878D",
"/  c #84888E",
"(  c #86898F",
")  c #878A90",
"_  c #888C91",
"`  c #898C92",
"'  c #8A8D93",
"]  c #8D9096",
"[  c #8E9196",
"{  c #8E9297",
"}  c #8F9297",
"|  c #909399",
" . c #92959A",
".. c #92969B",
"X. c #95979C",
"o. c #96999E",
"O. c #97999E",
"+. c #979A9F",
"@. c #999CA1",
"#. c #9A9DA2",
"$. c #9B9DA2",
"%. c #9C9EA3",
"&. c #9EA0A4",
"*. c #9FA0A5",
"=. c #9FA2A7",
"-. c #A0A2A7",
";. c #A2A3A8",
":. c #A3A4A9",
">. c #A3A5AA",
",. c #A4A7AB",
"<. c #A5A8AC",
"1. c #A9AAAF",
"2. c #A8ABAF",
"3. c #AAABAF",
"4. c #A9ABB0",
"5. c #AAACB0",
"6. c #ABADB1",
"7. c #ACAFB3",
"8. c #AEAFB3",
"9. c #AFB1B5",
"0. c #B0B2B5",
"q. c #B0B3B6",
"w. c #B1B3B7",
"e. c #B3B6B9",
"r. c #B4B5B9",
"t. c #B7B8BB",
"y. c #B7B9BC",
"u. c #B8BABE",
"i. c #BABBBE",
"p. c #BCBDC0",
"a. c #BEBFC2",
"s. c #C2C3C6",
"d. c #C3C3C6",
"f. c #C4C4C7",
"g. c #C5C6C9",
"h. c #C6C7C9",
"j. c #C7C7CA",
"k. c #C8C8CB",
"l. c #C8C9CC",
"z. c #CECED1",
"x. c #D0D0D2",
"c. c #D0D1D3",
"v. c #D2D2D4",
"b. c #D3D3D5",
"n. c #D3D4D6",
"m. c #D4D6D8",
"M. c #D5D6D8",
"N. c #D6D6D8",
"B. c #D7D7D9",
"V. c #D8D8DA",
"C. c #DADADC",
"Z. c #DCDCDD",
"A. c #DDDDDF",
"S. c #DEDEE0",
"D. c #E0E1E3",
"F. c #E1E1E3",
"G. c #E2E2E3",
"H. c #E2E3E4",
"J. c #E5E5E6",
"K. c #E6E6E7",
"L. c #E7E7E8",
"P. c #E8E7E9",
"I. c #E9E9EA",
"U. c #EAEAEB",
"Y. c #EBEAEB",
"T. c #ECEBEC",
"R. c #EDECED",
"E. c #EDEDEE",
"W. c #EFEEEF",
"Q. c #F0EFF0",
"!. c #F0F0F1",
"~. c #F1F0F1",
"^. c #F1F1F2",
"/. c #F3F2F3",
"(. c #F5F4F4",
"). c gray96",
"_. c #F6F5F6",
"`. c #F7F6F7",
"'. c #F8F7F7",
"]. c #F9F8F8",
"[. c #F9F9F9",
"{. c #FAF9FA",
"}. c #FBFAFA",
"|. c #FBFBFB",
" X c #FCFBFB",
".X c #FDFCFC",
"XX c #FDFCFD",
"oX c #FEFDFD",
"OX c #FFFEFE",
/* pixels */
"                                                                                                                                                                                                                                                                          ",
"                                                                                                                                                                                                                                                                          ",
"                                                                                                                                                                                                                                                                          ",
"                                                                                                                                                                                                                                                                          ",
"                                                                                                                                                                                                                                                                          ",
"                                                                                                                                                                                                                                                                          ",
"                                                                                                                                                                                                                                                                          ",
"                                                                                                                                                                                                                                                                          ",
"                                                                                                                                                                                                                                                                          ",
"                                                                                                                                                                                                                                                                          ",
"                                                                                                                                                                                                                                                                          ",
"                                                                                                                                                                                                                                                                          ",
"                                                                                                                                                                                                                                                                          ",
"                                                                                                                                                                                                                                                                          ",
"                                                                                                                                                                                                                                                                          ",
"                                                                                                                            : j H R Y F s *                                                                                                                               ",
"                                                                                                                    . a ;.C. X].P.A.S.U.{.{.n.@.w                                                                                                                         ",
"                                                                                                                . Z c.}.h._ y %         * f { x.|.g.z                                                                                                                     ",
"                                                                                                              7 d._.,.6                         e w.[.r.,                                                                                                                 ",
"                                                                                                            D ~.f.8                                 p v.L.l                                                                                                               ",
"                                                                                                          ) ].[ X                                     @ >._.F                                                                                                             ",
"                                                                                                        ~ '.J                                             ' ].C                                                                                                           ",
"                                                                                                      n [.P                                                 | (.r                                                                                                         ",
"                                                                                                    < Y.#.                                                  . e.Z.#                                                                                                       ",
"                                                                                                    q.b.O                 # I y.S.Q.W.C.0.S O                 * J.o.                                                                                                      ",
"                                                                                                  i }.g               . Q Y.E.7.W m B / r./.F.A                 G ).1                                                                                                     ",
"                                                                                                  t.a.              # u./.' #             - $.[.,.X             X B.&.                                                                                                    ",
"                                                                                                > ].c             O s.F.0                     ^ OX6.              R U.+                                                                                                   ",
"                                                                                                Q J.o             @.U.6                     s W.i._.E             = ).b                                                                                                   ",
"                                                                                                t.8.            9 ].C                     s W.5.X _ W.;             j.%.                                                                                                  ",
"                                                                                                F.T             2.l.                    d W.4.X   O D.}             O.k.                                                                                                  ",
"                                                                                              . }.j           o T.P                   s W.3.X        .m.            K K.                                                                                                  ",
"                                                                                              O OX5           w XX<                 d W.1.X         g {.&           x ).                                                                                                  ",
"                                                                                              + .X;           M !.o               s W.3.X           ; OXq           u }.                                                                                                  ",
"                                                                                                j             A Y..               #.<.X             # OXy           X h                                                                                                   ",
"                                                                                                              x `.+                                 3 oX4                                                                                                                 ",
"                                                                                                              <  Xt                                 Z ^.o                                                                                                                 ",
"                                                                                                                M.X.                                9.p.                                                                                                                  ",
"                                                                                                                ( I.&                             2 `.V                                                                                                                   ",
"                                                                                                                # G.:.                          . p.z..                                                                                                                   ",
"                                                                                                                  x ].Q                         +./.q                                                                                                                     ",
"                                                                                                                    U [.X.O                 $ 1.).b                                                                                                                       ",
"                                                                                                                      N R.V.L %         ; ! H.G.g                                                                                                                         ",
"                                                                                                                        > -.W.).v.p.a.N.].P...&                                                                                                                           ",
"                                                                                                                            # v ] =.*.` k +                                                                                                                               ",
"                                                                                                                                                                                                                                                                          ",
"                                                                                                                                                                                                                                                                          ",
"                                                                                                                                                                                                                                                                          ",
"                                                                                                                                                                                                                                                                          ",
"                                                                                                                                                                                                                                                                          ",
"                                                                                                                                                                                                                                                                          ",
"                                                                                                                                                                                                                                                                          ",
"                                                                                                                                                                                                                                                                          ",
"                                                                                                                                                                                                                                                                          ",
"                                                                                                                                                                                                                                                                          ",
"                                                                                                                                                                                                                                                                          ",
"                                                                                                                                                                                                                                                                          ",
"                                                                                                                                                                                                                                                                          ",
"                                                                                                                                                                                                                                                                          ",
"                                                                                                                                                                                                                                                                          "
};
