/* XPM */
static char *down_2[] = {
/* columns rows colors chars-per-pixel */
"101 101 91 1 ",
"  c #323842",
". c #333842",
"X c #343842",
"o c #353842",
"O c #353943",
"+ c #373843",
"@ c #373943",
"# c #353A44",
"$ c #393843",
"% c #3A3943",
"& c #3D3843",
"* c #3E3943",
"= c #413942",
"- c #403944",
"; c #463944",
": c #473A44",
"> c #4A3A44",
", c #4D3A44",
"< c #503944",
"1 c #533944",
"2 c #563A45",
"3 c #5A3B45",
"4 c #5F3B46",
"5 c #603A45",
"6 c #603B46",
"7 c #673B46",
"8 c #623C45",
"9 c #6A3B46",
"0 c #6F3C46",
"q c #733D47",
"w c #783D47",
"e c #7C3C48",
"r c #414750",
"t c #424751",
"y c #464A54",
"u c #6D7176",
"i c #6E7177",
"p c #803D49",
"a c #833E49",
"s c #863E49",
"d c #8D3E49",
"f c #8F3E49",
"g c #953F49",
"h c #9F3E4A",
"j c #9E3F4A",
"k c #A23F4A",
"l c #A73F4C",
"z c #98404A",
"x c #AA404A",
"c c #B0414C",
"v c #B2414C",
"b c #B8414D",
"n c #BA414D",
"m c #C0414D",
"M c #C1414D",
"N c #C2414D",
"B c #C0424D",
"V c #C7414D",
"C c #C6414E",
"Z c #CC424E",
"A c #CE434E",
"S c #D1434F",
"D c #D3434F",
"F c #D6434F",
"G c #DE434F",
"H c #DF434F",
"J c #D8444F",
"K c #DC444F",
"L c #DB4450",
"P c #E4434F",
"I c #E5434F",
"U c #E2444F",
"Y c #E3444F",
"T c #E54450",
"R c #E64450",
"E c #E74450",
"W c #8C8F95",
"Q c #8C9095",
"! c #8C9196",
"~ c #8E9198",
"^ c #9D9FA4",
"/ c #9DA0A5",
"( c #9EA2A6",
") c #9FA2A6",
"_ c #D0D1D3",
"` c #D0D1D4",
"' c #D0D2D4",
"] c #D1D2D4",
"[ c #D2D3D5",
"{ c #D4D5D7",
"} c #D5D6D8",
/* pixels */
"  #~_}[```````````````````````````````````````````````````````````````````````````````````````[}]!#  ",
" y]^r...........................................................................................r/]y ",
"#]u...............................................................................................i]#",
"~^.................................................................................................(Q",
"'r.................................................................................................t_",
"{...................................................................................................}",
"{...................................................................................................{",
"{...................................................................................................{",
"{...................................................................................................{",
"{...................................................................................................{",
"{...................................................................................................{",
"{...................................................................................................{",
"{...................................................................................................{",
"{...................................................................................................{",
"{...................................................................................................{",
"{...................................................................................................{",
"{...................................................................................................{",
"{...................................................................................................{",
"{...................................................................................................{",
"{...................................................................................................{",
"{...................................................................................................{",
"{...................................................................................................{",
"{...................................................................................................{",
"{...................................................................................................{",
"{...................................................................................................{",
"{...................................................................................................{",
"{...................................................................................................{",
"{...................................................................................................{",
"{...................................................................................................{",
"{...................................................................................................{",
"{...................................................................................................{",
"{...................................................................................................{",
"{...................................................................................................{",
"{...................................................................................................{",
"{...................................................................................................{",
"{...................................................................................................{",
"{...................................................................................................{",
"{..............................pCCCCCCCCCCCCCCCCCCCCCCCCCCCCCCCCCCCCC4..............................{",
"{..............................+BEEEEEEEEEEEEEEEEEEEEEEEEEEEEEEEEEEEj...............................{",
"{...............................;FEEEEEEEEEEEEEEEEEEEEEEEEEEEEEEEEEM@...............................{",
"{................................5PEEEEEEEEEEEEEEEEEEEEEEEEEEEEEEEJ:................................{",
"{.................................sEEEEEEEEEEEEEEEEEEEEEEEEEEEEEEY8.................................{",
"{..................................lEEEEEEEEEEEEEEEEEEEEEEEEEEEEEa..................................{",
"{..................................$CEEEEEEEEEEEEEEEEEEEEEEEEEEEx...................................{",
"{...................................>LEEEEEEEEEEEEEEEEEEEEEEEEEV%...................................{",
"{....................................7TEEEEEEEEEEEEEEEEEEEEEEEK,....................................{",
"{.....................................fEEEEEEEEEEEEEEEEEEEEEEI9.....................................{",
"{.....................................XcEEEEEEEEEEEEEEEEEEEEEd......................................{",
"{......................................&ZEEEEEEEEEEEEEEEEEEEvX......................................{",
"{.......................................<GEEEEEEEEEEEEEEEEEA*.......................................{",
"{........................................0REEEEEEEEEEEEEEEH1........................................{",
"{.........................................zEEEEEEEEEEEEEERq.........................................{",
"{.........................................ObEEEEEEEEEEEEEg..........................................{",
"{..........................................-SEEEEEEEEEEEno..........................................{",
"{...........................................2UEEEEEEEEED=...........................................{",
"{............................................wEEEEEEEEU3............................................{",
"{.............................................kEEEEEEEe.............................................{",
"{.............................................+mEEEEEh..............................................{",
"{..............................................;FEEEN@..............................................{",
"{...............................................5PEJ:...............................................{",
"{................................................sY8................................................{",
"{.................................................6.................................................{",
"{...................................................................................................{",
"{...................................................................................................{",
"{...................................................................................................{",
"{...................................................................................................{",
"{...................................................................................................{",
"{...................................................................................................{",
"{...................................................................................................{",
"{...................................................................................................{",
"{...................................................................................................{",
"{...................................................................................................{",
"{...................................................................................................{",
"{...................................................................................................{",
"{...................................................................................................{",
"{...................................................................................................{",
"{...................................................................................................{",
"{...................................................................................................{",
"{...................................................................................................{",
"{...................................................................................................{",
"{...................................................................................................{",
"{...................................................................................................{",
"{...................................................................................................{",
"{...................................................................................................{",
"{...................................................................................................{",
"{...................................................................................................{",
"{...................................................................................................{",
"{...................................................................................................{",
"{...................................................................................................{",
"{...................................................................................................{",
"{...................................................................................................{",
"{...................................................................................................{",
"{...................................................................................................{",
"{...................................................................................................{",
"{...................................................................................................{",
"{...................................................................................................}",
"_r.................................................................................................t_",
"!/.................................................................................................)W",
"#]i...............................................................................................i_#",
" y](t...........................................................................................t)_y ",
"  #Q_{[```````````````````````````````````````````````````````````````````````````````````````[{_Q#  "
};
