/* XPM */
static char *face_2[] = {
/* columns rows colors chars-per-pixel */
"58 58 45 1 ",
"  c #343A44",
". c #383F49",
"X c #473B45",
"o c #473B46",
"O c #483B45",
"+ c #583C46",
"@ c #593C47",
"# c #6D3D48",
"$ c #6E3D48",
"% c #703D48",
"& c #713D48",
"* c #723D49",
"= c #7D3E49",
"- c #7E3E49",
"; c #6B6F77",
": c #6B7077",
"> c #6B7178",
", c #6C7279",
"< c #6E727A",
"1 c #6F737B",
"2 c #70747B",
"3 c #71747B",
"4 c #993F4B",
"5 c #99404A",
"6 c #9A404B",
"7 c #9B404B",
"8 c #D1424F",
"9 c #D2434F",
"0 c #D3434F",
"q c #D4434F",
"w c #D5434F",
"e c #D8434F",
"r c #DA434F",
"t c #D9444F",
"y c #E54450",
"u c #E74450",
"i c #8C8F95",
"p c #8C9096",
"a c #8D9096",
"s c #8F9398",
"d c #8F9399",
"f c #8F9499",
"g c #909499",
"h c #90949A",
"j c #92959B",
/* pixels */
".,dsjjjjjjjjjjjjjjjjjjjjjjjjjjjjjjjjjjjjjjjjjjjjjjjjjjfh>.",
",<                                                      2:",
"h                                                        g",
"i                                                        a",
"p                                                        p",
"p                                                        p",
"p                                                        p",
"p                                                        p",
"p                                                        p",
"p        $66666666666666666666666666666666666666#        p",
"p        7uuuuuuuuuuuuuuuuuuuuuuuuuuuuuuuuuuuuuu5        p",
"p        7uy999999999tuuw99999999wuut999999999yu5        p",
"p        7u8         *uuX        Ouu%         0u5        p",
"p        7u8         *uuX        Ouu%         0u5        p",
"p        7u8         *uuX        Ouu%         0u5        p",
"p        7u8         *uuX        Ouu%         0u5        p",
"p        7u8         *uuX        Ouu%         0u5        p",
"p        7u8         *uuX        Ouu%         0u5        p",
"p        7u8         *uuX        Ouu%         0u5        p",
"p        7u8         *uuX        Ouu%         0u5        p",
"p        7u8         *uuX        Ouu%         0u5        p",
"p        7ue&&&&&&&&&5uu=&&&&&&&&-uu4&&&&&&&&&ru5        p",
"p        7uuuuuuuuuuuuuuuuuuuuuuuuuuuuuuuuuuuuuu5        p",
"p        7uuuuuuuuuuuuuuuuuuuuuuuuuuuuuuuuuuuuuu5        p",
"p        7u0ooooooooo-uu+oooooooo@uu=oooooooooqu5        p",
"p        7u8         *uuX        Ouu%         0u5        p",
"p        7u8         *uuX        Ouu%         0u5        p",
"p        7u8         *uuX        Ouu%         0u5        p",
"p        7u8         *uuX        Ouu%         0u5        p",
"p        7u8         *uuX        Ouu%         0u5        p",
"p        7u8         *uuX        Ouu%         0u5        p",
"p        7u8         *uuX        Ouu%         0u5        p",
"p        7u8         *uuX        Ouu%         0u5        p",
"p        7u0ooooooooo-uu+oooooooo@uu=oooooooooqu5        p",
"p        7uuuuuuuuuuuuuuuuuuuuuuuuuuuuuuuuuuuuuu5        p",
"p        7uuuuuuuuuuuuuuuuuuuuuuuuuuuuuuuuuuuuuu5        p",
"p        7ue&&&&&&&&&5uu=&&&&&&&&-uu4&&&&&&&&&ru5        p",
"p        7u8         *uuX        Ouu%         0u5        p",
"p        7u8         *uuX        Ouu%         0u5        p",
"p        7u8         *uuX        Ouu%         0u5        p",
"p        7u8         *uuX        Ouu%         0u5        p",
"p        7u8         *uuX        Ouu%         0u5        p",
"p        7u8         *uuX        Ouu%         0u5        p",
"p        7u8         *uuX        Ouu%         0u5        p",
"p        7u8         *uuX        Ouu%         0u5        p",
"p        7u8         *uuX        Ouu%         0u5        p",
"p        7uy999999999tuuw99999999wuut999999999yu5        p",
"p        7uuuuuuuuuuuuuuuuuuuuuuuuuuuuuuuuuuuuuu5        p",
"p        $66666666666666666666666666666666666666#        p",
"p                                                        p",
"p                                                        p",
"p                                                        p",
"p                                                        p",
"p                                                        p",
"i                                                        i",
"h                                                        g",
":1                                                      3;",
".:gsjjjjjjjjjjjjjjjjjjjjjjjjjjjjjjjjjjjjjjjjjjjjjjjjjjsg;."
};
