/* XPM */
static char *face_1[] = {
/* columns rows colors chars-per-pixel */
"58 58 40 1 ",
"  c #383F49",
". c #4C535C",
"X c #4E545D",
"o c #4F555E",
"O c #60656D",
"+ c #61676F",
"@ c #6B7077",
"# c #6B7078",
"$ c #6C7179",
"% c #6D7279",
"& c #71767D",
"* c #72767E",
"= c #72777E",
"- c #73787F",
"; c #777C83",
": c #787D84",
"> c #7A7F86",
", c #7B8086",
"< c #7C8187",
"1 c #888D93",
"2 c #8A8E94",
"3 c #8E9297",
"4 c #8E9298",
"5 c #91959A",
"6 c #92959B",
"7 c #94989D",
"8 c #A7AAAE",
"9 c #A8ABB0",
"0 c #A9ACB0",
"q c #AAADB1",
"w c #E4E5E7",
"e c #E6E7E8",
"r c #E7E8E9",
"t c #E8E9EA",
"y c #E9EAEB",
"u c #EDEEEF",
"i c #EEEEEF",
"p c #EFEFF0",
"a c #FBFBFB",
"s c #FDFDFE",
/* pixels */
" %557777777777777777777777777777777777777777777777777766$ ",
"%&                                                      =#",
"6                                                        6",
"3                                                        4",
"4                                                        4",
"4                                                        4",
"4                                                        4",
"4                                                        4",
"4                                                        4",
"4        :00000000000000000000000000000000000000;        4",
"4        qssssssssssssssssssssssssssssssssssssss9        4",
"4        qsaeeeeeeeeeissteeeeeeeetssieeeeeeeeeas9        4",
"4        qsw         <ss.        oss>         rs9        4",
"4        qsw         <ss.        oss>         rs9        4",
"4        qsw         <ss.        oss>         rs9        4",
"4        qsw         <ss.        oss>         rs9        4",
"4        qsw         <ss.        oss>         rs9        4",
"4        qsw         <ss.        oss>         rs9        4",
"4        qsw         <ss.        oss>         rs9        4",
"4        qsw         <ss.        oss>         rs9        4",
"4        qsw         <ss.        oss>         rs9        4",
"4        qsu,,,,,,,,,9ss1,,,,,,,,2ss8,,,,,,,,,ps9        4",
"4        qssssssssssssssssssssssssssssssssssssss9        4",
"4        qssssssssssssssssssssssssssssssssssssss9        4",
"4        qsrXXXXXXXXX2ssOXXXXXXXX+ss1XXXXXXXXXys9        4",
"4        qsw         <ss.        oss>         rs9        4",
"4        qsw         <ss.        oss>         rs9        4",
"4        qsw         <ss.        oss>         rs9        4",
"4        qsw         <ss.        oss>         rs9        4",
"4        qsw         <ss.        oss>         rs9        4",
"4        qsw         <ss.        oss>         rs9        4",
"4        qsw         <ss.        oss>         rs9        4",
"4        qsw         <ss.        oss>         rs9        4",
"4        qsrXXXXXXXXX2ssOXXXXXXXX+ss1XXXXXXXXXys9        4",
"4        qssssssssssssssssssssssssssssssssssssss9        4",
"4        qssssssssssssssssssssssssssssssssssssss9        4",
"4        qsu,,,,,,,,,9ss1,,,,,,,,2ss8,,,,,,,,,ps9        4",
"4        qsw         <ss.        oss>         rs9        4",
"4        qsw         <ss.        oss>         rs9        4",
"4        qsw         <ss.        oss>         rs9        4",
"4        qsw         <ss.        oss>         rs9        4",
"4        qsw         <ss.        oss>         rs9        4",
"4        qsw         <ss.        oss>         rs9        4",
"4        qsw         <ss.        oss>         rs9        4",
"4        qsw         <ss.        oss>         rs9        4",
"4        qsw         <ss.        oss>         rs9        4",
"4        qsaeeeeeeeeeissteeeeeeeetssieeeeeeeeeas9        4",
"4        qssssssssssssssssssssssssssssssssssssss9        4",
"4        :00000000000000000000000000000000000000;        4",
"4                                                        4",
"4                                                        4",
"4                                                        4",
"4                                                        4",
"4                                                        4",
"3                                                        3",
"6                                                        6",
"#*                                                      -@",
" #657777777777777777777777777777777777777777777777777756@ "
};
