/* XPM */
static char *help_1[] = {
/* columns rows colors chars-per-pixel */
"58 58 82 1 ",
"  c #383F49",
". c #39404A",
"X c #3A414A",
"o c #3A414B",
"O c #3B424C",
"+ c #3C434D",
"@ c #414751",
"# c #414852",
"$ c #424952",
"% c #434A53",
"& c #4C525B",
"* c #4C535C",
"= c #4D535C",
"- c #50565F",
"; c #515760",
": c #525861",
"> c #535961",
", c #585E66",
"< c #5E646C",
"1 c #5F656D",
"2 c #60656D",
"3 c #61666E",
"4 c #61676F",
"5 c #626870",
"6 c #636870",
"7 c #6C7178",
"8 c #6C7179",
"9 c #6D727A",
"0 c #6E737A",
"q c #72777E",
"w c #73777F",
"e c #73787F",
"r c #747980",
"t c #7D8188",
"y c #7E8389",
"u c #8C9096",
"i c #8E9298",
"p c #8F9398",
"a c #8F9399",
"s c #90949A",
"d c #92969B",
"f c #93969C",
"g c #95999E",
"h c #96999F",
"j c #969A9F",
"k c #989CA1",
"l c #9DA1A5",
"z c #9FA2A7",
"x c #A0A4A8",
"c c #A1A4A9",
"v c #A2A5AA",
"b c #A3A6AA",
"n c #A4A7AC",
"m c #ADB0B4",
"M c #AEB0B4",
"N c #AEB1B5",
"B c #B1B3B7",
"V c #B2B4B8",
"C c #B2B5B9",
"Z c #B9BCBF",
"A c #BABCC0",
"S c #BCBFC2",
"D c #BDC0C3",
"F c #BEC0C3",
"G c #D3D5D7",
"H c #D4D5D7",
"J c #DEDFE1",
"K c #E0E1E2",
"L c #E2E3E4",
"P c #E4E5E6",
"I c #E5E6E7",
"U c #E6E7E8",
"Y c #E7E7E9",
"T c #EDEDEE",
"R c #EEEEEF",
"E c #F0F0F1",
"W c #F2F2F3",
"Q c #F2F3F3",
"! c #F6F6F7",
"~ c #F7F7F8",
"^ c #F8F8F8",
"/ c #FEFEFE",
/* pixels */
" 0ddggggggggggggggggggggggggggggggggggggggggggggggggggff9 ",
"0q                                                      e8",
"f                                                        f",
"p                                                        a",
"a                                                        a",
"a                                                        a",
"a                                                        a",
"a                                                        a",
"a                                                        a",
"a                                                        a",
"a                                                        a",
"a                  %,,,,,,,,,,,,,,,,,,%                  a",
"a                  y//////////////////t                  a",
"a                  y//////////////////t                  a",
"a                  y//TGGGGGGGGGGGGT//t                  a",
"a                  y//m            N//t                  a",
"a                  y//m            N//t                  a",
"a                  y//m     XX     N//t                  a",
"a                  y//m    .MCX    N//t                  a",
"a                  y//m   .M//CX   N//t                  a",
"a                  y//m  .M////CX  N//t                  a",
"a                  y//m .C//////V. N//t                  a",
"a                  y//m  z//cv//l  N//t                  a",
"a                  y//m   zx  vl   N//t                  a",
"a                  y//m            N//t                  a",
"a                  y//m            N//t                  a",
"a                  y//m            N//t                  a",
"a  #jjjjjjjjjjjjjjjA//GjjjjjjjjjjjjH//Zjjjjjjjjjjjjjjj@  a",
"a  =//////////////////////////////////////////////////&  a",
"a  =//////////////////////////////////////////////////&  a",
"a  =//TjjjjjjjjjjjjA//GjjjjjjjjjjjjH//ZjjjjjjjjjjjjR//&  a",
"a  =//J            y//m            N//t            K//&  a",
"a  =//J      $     y//m            N//t     $      K//&  a",
"a  =//J     -Ph    y//m            N//t    sY>     K//&  a",
"a  =//J    :Y//u   y//m   ln  zb   N//t   i//I;    K//&  a",
"a  =//J   -P//Q6   y//m  z//cv//l  N//t   2E//Y>   K//&  a",
"a  =//J  =Y//!5    y//m .C//////V. N//t    6~//U*  K//&  a",
"a  =//J  oZ///k    y//m  .m////VX  N//t    f///D+  K//&  a",
"a  =//J   +F///p   y//m   .m//VX   N//t   s///S+   K//&  a",
"a  =//J    oZ/W4   y//m    .mVX    N//t   <E/D+    K//&  a",
"a  =//J     +C1    y//m     XX     N//t    3B+     K//&  a",
"a  =//J            y//m            N//t            K//&  a",
"a  =//J            y//m            N//t            K//&  a",
"a  =//~GGGGGGGGGGGGL//TGGGGGGGGGGGGT//LGGGGGGGGGGGG^//&  a",
"a  =//////////////////////////////////////////////////&  a",
"a  =//////////////////////////////////////////////////&  a",
"a  O,,,,,,,,,,,,,,,,,,,,,,,,,,,,,,,,,,,,,,,,,,,,,,,,,,O  a",
"a                                                        a",
"a                                                        a",
"a                                                        a",
"a                                                        a",
"a                                                        a",
"a                                                        a",
"a                                                        a",
"p                                                        p",
"f                                                        f",
"8w                                                      r7",
" 8fdggggggggggggggggggggggggggggggggggggggggggggggggggdf7 "
};
