/* XPM */
static char *help_2[] = {
/* columns rows colors chars-per-pixel */
"58 58 86 1 ",
"  c #343A44",
". c #353A44",
"X c #363A44",
"o c #373A44",
"O c #363B44",
"+ c #383A45",
"@ c #3C3A44",
"# c #3D3A45",
"$ c #3E3B44",
"% c #383F49",
"& c #463B45",
"* c #473B45",
"= c #4B3B45",
"- c #4A3B46",
"; c #4C3B46",
": c #4A3C45",
"> c #513C46",
", c #563C46",
"< c #573C47",
"1 c #583C46",
"2 c #593C47",
"3 c #5B3C46",
"4 c #5A3C47",
"5 c #723D49",
"6 c #743E48",
"7 c #6C7078",
"8 c #6C7178",
"9 c #6C7279",
"0 c #6D737A",
"q c #6F737B",
"w c #70747C",
"e c #71757C",
"r c #72757C",
"t c #803E49",
"y c #833E49",
"u c #823F49",
"i c #823E4A",
"p c #853F49",
"a c #893E4A",
"s c #893F4A",
"d c #8A3F4A",
"f c #903F4A",
"g c #913F4B",
"h c #923F4A",
"j c #933F4B",
"k c #963F4B",
"l c #94404A",
"z c #95404A",
"x c #9E404B",
"c c #9F404B",
"v c #A0404B",
"b c #A1414B",
"n c #A2404B",
"m c #A3404C",
"M c #A9414B",
"N c #AA414C",
"B c #AC414C",
"V c #AD414C",
"C c #AE414C",
"Z c #C1424D",
"A c #C0424E",
"S c #CA424E",
"D c #CC434E",
"F c #CD424F",
"G c #D1434E",
"H c #D1424F",
"J c #D0434F",
"K c #D2434F",
"L c #D7434F",
"P c #D8434F",
"I c #DB434F",
"U c #DC434F",
"Y c #DC444F",
"T c #E1444F",
"R c #E2444F",
"E c #E04350",
"W c #E74450",
"Q c #8D9096",
"! c #8D9197",
"~ c #8E9197",
"^ c #909499",
"/ c #90949A",
"( c #90959A",
") c #91959A",
"_ c #91959B",
"` c #93969C",
/* pixels */
"%0/^``````````````````````````````````````````````````(_9%",
"0q                                                      e8",
"_                                                        )",
"Q                                                        ~",
"!                                                        !",
"!                                                        !",
"!                                                        !",
"!                                                        !",
"!                                                        !",
"!                                                        !",
"!                                                        !",
"!                  $>>>>>>>>>>>>>>>>>>$                  !",
"!                  6WWWWWWWWWWWWWWWWWW5                  !",
"!                  6WWWWWWWWWWWWWWWWWW5                  !",
"!                  6WWLAAAAAAAAAAAALWW5                  !",
"!                  6WWx            vWW5                  !",
"!                  6WWx            vWW5                  !",
"!                  6WWx     OO     vWW5                  !",
"!                  6WWx    .cmO    vWW5                  !",
"!                  6WWx   .cWWmO   vWW5                  !",
"!                  6WWx  .cWWWWmO  vWW5                  !",
"!                  6WWx .mWWWWWWn. vWW5                  !",
"!                  6WWx  gWWjlWWf  vWW5                  !",
"!                  6WWx   gh  lf   vWW5                  !",
"!                  6WWx            vWW5                  !",
"!                  6WWx            vWW5                  !",
"!                  6WWx            vWW5                  !",
"!  #aaaaaaaaaaaaaaaNWWAaaaaaaaaaaaaZWWMaaaaaaaaaaaaaaa@  !",
"!  &WWWWWWWWWWWWWWWWWWWWWWWWWWWWWWWWWWWWWWWWWWWWWWWWWW&  !",
"!  &WWWWWWWWWWWWWWWWWWWWWWWWWWWWWWWWWWWWWWWWWWWWWWWWWW&  !",
"!  &WWLaaaaaaaaaaaaNWWAaaaaaaaaaaaaZWWMaaaaaaaaaaaaPWW&  !",
"!  &WWS            6WWx            vWW5            DWW&  !",
"!  &WWS      #     6WWx            vWW5     #      DWW&  !",
"!  &WWS     -Js    6WWx            vWW5    yK;     DWW&  !",
"!  &WWS    =KWWt   6WWx   fk  gz   vWW5   iWWH:    DWW&  !",
"!  &WWS   -JWWU3   6WWx  gWWjlWWf  vWW5   1IWWK;   DWW&  !",
"!  &WWS  &KWWE4    6WWx .mWWWWWWn. vWW5    3TWWG*  DWW&  !",
"!  &WWS  XMWWWd    6WWx  .xWWWWnO  vWW5    pWWWV+  DWW&  !",
"!  &WWS   +CWWWu   6WWx   .xWWnO   vWW5   yWWWB+   DWW&  !",
"!  &WWS    XMWY2   6WWx    .xnO    vWW5   ,IWV+    DWW&  !",
"!  &WWS     +m<    6WWx     OO     vWW5    1b+     DWW&  !",
"!  &WWS            6WWx            vWW5            DWW&  !",
"!  &WWS            6WWx            vWW5            DWW&  !",
"!  &WWTAAAAAAAAAAAAFWWLAAAAAAAAAAAALWWFAAAAAAAAAAAARWW&  !",
"!  &WWWWWWWWWWWWWWWWWWWWWWWWWWWWWWWWWWWWWWWWWWWWWWWWWW&  !",
"!  &WWWWWWWWWWWWWWWWWWWWWWWWWWWWWWWWWWWWWWWWWWWWWWWWWW&  !",
"!  o>>>>>>>>>>>>>>>>>>>>>>>>>>>>>>>>>>>>>>>>>>>>>>>>>>o  !",
"!                                                        !",
"!                                                        !",
"!                                                        !",
"!                                                        !",
"!                                                        !",
"!                                                        !",
"!                                                        !",
"Q                                                        Q",
"_                                                        )",
"8w                                                      r7",
"%8)^``````````````````````````````````````````````````^)7%"
};
