/* XPM */
static char *info_0[] = {
/* columns rows colors chars-per-pixel */
"133 60 163 2 ",
"   c #323842",
".  c #333942",
"X  c #333943",
"o  c #343A43",
"O  c #343A44",
"+  c #353B44",
"@  c #353B45",
"#  c #363B45",
"$  c #363C46",
"%  c #373C46",
"&  c #373D47",
"*  c #383E47",
"=  c #393E48",
"-  c #393F49",
";  c #3A3F49",
":  c #3A4049",
">  c #3A404A",
",  c #3B414A",
"<  c #3C414B",
"1  c #3C424B",
"2  c #3D424B",
"3  c #3D424C",
"4  c #3D434C",
"5  c #3E444D",
"6  c #3F444D",
"7  c #3F444E",
"8  c #3F454E",
"9  c #40464F",
"0  c #414750",
"q  c #434951",
"w  c #444951",
"e  c #444952",
"r  c #464B53",
"t  c #464B54",
"y  c #464C54",
"u  c #474C54",
"i  c #474C55",
"p  c #494D55",
"a  c #494E56",
"s  c #494E57",
"d  c #4A4F58",
"f  c #4C5159",
"g  c #4F535B",
"h  c #4F545C",
"j  c #50555D",
"k  c #51555D",
"l  c #51565E",
"z  c #52565E",
"x  c #53575F",
"c  c #545860",
"v  c #555961",
"b  c #555A62",
"n  c #595D64",
"m  c #595E65",
"M  c #5B5E66",
"N  c #5C5F66",
"B  c #5B6067",
"V  c #5C6168",
"C  c #5D6169",
"Z  c #5E6168",
"A  c #5F636A",
"S  c #62666D",
"D  c #63666D",
"F  c #63676E",
"G  c #65696F",
"H  c #656970",
"J  c #666A70",
"K  c #676B71",
"L  c #696C72",
"P  c #6A6D73",
"I  c #6A6E74",
"U  c #6B6F75",
"Y  c #6C7076",
"T  c #6D7076",
"R  c #6E7278",
"E  c #707379",
"W  c #73767B",
"Q  c #72767C",
"!  c #73767C",
"~  c #74767C",
"^  c #76797F",
"/  c #77797F",
"(  c #787C81",
")  c #7A7D82",
"_  c #7A7E83",
"`  c #7D7F84",
"'  c #7D8085",
"]  c #808388",
"[  c #828489",
"{  c #83858A",
"}  c #86898E",
"|  c #87898E",
" . c #888A8E",
".. c #888B8F",
"X. c #8A8D91",
"o. c #8D8F93",
"O. c #8E9094",
"+. c #919397",
"@. c #929397",
"#. c #929498",
"$. c #939598",
"%. c #939599",
"&. c #96979B",
"*. c #97989C",
"=. c #989A9D",
"-. c #999A9E",
";. c #999B9E",
":. c #9B9DA0",
">. c #9C9DA0",
",. c #9C9EA1",
"<. c #9D9EA1",
"1. c #9E9FA2",
"2. c #A0A1A4",
"3. c #A1A2A5",
"4. c #A1A3A5",
"5. c #A5A5A8",
"6. c #A6A7A9",
"7. c #A6A8AA",
"8. c #A7A8AB",
"9. c #A9AAAC",
"0. c #AAAAAC",
"q. c #AAABAD",
"w. c #ABABAD",
"e. c #ACACAE",
"r. c #AEB0B1",
"t. c #AFB0B1",
"y. c #B0B0B2",
"u. c #B0B1B3",
"i. c #B2B2B3",
"p. c #B3B3B5",
"a. c #B3B4B6",
"s. c #B4B4B5",
"d. c #B4B5B6",
"f. c #B5B5B6",
"g. c #B6B6B8",
"h. c #B9BABB",
"j. c #BABABC",
"k. c #BBBBBC",
"l. c #BDBCBD",
"z. c #BDBDBE",
"x. c #BEBDBE",
"c. c #BFBEBF",
"v. c gray75",
"b. c #BEBFC0",
"n. c #C1C0C1",
"m. c #C2C1C2",
"M. c gray76",
"N. c #C3C2C3",
"B. c #C4C3C4",
"V. c #C5C4C5",
"C. c #C6C5C5",
"Z. c #C6C5C6",
"A. c #C7C6C6",
"S. c gray78",
"D. c #C8C7C7",
"F. c #C8C7C8",
"G. c #C8C8C8",
"H. c #C9C8C8",
"J. c #CAC9C9",
"K. c #CAC9CA",
"L. c #CBCACA",
"P. c #CBCACB",
"I. c #CCCBCB",
/* pixels */
"                                                                                                                                                                                                                                                                          ",
"                                                                                                                                                                                                                                                                          ",
"                                                                                                                                                                                                                                                                          ",
"                                                                                                                                                                                                                                                                          ",
"                                                                                                                                                                                                                                                                          ",
"                                                                                                                                                                                                                                                                          ",
"                                                                                                                                                                                                                                                                          ",
"                                                                                                                                                                                                                                                                          ",
"                                                                                                                                                                                                                                                                          ",
"                                                                                                                                                                                                                                                                          ",
"                                                                                                                                                                                                                                                                          ",
"                                                                                                                                                                                                                                                                          ",
"                                                                                                                                                                                                                                                                          ",
"                                                                                                                                                                                                                                                                          ",
"                                                                                                                              O - < < = X                                                                                                                                 ",
"                                                                                                                      o m O.g.P.I.I.I.I.L.i. .x X                                                                                                                         ",
"                                                                                                                    H i.L.9.' B u 3 4 p A [ y.L.9.M                                                                                                                       ",
"                                                                                                                0 2.J.@.d                     z ,.P.$.:                                                                                                                   ",
"                                                                                                              j z.p.l                             V k.f.y                                                                                                                 ",
"                                                                                                            z N.1.-                                 9 w.k.r                                                                                                               ",
"                                                                                                          e b.>.O                                     ; 0.f.,                                                                                                             ",
"                                                                                                        o 7.t.*                                         6 k.&.                                                                                                            ",
"                                                                                                        R G.f                   T / ^ .                   B P.N                                                                                                           ",
"                                                                                                      # j.|                     g.I.L.O                     ;.q.X                                                                                                         ",
"                                                                                                      K S.0                     g.I.L.O                     h L.v                                                                                                         ",
"                                                                                                      <.:.                      I ~ ! .                       r.X.                                                                                                        ",
"                                                                                                    o N.Y                       t a a                         ] d.                                                                                                        ",
"                                                                                                    2 I.s                       g.I.L.O                       C L.O                                                                                                       ",
"                                                                                                    r F.%                       g.I.L.O                       y I.>                                                                                                       ",
"                                                                                                    s m.X                       g.I.L.O                       , I.1                                                                                                       ",
"                                                                                                    d n.X                       g.I.L.O                       : I.4                                                                                                       ",
"                                                                                                    y A.@                       g.I.L.O                       q I.,                                                                                                       ",
"                                                                                                    5 I.t                       g.I.L.O                       n L.@                                                                                                       ",
"                                                                                                    @ A.J                       g.I.L.O                       ) h.                                                                                                        ",
"                                                                                                      5.%.                      g.I.L.O                       6.#.                                                                                                        ",
"                                                                                                      E B.:                     g.I.L.O                     y K.Z                                                                                                         ",
"                                                                                                      : m._                     g.I.L.O                     o.s.O                                                                                                         ",
"                                                                                                        ` N.0                   g.I.L.O                   g H.L                                                                                                           ",
"                                                                                                        $ a.4.X                 B D S X                 * u.5.X                                                                                                           ",
"                                                                                                          h C...                                      X -.v.w                                                                                                             ",
"                                                                                                            F J.} o                                 % *.V.c                                                                                                               ",
"                                                                                                              S A.3.0                             a e.n.b                                                                                                                 ",
"                                                                                                                k f.M.( -                     7 { A.w.i                                                                                                                   ",
"                                                                                                                  & ' M.M.+.G q X   X @ i P =.Z.l.Q O                                                                                                                     ",
"                                                                                                                      , W 8.S.I.Z.x.c.D.I.V.4.U &                                                                                                                         ",
"                                                                                                                            + 8 p f f i 7 O                                                                                                                               ",
"                                                                                                                                                                                                                                                                          ",
"                                                                                                                                                                                                                                                                          ",
"                                                                                                                                                                                                                                                                          ",
"                                                                                                                                                                                                                                                                          ",
"                                                                                                                                                                                                                                                                          ",
"                                                                                                                                                                                                                                                                          ",
"                                                                                                                                                                                                                                                                          ",
"                                                                                                                                                                                                                                                                          ",
"                                                                                                                                                                                                                                                                          ",
"                                                                                                                                                                                                                                                                          ",
"                                                                                                                                                                                                                                                                          ",
"                                                                                                                                                                                                                                                                          ",
"                                                                                                                                                                                                                                                                          ",
"                                                                                                                                                                                                                                                                          "
};
