/* XPM */
static char *left_0[] = {
/* columns rows colors chars-per-pixel */
"101 101 70 1 ",
"  c #1B2D3B",
". c #1C2E3C",
"X c #233441",
"o c #243542",
"O c #253643",
"+ c #263743",
"@ c #273744",
"# c #283946",
"$ c #2A3B47",
"% c #2C3B48",
"& c #2C3C48",
"* c #2D3E4A",
"= c #2E3F4B",
"- c #31414D",
"; c #32424E",
": c #33424F",
"> c #364652",
", c #374652",
"< c #3B4A56",
"1 c #3C4B57",
"2 c #3F4E59",
"3 c #434F59",
"4 c #404F5A",
"5 c #435059",
"6 c #41505B",
"7 c #43525D",
"8 c #48545D",
"9 c #49555D",
"0 c #475560",
"q c #495762",
"w c #4A5863",
"e c #505D68",
"r c #515E69",
"t c #53616B",
"y c #56636D",
"u c #5D666C",
"i c #5E666D",
"p c #5E676D",
"a c #5E6A74",
"s c #626E77",
"d c #66727B",
"f c #767A7E",
"g c #767B7F",
"h c #777C80",
"j c #707C84",
"k c #797D81",
"l c #797E81",
"z c #7B8083",
"x c #7C8083",
"c c #77828A",
"v c #7D878F",
"b c #7E8890",
"n c #808A91",
"m c #818B92",
"M c #838D94",
"N c #848E95",
"B c #868F96",
"V c #879097",
"C c #8B949B",
"Z c #8F989F",
"A c #949CA2",
"S c #959EA4",
"D c #979FA5",
"F c #99A1A7",
"G c #9BA2A8",
"H c #9BA3A9",
"J c #9DA5AB",
"K c #9EA5AB",
"L c #9FA6AC",
"P c #A0A7AD",
/* pixels */
"  .9gxlkkkkkkkkkkkkkkkkkkkkkkkkkkkkkkkkkkkkkkkkkkkkkkkkkkkkkkkkkkkkkkkkkkkkkkkkkkkkkkkkkkkkkkklxh8.  ",
" Xgu%ooooooooooooooooooooooooooooooooooooooooooooooooooooooooooooooooooooooooooooooooooooooooooo%igX ",
".g3ooooooooooooooooooooooooooooooooooooooooooooooooooooooooooooooooooooooooooooooooooooooooooooooo5g.",
"9uoooooooooooooooooooooooooooooooooooooooooooooooooooooooooooooooooooooooooooooooooooooooooooooooooi8",
"h%ooooooooooooooooooooooooooooooooooooooooooooooooooooooooooooooooooooooooooooooooooooooooooooooooo&g",
"xoooooooooooooooooooooooooooooooooooooooooooooooooooooooooooooooooooooooooooooooooooooooooooooooooooz",
"xooooooooooooooooooooooooooooooooooooooooooooooooooooooooooooooooooooooooooooooooooooooooooooooooooox",
"xooooooooooooooooooooooooooooooooooooooooooooooooooooooooooooooooooooooooooooooooooooooooooooooooooox",
"xooooooooooooooooooooooooooooooooooooooooooooooooooooooooooooooooooooooooooooooooooooooooooooooooooox",
"xooooooooooooooooooooooooooooooooooooooooooooooooooooooooooooooooooooooooooooooooooooooooooooooooooox",
"xooooooooooooooooooooooooooooooooooooooooooooooooooooooooooooooooooooooooooooooooooooooooooooooooooox",
"xooooooooooooooooooooooooooooooooooooooooooooooooooooooooooooooooooooooooooooooooooooooooooooooooooox",
"xooooooooooooooooooooooooooooooooooooooooooooooooooooooooooooooooooooooooooooooooooooooooooooooooooox",
"xooooooooooooooooooooooooooooooooooooooooooooooooooooooooooooooooooooooooooooooooooooooooooooooooooox",
"xooooooooooooooooooooooooooooooooooooooooooooooooooooooooooooooooooooooooooooooooooooooooooooooooooox",
"xooooooooooooooooooooooooooooooooooooooooooooooooooooooooooooooooooooooooooooooooooooooooooooooooooox",
"xooooooooooooooooooooooooooooooooooooooooooooooooooooooooooooooooooooooooooooooooooooooooooooooooooox",
"xooooooooooooooooooooooooooooooooooooooooooooooooooooooooooooooooooooooooooooooooooooooooooooooooooox",
"xooooooooooooooooooooooooooooooooooooooooooooooooooooooooooooooooooooooooooooooooooooooooooooooooooox",
"xooooooooooooooooooooooooooooooooooooooooooooooooooooooooooooooooooooooooooooooooooooooooooooooooooox",
"xooooooooooooooooooooooooooooooooooooooooooooooooooooooooooooooooooooooooooooooooooooooooooooooooooox",
"xooooooooooooooooooooooooooooooooooooooooooooooooooooooooooooooooooooooooooooooooooooooooooooooooooox",
"xooooooooooooooooooooooooooooooooooooooooooooooooooooooooooooooooooooooooooooooooooooooooooooooooooox",
"xooooooooooooooooooooooooooooooooooooooooooooooooooooooooooooooooooooooooooooooooooooooooooooooooooox",
"xooooooooooooooooooooooooooooooooooooooooooooooooooooooooooooooooooooooooooooooooooooooooooooooooooox",
"xooooooooooooooooooooooooooooooooooooooooooooooooooooooooooooooooooooooooooooooooooooooooooooooooooox",
"xooooooooooooooooooooooooooooooooooooooooooooooooooooooooooooooooooooooooooooooooooooooooooooooooooox",
"xooooooooooooooooooooooooooooooooooooooooooooooooooooooooooooooooooooooooooooooooooooooooooooooooooox",
"xooooooooooooooooooooooooooooooooooooooooooooooooooooooooooooooooooooooooooooooooooooooooooooooooooox",
"xooooooooooooooooooooooooooooooooooooooooooooooooooooooooooooooooooooooooooooooooooooooooooooooooooox",
"xooooooooooooooooooooooooooooooooooooooooooooooooooooooooooooooooooooooooooooooooooooooooooooooooooox",
"xooooooooooooooooooooooooooooooooooooooooooooooooooooooooooooo@toooooooooooooooooooooooooooooooooooox",
"xoooooooooooooooooooooooooooooooooooooooooooooooooooooooooooo-NMoooooooooooooooooooooooooooooooooooox",
"xooooooooooooooooooooooooooooooooooooooooooooooooooooooooooo6APMoooooooooooooooooooooooooooooooooooox",
"xooooooooooooooooooooooooooooooooooooooooooooooooooooooooooyJPPMoooooooooooooooooooooooooooooooooooox",
"xoooooooooooooooooooooooooooooooooooooooooooooooooooooooo#jPPPPMoooooooooooooooooooooooooooooooooooox",
"xooooooooooooooooooooooooooooooooooooooooooooooooooooooo:VPPPPPMoooooooooooooooooooooooooooooooooooox",
"xoooooooooooooooooooooooooooooooooooooooooooooooooooooo0DPPPPPPMoooooooooooooooooooooooooooooooooooox",
"xooooooooooooooooooooooooooooooooooooooooooooooooooooOaKPPPPPPPMoooooooooooooooooooooooooooooooooooox",
"xooooooooooooooooooooooooooooooooooooooooooooooooooo$cPPPPPPPPPMoooooooooooooooooooooooooooooooooooox",
"xoooooooooooooooooooooooooooooooooooooooooooooooooo,CPPPPPPPPPPMoooooooooooooooooooooooooooooooooooox",
"xooooooooooooooooooooooooooooooooooooooooooooooooowFPPPPPPPPPPPMoooooooooooooooooooooooooooooooooooox",
"xooooooooooooooooooooooooooooooooooooooooooooooo+dLPPPPPPPPPPPPMoooooooooooooooooooooooooooooooooooox",
"xoooooooooooooooooooooooooooooooooooooooooooooo*bPPPPPPPPPPPPPPMoooooooooooooooooooooooooooooooooooox",
"xooooooooooooooooooooooooooooooooooooooooooooo1ZPPPPPPPPPPPPPPPMoooooooooooooooooooooooooooooooooooox",
"xoooooooooooooooooooooooooooooooooooooooooooorHPPPPPPPPPPPPPPPPMoooooooooooooooooooooooooooooooooooox",
"xoooooooooooooooooooooooooooooooooooooooooo+dPPPPPPPPPPPPPPPPPPMoooooooooooooooooooooooooooooooooooox",
"xooooooooooooooooooooooooooooooooooooooooo-NPPPPPPPPPPPPPPPPPPPMoooooooooooooooooooooooooooooooooooox",
"xoooooooooooooooooooooooooooooooooooooooo6APPPPPPPPPPPPPPPPPPPPMoooooooooooooooooooooooooooooooooooox",
"xoooooooooooooooooooooooooooooooooooooooyJPPPPPPPPPPPPPPPPPPPPPMoooooooooooooooooooooooooooooooooooox",
"xoooooooooooooooooooooooooooooooooooooo6JPPPPPPPPPPPPPPPPPPPPPPMoooooooooooooooooooooooooooooooooooox",
"xooooooooooooooooooooooooooooooooooooooo4APPPPPPPPPPPPPPPPPPPPPMoooooooooooooooooooooooooooooooooooox",
"xoooooooooooooooooooooooooooooooooooooooo=mPPPPPPPPPPPPPPPPPPPPMoooooooooooooooooooooooooooooooooooox",
"xooooooooooooooooooooooooooooooooooooooooo+dPPPPPPPPPPPPPPPPPPPMoooooooooooooooooooooooooooooooooooox",
"xoooooooooooooooooooooooooooooooooooooooooooeGPPPPPPPPPPPPPPPPPMoooooooooooooooooooooooooooooooooooox",
"xoooooooooooooooooooooooooooooooooooooooooooo<ZPPPPPPPPPPPPPPPPMoooooooooooooooooooooooooooooooooooox",
"xooooooooooooooooooooooooooooooooooooooooooooo*vPPPPPPPPPPPPPPPMoooooooooooooooooooooooooooooooooooox",
"xoooooooooooooooooooooooooooooooooooooooooooooo+sLPPPPPPPPPPPPPMoooooooooooooooooooooooooooooooooooox",
"xooooooooooooooooooooooooooooooooooooooooooooooooqFPPPPPPPPPPPPMoooooooooooooooooooooooooooooooooooox",
"xooooooooooooooooooooooooooooooooooooooooooooooooo>CPPPPPPPPPPPMoooooooooooooooooooooooooooooooooooox",
"xoooooooooooooooooooooooooooooooooooooooooooooooooo$cPPPPPPPPPPMoooooooooooooooooooooooooooooooooooox",
"xoooooooooooooooooooooooooooooooooooooooooooooooooooOaKPPPPPPPPMoooooooooooooooooooooooooooooooooooox",
"xooooooooooooooooooooooooooooooooooooooooooooooooooooo7SPPPPPPPMoooooooooooooooooooooooooooooooooooox",
"xoooooooooooooooooooooooooooooooooooooooooooooooooooooo;BPPPPPPMoooooooooooooooooooooooooooooooooooox",
"xooooooooooooooooooooooooooooooooooooooooooooooooooooooo#jPPPPPMoooooooooooooooooooooooooooooooooooox",
"xoooooooooooooooooooooooooooooooooooooooooooooooooooooooooyJPPPMoooooooooooooooooooooooooooooooooooox",
"xoooooooooooooooooooooooooooooooooooooooooooooooooooooooooo4APPMoooooooooooooooooooooooooooooooooooox",
"xooooooooooooooooooooooooooooooooooooooooooooooooooooooooooo=nPMoooooooooooooooooooooooooooooooooooox",
"xoooooooooooooooooooooooooooooooooooooooooooooooooooooooooooo+dMoooooooooooooooooooooooooooooooooooox",
"xoooooooooooooooooooooooooooooooooooooooooooooooooooooooooooooo2oooooooooooooooooooooooooooooooooooox",
"xooooooooooooooooooooooooooooooooooooooooooooooooooooooooooooooooooooooooooooooooooooooooooooooooooox",
"xooooooooooooooooooooooooooooooooooooooooooooooooooooooooooooooooooooooooooooooooooooooooooooooooooox",
"xooooooooooooooooooooooooooooooooooooooooooooooooooooooooooooooooooooooooooooooooooooooooooooooooooox",
"xooooooooooooooooooooooooooooooooooooooooooooooooooooooooooooooooooooooooooooooooooooooooooooooooooox",
"xooooooooooooooooooooooooooooooooooooooooooooooooooooooooooooooooooooooooooooooooooooooooooooooooooox",
"xooooooooooooooooooooooooooooooooooooooooooooooooooooooooooooooooooooooooooooooooooooooooooooooooooox",
"xooooooooooooooooooooooooooooooooooooooooooooooooooooooooooooooooooooooooooooooooooooooooooooooooooox",
"xooooooooooooooooooooooooooooooooooooooooooooooooooooooooooooooooooooooooooooooooooooooooooooooooooox",
"xooooooooooooooooooooooooooooooooooooooooooooooooooooooooooooooooooooooooooooooooooooooooooooooooooox",
"xooooooooooooooooooooooooooooooooooooooooooooooooooooooooooooooooooooooooooooooooooooooooooooooooooox",
"xooooooooooooooooooooooooooooooooooooooooooooooooooooooooooooooooooooooooooooooooooooooooooooooooooox",
"xooooooooooooooooooooooooooooooooooooooooooooooooooooooooooooooooooooooooooooooooooooooooooooooooooox",
"xooooooooooooooooooooooooooooooooooooooooooooooooooooooooooooooooooooooooooooooooooooooooooooooooooox",
"xooooooooooooooooooooooooooooooooooooooooooooooooooooooooooooooooooooooooooooooooooooooooooooooooooox",
"xooooooooooooooooooooooooooooooooooooooooooooooooooooooooooooooooooooooooooooooooooooooooooooooooooox",
"xooooooooooooooooooooooooooooooooooooooooooooooooooooooooooooooooooooooooooooooooooooooooooooooooooox",
"xooooooooooooooooooooooooooooooooooooooooooooooooooooooooooooooooooooooooooooooooooooooooooooooooooox",
"xooooooooooooooooooooooooooooooooooooooooooooooooooooooooooooooooooooooooooooooooooooooooooooooooooox",
"xooooooooooooooooooooooooooooooooooooooooooooooooooooooooooooooooooooooooooooooooooooooooooooooooooox",
"xooooooooooooooooooooooooooooooooooooooooooooooooooooooooooooooooooooooooooooooooooooooooooooooooooox",
"xooooooooooooooooooooooooooooooooooooooooooooooooooooooooooooooooooooooooooooooooooooooooooooooooooox",
"xooooooooooooooooooooooooooooooooooooooooooooooooooooooooooooooooooooooooooooooooooooooooooooooooooox",
"xooooooooooooooooooooooooooooooooooooooooooooooooooooooooooooooooooooooooooooooooooooooooooooooooooox",
"xooooooooooooooooooooooooooooooooooooooooooooooooooooooooooooooooooooooooooooooooooooooooooooooooooox",
"xooooooooooooooooooooooooooooooooooooooooooooooooooooooooooooooooooooooooooooooooooooooooooooooooooox",
"xoooooooooooooooooooooooooooooooooooooooooooooooooooooooooooooooooooooooooooooooooooooooooooooooooooz",
"g%ooooooooooooooooooooooooooooooooooooooooooooooooooooooooooooooooooooooooooooooooooooooooooooooooo&g",
"8iooooooooooooooooooooooooooooooooooooooooooooooooooooooooooooooooooooooooooooooooooooooooooooooooop8",
".g5ooooooooooooooooooooooooooooooooooooooooooooooooooooooooooooooooooooooooooooooooooooooooooooooo5f.",
" Xgi&ooooooooooooooooooooooooooooooooooooooooooooooooooooooooooooooooooooooooooooooooooooooooooo&pfX ",
"  .8gxlkkkkkkkkkkkkkkkkkkkkkkkkkkkkkkkkkkkkkkkkkkkkkkkkkkkkkkkkkkkkkkkkkkkkkkkkkkkkkkkkkkkkkkklxg8.  "
};
