/* XPM */
static char *left_2[] = {
/* columns rows colors chars-per-pixel */
"101 101 81 1 ",
"  c #1B2D3B",
". c #1B2E3B",
"X c #1C2E3A",
"o c #1D2E3A",
"O c #1C2E3B",
"+ c #1C2F3B",
"@ c #1F3339",
"# c #1D303A",
"$ c #1D313A",
"% c #1C303B",
"& c #1E313A",
"* c #1F333A",
"= c #1F3439",
"- c #253A37",
"; c #243B37",
": c #243C37",
"> c #253C37",
", c #263D37",
"< c #263E36",
"1 c #273F36",
"2 c #263E37",
"3 c #213538",
"4 c #203539",
"5 c #213639",
"6 c #223738",
"7 c #223739",
"8 c #223838",
"9 c #233A38",
"0 c #37572F",
"q c #3B5E2D",
"w c #294135",
"e c #294335",
"r c #2A4335",
"t c #294136",
"y c #2C4534",
"u c #2C4634",
"i c #2D4833",
"p c #2E4933",
"a c #2E4A32",
"s c #2F4A33",
"d c #2F4B33",
"f c #2F4C33",
"g c #2D4834",
"h c #314D32",
"j c #324F32",
"k c #325031",
"l c #355330",
"z c #345331",
"x c #345430",
"c c #365630",
"v c #375630",
"b c #3E612C",
"n c #3E612D",
"m c #3E622D",
"M c #41652C",
"N c #43682A",
"B c #456B2A",
"V c #466E29",
"C c #466F29",
"Z c #456C2A",
"A c #4A7427",
"S c #4B7627",
"D c #4F7B25",
"F c #4D7826",
"G c #4D7926",
"H c #4E7926",
"J c #4E7927",
"K c #4E7A26",
"L c #487028",
"P c #4B7528",
"I c #507B25",
"U c #507D25",
"Y c #517D25",
"T c #517E24",
"R c #507E25",
"E c #538223",
"W c #548223",
"Q c #528024",
"! c #538024",
"~ c #528025",
"^ c #5C8E20",
/* pixels */
"  OxHUDKKKKKKKKKKKKKKKKKKKKKKKKKKKKKKKKKKKKKKKKKKKKKKKKKKKKKKKKKKKKKKKKKKKKKKKKKKKKKKKKKKKKKKKDUGzO  ",
" =Hn=                                                                                           =nH= ",
"OHi                                                                                               pJO",
"xn                                                                                                 mz",
"G=                                                                                                 4H",
"U                                                                                                   U",
"U                                                                                                   U",
"U                                                                                                   U",
"U                                                                                                   U",
"U                                                                                                   U",
"U                                                                                                   U",
"U                                                                                                   U",
"U                                                                                                   U",
"U                                                                                                   U",
"U                                                                                                   U",
"U                                                                                                   U",
"U                                                                                                   U",
"U                                                                                                   U",
"U                                                                                                   U",
"U                                                                                                   U",
"U                                                                                                   U",
"U                                                                                                   U",
"U                                                                                                   U",
"U                                                                                                   U",
"U                                                                                                   U",
"U                                                                                                   U",
"U                                                                                                   U",
"U                                                                                                   U",
"U                                                                                                   U",
"U                                                                                                   U",
"U                                                              :&                                   U",
"U                                                             f^3                                   U",
"U                                                           .qSB3                                   U",
"U                                                          *AbOM3                                   U",
"U                                                         2Rs  M3                                   U",
"U                                                        hU-   M3                                   U",
"U                                                      XML&    M3                                   U",
"U                                                     3Jq      M3                                   U",
"U                                                    w!g       M3                                   U",
"U                                                   lK8        M3                                   U",
"U                                                 #NZ%         M3                                   U",
"U                                                8Ic           M3                                   U",
"U                                               u!e            M3                                   U",
"U                                              0H5             M3                                   U",
"U                                            $CMX              M3                                   U",
"U                                           >Tj                M3                                   U",
"U                                          f~<                 M3                                   U",
"U                                        .qP*                  M3                                   U",
"U                                       *AbO                   M3                                   U",
"U                                      2Ys                     M3                                   U",
"U                                     +Ec                      M3                                   U",
"U                                      *AMO                    M3                                   U",
"U                                       .qS@                   M3                                   U",
"U                                         d~1                  M3                                   U",
"U                                          9Ik                 M3                                   U",
"U                                           $VNo               M3                                   U",
"U                                             0H7              M3                                   U",
"U                                              y!r             M3                                   U",
"U                                               6Dv            M3                                   U",
"U                                                oMZ%          M3                                   U",
"U                                                  zU9         M3                                   U",
"U                                                   tQg        M3                                   U",
"U                                                    4Fq       M3                                   U",
"U                                                     XbL&     M3                                   U",
"U                                                       hU;    M3                                   U",
"U                                                        ,Ra   M3                                   U",
"U                                                         *AMO M3                                   U",
"U                                                          .qS@M3                                   U",
"U                                                            aTP3                                   U",
"U                                                             ;W3                                   U",
"U                                                              &%                                   U",
"U                                                                                                   U",
"U                                                                                                   U",
"U                                                                                                   U",
"U                                                                                                   U",
"U                                                                                                   U",
"U                                                                                                   U",
"U                                                                                                   U",
"U                                                                                                   U",
"U                                                                                                   U",
"U                                                                                                   U",
"U                                                                                                   U",
"U                                                                                                   U",
"U                                                                                                   U",
"U                                                                                                   U",
"U                                                                                                   U",
"U                                                                                                   U",
"U                                                                                                   U",
"U                                                                                                   U",
"U                                                                                                   U",
"U                                                                                                   U",
"U                                                                                                   U",
"U                                                                                                   U",
"U                                                                                                   U",
"U                                                                                                   U",
"U                                                                                                   U",
"H=                                                                                                 4J",
"zn                                                                                                 bz",
"OHp                                                                                               pFO",
" =Jm4                                                                                           4bF= ",
"  OzHUDKKKKKKKKKKKKKKKKKKKKKKKKKKKKKKKKKKKKKKKKKKKKKKKKKKKKKKKKKKKKKKKKKKKKKKKKKKKKKKKKKKKKKKKDUHzO  "
};
