/* XPM */
static char *reload_2[] = {
/* columns rows colors chars-per-pixel */
"58 58 96 2 ",
"   c #383F49",
".  c #393F49",
"X  c #3A3F49",
"o  c #3B3F49",
"O  c #3C3F49",
"+  c #3D3F4A",
"@  c #403F49",
"#  c #453F4A",
"$  c #4A3F49",
"%  c #493F4A",
"&  c #503F4A",
"*  c #523F4A",
"=  c #563F4A",
"-  c #3A4049",
";  c #46404A",
":  c #47404A",
">  c #4F404A",
",  c #50404A",
"<  c #52404A",
"1  c #54404A",
"2  c #56404A",
"3  c #59404B",
"4  c #5C404B",
"5  c #63404B",
"6  c #67404B",
"7  c #66414B",
"8  c #68404B",
"9  c #69404B",
"0  c #68414B",
"q  c #6B414B",
"w  c #6C404B",
"e  c #6E414B",
"r  c #76414C",
"t  c #78414B",
"y  c #79414C",
"u  c #7A414C",
"i  c #7B414C",
"p  c #7D414C",
"a  c #7E414C",
"s  c #6C7178",
"d  c #6C7179",
"f  c #6D727A",
"g  c #6E737A",
"h  c #72777E",
"j  c #73777F",
"k  c #73787F",
"l  c #88414C",
"z  c #8B414D",
"x  c #8C424D",
"c  c #90414C",
"v  c #93414C",
"b  c #95414D",
"n  c #97424C",
"m  c #98414D",
"M  c #9A414D",
"N  c #9B424C",
"B  c #9D414D",
"V  c #9C424D",
"C  c #9D424D",
"Z  c #9E424D",
"A  c #9F424D",
"S  c #A0424D",
"D  c #A5424D",
"F  c #A7424E",
"G  c #AA424D",
"H  c #AD434E",
"J  c #B3434D",
"K  c #B3434E",
"L  c #B4424E",
"P  c #B5434E",
"I  c #B6434E",
"U  c #BE434E",
"Y  c #BF434E",
"T  c #BF434F",
"R  c #C0434E",
"E  c #C3434E",
"W  c #C3434F",
"Q  c #C4434F",
"!  c #C8434F",
"~  c #C9434F",
"^  c #CB434F",
"/  c #D5434F",
"(  c #DC4350",
")  c #DD4450",
"_  c #DE4450",
"`  c #E04350",
"'  c #E34350",
"]  c #E54450",
"[  c #E64450",
"{  c #E74450",
"}  c #747980",
"|  c #8F9398",
" . c #8F9399",
".. c #92969B",
"X. c #93969C",
"o. c #95999E",
/* pixels */
"  g ....o.o.o.o.o.o.o.o.o.o.o.o.o.o.o.o.o.o.o.o.o.o.o.o.o.o.o.o.o.o.o.o.o.o.o.o.o.o.o.o.o.o.o.o.o.o.o.o.o.o.X.X.f   ",
"g h                                                                                                             k d ",
"X.                                                                                                                X.",
"|                                                                                                                  .",
" .                                                                                                                 .",
" .                                                                                                                 .",
" .                                                                                                                 .",
" .                                                                                                                 .",
" .                                                                            @                                    .",
" .                                                                          v ! ;                                  .",
" .                                                                          p [ ^ %                                .",
" .                                                                            p [ ^ %                              .",
" .                                                                              p [ ^ %                            .",
" .                                                                                a [ ^ %                          .",
" .                                                                                  a [ ^ %                        .",
" .                                # 9 u a a a a a a a a a a a a a a a a a a a a a a a T { ! ;                      .",
" .                            4 I ] { { { { { { { { { { { { { { { { { { { { { { { { { { { { M                      .",
" .                        . x [ ' G y 0 6 6 6 6 6 6 6 6 6 6 6 6 6 6 6 6 6 6 6 6 6 6 8 E { L O                      .",
" .                        c { R ,                                                 . B { L O                        .",
" .                      5 [ U +                                                 . B { L O                          .",
" .                      R ` $                                                 . B { L O                            .",
" .                    , { Z                                                 . B { L O                              .",
" .                    t { q                                                 N { L O                                .",
" .                    z { =                                                 t K O                                  .",
" .                    c { &                                                                                        .",
" .                    c { &                                                                                        .",
" .                    c { &                                                                                        .",
" .                    c { &                                                                                        .",
" .                    z ( >                                                                                        .",
" .                                                                                      > Q i                      .",
" .                                                                                      1 { x                      .",
" .                                                                                      1 { x                      .",
" .                                                                                      1 { x                      .",
" .                                                                                      1 { x                      .",
" .                                - A 5                                                 3 { l                      .",
" .                              - D { F                                                 w { r                      .",
" .                            - D { H o                                                 V { &                      .",
" .                          - D { H o                                                 : _ W                        .",
" .                        - D { H o                                                 X P { 8                        .",
" .                      - D { H o                                                 # J { M                          .",
" .                    - D { Y < , , , , , , , , , , , , , , , , , , , , , , < 7 n ) { C X                          .",
" .                    m { { { { { { { { { { { { { { { { { { { { { { { { { { { { { ~ w                              .",
" .                    * / { R b b b b b b b b b b b b b b b b b b b b b b b c a 2                                  .",
" .                      < / ' e                                                                                    .",
" .                        < / ' e                                                                                  .",
" .                          < / ' e                                                                                .",
" .                            < / ' e                                                                              .",
" .                              < / ' e                                                                            .",
" .                                * / S                                                                            .",
" .                                  $ -                                                                            .",
" .                                                                                                                 .",
" .                                                                                                                 .",
" .                                                                                                                 .",
" .                                                                                                                 .",
"|                                                                                                                 | ",
"X.                                                                                                                X.",
"d j                                                                                                             } s ",
"  d X...o.o.o.o.o.o.o.o.o.o.o.o.o.o.o.o.o.o.o.o.o.o.o.o.o.o.o.o.o.o.o.o.o.o.o.o.o.o.o.o.o.o.o.o.o.o.o.o.o.o...X.s   "
};
