/* XPM */
static char *reload_1[] = {
/* columns rows colors chars-per-pixel */
"58 58 95 2 ",
"   c #383F49",
".  c #39404A",
"X  c #3A414A",
"o  c #3A414B",
"O  c #3B424C",
"+  c #3D444E",
"@  c #3E454F",
"#  c #414751",
"$  c #474D57",
"%  c #484F58",
"&  c #495059",
"*  c #4B515A",
"=  c #4D535C",
"-  c #525861",
";  c #535961",
":  c #535962",
">  c #555B63",
",  c #565C64",
"<  c #565C65",
"1  c #585E66",
"2  c #5A5F68",
"3  c #5A6068",
"4  c #5D626B",
"5  c #61676F",
"6  c #696E76",
"7  c #6C7178",
"8  c #6C7179",
"9  c #6D727A",
"0  c #6E737A",
"q  c #6F747B",
"w  c #6F747C",
"e  c #70757C",
"r  c #72777E",
"t  c #73777F",
"y  c #73787F",
"u  c #747980",
"i  c #757A81",
"p  c #7F848A",
"a  c #81858B",
"s  c #81868C",
"d  c #82878D",
"f  c #83878E",
"g  c #84898F",
"h  c #878B91",
"j  c #888C92",
"k  c #8F9398",
"l  c #8F9399",
"z  c #92969B",
"x  c #93969C",
"c  c #95999E",
"v  c #96999F",
"b  c #989CA1",
"n  c #9C9FA4",
"m  c #9FA2A7",
"M  c #A2A5AA",
"N  c #A4A7AB",
"B  c #A5A8AD",
"V  c #A8ABB0",
"C  c #A9ACB0",
"Z  c #AAADB1",
"A  c #ABAEB2",
"S  c #ABAEB3",
"D  c #ACAFB3",
"F  c #ADB0B4",
"G  c #AEB1B5",
"H  c #B4B7BA",
"J  c #B6B8BC",
"K  c #BABCBF",
"L  c #BDC0C3",
"P  c #C4C6C9",
"I  c #C4C7C9",
"U  c #C5C7CA",
"Y  c #C6C8CB",
"T  c #C7C9CC",
"R  c #D0D2D4",
"E  c #D1D3D5",
"W  c #D2D3D6",
"Q  c #D3D4D6",
"!  c #D3D5D7",
"~  c #D6D7D9",
"^  c #D6D8DA",
"/  c #D7D9DB",
"(  c #DCDDDF",
")  c #DDDEE0",
"_  c #DFE0E2",
"`  c #EBEBEC",
"'  c #EBECED",
"]  c #F2F2F3",
"[  c #F3F3F4",
"{  c #F5F5F6",
"}  c #F7F7F8",
"|  c #FAFAFB",
" . c #FDFDFD",
".. c #FEFEFE",
"X. c white",
/* pixels */
"  0 z z c c c c c c c c c c c c c c c c c c c c c c c c c c c c c c c c c c c c c c c c c c c c c c c c c c x x 9   ",
"0 r                                                                                                             y 8 ",
"x                                                                                                                 x ",
"k                                                                                                                 l ",
"l                                                                                                                 l ",
"l                                                                                                                 l ",
"l                                                                                                                 l ",
"l                                                                                                                 l ",
"l                                                                             #                                   l ",
"l                                                                           m ( %                                 l ",
"l                                                                           h .._ *                               l ",
"l                                                                             h .._ *                             l ",
"l                                                                               h .._ *                           l ",
"l                                                                                 j .._ *                         l ",
"l                                                                                   j .._ *                       l ",
"l                                 $ e f j j j j j j j j j j j j j j j j j j j j j j j W X.( %                     l ",
"l                             5 T  .X.X.X.X.X.X.X.X.X.X.X.X.X.X.X.X.X.X.X.X.X.X.X.X.X.X.X.X.V                     l ",
"l                         . b ..| K d q 9 9 9 9 9 9 9 9 9 9 9 9 9 9 9 9 9 9 9 9 9 9 0 ~ X.U +                     l ",
"l                         n X.Q ;                                                 . S X.U +                       l ",
"l                       6 ..R @                                                 . S X.U +                         l ",
"l                       Q } =                                                 . S X.U +                           l ",
"l                     ; X.D                                                 . S X.U +                             l ",
"l                     s X.r                                                 C X.U +                               l ",
"l                     v X.2                                                 a P +                                 l ",
"l                     n X.:                                                                                       l ",
"l                     n X.:                                                                                       l ",
"l                     n X.:                                                                                       l ",
"l                     n X.:                                                                                       l ",
"l                     v ] -                                                                                       l ",
"l                                                                                       - / g                     l ",
"l                                                                                       1 X.b                     l ",
"l                                                                                       1 X.b                     l ",
"l                                                                                       1 X.b                     l ",
"l                                                                                       1 X.b                     l ",
"l                                 X F 6                                                 4 X.x                     l ",
"l                               X H X.J                                                 y X.p                     l ",
"l                             X H X.L O                                                 Z X.:                     l ",
"l                           X H X.L O                                                 & { ^                       l ",
"l                         X H X.L O                                                 o Y X.w                       l ",
"l                       X H X.L O                                                 $ I X.V                         l ",
"l                     X H X.E , ; ; ; ; ; ; ; ; ; ; ; ; ; ; ; ; ; ; ; ; ; ; > 7 N [ X.A o                         l ",
"l                     B X.X.X.X.X.X.X.X.X.X.X.X.X.X.X.X.X.X.X.X.X.X.X.X.X.X.X.X.X.) y                             l ",
"l                     < ' X.! M M M M M M M M M M M M M M M M M M M M M M M n j 3                                 l ",
"l                       , ` | i                                                                                   l ",
"l                         , ` | i                                                                                 l ",
"l                           , ` | i                                                                               l ",
"l                             , ` | i                                                                             l ",
"l                               , ` | i                                                                           l ",
"l                                 < ' G                                                                           l ",
"l                                   = X                                                                           l ",
"l                                                                                                                 l ",
"l                                                                                                                 l ",
"l                                                                                                                 l ",
"l                                                                                                                 l ",
"k                                                                                                                 k ",
"x                                                                                                                 x ",
"8 t                                                                                                             u 7 ",
"  8 x z c c c c c c c c c c c c c c c c c c c c c c c c c c c c c c c c c c c c c c c c c c c c c c c c c c z x 7   "
};
