/* XPM */
static char *reload_0[] = {
/* columns rows colors chars-per-pixel */
"58 58 82 1 ",
"  c #383F49",
". c #39404A",
"X c #3A414A",
"o c #3B424C",
"O c #3C434D",
"+ c #3D444D",
"@ c #414751",
"# c #414852",
"$ c #434A53",
"% c #444A54",
"& c #474D57",
"* c #484E57",
"= c #484F58",
"- c #495059",
"; c #4A5059",
": c #4B515A",
"> c #4C525B",
", c #4D535C",
"< c #4F565E",
"1 c #51565E",
"2 c #52575E",
"3 c #52575F",
"4 c #545960",
"5 c #555961",
"6 c #555A61",
"7 c #545A63",
"8 c #555B63",
"9 c #565C64",
"0 c #565C65",
"q c #575D66",
"w c #585E66",
"e c #595F67",
"r c #5A5F68",
"t c #5A6068",
"y c #60656D",
"u c #62666C",
"i c #63676C",
"p c #61676F",
"a c #64686D",
"s c #65686E",
"d c #65696E",
"f c #626870",
"g c #636870",
"h c #646A72",
"j c #656B72",
"k c #6C7178",
"l c #6D727A",
"z c #6E737A",
"x c #70757C",
"c c #73777F",
"v c #747980",
"b c #757A81",
"n c #767A81",
"m c #777C83",
"M c #787D84",
"N c #797D84",
"B c #7A7E85",
"V c #7A7F86",
"C c #7E8389",
"Z c #7F848A",
"A c #81868C",
"S c #84888E",
"D c #878B91",
"F c #888C92",
"G c #888D93",
"H c #8E9298",
"J c #8F9398",
"K c #8F9399",
"L c #91959A",
"P c #92969B",
"I c #95999E",
"U c #969A9F",
"Y c #9DA0A5",
"T c #9DA1A6",
"R c #A1A4A9",
"E c #A1A5A9",
"W c #A3A6AB",
"Q c #A4A7AB",
"! c #A6A9AE",
"~ c #A7AAAE",
"^ c #A8ABAF",
"/ c #A8ABB0",
/* pixels */
" 2aaddddddddddddddddddddddddddddddddddddddddddddddddddss3 ",
"24                                                      61",
"s                                                        s",
"i                                                        u",
"u                                                        u",
"u                                                        u",
"u                                                        u",
"u                                                        u",
"u                                      +                 u",
"u                                     cI#                u",
"u                                     h^U$               u",
"u                                      h^U$              u",
"u                                       h^U$             u",
"u                                        j^U$            u",
"u                                         j^U$           u",
"u                @wfjjjjjjjjjjjjjjjjjjjjjjjJ/I#          u",
"u              <G~////////////////////////////m          u",
"u            .z^!Afq99999999999999999999990L/Fo          u",
"u            x/K&                        .B/Fo           u",
"u           7^HO                        .B/Fo            u",
"u           KQ%                        .B/Fo             u",
"u          &/B                        .B/Fo              u",
"u          p/e                        M/Fo               u",
"u          l/:                        pDo                u",
"u          x/*                                           u",
"u          x/*                                           u",
"u          x/*                                           u",
"u          x/*                                           u",
"u          lR&                                           u",
"u                                           &Pg          u",
"u                                           ;/z          u",
"u                                           ;/z          u",
"u                                           ;/z          u",
"u                                           ;/z          u",
"u                .V7                        ,/k          u",
"u               .C/Z                        r/y          u",
"u              .C/SX                        M/*          u",
"u             .C/SX                        #WP           u",
"u            .C/SX                        XG/q           u",
"u           .C/SX                        @F/m            u",
"u          .C/J=&&&&&&&&&&&&&&&&&&&&&&=8bE/NX            u",
"u          n/////////////////////////////Ir              u",
"u          -T/Kvvvvvvvvvvvvvvvvvvvvvvvxj>                u",
"u           =Y!t                                         u",
"u            =Y!t                                        u",
"u             =Y!t                                       u",
"u              =Y!t                                      u",
"u               =Y!t                                     u",
"u                -TV                                     u",
"u                 %.                                     u",
"u                                                        u",
"u                                                        u",
"u                                                        u",
"u                                                        u",
"i                                                        i",
"s                                                        s",
"15                                                      62",
" 1saddddddddddddddddddddddddddddddddddddddddddddddddddas2 "
};
