/* XPM */
static char *right_1[] = {
/* columns rows colors chars-per-pixel */
"101 101 63 1 ",
"  c #383F49",
". c #3A414A",
"X c #3B424C",
"o c #3C434D",
"O c #3D444D",
"+ c #404750",
"@ c #444A54",
"# c #454C55",
"$ c #464D56",
"% c #495059",
"& c #4C525B",
"* c #4F555E",
"= c #4F565E",
"- c #525861",
"; c #595F67",
": c #61666E",
"> c #61676F",
", c #656B72",
"< c #686E75",
"1 c #696E76",
"2 c #6C7179",
"3 c #6D727A",
"4 c #73787F",
"5 c #787D84",
"6 c #7F848A",
"7 c #80848B",
"8 c #81858B",
"9 c #81868C",
"0 c #82878D",
"q c #83878E",
"w c #91959A",
"e c #9A9DA2",
"r c #9A9EA3",
"t c #9B9FA4",
"y c #9C9FA4",
"u c #9EA2A6",
"i c #A4A8AC",
"p c #ABAEB2",
"a c #B4B7BA",
"s c #BEC1C4",
"d c #C6C8CB",
"f c #C7C9CC",
"g c #C8CACC",
"h c #C8CACD",
"j c #CACCCE",
"k c #CBCDCF",
"l c #CBCDD0",
"z c #CFD0D3",
"x c #CFD1D3",
"c c #D0D2D4",
"v c #D1D3D5",
"b c #D4D6D8",
"n c #DBDCDE",
"m c #E2E3E5",
"M c #E8E8EA",
"N c #EAEBEC",
"B c #EDEEEF",
"V c #EEEEEF",
"C c #F2F2F3",
"Z c #F3F4F4",
"A c #F4F4F5",
"S c #F6F7F7",
"D c #F7F7F8",
/* pixels */
"  .8gxljjjjjjjjjjjjjjjjjjjjjjjjjjjjjjjjjjjjjjjjjjjjjjjjjjjjjjjjjjjjjjjjjjjjjjjjjjjjjjjjjjjjjjjlxh7.  ",
" #ge#                                                                                           #rg# ",
".g2                                                                                               3f.",
"8e                                                                                                 t6",
"h#                                                                                                 $g",
"z                                                                                                   x",
"z                                                                                                   z",
"z                                                                                                   z",
"z                                                                                                   z",
"z                                                                                                   z",
"z                                                                                                   z",
"z                                                                                                   z",
"z                                                                                                   z",
"z                                                                                                   z",
"z                                                                                                   z",
"z                                                                                                   z",
"z                                                                                                   z",
"z                                                                                                   z",
"z                                                                                                   z",
"z                                                                                                   z",
"z                                                                                                   z",
"z                                                                                                   z",
"z                                                                                                   z",
"z                                                                                                   z",
"z                                                                                                   z",
"z                                                                                                   z",
"z                                                                                                   z",
"z                                                                                                   z",
"z                                                                                                   z",
"z                                                                                                   z",
"z                                                                                                   z",
"z                                    >                                                              z",
"z                                    lpO                                                            z",
"z                                    lDk&                                                           z",
"z                                    lDDM<                                                          z",
"z                                    lDDDAw                                                         z",
"z                                    lDDDDDa+                                                       z",
"z                                    lDDDDDDb-                                                      z",
"z                                    lDDDDDDDN3                                                     z",
"z                                    lDDDDDDDDSu.                                                   z",
"z                                    lDDDDDDDDDDs@                                                  z",
"z                                    lDDDDDDDDDDDn;                                                 z",
"z                                    lDDDDDDDDDDDDV5                                                z",
"z                                    lDDDDDDDDDDDDDSiX                                              z",
"z                                    lDDDDDDDDDDDDDDDg%                                             z",
"z                                    lDDDDDDDDDDDDDDDDm:                                            z",
"z                                    lDDDDDDDDDDDDDDDDDC0                                           z",
"z                                    lDDDDDDDDDDDDDDDDDDDpO                                         z",
"z                                    lDDDDDDDDDDDDDDDDDDDDc*                                        z",
"z                                    lDDDDDDDDDDDDDDDDDDDDDM1                                       z",
"z                                    lDDDDDDDDDDDDDDDDDDDDDDZ,                                      z",
"z                                    lDDDDDDDDDDDDDDDDDDDDDAw                                       z",
"z                                    lDDDDDDDDDDDDDDDDDDDDM1                                        z",
"z                                    lDDDDDDDDDDDDDDDDDDDv=                                         z",
"z                                    lDDDDDDDDDDDDDDDDDDpO                                          z",
"z                                    lDDDDDDDDDDDDDDDDCq                                            z",
"z                                    lDDDDDDDDDDDDDDDm>                                             z",
"z                                    lDDDDDDDDDDDDDDg%                                              z",
"z                                    lDDDDDDDDDDDDSio                                               z",
"z                                    lDDDDDDDDDDDV5                                                 z",
"z                                    lDDDDDDDDDDn;                                                  z",
"z                                    lDDDDDDDDDs@                                                   z",
"z                                    lDDDDDDDSu.                                                    z",
"z                                    lDDDDDDB4                                                      z",
"z                                    lDDDDDb-                                                       z",
"z                                    lDDDDa+                                                        z",
"z                                    lDDAw                                                          z",
"z                                    lDM1                                                           z",
"z                                    lc*                                                            z",
"z                                    9O                                                             z",
"z                                                                                                   z",
"z                                                                                                   z",
"z                                                                                                   z",
"z                                                                                                   z",
"z                                                                                                   z",
"z                                                                                                   z",
"z                                                                                                   z",
"z                                                                                                   z",
"z                                                                                                   z",
"z                                                                                                   z",
"z                                                                                                   z",
"z                                                                                                   z",
"z                                                                                                   z",
"z                                                                                                   z",
"z                                                                                                   z",
"z                                                                                                   z",
"z                                                                                                   z",
"z                                                                                                   z",
"z                                                                                                   z",
"z                                                                                                   z",
"z                                                                                                   z",
"z                                                                                                   z",
"z                                                                                                   z",
"z                                                                                                   z",
"z                                                                                                   z",
"z                                                                                                   x",
"g#                                                                                                 $f",
"7r                                                                                                 y6",
".g3                                                                                               3d.",
" #ft$                                                                                           $yd# ",
"  .6gzljjjjjjjjjjjjjjjjjjjjjjjjjjjjjjjjjjjjjjjjjjjjjjjjjjjjjjjjjjjjjjjjjjjjjjjjjjjjjjjjjjjjjjjlzg6.  "
};
