/* XPM */
static char *right_0[] = {
/* columns rows colors chars-per-pixel */
"101 101 60 1 ",
"  c #383F49",
". c #394049",
"X c #39404A",
"o c #3A414A",
"O c #3A414B",
"+ c #3D444D",
"@ c #3E454E",
"# c #3F464F",
"$ c #424952",
"% c #444A54",
"& c #454C55",
"* c #464D56",
"= c #474D57",
"- c #4C525B",
"; c #4F565E",
": c #51565E",
"> c #50565F",
", c #52575F",
"< c #535961",
"1 c #555B63",
"2 c #575D66",
"3 c #5B5F66",
"4 c #5B6066",
"5 c #5C6066",
"6 c #5B6169",
"7 c #5D636B",
"8 c #636870",
"9 c #646971",
"0 c #686B70",
"q c #686C71",
"w c #696C71",
"e c #6C7179",
"r c #747980",
"t c #7D7F82",
"y c #787D84",
"u c #7E8082",
"i c #7E8083",
"p c #7F8183",
"a c #7B8086",
"s c #7F8184",
"d c #818385",
"f c #828386",
"g c #81858B",
"h c #81868C",
"j c #878B91",
"k c #8C9096",
"l c #8F9398",
"z c #92969B",
"x c #93979D",
"c c #989CA1",
"v c #9C9FA4",
"b c #9FA2A7",
"n c #A1A4A9",
"m c #A2A5AA",
"M c #A3A6AB",
"N c #A5A8AD",
"B c #A6A9AE",
"V c #A7AAAE",
"C c #A8ABAF",
"Z c #A8ABB0",
/* pixels */
"  .5udspppppppppppppppppppppppppppppppppppppppppppppppppppppppppppppppppppppppppppppppppppppppsdi3.  ",
" @u0@                                                                                           @qu@ ",
".u:                                                                                               ,i.",
"50                                                                                                 q4",
"i@                                                                                                 #u",
"f                                                                                                   d",
"f                                                                                                   f",
"f                                                                                                   f",
"f                                                                                                   f",
"f                                                                                                   f",
"f                                                                                                   f",
"f                                                                                                   f",
"f                                                                                                   f",
"f                                                                                                   f",
"f                                                                                                   f",
"f                                                                                                   f",
"f                                                                                                   f",
"f                                                                                                   f",
"f                                                                                                   f",
"f                                                                                                   f",
"f                                                                                                   f",
"f                                                                                                   f",
"f                                                                                                   f",
"f                                                                                                   f",
"f                                                                                                   f",
"f                                                                                                   f",
"f                                                                                                   f",
"f                                                                                                   f",
"f                                                                                                   f",
"f                                                                                                   f",
"f                                                                                                   f",
"f                                    >                                                              f",
"f                                    laO                                                            f",
"f                                    lZl%                                                           f",
"f                                    lZZb1                                                          f",
"f                                    lZZZVe                                                         f",
"f                                    lZZZZZg+                                                       f",
"f                                    lZZZZZZx=                                                      f",
"f                                    lZZZZZZZn2                                                     f",
"f                                    lZZZZZZZZCrX                                                   f",
"f                                    lZZZZZZZZZZj#                                                  f",
"f                                    lZZZZZZZZZZZc-                                                 f",
"f                                    lZZZZZZZZZZZZM7                                                f",
"f                                    lZZZZZZZZZZZZZCyo                                              f",
"f                                    lZZZZZZZZZZZZZZZk$                                             f",
"f                                    lZZZZZZZZZZZZZZZZv;                                            f",
"f                                    lZZZZZZZZZZZZZZZZZN9                                           f",
"f                                    lZZZZZZZZZZZZZZZZZZZaO                                         f",
"f                                    lZZZZZZZZZZZZZZZZZZZZz&                                        f",
"f                                    lZZZZZZZZZZZZZZZZZZZZZb1                                       f",
"f                                    lZZZZZZZZZZZZZZZZZZZZZZB<                                      f",
"f                                    lZZZZZZZZZZZZZZZZZZZZZVe                                       f",
"f                                    lZZZZZZZZZZZZZZZZZZZZb1                                        f",
"f                                    lZZZZZZZZZZZZZZZZZZZz*                                         f",
"f                                    lZZZZZZZZZZZZZZZZZZaO                                          f",
"f                                    lZZZZZZZZZZZZZZZZN9                                            f",
"f                                    lZZZZZZZZZZZZZZZv>                                             f",
"f                                    lZZZZZZZZZZZZZZk$                                              f",
"f                                    lZZZZZZZZZZZZCyO                                               f",
"f                                    lZZZZZZZZZZZM7                                                 f",
"f                                    lZZZZZZZZZZc-                                                  f",
"f                                    lZZZZZZZZZj#                                                   f",
"f                                    lZZZZZZZCrX                                                    f",
"f                                    lZZZZZZm6                                                      f",
"f                                    lZZZZZx=                                                       f",
"f                                    lZZZZh+                                                        f",
"f                                    lZZVe                                                          f",
"f                                    lZb1                                                           f",
"f                                    lz&                                                            f",
"f                                    8O                                                             f",
"f                                                                                                   f",
"f                                                                                                   f",
"f                                                                                                   f",
"f                                                                                                   f",
"f                                                                                                   f",
"f                                                                                                   f",
"f                                                                                                   f",
"f                                                                                                   f",
"f                                                                                                   f",
"f                                                                                                   f",
"f                                                                                                   f",
"f                                                                                                   f",
"f                                                                                                   f",
"f                                                                                                   f",
"f                                                                                                   f",
"f                                                                                                   f",
"f                                                                                                   f",
"f                                                                                                   f",
"f                                                                                                   f",
"f                                                                                                   f",
"f                                                                                                   f",
"f                                                                                                   f",
"f                                                                                                   f",
"f                                                                                                   f",
"f                                                                                                   f",
"f                                                                                                   d",
"u@                                                                                                 #i",
"3q                                                                                                 w4",
".u,                                                                                               ,t.",
" @iq#                                                                                           #wt@ ",
"  .4ufspppppppppppppppppppppppppppppppppppppppppppppppppppppppppppppppppppppppppppppppppppppppsfu4.  "
};
