/* XPM */
static char *rotate_2[] = {
/* columns rows colors chars-per-pixel */
"135 43 185 2 ",
"   c #383F49",
".  c #39404A",
"X  c #3A414B",
"o  c #3B424C",
"O  c #3C434D",
"+  c #3D444D",
"@  c #3F464F",
"#  c #404750",
"$  c #414751",
"%  c #414852",
"&  c #434A53",
"*  c #444B54",
"=  c #454C55",
"-  c #464D56",
";  c #484E57",
":  c #484F58",
">  c #495059",
",  c #4A5059",
"<  c #4B515A",
"1  c #4C525B",
"2  c #4C535C",
"3  c #4D535C",
"4  c #4E545D",
"5  c #4F555E",
"6  c #4F565E",
"7  c #515760",
"8  c #525861",
"9  c #535961",
"0  c #555B63",
"q  c #565C64",
"w  c #565C65",
"e  c #575D66",
"r  c #585E66",
"t  c #595F67",
"y  c #5A5F68",
"u  c #5A6068",
"i  c #5B6169",
"p  c #5C626A",
"a  c #5D626B",
"s  c #5D636B",
"d  c #5E646C",
"f  c #60656D",
"g  c #61666E",
"h  c #61676F",
"j  c #636870",
"k  c #646A72",
"l  c #656B72",
"z  c #676C74",
"x  c #686D75",
"c  c #686E75",
"v  c #696E76",
"b  c #6A6F77",
"n  c #6B7077",
"m  c #6C7179",
"M  c #6E737A",
"N  c #6F747B",
"B  c #6F747C",
"V  c #70757C",
"C  c #71767D",
"Z  c #72777E",
"A  c #757A81",
"S  c #767A81",
"D  c #777C83",
"F  c #7A7E85",
"G  c #7A7F86",
"H  c #7B8086",
"J  c #7C8187",
"K  c #7D8188",
"L  c #7F848A",
"P  c #80848B",
"I  c #81858B",
"U  c #81868C",
"Y  c #82878D",
"T  c #83878E",
"R  c #84888E",
"E  c #84898F",
"W  c #878B91",
"Q  c #888C92",
"!  c #888D93",
"~  c #898D93",
"^  c #8A8E94",
"/  c #8D9197",
"(  c #8F9398",
")  c #90949A",
"_  c #93969C",
"`  c #93979D",
"'  c #94989D",
"]  c #999CA1",
"[  c #9A9DA2",
"{  c #9A9EA3",
"}  c #9B9FA4",
"|  c #9C9FA4",
" . c #9DA0A5",
".. c #9DA1A6",
"X. c #9FA2A7",
"o. c #A0A3A8",
"O. c #A1A4A9",
"+. c #A2A5AA",
"@. c #A3A6AB",
"#. c #A4A7AB",
"$. c #A6A9AE",
"%. c #A7AAAE",
"&. c #A8ABAF",
"*. c #A9ACB0",
"=. c #AAADB1",
"-. c #ABAEB3",
";. c #ACAFB3",
":. c #ADB0B4",
">. c #AEB1B5",
",. c #AFB1B5",
"<. c #AFB2B6",
"1. c #B0B3B7",
"2. c #B1B4B8",
"3. c #B2B4B8",
"4. c #B3B6BA",
"5. c #B5B7BB",
"6. c #B6B8BC",
"7. c #B6B9BD",
"8. c #B8BABE",
"9. c #B9BBBF",
"0. c #BABCBF",
"q. c #BABDC0",
"w. c #BBBDC1",
"e. c #BCBEC2",
"r. c #BDBFC2",
"t. c #BDC0C3",
"y. c #C0C2C5",
"u. c #C1C4C7",
"i. c #C2C4C7",
"p. c #C4C6C9",
"a. c #C5C7CA",
"s. c #C7C9CC",
"d. c #C8CACC",
"f. c #C8CACD",
"g. c #CBCDCF",
"h. c #CBCDD0",
"j. c #CDCFD1",
"k. c #CED0D2",
"l. c #CFD1D3",
"z. c #D0D2D4",
"x. c #D1D3D5",
"c. c #D2D3D6",
"v. c #D3D4D6",
"b. c #D5D6D8",
"n. c #D6D7D9",
"m. c #D6D8DA",
"M. c #D7D9DB",
"N. c #D9DADC",
"B. c #DBDCDE",
"V. c #DDDEE0",
"C. c #DDDFE0",
"Z. c #DEDFE1",
"A. c #DFE0E2",
"S. c #E0E1E2",
"D. c #E1E2E3",
"F. c #E1E2E4",
"G. c #E3E4E5",
"H. c #E4E5E6",
"J. c #E4E5E7",
"K. c #E5E6E7",
"L. c #E8E8EA",
"P. c #E8E9EA",
"I. c #E9EAEB",
"U. c #EBEBEC",
"Y. c #EBECED",
"T. c #ECEDEE",
"R. c #EEEEEF",
"E. c #EFF0F1",
"W. c #F0F1F1",
"Q. c #F1F1F2",
"!. c #F2F2F3",
"~. c #F3F4F4",
"^. c #F4F4F5",
"/. c #F5F5F6",
"(. c #F6F7F7",
"). c #F7F7F8",
"_. c #F8F8F9",
"`. c #F9F9F9",
"'. c #FAFAFB",
"]. c #FBFBFB",
"[. c gray99",
"{. c #FDFDFD",
"}. c #FDFDFE",
"|. c #FEFEFE",
" X c white",
/* pixels */
"b H. X X X X X X X X X X X X X X X X X X X X X X X X X X X X X X X X X X X X X X X X X X X X X X X X X X X X X X X X X X X X X X X X X X X X X X X X X X X X X X X X X X X X X X X X X X X X X X X X X X X X X X X X X X X X X X X X X X X X X X X X X X X X X X X X X X XG.v ",
"H. X X X X X X X X X X X X X X X X X X X X X X X X X X X X X X X X X X X X X X X X X X X X X X X X X X X X X X X X X X X X X X X X X X X X X X X X X X X X X X X X X X X X X X X X X X X X X X X X X X X X X X X X X X X X X X X X X X X X X X X X X X X X X X X X X X X X XG.",
" X X X X X X X X X X X X X X X X X X X X X X X X X X X X X X X X X X X X X X X X X X X X X X X X X X X X X X X X X X X X X X X X X X X X X X X X X X X X X X X X X X X X X X X X X X X X X X X X X X X X X X X X X X X X X X X X X X X X X X X X X X X X X X X X X X X X X X X",
" X X X X X X X X X X X X X X X X X X X X X X X X X X X X X X X X X X X X X X X X X X X X X X X X X X X X X X X X X X X X X X X X X X X X X X X X X X X X X X X X X X X X X X X X X X X X X X X X X X X X X X X X X X X X X X X X X X X X X X X X X X X X X X X X X X X X X X X",
" X X X X X X X X X X X X X X X X X X X X X X X X X X X X X X X X X X X X X X X X X X X X X X X X X X X X X X X X X X X X X X X X X X X X X X X X X X X X X X X X X X X X X X X X X X X X X X X X X X X X X X X X X X X X X X X X X X X X X X X X X X X X X X X X X X X X X X X",
" X X X X X X X X X X X X X X X X X X X X X X X X X X X X X X X X X X X X X X X X X X X X X X X X X X X X X X X X X X X X X X X X X X X X X X X X X X X X X X X X X X X X X X X X X X X X X X X X X X X X X X X X X X X X X X X X X X X X X X X X X X X X X X X X X X X X X X X",
" X X X X X X X X X X X X X X X X X X X X X X X X X X X X X X X X X X X X X X X X X X X X X X X X X X X X X X X X X X X X X X X X X X X X X X X X X X X X X X X X X X X X X X X X X X X X X X X X X X X X X X X X X X X X X X X X X X X X X X X X X X X X X X X X X X X X X X X",
" X X X X X X X X X X X X X X X X X X X X X X X X X X X X X X X X X X X X X X X X X X X X X X X X X X X X X X X X X X X X X X X X X X X X X X X X X X X X X X X X X X X X X X X X X X X X X X X X X X X X X X X X X X X X X X X X X X X X X X X X X X X X X X X X X X X X X X X",
" X X X X X X X X X X X X X X X X X X X X X X X X X X X X X X X X X X X X X X X X X X X X X X X X X X X X X X X X X X X X X X X X X X X X X X X X X X X X X X X X X X X X X X X X X X X X X X X X X X X X X X X X X X X X X X X X X X X X X X X X X X X X X X X X X X X X X X X",
" X X X X X X X X X X X X X X X X X X X X X X X X X X X X X X X X X X X X X X X X X X X X X X X X X X X X X X X X X X X X X X X X X X X X X X X X X X X X X X X X X X X X X X X X X X X X X X X X X X X X X X X X X X X X X X X X X X X X X X X X X X X X X X X X X X X X X X X",
" X X X X X X X X X X X X X X X X X X X X X X X X X X X X X X X X X X X X X X X X X X X X X X X X X X X X X X X X X X X X X X X X X X X X X X X X X X X X X X X X X X X X X X X X X X X X X X X X X X X X X X X X X X X X X X X X X X X X X X X X X X X X X X X X X X X X X X X",
" X X X X X X X X X X X X X X X X X X X X X X X X X X X X X X X X X X X X X X X X X X X X X X X X X X X X X X X X X X X X X X X X X X X X X X X X X X X X X X X X X X X X X X X X X X X X X X X X X X X X X X X X X X X X X X X X X X X X X X X X X X X X X X X X X X X X X X X",
" X X X X X X X X X X X X X X X X X X X X X X X X X X X X X X X X X X X X X X X X X X X X X X X X X X X X X X X X X X X X X X X X X X X X X X X X X X X X X X X X X X X X X X X X X X X X X X X X X X X X X X X X X X X X X X X X X X X X X X X X X X X X X X X X X X X X X X X",
" X X X X X X X X X X X X X X X X X X X X X X X X X X X X X X X X X X X X X X X X X X X X X X X X X X X X X X X X X X X X X X X X X X X X X X X X X X X X X X X X X X X X X X X X X X X X X X X X X X X X X X X X X X X X X X X X X X X X X X X X X X X X X X X X X X X X X X X",
" X X X X X X X X X X X X X X X X X X X X X X X X X X X XR = = = = = > i B _ S. X X X X X X X X X X X X X X X X X X X XJ.r.r.r.I. X X X X X X X X X X X X X X X X X X X Xh.r.r.y. X X X X X X X X X X X X X X X X X X X X X X X X X X X X X X X X X X X X X X X X X X X X X X X",
" X X X X X X X X X X X X X X X X X X X X X X X X X X X XH                   o 6. X X X X X X X X X X X X X X X X X X X,.      t. X X X X X X X X X X X X X X X X X X X Xk     %  X X X X X X X X X X X X X X X X X X X X X X X X X X X X X X X X X X X X X X X X X X X X X X X",
" X X X X X X X X X X X X X X X X X X X X X X X X X X X XH                     $ Q. X X X X X X X X X X X X X X X X X X,.      t. X X X X X X X X X X X X X X X X X X X Xk     %  X X X X X X X X X X X X X X X X X X X X X X X X X X X X X X X X X X X X X X X X X X X X X X X",
" X X X X X X X X X X X X X X X X X X X X X X X X X X X XH       0. X_.p.@       u. X X X X X X|.S.f.a.n.'. X X X X[.!.%.      5.!.!.!.{. X X X!.N.h.i.g.K. X X X X X(.!.h     $ !.!.!.^. X X X X X/.z.p.j.R. X X X X X X X X X X X X X X X X X X X X X X X X X X X X X X X X X",
" X X X X X X X X X X X X X X X X X X X X X X X X X X X XH       0. X X XD       7. X X X X{.#.1         # ~ Q. X Xh.                  V. Xp.6             9 3. X X XU                 g  X X XA.S o       . M V. X X X X X X X X X X X X X X X X X X X X X X X X X X X X X X X",
" X X X X X X X X X X X X X X X X X X X X X X X X X X X XH       0. X X XA       l. X X X].C                 8 U. Xh.                  V. X2.                  $. X XU                 g  X Xk.%               % x. X X X X X X X X X X X X X X X X X X X X X X X X X X X X X X",
" X X X X X X X X X X X X X X X X X X X X X X X X X X X XH       0. XW.q.+     t }. X X X..      , X.*.g       N  XD.Q x       M Q Q Q U. X2.j %.p.m.v.=.*     & ). X4.Q ,     O Q Q Q o. X/.>     $ %.b.6.:     3 `. X X X X X X X X X X X X X X X X X X X X X X X X X X X X X",
" X X X X X X X X X X X X X X X X X X X X X X X X X X X XH                   y J. X X X}.:     X A. X X_.8       Z. X X,.      t. X X X X X]. X X X X X X@.      j. X X Xk     %  X X X X X-.      :. X X Xq.      6. X X X X X X X X X X X X X X X X X X X X X X X X X X X X X",
" X X X X X X X X X X X X X X X X X X X X X X X X X X X XH                 q F. X X X XC.      v  X X X X]       >. X X,.      t. X X X X X XD.} J c r 9 :       8. X X Xk     %  X X X X XG       ' +.+.+._       E  X X X X X X X X X X X X X X X X X X X X X X X X X X X X X",
" X X X X X X X X X X X X X X X X X X X X X X X X X X X XH       u c >       * A. X X Xg.      I  X X X X3.      {  X X,.      t. X X X X X;.X                   2. X X Xk     %  X X X X Xz                       Z  X X X X X X X X X X X X X X X X X X X X X X X X X X X X X",
" X X X X X X X X X X X X X X X X X X X X X X X X X X X XH       0. X'.L       h |. X Xz.      F  X X X X=.      o. X X,.      t. X X X XI.O     # ( :.<.Y       2. X X Xk     %  X X X X Xm       d f f f f f f f ^  X X X X X X X X X X X X X X X X X X X X X X X X X X X X X",
" X X X X X X X X X X X X X X X X X X X X X X X X X X X XH       0. X X/.2       w. X XT..     0 |. X X XT       r. X X2.      e. X X X X9.      +. X X X|       2. X X Xz     @  X X X X X~       N. X X X X X X X X X X X X X X X X X X X X X X X X X X X X X X X X X X X X X",
" X X X X X X X X X X X X X X X X X X X X X X X X X X X XH       0. X X X=.      y }. X Xj       &. X Xc.@     % !. X Xa.      E E.!.^. X4.      |  X XT.1       2. X X XG       d.!.!.`. Xf.      V `. X X X XM.Y Z. X X X X X X X X X X X X X X X X X X X X X X X X X X X X X",
" X X X X X X X X X X X X X X X X X X X X X X X X X X X XH       0. X X X_.1       t. X Xj.X       9 s o       o. X X XJ.            w  XC..     O H E ; .       2. X X X{             O. X XV       1 P / J 8     B. X X X X X X X X X X X X X X X X X X X X X X X X X X X X X",
" X X X X X X X X X X X X X X X X X X X X X X X X X X X XH       0. X X X X$.      a |. X X9.#             . ) |. X X X XE           w  X XQ           - `       2. X X XY.4           O. X X~.C                   C. X X X X X X X X X X X X X X X X X X X X X X X X X X X X X",
" X X X X X X X X X X X X X X X X X X X X X X X X X X X X<.Q Q Q n. X X X X).~ Q Q Q K. X X XI.] l 5 < p ! m. X X X X X X|.s. .~ Q Q [  X X}.:.n 1 e W L.v.Q Q Q z. X X X X!.1.' Q Q Q s. X X X|.d.Y u < 7 l K <.P. X X X X X X X X X X X X X X X X X X X X X X X X X X X X X X",
" X X X X X X X X X X X X X X X X X X X X X X X X X X X X X X X X X X X X X X X X X X X X X X X X X X X X X X X X X X X X X X X X X X X X X X X X X X X X X X X X X X X X X X X X X X X X X X X X X X X X X X X X X X X X X X X X X X X X X X X X X X X X X X X X X X X X X X X",
" X X X X X X X X X X X X X X X X X X X X X X X X X X X X X X X X X X X X X X X X X X X X X X X X X X X X X X X X X X X X X X X X X X X X X X X X X X X X X X X X X X X X X X X X X X X X X X X X X X X X X X X X X X X X X X X X X X X X X X X X X X X X X X X X X X X X X X X",
" X X X X X X X X X X X X X X X X X X X X X X X X X X X X X X X X X X X X X X X X X X X X X X X X X X X X X X X X X X X X X X X X X X X X X X X X X X X X X X X X X X X X X X X X X X X X X X X X X X X X X X X X X X X X X X X X X X X X X X X X X X X X X X X X X X X X X X X",
" X X X X X X X X X X X X X X X X X X X X X X X X X X X X X X X X X X X X X X X X X X X X X X X X X X X X X X X X X X X X X X X X X X X X X X X X X X X X X X X X X X X X X X X X X X X X X X X X X X X X X X X X X X X X X X X X X X X X X X X X X X X X X X X X X X X X X X X",
" X X X X X X X X X X X X X X X X X X X X X X X X X X X X X X X X X X X X X X X X X X X X X X X X X X X X X X X X X X X X X X X X X X X X X X X X X X X X X X X X X X X X X X X X X X X X X X X X X X X X X X X X X X X X X X X X X X X X X X X X X X X X X X X X X X X X X X X",
" X X X X X X X X X X X X X X X X X X X X X X X X X X X X X X X X X X X X X X X X X X X X X X X X X X X X X X X X X X X X X X X X X X X X X X X X X X X X X X X X X X X X X X X X X X X X X X X X X X X X X X X X X X X X X X X X X X X X X X X X X X X X X X X X X X X X X X X",
" X X X X X X X X X X X X X X X X X X X X X X X X X X X X X X X X X X X X X X X X X X X X X X X X X X X X X X X X X X X X X X X X X X X X X X X X X X X X X X X X X X X X X X X X X X X X X X X X X X X X X X X X X X X X X X X X X X X X X X X X X X X X X X X X X X X X X X X",
" X X X X X X X X X X X X X X X X X X X X X X X X X X X X X X X X X X X X X X X X X X X X X X X X X X X X X X X X X X X X X X X X X X X X X X X X X X X X X X X X X X X X X X X X X X X X X X X X X X X X X X X X X X X X X X X X X X X X X X X X X X X X X X X X X X X X X X X",
" X X X X X X X X X X X X X X X X X X X X X X X X X X X X X X X X X X X X X X X X X X X X X X X X X X X X X X X X X X X X X X X X X X X X X X X X X X X X X X X X X X X X X X X X X X X X X X X X X X X X X X X X X X X X X X X X X X X X X X X X X X X X X X X X X X X X X X X",
" X X X X X X X X X X X X X X X X X X X X X X X X X X X X X X X X X X X X X X X X X X X X X X X X X X X X X X X X X X X X X X X X X X X X X X X X X X X X X X X X X X X X X X X X X X X X X X X X X X X X X X X X X X X X X X X X X X X X X X X X X X X X X X X X X X X X X X X",
" X X X X X X X X X X X X X X X X X X X X X X X X X X X X X X X X X X X X X X X X X X X X X X X X X X X X X X X X X X X X X X X X X X X X X X X X X X X X X X X X X X X X X X X X X X X X X X X X X X X X X X X X X X X X X X X X X X X X X X X X X X X X X X X X X X X X X X X",
"G. X X X X X X X X X X X X X X X X X X X X X X X X X X X X X X X X X X X X X X X X X X X X X X X X X X X X X X X X X X X X X X X X X X X X X X X X X X X X X X X X X X X X X X X X X X X X X X X X X X X X X X X X X X X X X X X X X X X X X X X X X X X X X X X X X X X X XG.",
"v G. X X X X X X X X X X X X X X X X X X X X X X X X X X X X X X X X X X X X X X X X X X X X X X X X X X X X X X X X X X X X X X X X X X X X X X X X X X X X X X X X X X X X X X X X X X X X X X X X X X X X X X X X X X X X X X X X X X X X X X X X X X X X X X X X X X XG.c "
};
