/* XPM */
static char *rotate_0[] = {
/* columns rows colors chars-per-pixel */
"135 43 126 2 ",
"   c #1B2D3B",
".  c #1C2E3C",
"X  c #1D2F3D",
"o  c #1E2F3D",
"O  c #1F303E",
"+  c #1F313F",
"@  c #203240",
"#  c #213340",
"$  c #223441",
"%  c #233442",
"&  c #243543",
"*  c #253643",
"=  c #283946",
"-  c #283947",
";  c #293A47",
":  c #2A3B48",
">  c #2D3C48",
",  c #2C3D4A",
"<  c #2D3D4A",
"1  c #2E3E4B",
"2  c #30404D",
"3  c #30414D",
"4  c #31424E",
"5  c #32424F",
"6  c #35434E",
"7  c #35444F",
"8  c #334350",
"9  c #344451",
"0  c #374550",
"q  c #364652",
"w  c #374753",
"e  c #394651",
"r  c #384754",
"t  c #394854",
"y  c #394955",
"u  c #3A4A56",
"i  c #3B4B57",
"p  c #3C4B57",
"a  c #3D4C58",
"s  c #3E4D59",
"d  c #3F4E5A",
"f  c #404F5B",
"g  c #41505B",
"h  c #41505C",
"j  c #42515D",
"k  c #43525E",
"l  c #465560",
"z  c #475561",
"x  c #485661",
"c  c #495762",
"v  c #495863",
"b  c #4A5964",
"n  c #4B5965",
"m  c #4C5A65",
"M  c #4D5B66",
"N  c #4E5C67",
"B  c #4F5D68",
"V  c #505E68",
"C  c #515E69",
"Z  c #52606B",
"A  c #53616B",
"S  c #54626C",
"D  c #55636D",
"F  c #57646E",
"G  c #596670",
"H  c #5A6772",
"J  c #5B6872",
"K  c #5C6973",
"L  c #5E6B75",
"P  c #5F6C75",
"I  c #606C76",
"U  c #616D77",
"Y  c #636F78",
"T  c #637079",
"R  c #64717A",
"E  c #66727C",
"W  c #67737C",
"Q  c #68747D",
"!  c #69757E",
"~  c #6A757F",
"^  c #6C7881",
"/  c #6E7A82",
"(  c #6F7A83",
")  c #707B84",
"_  c #717C85",
"`  c #727D86",
"'  c #737E86",
"]  c #747F87",
"[  c #747F88",
"{  c #758089",
"}  c #768189",
"|  c #78838B",
" . c #7A848C",
".. c #7B858D",
"X. c #7C868E",
"o. c #7D8890",
"O. c #7E8890",
"+. c #7F8991",
"@. c #808A92",
"#. c #818B93",
"$. c #828C93",
"%. c #838D94",
"&. c #858F96",
"*. c #869097",
"=. c #879198",
"-. c #889199",
";. c #89929A",
":. c #8A939A",
">. c #8B949B",
",. c #8C959C",
"<. c #8D969D",
"1. c #8E979E",
"2. c #8F989F",
"3. c #919AA0",
"4. c #929BA1",
"5. c #939BA2",
"6. c #949CA3",
"7. c #959DA4",
"8. c #959EA4",
"9. c #969FA5",
"0. c #979FA6",
"q. c #98A0A7",
"w. c #99A1A7",
"e. c #9AA2A8",
"r. c #9BA3A9",
"t. c #9CA4AA",
/* pixels */
"> e 7 6 6 6 6 6 6 6 6 6 6 6 6 6 6 6 6 6 6 6 6 6 6 6 6 6 6 6 6 6 6 6 6 6 6 6 6 6 6 6 6 6 6 6 6 6 6 6 6 6 6 6 6 6 6 6 6 6 6 6 6 6 6 6 6 6 6 6 6 6 6 6 6 6 6 6 6 6 6 6 6 6 6 6 6 6 6 6 6 6 6 6 6 6 6 6 6 6 6 6 6 6 6 6 6 6 6 6 6 6 6 6 6 6 6 6 6 6 6 6 6 6 6 6 6 6 6 6 6 6 7 e > ",
"e                                                                                                                                                                                                                                                                           e ",
"0                                                                                                                                                                                                                                                                           0 ",
"0                                                                                                                                                                                                                                                                           0 ",
"0                                                                                                                                                                                                                                                                           0 ",
"0                                                                                                                                                                                                                                                                           0 ",
"0                                                                                                                                                                                                                                                                           0 ",
"0                                                                                                                                                                                                                                                                           0 ",
"0                                                                                                                                                                                                                                                                           0 ",
"0                                                                                                                                                                                                                                                                           0 ",
"0                                                                                                                                                                                                                                                                           0 ",
"0                                                                                                                                                                                                                                                                           0 ",
"0                                                                                                                                                                                                                                                                           0 ",
"0                                                                                                                                                                                                                                                                           0 ",
"0                                                       L >.>.>.>.>.>.@.[ P 1                                         , l l l ;                                         a l l j                                                                                             0 ",
"0                                                       Q t.t.t.t.t.t.t.t.t.w.m                                       M t.t.t.l                                         %.t.t.3.                                                                                            0 ",
"0                                                       Q t.t.t.t.t.t.t.t.t.t.0.=                                     M t.t.t.l                                         %.t.t.3.                                                                                            0 ",
"0                                                       Q t.t.t.V   @ g 8.t.t.t.c               , i a 8 o             M t.t.t.l               $ 4 y a u -               %.t.t.3.                  # w a t $                                                                 0 ",
"0                                                       Q t.t.t.V       ^ t.t.t.V         . Z ,.t.t.t.t.9.W *     u t.t.t.t.t.t.t.t.t.4   g >.r.t.t.t.t.t.-.b       ( t.t.t.t.t.t.t.t.X.      4 { e.t.t.t.e.] <                                                             0 ",
"0                                                       Q t.t.t.V       / t.t.t.f       . ` t.t.t.t.t.t.t.t.,.;   u t.t.t.t.t.t.t.t.t.4   N t.t.t.t.t.t.t.t.t.C     ( t.t.t.t.t.t.t.t.X.    s 9.t.t.t.t.t.t.t.5.5                                                           0 ",
"0                                                       Q t.t.t.V   & k 9.t.t.,.o       S t.t.t.4.H Z #.t.t.t...  2 _ $.t.t.t.+._ _ _ ;   N #.D h q t A 7.t.t.5.O   A _ 5.t.t.q._ _ _ J   * 5.t.t.7.Z w N 5.t.t.=.X                                                         0 ",
"0                                                       Q t.t.t.t.t.t.t.t.t.;.2         <.t.t.r.8     O ;.t.t.t.8     M t.t.t.l           o             G t.t.t.t       %.t.t.3.          F t.t.t.b       B t.t.t.j                                                         0 ",
"0                                                       Q t.t.t.t.t.t.t.t.,.4         , t.t.t.@.        H t.t.t.Z     M t.t.t.l             2 K _ o.=.>.3.t.t.t.l       %.t.t.3.          } t.t.t.K F F F R t.t.t.Y                                                         0 ",
"0                                                       Q t.t.t.=...1.t.t.t.8.9       r t.t.t._         b t.t.t.P     M t.t.t.l           Z e.t.t.t.t.t.t.t.t.t.b       %.t.t.3.          %.t.t.t.t.t.t.t.t.t.t.t.(                                                         0 ",
"0                                                       Q t.t.t.V   X E t.t.t.*.X     9 t.t.t.{         V t.t.t.H     M t.t.t.l         : e.t.t.8.Y B B ^ t.t.t.b       %.t.t.3.          +.t.t.r.$.$.$.$.$.$.$.$.I                                                         0 ",
"0                                                       Q t.t.t.V     O :.t.t.t.N     % e.t.t.<.X       ~ t.t.t.x     m t.t.t.z         c t.t.t.D       L t.t.t.b       #.t.t.5.          ^ t.t.t.1                                                                         0 ",
"0                                                       Q t.t.t.V       b t.t.t.>.o      .t.t.t.H     t 9.t.t.9.*     d t.t.t.^ - & $   m t.t.t.J     : 3.t.t.t.b       ] t.t.r.f * & O   j t.t.t.[ +       . u ' ;                                                         0 ",
"0                                                       Q t.t.t.V       X :.t.t.t.m     q q.t.t.t.1.=.e.t.t.t.G       : r.t.t.t.t.t.-.  2 r.t.t.e.] ( 6.r.t.t.t.b       P t.t.t.t.t.t.A   .  .t.t.t.2.) ! } 2.t.t.:                                                         0 ",
"0                                                       Q t.t.t.V         m t.t.t.:.X     h 6.t.t.t.t.t.t.r.U .         R t.t.t.t.t.-.    R t.t.t.t.t.2.P t.t.t.b       - <.t.t.t.t.t.A     % } t.t.t.t.t.t.t.t.e.-                                                         0 ",
"0                                                       c Q Q Q u         o R Q Q Q 3       * F | =.:.O.T 5               u S R Q Q K     . n } -.%.T = t Q Q Q r         $ v J Q Q Q p         p Q @.>.&.| ~ x &                                                           0 ",
"0                                                                                                                                                                                                                                                                           0 ",
"0                                                                                                                                                                                                                                                                           0 ",
"0                                                                                                                                                                                                                                                                           0 ",
"0                                                                                                                                                                                                                                                                           0 ",
"0                                                                                                                                                                                                                                                                           0 ",
"0                                                                                                                                                                                                                                                                           0 ",
"0                                                                                                                                                                                                                                                                           0 ",
"0                                                                                                                                                                                                                                                                           0 ",
"0                                                                                                                                                                                                                                                                           0 ",
"0                                                                                                                                                                                                                                                                           0 ",
"0                                                                                                                                                                                                                                                                           0 ",
"e                                                                                                                                                                                                                                                                           e ",
"> e 7 6 6 6 6 6 6 6 6 6 6 6 6 6 6 6 6 6 6 6 6 6 6 6 6 6 6 6 6 6 6 6 6 6 6 6 6 6 6 6 6 6 6 6 6 6 6 6 6 6 6 6 6 6 6 6 6 6 6 6 6 6 6 6 6 6 6 6 6 6 6 6 6 6 6 6 6 6 6 6 6 6 6 6 6 6 6 6 6 6 6 6 6 6 6 6 6 6 6 6 6 6 6 6 6 6 6 6 6 6 6 6 6 6 6 6 6 6 6 6 6 6 6 6 6 6 6 6 6 6 7 e > "
};
