/* XPM */
static char *rotate_0[] = {
/* columns rows colors chars-per-pixel */
"135 43 124 2 ",
"   c #383F49",
".  c #39404A",
"X  c #3A414A",
"o  c #3A414B",
"O  c #3B424C",
"+  c #3C434D",
"@  c #3D444D",
"#  c #3D444E",
"$  c #3E454F",
"%  c #3F464F",
"&  c #404750",
"*  c #414751",
"=  c #434A53",
"-  c #444A54",
";  c #444B54",
":  c #454C55",
">  c #474D57",
",  c #484E57",
"<  c #484F58",
"1  c #494F58",
"2  c #4A5059",
"3  c #4B515A",
"4  c #4C525B",
"5  c #4C535C",
"6  c #4D535C",
"7  c #4E545D",
"8  c #4F555E",
"9  c #4F565E",
"0  c #50565F",
"q  c #51575F",
"w  c #515760",
"e  c #525861",
"r  c #535961",
"t  c #535962",
"y  c #545A63",
"u  c #555B63",
"i  c #565C64",
"p  c #565C65",
"a  c #575D66",
"s  c #585E66",
"d  c #595F67",
"f  c #5A5F68",
"g  c #5A6068",
"h  c #5B6169",
"j  c #5D636B",
"k  c #5E646C",
"l  c #5F656D",
"z  c #60656D",
"x  c #61666E",
"c  c #61676F",
"v  c #626870",
"b  c #636870",
"n  c #646971",
"m  c #646A72",
"M  c #656B72",
"N  c #666B73",
"B  c #676C74",
"V  c #686E75",
"C  c #696E76",
"Z  c #6A6F77",
"A  c #6B7077",
"S  c #6C7179",
"D  c #6E737A",
"F  c #6F747C",
"G  c #70757C",
"H  c #71767D",
"J  c #73777F",
"K  c #73787F",
"L  c #747980",
"P  c #757A81",
"I  c #767B82",
"U  c #777C83",
"Y  c #787D84",
"T  c #7A7E85",
"R  c #7A7F86",
"E  c #7B8086",
"W  c #7C8187",
"Q  c #7D8188",
"!  c #7F848A",
"~  c #81858B",
"^  c #81868C",
"/  c #82878D",
"(  c #83878E",
")  c #84888E",
"_  c #84898F",
"`  c #858A90",
"'  c #868A90",
"]  c #878B91",
"[  c #888C92",
"{  c #898D93",
"}  c #8B8F95",
"|  c #8C9095",
" . c #8C9096",
".. c #8E9298",
"X. c #8F9398",
"o. c #8F9399",
"O. c #90949A",
"+. c #91959A",
"@. c #92969B",
"#. c #93969C",
"$. c #95999E",
"%. c #96999F",
"&. c #969A9F",
"*. c #979BA0",
"=. c #989CA1",
"-. c #999CA2",
";. c #9A9DA2",
":. c #9A9EA3",
">. c #9C9FA4",
",. c #9DA0A5",
"<. c #9DA1A6",
"1. c #9FA2A7",
"2. c #A0A3A8",
"3. c #A1A4A9",
"4. c #A1A5A9",
"5. c #A2A5AA",
"6. c #A3A6AB",
"7. c #A4A7AB",
"8. c #A4A8AC",
"9. c #A5A8AD",
"0. c #A6A9AE",
"q. c #A7AAAE",
"w. c #A8ABAF",
"e. c #A8ABB0",
/* pixels */
"1 t q 8 8 8 8 8 8 8 8 8 8 8 8 8 8 8 8 8 8 8 8 8 8 8 8 8 8 8 8 8 8 8 8 8 8 8 8 8 8 8 8 8 8 8 8 8 8 8 8 8 8 8 8 8 8 8 8 8 8 8 8 8 8 8 8 8 8 8 8 8 8 8 8 8 8 8 8 8 8 8 8 8 8 8 8 8 8 8 8 8 8 8 8 8 8 8 8 8 8 8 8 8 8 8 8 8 8 8 8 8 8 8 8 8 8 8 8 8 8 8 8 8 8 8 8 8 8 8 8 8 q t 1 ",
"t                                                                                                                                                                                                                                                                           t ",
"w                                                                                                                                                                                                                                                                           w ",
"w                                                                                                                                                                                                                                                                           w ",
"w                                                                                                                                                                                                                                                                           w ",
"w                                                                                                                                                                                                                                                                           w ",
"w                                                                                                                                                                                                                                                                           w ",
"w                                                                                                                                                                                                                                                                           w ",
"w                                                                                                                                                                                                                                                                           w ",
"w                                                                                                                                                                                                                                                                           w ",
"w                                                                                                                                                                                                                                                                           w ",
"w                                                                                                                                                                                                                                                                           w ",
"w                                                                                                                                                                                                                                                                           w ",
"w                                                                                                                                                                                                                                                                           w ",
"w                                                       J ;.;.;.;.;.;.O.' K <                                         > j j j ;                                         i j j g                                                                                             w ",
"w                                                       E e.e.e.e.e.e.e.e.e.0.b                                       n e.e.e.j                                         #.e.e.1.                                                                                            w ",
"w                                                       E e.e.e.e.e.e.e.e.e.e.8.=                                     n e.e.e.j                                         #.e.e.1.                                                                                            w ",
"w                                                       E e.e.e.N   @ d 6.e.e.e.z               > y i 6 o             n e.e.e.j               $ 4 r i t -               #.e.e.1.                  # 0 i e $                                                                 w ",
"w                                                       E e.e.e.N       ! e.e.e.N         . V :.e.e.e.e.7.R *     t e.e.e.e.e.e.e.e.e.4   d ;.w.e.e.e.e.e.*.c       ^ e.e.e.e.e.e.e.e. .      4 ] q.e.e.e.q.` ,                                                             w ",
"w                                                       E e.e.e.N       ~ e.e.e.s       . ) e.e.e.e.e.e.e.e.:.;   t e.e.e.e.e.e.e.e.e.4   m e.e.e.e.e.e.e.e.e.B     ^ e.e.e.e.e.e.e.e. .    p 7.e.e.e.e.e.e.e.3.5                                                           w ",
"w                                                       E e.e.e.N   & h 7.e.e.:.o       Z e.e.e.2.F V +.e.e.e.|   2 ( @.e.e.e.o.( ( ( ;   m +.A f 9 e C 5.e.e.3.O   C ( 3.e.e.9.( ( ( G   * 3.e.e.5.V 0 m 3.e.e.&.X                                                         w ",
"w                                                       E e.e.e.e.e.e.e.e.e.=.2         >.e.e.w.6     O =.e.e.e.6     n e.e.e.j           o             D e.e.e.e       #.e.e.1.          S e.e.e.c       M e.e.e.g                                                         w ",
"w                                                       E e.e.e.e.e.e.e.e.:.4         > e.e.e.O.        F e.e.e.V     n e.e.e.j             2 H ( ..&.;.1.e.e.e.j       #.e.e.1.          [ e.e.e.H S S S Y e.e.e.I                                                         w ",
"w                                                       E e.e.e.&.| ,.e.e.e.6.7       w e.e.e.(         c e.e.e.K     n e.e.e.j           V q.e.e.e.e.e.e.e.e.e.c       #.e.e.1.          #.e.e.e.e.e.e.e.e.e.e.e.^                                                         w ",
"w                                                       E e.e.e.N   X T e.e.e.%.X     7 e.e.e.]         N e.e.e.F     n e.e.e.j         : q.e.e.6.I M M ! e.e.e.c       #.e.e.1.          o.e.e.w.@.@.@.@.@.@.@.@.L                                                         w ",
"w                                                       E e.e.e.N     O -.e.e.e.m     % q.e.e.>.X       Q e.e.e.l     b e.e.e.k         z e.e.e.A       J e.e.e.c       +.e.e.3.          ! e.e.e.<                                                                         w ",
"w                                                       E e.e.e.N       c e.e.e.;.o     } e.e.e.F     e 7.e.e.7.*     a e.e.e.! - & $   b e.e.e.G     : 1.e.e.e.c       ` e.e.w.s * & O   g e.e.e.' +       . t _ ;                                                         w ",
"w                                                       E e.e.e.N       X -.e.e.e.b     9 9.e.e.e.,.&.q.e.e.e.D       : w.e.e.e.e.e.*.  2 w.e.e.q.` ^ 4.w.e.e.e.c       K e.e.e.e.e.e.C   . } e.e.e.<./ W [ <.e.e.:                                                         w ",
"w                                                       E e.e.e.N         b e.e.e.-.X     f 4.e.e.e.e.e.e.w.P .         Y e.e.e.e.e.*.    Y e.e.e.e.e.<.K e.e.e.c       - >.e.e.e.e.e.C     % [ e.e.e.e.e.e.e.e.q.-                                                         w ",
"w                                                       z E E E t         o Y E E E 3       * S { &.-.X.U 5               t Z Y E E H     . v [ *.#.U = e E E E w         $ x G E E E u         u E O.;.$.{ Q l &                                                           w ",
"w                                                                                                                                                                                                                                                                           w ",
"w                                                                                                                                                                                                                                                                           w ",
"w                                                                                                                                                                                                                                                                           w ",
"w                                                                                                                                                                                                                                                                           w ",
"w                                                                                                                                                                                                                                                                           w ",
"w                                                                                                                                                                                                                                                                           w ",
"w                                                                                                                                                                                                                                                                           w ",
"w                                                                                                                                                                                                                                                                           w ",
"w                                                                                                                                                                                                                                                                           w ",
"w                                                                                                                                                                                                                                                                           w ",
"w                                                                                                                                                                                                                                                                           w ",
"t                                                                                                                                                                                                                                                                           t ",
"1 t q 8 8 8 8 8 8 8 8 8 8 8 8 8 8 8 8 8 8 8 8 8 8 8 8 8 8 8 8 8 8 8 8 8 8 8 8 8 8 8 8 8 8 8 8 8 8 8 8 8 8 8 8 8 8 8 8 8 8 8 8 8 8 8 8 8 8 8 8 8 8 8 8 8 8 8 8 8 8 8 8 8 8 8 8 8 8 8 8 8 8 8 8 8 8 8 8 8 8 8 8 8 8 8 8 8 8 8 8 8 8 8 8 8 8 8 8 8 8 8 8 8 8 8 8 8 8 8 8 8 q t 1 "
};
