/* XPM */
static char *rotate_1[] = {
/* columns rows colors chars-per-pixel */
"135 43 172 2 ",
"   c #383F49",
".  c #39404A",
"X  c #3A414A",
"o  c #3A414B",
"O  c #3B424C",
"+  c #3C434D",
"@  c #3D444D",
"#  c #3D444E",
"$  c #3F464F",
"%  c #414751",
"&  c #414852",
"*  c #434A53",
"=  c #444A54",
"-  c #444B54",
";  c #454C55",
":  c #464D56",
">  c #474D57",
",  c #484E57",
"<  c #4B515A",
"1  c #4C535C",
"2  c #4D535C",
"3  c #4E545D",
"4  c #4F555E",
"5  c #4F565E",
"6  c #525861",
"7  c #535961",
"8  c #535962",
"9  c #545A63",
"0  c #565C64",
"q  c #585E66",
"w  c #595F67",
"e  c #5A6068",
"r  c #5C626A",
"t  c #5D626B",
"y  c #5D636B",
"u  c #5E646C",
"i  c #5F656D",
"p  c #60656D",
"a  c #61676F",
"s  c #626870",
"d  c #636870",
"f  c #646971",
"g  c #646A72",
"h  c #656B72",
"j  c #666B73",
"k  c #686D75",
"l  c #686E75",
"z  c #6A6F77",
"x  c #6C7178",
"c  c #6D727A",
"v  c #6E737A",
"b  c #6F747C",
"n  c #71767D",
"m  c #73777F",
"M  c #73787F",
"N  c #747980",
"B  c #757A81",
"V  c #767B82",
"C  c #7A7F86",
"Z  c #7C8187",
"A  c #7D8188",
"S  c #7E8389",
"D  c #7F848A",
"F  c #80848B",
"G  c #81858B",
"H  c #81868C",
"J  c #82878D",
"K  c #84888E",
"L  c #84898F",
"P  c #868A90",
"I  c #878B91",
"U  c #888C92",
"Y  c #898D93",
"T  c #8A8E94",
"R  c #8B9095",
"E  c #8D9197",
"W  c #8E9298",
"Q  c #8F9398",
"!  c #8F9399",
"~  c #90949A",
"^  c #91959A",
"/  c #92969B",
"(  c #94989D",
")  c #95999E",
"_  c #979BA0",
"`  c #9A9DA2",
"'  c #9A9EA3",
"]  c #9B9FA4",
"[  c #9C9FA4",
"{  c #9DA1A6",
"}  c #9FA2A7",
"|  c #A1A4A9",
" . c #A1A5A9",
".. c #A3A6AB",
"X. c #A4A7AB",
"o. c #A6A9AE",
"O. c #A8ABAF",
"+. c #A9ACB0",
"@. c #AAADB1",
"#. c #ACAFB3",
"$. c #ADB0B4",
"%. c #AFB1B5",
"&. c #AFB2B6",
"*. c #B0B3B7",
"=. c #B1B4B8",
"-. c #B6B8BC",
";. c #B6B9BD",
":. c #B8BABE",
">. c #BABCBF",
",. c #BABDC0",
"<. c #BBBDC1",
"1. c #BDBFC2",
"2. c #BEC1C4",
"3. c #C0C2C5",
"4. c #C1C3C6",
"5. c #C1C4C7",
"6. c #C2C4C7",
"7. c #C3C5C8",
"8. c #C4C6C9",
"9. c #C4C7C9",
"0. c #C5C7CA",
"q. c #C8CACD",
"w. c #CACCCE",
"e. c #CBCDD0",
"r. c #CCCED1",
"t. c #CED0D2",
"y. c #CFD1D3",
"u. c #D2D3D6",
"i. c #D3D4D6",
"p. c #D4D6D8",
"a. c #D5D6D8",
"s. c #D6D7D9",
"d. c #D6D8DA",
"f. c #D7D9DB",
"g. c #D8D9DB",
"h. c #D9DADC",
"j. c #DDDEE0",
"k. c #DEDFE1",
"l. c #DFE0E2",
"z. c #E0E1E2",
"x. c #E1E2E3",
"c. c #E1E2E4",
"v. c #E2E3E5",
"b. c #E3E4E5",
"n. c #E4E5E6",
"m. c #E4E5E7",
"M. c #E5E6E7",
"N. c #E6E7E8",
"B. c #E7E8E9",
"V. c #E8E9EA",
"C. c #EAEBEC",
"Z. c #EBEBEC",
"A. c #EBECED",
"S. c #ECEDEE",
"D. c #EFEFF0",
"F. c #EFF0F1",
"G. c #F1F1F2",
"H. c #F2F2F3",
"J. c #F3F3F4",
"K. c #F3F4F4",
"L. c #F4F4F5",
"P. c #F6F6F6",
"I. c #F6F7F7",
"U. c #F7F7F8",
"Y. c #F9F9F9",
"T. c gray98",
"R. c #FBFBFB",
"E. c gray99",
"W. c #FDFDFD",
"Q. c #FDFDFE",
"!. c #FEFEFE",
"~. c white",
/* pixels */
"9 h p u u u u u u u u u u u u u u u u u u u u u u u u u u u u u u u u u u u u u u u u u u u u u u u u u u u u u u u u u u u u u u u u u u u u u u u u u u u u u u u u u u u u u u u u u u u u u u u u u u u u u u u u u u u u u u u u u u u u u u u u u u u u u u u u u p h 9 ",
"h                                                                                                                                                                                                                                                                           h ",
"s                                                                                                                                                                                                                                                                           s ",
"s                                                                                                                                                                                                                                                                           s ",
"s                                                                                                                                                                                                                                                                           s ",
"s                                                                                                                                                                                                                                                                           s ",
"s                                                                                                                                                                                                                                                                           s ",
"s                                                                                                                                                                                                                                                                           s ",
"s                                                                                                                                                                                                                                                                           s ",
"s                                                                                                                                                                                                                                                                           s ",
"s                                                                                                                                                                                                                                                                           s ",
"s                                                                                                                                                                                                                                                                           s ",
"s                                                                                                                                                                                                                                                                           s ",
"s                                                                                                                                                                                                                                                                           s ",
"s                                                       } m.m.m.m.m.m.p.6.| 0                                         6 C C C 3                                         c C C B                                                                                             s ",
"s                                                       %.~.~.~.~.~.~.~.~.~.R.K                                       P ~.~.~.C                                         g.~.~.D.                                                                                            s ",
"s                                                       %.~.~.~.~.~.~.~.~.~.~.Y.<                                     P ~.~.~.C                                         g.~.~.D.                                                                                            s ",
"s                                                       %.~.~.~.Y   % m P.~.~.~.S               7 z c y +             P ~.~.~.C               * e k c l 2               g.~.~.D.                  & d c j =                                                                 s ",
"s                                                       %.~.~.~.Y       ;.~.~.~.T         X E B.~.~.~.~.I.$.>     l ~.~.~.~.~.~.~.~.~.e   m m.!.~.~.~.~.~.x.G       ,.~.~.~.~.~.~.~.~.t.      e 7.E.~.~.~.W.4.8                                                             s ",
"s                                                       %.~.~.~.Y       :.~.~.~.n       X 2.~.~.~.~.~.~.~.~.N.3   l ~.~.~.~.~.~.~.~.~.e   I ~.~.~.~.~.~.~.~.~.R     ,.~.~.~.~.~.~.~.~.t.    v U.~.~.~.~.~.~.~.G.r                                                           s ",
"s                                                       %.~.~.~.Y   ; V U.~.~.N.@       ~ ~.~.~.F.` W a.~.~.~.e.  q 1.d.~.~.~.i.1.1.1.4   I s./ N s j ! L.~.~.G.#   ! 1.H.~.~.T.1.1.1.[   > H.~.~.K.E d I H.~.~.z.o                                                         s ",
"s                                                       %.~.~.~.~.~.~.~.~.~.v.q         V.~.~.!.t     # c.~.~.~.t     P ~.~.~.C           +             _ ~.~.~.h       g.~.~.D.          ( ~.~.~.G       U ~.~.~.B                                                         s ",
"s                                                       %.~.~.~.~.~.~.~.~.B.e         6 ~.~.~.p.        ` ~.~.~.E     P ~.~.~.C             q { 1.y.z.m.D.~.~.~.C       g.~.~.D.          0.~.~.~.{ ) ) ) @.~.~.~.o.                                                        s ",
"s                                                       %.~.~.~.z.r.C.~.~.~.P.i       g ~.~.~.1.        G ~.~.~.|     P ~.~.~.C           W W.~.~.~.~.~.~.~.~.~.H       g.~.~.D.          g.~.~.~.~.~.~.~.~.~.~.~.>.                                                        s ",
"s                                                       %.~.~.~.Y   o #.~.~.~.k.O     i ~.~.~.8.        Y ~.~.~.'     P ~.~.~.C         5 E.~.~.P.o.U U ;.~.~.~.H       g.~.~.D.          i.~.~.!.f.f.f.f.f.f.f.f...                                                        s ",
"s                                                       %.~.~.~.Y     # b.~.~.~.I     - W.~.~.V.O       =.~.~.~.A     K ~.~.~.Z         D ~.~.~./       } ~.~.~.H       s.~.~.G.          -.~.~.~.0                                                                         s ",
"s                                                       %.~.~.~.Y       H ~.~.~.M.+     w.~.~.~.'     j U.~.~.I.>     b ~.~.~.;.2 ; *   K ~.~.~.[     5 D.~.~.~.H       5.~.~.!.n > ; #   B ~.~.~.6.$       X l 3.3                                                         s ",
"s                                                       %.~.~.~.Y       O b.~.~.~.L     a T.~.~.~.Z.l.W.~.~.~._       5 !.~.~.~.~.~.x.  q !.~.~.E.4.>.J.Q.~.~.~.H       | ~.~.~.~.~.~.Q   . w.~.~.~.A.<.*.9.S.~.~.5                                                         s ",
"s                                                       %.~.~.~.Y         K ~.~.~.n.O     M J.~.~.~.~.~.~.!.X..         @.~.~.~.~.~.x.    @.~.~.~.~.~.S. .~.~.~.H       1 V.~.~.~.~.~.Q     - 0.~.~.~.~.~.~.~.~.W.2                                                         s ",
"s                                                       D &.&.&.l         + @.&.&.&.w       , ) q.l.n.u.O.r               l ^ +.&.&.{     . J 9.x.h.O.< j &.&.&.f         * F ] %.&.&.x         x %.p.m.j.q.=.A :                                                           s ",
"s                                                                                                                                                                                                                                                                           s ",
"s                                                                                                                                                                                                                                                                           s ",
"s                                                                                                                                                                                                                                                                           s ",
"s                                                                                                                                                                                                                                                                           s ",
"s                                                                                                                                                                                                                                                                           s ",
"s                                                                                                                                                                                                                                                                           s ",
"s                                                                                                                                                                                                                                                                           s ",
"s                                                                                                                                                                                                                                                                           s ",
"s                                                                                                                                                                                                                                                                           s ",
"s                                                                                                                                                                                                                                                                           s ",
"s                                                                                                                                                                                                                                                                           s ",
"h                                                                                                                                                                                                                                                                           h ",
"9 h p u u u u u u u u u u u u u u u u u u u u u u u u u u u u u u u u u u u u u u u u u u u u u u u u u u u u u u u u u u u u u u u u u u u u u u u u u u u u u u u u u u u u u u u u u u u u u u u u u u u u u u u u u u u u u u u u u u u u u u u u u u u u u u u u u p h 9 "
};
