/* XPM */
static char *trans_2[] = {
/* columns rows colors chars-per-pixel */
"135 43 193 2 ",
"   c #383F49",
".  c #39404A",
"X  c #3A414A",
"o  c #3A414B",
"O  c #3B424C",
"+  c #3C434D",
"@  c #3D444D",
"#  c #3D444E",
"$  c #3E454F",
"%  c #404750",
"&  c #414751",
"*  c #434A53",
"=  c #444B54",
"-  c #454C55",
";  c #464D56",
":  c #474D57",
">  c #484E57",
",  c #484F58",
"<  c #495059",
"1  c #4C525B",
"2  c #4C535C",
"3  c #4D535C",
"4  c #4E545D",
"5  c #4F555E",
"6  c #4F565E",
"7  c #50565F",
"8  c #515760",
"9  c #535962",
"0  c #545A63",
"q  c #555B63",
"w  c #565C64",
"e  c #565C65",
"r  c #575D66",
"t  c #595F67",
"y  c #5A5F68",
"u  c #5A6068",
"i  c #5B6169",
"p  c #5D626B",
"a  c #5D636B",
"s  c #5E646C",
"d  c #5F656D",
"f  c #61666E",
"g  c #61676F",
"h  c #636870",
"j  c #646971",
"k  c #646A72",
"l  c #656B72",
"z  c #666B73",
"x  c #686D75",
"c  c #686E75",
"v  c #696E76",
"b  c #6A6F77",
"n  c #6B7077",
"m  c #6C7178",
"M  c #6C7179",
"N  c #6D727A",
"B  c #6E737A",
"V  c #6F747B",
"C  c #70757C",
"Z  c #72777E",
"A  c #73777F",
"S  c #73787F",
"D  c #747980",
"F  c #757A81",
"G  c #767A81",
"H  c #777C83",
"J  c #787D84",
"K  c #797D84",
"L  c #7A7E85",
"P  c #7A7F86",
"I  c #7B8086",
"U  c #7D8188",
"Y  c #7E8389",
"T  c #81868C",
"R  c #83878E",
"E  c #84898F",
"W  c #868A90",
"Q  c #878B91",
"!  c #888C92",
"~  c #888D93",
"^  c #898D93",
"/  c #8A8E94",
"(  c #8B8F95",
")  c #8B9095",
"_  c #8D9197",
"`  c #8E9298",
"'  c #8F9398",
"]  c #93969C",
"[  c #94989D",
"{  c #95999E",
"}  c #96999F",
"|  c #969A9F",
" . c #979BA0",
".. c #989CA1",
"X. c #9A9DA2",
"o. c #9A9EA3",
"O. c #9B9FA4",
"+. c #9C9FA4",
"@. c #9DA0A5",
"#. c #9DA1A6",
"$. c #9EA2A6",
"%. c #A0A3A8",
"&. c #A2A5AA",
"*. c #A3A6AB",
"=. c #A4A7AB",
"-. c #A4A8AC",
";. c #A5A8AD",
":. c #A6A9AE",
">. c #A7AAAE",
",. c #A8ABAF",
"<. c #A8ABB0",
"1. c #A9ACB0",
"2. c #AAADB1",
"3. c #ABAEB3",
"4. c #ACAFB3",
"5. c #AEB1B5",
"6. c #AFB2B6",
"7. c #B2B4B8",
"8. c #B4B7BA",
"9. c #B5B7BB",
"0. c #B7BABD",
"q. c #B9BBBF",
"w. c #BABCBF",
"e. c #BBBDC1",
"r. c #BCBEC2",
"t. c #BDBFC2",
"y. c #BEC1C4",
"u. c #BFC1C4",
"i. c #C0C2C5",
"p. c #C1C3C6",
"a. c #C2C4C7",
"s. c #C4C7C9",
"d. c #C5C7CA",
"f. c #C6C8CB",
"g. c #C7C9CC",
"h. c #C8CACC",
"j. c #C9CBCE",
"k. c #CACCCE",
"l. c #CBCDD0",
"z. c #CCCED1",
"x. c #CDCFD1",
"c. c #CFD0D3",
"v. c #CFD1D3",
"b. c #D0D2D4",
"n. c #D2D3D6",
"m. c #D3D4D6",
"M. c #D3D5D7",
"N. c #D4D6D8",
"B. c #D5D6D8",
"V. c #D6D7D9",
"C. c #D6D8DA",
"Z. c #D7D9DB",
"A. c #DADCDD",
"S. c #DBDCDE",
"D. c #DCDDDF",
"F. c #DDDEE0",
"G. c #DDDFE0",
"H. c #DEDFE1",
"J. c #DFE0E2",
"K. c #E0E1E2",
"L. c #E1E2E3",
"P. c #E1E2E4",
"I. c #E2E3E5",
"U. c #E3E4E5",
"Y. c #E4E5E6",
"T. c #E5E6E7",
"R. c #E6E7E8",
"E. c #E7E8E9",
"W. c #E8E9EA",
"Q. c #E9EAEB",
"!. c #EAEBEC",
"~. c #EBEBEC",
"^. c #ECEDEE",
"/. c #EEEEEF",
"(. c #EFEFF0",
"). c #F0F1F1",
"_. c #F1F1F2",
"`. c #F2F2F3",
"'. c #F3F3F4",
"]. c #F3F4F4",
"[. c #F4F4F5",
"{. c #F5F5F6",
"}. c #F6F7F7",
"|. c #F7F7F8",
" X c #F8F8F9",
".X c #F9F9F9",
"XX c gray98",
"oX c #FAFAFB",
"OX c #FBFBFB",
"+X c #FDFDFD",
"@X c #FDFDFE",
"#X c #FEFEFE",
"$X c white",
/* pixels */
"b Y.$X$X$X$X$X$X$X$X$X$X$X$X$X$X$X$X$X$X$X$X$X$X$X$X$X$X$X$X$X$X$X$X$X$X$X$X$X$X$X$X$X$X$X$X$X$X$X$X$X$X$X$X$X$X$X$X$X$X$X$X$X$X$X$X$X$X$X$X$X$X$X$X$X$X$X$X$X$X$X$X$X$X$X$X$X$X$X$X$X$X$X$X$X$X$X$X$X$X$X$X$X$X$X$X$X$X$X$X$X$X$X$X$X$X$X$X$X$X$X$X$X$X$X$X$X$X$X$X$X$X$XU.v ",
"Y.$X$X$X$X$X$X$X$X$X$X$X$X$X$X$X$X$X$X$X$X$X$X$X$X$X$X$X$X$X$X$X$X$X$X$X$X$X$X$X$X$X$X$X$X$X$X$X$X$X$X$X$X$X$X$X$X$X$X$X$X$X$X$X$X$X$X$X$X$X$X$X$X$X$X$X$X$X$X$X$X$X$X$X$X$X$X$X$X$X$X$X$X$X$X$X$X$X$X$X$X$X$X$X$X$X$X$X$X$X$X$X$X$X$X$X$X$X$X$X$X$X$X$X$X$X$X$X$X$X$X$X$X$XU.",
"$X$X$X$X$X$X$X$X$X$X$X$X$X$X$X$X$X$X$X$X$X$X$X$X$X$X$X$X$X$X$X$X$X$X$X$X$X$X$X$X$X$X$X$X$X$X$X$X$X$X$X$X$X$X$X$X$X$X$X$X$X$X$X$X$X$X$X$X$X$X$X$X$X$X$X$X$X$X$X$X$X$X$X$X$X$X$X$X$X$X$X$X$X$X$X$X$X$X$X$X$X$X$X$X$X$X$X$X$X$X$X$X$X$X$X$X$X$X$X$X$X$X$X$X$X$X$X$X$X$X$X$X$X$X$X",
"$X$X$X$X$X$X$X$X$X$X$X$X$X$X$X$X$X$X$X$X$X$X$X$X$X$X$X$X$X$X$X$X$X$X$X$X$X$X$X$X$X$X$X$X$X$X$X$X$X$X$X$X$X$X$X$X$X$X$X$X$X$X$X$X$X$X$X$X$X$X$X$X$X$X$X$X$X$X$X$X$X$X$X$X$X$X$X$X$X$X$X$X$X$X$X$X$X$X$X$X$X$X$X$X$X$X$X$X$X$X$X$X$X$X$X$X$X$X$X$X$X$X$X$X$X$X$X$X$X$X$X$X$X$X$X",
"$X$X$X$X$X$X$X$X$X$X$X$X$X$X$X$X$X$X$X$X$X$X$X$X$X$X$X$X$X$X$X$X$X$X$X$X$X$X$X$X$X$X$X$X$X$X$X$X$X$X$X$X$X$X$X$X$X$X$X$X$X$X$X$X$X$X$X$X$X$X$X$X$X$X$X$X$X$X$X$X$X$X$X$X$X$X$X$X$X$X$X$X$X$X$X$X$X$X$X$X$X$X$X$X$X$X$X$X$X$X$X$X$X$X$X$X$X$X$X$X$X$X$X$X$X$X$X$X$X$X$X$X$X$X$X",
"$X$X$X$X$X$X$X$X$X$X$X$X$X$X$X$X$X$X$X$X$X$X$X$X$X$X$X$X$X$X$X$X$X$X$X$X$X$X$X$X$X$X$X$X$X$X$X$X$X$X$X$X$X$X$X$X$X$X$X$X$X$X$X$X$X$X$X$X$X$X$X$X$X$X$X$X$X$X$X$X$X$X$X$X$X$X$X$X$X$X$X$X$X$X$X$X$X$X$X$X$X$X$X$X$X$X$X$X$X$X$X$X$X$X$X$X$X$X$X$X$X$X$X$X$X$X$X$X$X$X$X$X$X$X$X",
"$X$X$X$X$X$X$X$X$X$X$X$X$X$X$X$X$X$X$X$X$X$X$X$X$X$X$X$X$X$X$X$X$X$X$X$X$X$X$X$X$X$X$X$X$X$X$X$X$X$X$X$X$X$X$X$X$X$X$X$X$X$X$X$X$X$X$X$X$X$X$X$X$X$X$X$X$X$X$X$X$X$X$X$X$X$X$X$X$X$X$X$X$X$X$X$X$X$X$X$X$X$X$X$X$X$X$X$X$X$X$X$X$X$X$X$X$X$X$X$X$X$X$X$X$X$X$X$X$X$X$X$X$X$X$X",
"$X$X$X$X$X$X$X$X$X$X$X$X$X$X$X$X$X$X$X$X$X$X$X$X$X$X$X$X$X$X$X$X$X$X$X$X$X$X$X$X$X$X$X$X$X$X$X$X$X$X$X$X$X$X$X$X$X$X$X$X$X$X$X$X$X$X$X$X$X$X$X$X$X$X$X$X$X$X$X$X$X$X$X$X$X$X$X$X$X$X$X$X$X$X$X$X$X$X$X$X$X$X$X$X$X$X$X$X$X$X$X$X$X$X$X$X$X$X$X$X$X$X$X$X$X$X$X$X$X$X$X$X$X$X$X",
"$X$X$X$X$X$X$X$X$X$X$X$X$X$X$X$X$X$X$X$X$X$X$X$X$X$X$X$X$X$X$X$X$X$X$X$X$X$X$X$X$X$X$X$X$X$X$X$X$X$X$X$X$X$X$X$X$X$X$X$X$X$X$X$X$X$X$X$X$X$X$X$X$X$X$X$X$X$X$X$X$X$X$X$X$X$X$X$X$X$X$X$X$X$X$X$X$X$X$X$X$X$X$X$X$X$X$X$X$X$X$X$X$X$X$X$X$X$X$X$X$X$X$X$X$X$X$X$X$X$X$X$X$X$X$X",
"$X$X$X$X$X$X$X$X$X$X$X$X$X$X$X$X$X$X$X$X$X$X$X$X$X$X$X$X$X$X$X$X$X$X$X$X$X$X$X$X$X$X$X$X$X$X$X$X$X$X$X$X$X$X$X$X$X$X$X$X$X$X$X$X$X$X$X$X$X$X$X$X$X$X$X$X$X$X$X$X$X$X$X$X$X$X$X$X$X$X$X$X$X$X$X$X$X$X$X$X$X$X$X$X$X$X$X$X$X$X$X$X$X$X$X$X$X$X$X$X$X$X$X$X$X$X$X$X$X$X$X$X$X$X$X",
"$X$X$X$X$X$X$X$X$X$X$X$X$X$X$X$X$X$X$X$X$X$X$X$X$X$X$X$X$X$X$X$X$X$X$X$X$X$X$X$X$X$X$X$X$X$X$X$X$X$X$X$X$X$X$X$X$X$X$X$X$X$X$X$X$X$X$X$X$X$X$X$X$X$X$X$X$X$X$X$X$X$X$X$X$X$X$X$X$X$X$X$X$X$X$X$X$X$X$X$X$X$X$X$X$X$X$X$X$X$X$X$X$X$X$X$X$X$X$X$X$X$X$X$X$X$X$X$X$X$X$X$X$X$X$X",
"$X$X$X$X$X$X$X$X$X$X$X$X$X$X$X$X$X$X$X$X$X$X$X$X$X$X$X$X$X$X$X$X$X$X$X$X$X$X$X$X$X$X$X$X$X$X$X$X$X$X$X$X$X$X$X$X$X$X$X$X$X$X$X$X$X$X$X$X$X$X$X$X$X$X$X$X$X$X$X$X$X$X$X$X$X$X$X$X$X$X$X$X$X$X$X$X$X$X$X$X$X$X$X$X$X$X$X$X$X$X$X$X$X$X$X$X$X$X$X$X$X$X$X$X$X$X$X$X$X$X$X$X$X$X$X",
"$X$X$X$X$X$X$X$X$X$X$X$X$X$X$X$X$X$X$X$X$X$X$X$X$X$X$X$X$X$X$X$X$X$X$X$X$X$X$X$X$X$X$X$X$X$X$X$X$X$X$X$X$X$X$X$X$X$X$X$X$X$X$X$X$X$X$X$X$X$X$X$X$X$X$X$X$X$X$X$X$X$X$X$X$X$X$X$X$X$X$X$X$X$X$X$X$X$X$X$X$X$X$X$X$X$X$X$X$X$X$X$X$X$X$X$X$X$X$X$X$X$X$X$X$X$X$X$X$X$X$X$X$X$X$X",
"$X$X$X$X$X$X$X$X$X$X$X$X$X$X$X$X$X$X$X$X$X$X$X$X$X$X$X$X$X$X$X$X$X$X$X$X$X$X$X$X$X$X$X$X$X$X$X$X$X$X$X$X$X$X$X$X$X$X$X$X$X$X$X$X$X$X$X$X$X$X$X$X$X$X$X$X$X$X$XD.Z.Z.G.$X$X$X$X$X$X$X$X$X$X$X$X$X$X$X$X$X$X$X$X$X$X$X$X$X$X$X$X$X$X$X$X$X$X$X$X$X$X$X$X$X$X$X$X$X$X$X$X$X$X$X$X",
"$X$X$X$X$X$X$X$X$X$X$X$Xw.{ { { { { { { { { { { { { 0.$X$X$X$X$X$X$X$X$X$X$X$X$X$X$X$X$X$X$X$X$X$X$X$X$X$X$X$X$X$X$X$X$X$X$X$X$X$X$X$X$X$X$X$X$X$X$X$X$X$X$X$X5     r $X$X$X$X$X$X$X$X$X$X$X$X$X$X$X$X$X$X$X$X$X$X$X$X$X$X$X$X$X$X$X$X$X$X$X$X$X$X$X$X$X$X$X$X$X$X$X$X$X$X$X$X",
"$X$X$X$X$X$X$X$X$X$X$X$XU                           K $X$X$X$X$X$X$X$X$X$X$X$X$X$X$X$X$X$X$X$X$X$X$X$X$X$X$X$X$X$X$X$X$X$X$X$X$X$X$X$X$X$X$X$X$X$X$X$X$X$X$X$X5     r $X$X$X$X$X$X$X$X$X$X$X$X$X$X$X$X$X$Xg     = $X$X$X$X$X$X$X$X$X$X$X$X$X$X$X$X$X$X$X$X$X$X$X$X$X$X$X$X$X$X",
"$X$X$X$X$X$X$X$X$X$X$X$XU                           K $X$X$X$X$X$X$X$X$X$X$X$X$X$X$X$X$X$X$X$X$X$X$X$X$X$X$X$X$X$X$X$X$X$X$X$X$X$X$X$X$X$X$X$X$X$X$X$X$X$X$X$X5     r $X$X$X$X$X$X$X$X$X$X$X$X$X$X$X$X$X$Xg     = $X$X$X$X$X$X$X$X$X$X$X$X$X$X$X$X$X$X$X$X$X$X$X$X$X$X$X$X$X$X",
"$X$X$X$X$X$X$X$X$X$X$X$Xa.&.&.&.&.B       n &.&.&.&.p.$X$X$X$X$X$X$X$X$X$X$X$X$X$X$X$X$X$X$X$X$X$X$X$X$X$X$X$X$X$X$X$X$X$X$X$X$X$X$X$X$X$X$X$X$X$X$X$X$X$X$X$X5     r $X$X$X$X$X$X$X$X$X$X$X$X$X$X$X$X$X$Xg     = $X$X$X$X$X$X$X$X$X$X$X$X$X$X$X$X$X$X$X$X$X$X$X$X$X$X$X$X$X$X",
"$X$X$X$X$X$X$X$X$X$X$X$X$X$X$X$X$X@.      ..$X$X$X$Xo.P P Y $Xs.N 1 d $XoX;.T h 0 > 2 s ~ C.$X$X$X$X$X[ P P E $Xs.B 1 7 T R.$X$X$X$X$Xi.P d 1 3 i F @.S.$X$X$X5     r $X$X$XL.X.G a 7 - 7 n $.(.$X$X$X1.P ;     + P P P  .$X$X$X@Xy.I q : 7 D e.@X$X$X$X$X$X$X$X$X$X$X$X$X$X$X",
"$X$X$X$X$X$X$X$X$X$X$X$X$X$X$X$X$X@.      ..$X$X$X$Xx     $ 2..     2 $X).                X ,.$X$X$X$Xd     : }           1 /.$X$X$X]                 ..$X$X$X5     r $X$X$X5.                , A.$X$XY                 j $X$X`.n               V {.$X$X$X$X$X$X$X$X$X$X$X$X$X",
"$X$X$X$X$X$X$X$X$X$X$X$X$X$X$X$X$X@.      ..$X$X$X$Xx     X +       1 $X).  1 A ! _ A @     o L.$X$X$Xd           -         } $X$X~.X     w / ( S 4   ..$X$X$X5     r $X$X$X5.  p K ' ! a       s #X$XY                 j $X#XM       s ) n       L $X$X$X$X$X$X$X$X$X$X$X$X$X",
"$X$X$X$X$X$X$X$X$X$X$X$X$X$X$X$X$X@.      ..$X$X$X$Xx       # *.L.Y.t.$X Xf.+X$X$X$X$Xp.      #.$X$X$Xd       u E.$Xr.      n $X$Xx.      /.$X$X$X#XV.v.$X$X$X5     r $X$X$XF.J.$X$X$X$X$XY       K.$X$X$Xg     = $X$X$X$X$Xs.      T @X$X$X`       B.$X$X$X$X$X$X$X$X$X$X$X$X",
"$X$X$X$X$X$X$X$X$X$X$X$X$X$X$X$X$X@.      ..$X$X$X$Xx       %.$X$X$X$X$X$X$X].x.q.<.&.O.      Y $X$X$Xd       l.$X$X$X:     8 $X$XP.      C 4.n.}.$X$X$X$X$X$X5     r $X$X$X$X$XT.d.8.=.&.J       i.$X$X$Xg     = $X$X$X$X$XW       M.`.`.`.c.      | $X$X$X$X$X$X$X$X$X$X$X$X",
"$X$X$X$X$X$X$X$X$X$X$X$X$X$X$X$X$X@.      ..$X$X$X$Xx       Q.$X$X$X$X$XXX( @                 S $X$X$Xd     X oX$X$X$X9     : $X$X+Xe           o y +.}.$X$X$X5     r $X$X$XK.z                   9.$X$X$Xg     = $X$X$X$X$Xv                       P $X$X$X$X$X$X$X$X$X$X$X$X",
"$X$X$X$X$X$X$X$X$X$X$X$X$X$X$X$X$X@.      ..$X$X$X$Xx     O @X$X$X$X$X$X(       # s N b       A $X$X$Xd     ; $X$X$X$Xy     : $X$X$XT.K .             m $X$X$X5     r $X$X|.6       > l N t       8.$X$X$Xg     = $X$X$X$X$Xk                       C $X$X$X$X$X$X$X$X$X$X$X$X",
"$X$X$X$X$X$X$X$X$X$X$X$X$X$X$X$X$X@.      ..$X$X$X$Xx     $ $X$X$X$X$X+X&     2 ~.$X$XW.      A $X$X$Xd     : $X$X$X$Xi     : $X$X$X$X$X`.h.*.R ;       T.$X$X5     r $X$Xa.      Y OX$X$X>.      8.$X$X$Xg     = $X$X$X$X$XH       g.Z.Z.Z.Z.Z.Z.Z.I.$X$X$X$X$X$X$X$X$X$X$X$X",
"$X$X$X$X$X$X$X$X$X$X$X$X$X$X$X$X$X@.      ..$X$X$X$Xx     $ $X$X$X$X$X_.      C $X$X$X3.      A $X$X$Xd     : $X$X$X$Xi     : $X$XoX'.$X$X$X$X$Xu.      k.$X$X5     r $X$X5.      7.$X$X#Xb       8.$X$X$XB     O }.$X$X$X$X<.      :.$X$X$X$X$X$Xz./.$X$X$X$X$X$X$X$X$X$X$X$X",
"$X$X$X$X$X$X$X$X$X$X$X$X$X$X$X$X$X@.      ..$X$X$X$Xx     $ $X$X$X$X$X+X*     @ 6.N.-.%       A $X$X$Xd     : $X$X$X$Xi     : $X$X!.# J 6.d.Z.j.m       G.$X$X5     r $X$Xs.      t h.x.Y         8.$X$X$XQ       e L P a.$X].>     @ ] l.Z.d.@.i   H.$X$X$X$X$X$X$X$X$X$X$X$X",
"$X$X$X$X$X$X$X$X$X$X$X$X$X$X$X$X$X@.      ..$X$X$X$Xx     $ $X$X$X$X$X$X]             k       A $X$X$Xd     : $X$X$X$Xi     : $X$X!.                  m $X$X$X5     r $X$XXXq             k       8.$X$X$Xj..           =.$X$Xz.&                   H.$X$X$X$X$X$X$X$X$X$X$X$X",
"$X$X$X$X$X$X$X$X$X$X$X$X$X$X$X$X$X@.      ..$X$X$X$Xx     $ $X$X$X$X$X$XOX^ o     X Y !.      A $X$X$Xd     : $X$X$X$Xi     : $X$X'.Z :           & ~ [.$X$X$X5     r $X$X$XU.f       * 4.7.      8.$X$X$X$Xw.k <       =.$X$X$XL.I @         o l $.[.$X$X$X$X$X$X$X$X$X$X$X$X",
"$X$X$X$X$X$X$X$X$X$X$X$X$X$X$X$X$X$X$X$X$X$X$X$X$X$X$X$X$X$X$X$X$X$X$X$X$X$X_.b.l.^.$X$X$X$X$X$X$X$X$X$X$X$X$X$X$X$X$X$X$X$X$X$X$X$X$X$XW.B.f.c.L.oX$X$X$X$X$X$X$X$X$X$X$X$X$X$XT.j.m..X$X$X$X$X$X$X$X$X$X$X$X$X$X$X$X$X$X$X$X$X$X$X.XC.f.c.K.|.$X$X$X$X$X$X$X$X$X$X$X$X$X$X$X",
"$X$X$X$X$X$X$X$X$X$X$X$X$X$X$X$X$X$X$X$X$X$X$X$X$X$X$X$X$X$X$X$X$X$X$X$X$X$X$X$X$X$X$X$X$X$X$X$X$X$X$X$X$X$X$X$X$X$X$X$X$X$X$X$X$X$X$X$X$X$X$X$X$X$X$X$X$X$X$X$X$X$X$X$X$X$X$X$X$X$X$X$X$X$X$X$X$X$X$X$X$X$X$X$X$X$X$X$X$X$X$X$X$X$X$X$X$X$X$X$X$X$X$X$X$X$X$X$X$X$X$X$X$X$X$X",
"$X$X$X$X$X$X$X$X$X$X$X$X$X$X$X$X$X$X$X$X$X$X$X$X$X$X$X$X$X$X$X$X$X$X$X$X$X$X$X$X$X$X$X$X$X$X$X$X$X$X$X$X$X$X$X$X$X$X$X$X$X$X$X$X$X$X$X$X$X$X$X$X$X$X$X$X$X$X$X$X$X$X$X$X$X$X$X$X$X$X$X$X$X$X$X$X$X$X$X$X$X$X$X$X$X$X$X$X$X$X$X$X$X$X$X$X$X$X$X$X$X$X$X$X$X$X$X$X$X$X$X$X$X$X$X",
"$X$X$X$X$X$X$X$X$X$X$X$X$X$X$X$X$X$X$X$X$X$X$X$X$X$X$X$X$X$X$X$X$X$X$X$X$X$X$X$X$X$X$X$X$X$X$X$X$X$X$X$X$X$X$X$X$X$X$X$X$X$X$X$X$X$X$X$X$X$X$X$X$X$X$X$X$X$X$X$X$X$X$X$X$X$X$X$X$X$X$X$X$X$X$X$X$X$X$X$X$X$X$X$X$X$X$X$X$X$X$X$X$X$X$X$X$X$X$X$X$X$X$X$X$X$X$X$X$X$X$X$X$X$X$X",
"$X$X$X$X$X$X$X$X$X$X$X$X$X$X$X$X$X$X$X$X$X$X$X$X$X$X$X$X$X$X$X$X$X$X$X$X$X$X$X$X$X$X$X$X$X$X$X$X$X$X$X$X$X$X$X$X$X$X$X$X$X$X$X$X$X$X$X$X$X$X$X$X$X$X$X$X$X$X$X$X$X$X$X$X$X$X$X$X$X$X$X$X$X$X$X$X$X$X$X$X$X$X$X$X$X$X$X$X$X$X$X$X$X$X$X$X$X$X$X$X$X$X$X$X$X$X$X$X$X$X$X$X$X$X$X",
"$X$X$X$X$X$X$X$X$X$X$X$X$X$X$X$X$X$X$X$X$X$X$X$X$X$X$X$X$X$X$X$X$X$X$X$X$X$X$X$X$X$X$X$X$X$X$X$X$X$X$X$X$X$X$X$X$X$X$X$X$X$X$X$X$X$X$X$X$X$X$X$X$X$X$X$X$X$X$X$X$X$X$X$X$X$X$X$X$X$X$X$X$X$X$X$X$X$X$X$X$X$X$X$X$X$X$X$X$X$X$X$X$X$X$X$X$X$X$X$X$X$X$X$X$X$X$X$X$X$X$X$X$X$X$X",
"$X$X$X$X$X$X$X$X$X$X$X$X$X$X$X$X$X$X$X$X$X$X$X$X$X$X$X$X$X$X$X$X$X$X$X$X$X$X$X$X$X$X$X$X$X$X$X$X$X$X$X$X$X$X$X$X$X$X$X$X$X$X$X$X$X$X$X$X$X$X$X$X$X$X$X$X$X$X$X$X$X$X$X$X$X$X$X$X$X$X$X$X$X$X$X$X$X$X$X$X$X$X$X$X$X$X$X$X$X$X$X$X$X$X$X$X$X$X$X$X$X$X$X$X$X$X$X$X$X$X$X$X$X$X$X",
"$X$X$X$X$X$X$X$X$X$X$X$X$X$X$X$X$X$X$X$X$X$X$X$X$X$X$X$X$X$X$X$X$X$X$X$X$X$X$X$X$X$X$X$X$X$X$X$X$X$X$X$X$X$X$X$X$X$X$X$X$X$X$X$X$X$X$X$X$X$X$X$X$X$X$X$X$X$X$X$X$X$X$X$X$X$X$X$X$X$X$X$X$X$X$X$X$X$X$X$X$X$X$X$X$X$X$X$X$X$X$X$X$X$X$X$X$X$X$X$X$X$X$X$X$X$X$X$X$X$X$X$X$X$X$X",
"$X$X$X$X$X$X$X$X$X$X$X$X$X$X$X$X$X$X$X$X$X$X$X$X$X$X$X$X$X$X$X$X$X$X$X$X$X$X$X$X$X$X$X$X$X$X$X$X$X$X$X$X$X$X$X$X$X$X$X$X$X$X$X$X$X$X$X$X$X$X$X$X$X$X$X$X$X$X$X$X$X$X$X$X$X$X$X$X$X$X$X$X$X$X$X$X$X$X$X$X$X$X$X$X$X$X$X$X$X$X$X$X$X$X$X$X$X$X$X$X$X$X$X$X$X$X$X$X$X$X$X$X$X$X$X",
"$X$X$X$X$X$X$X$X$X$X$X$X$X$X$X$X$X$X$X$X$X$X$X$X$X$X$X$X$X$X$X$X$X$X$X$X$X$X$X$X$X$X$X$X$X$X$X$X$X$X$X$X$X$X$X$X$X$X$X$X$X$X$X$X$X$X$X$X$X$X$X$X$X$X$X$X$X$X$X$X$X$X$X$X$X$X$X$X$X$X$X$X$X$X$X$X$X$X$X$X$X$X$X$X$X$X$X$X$X$X$X$X$X$X$X$X$X$X$X$X$X$X$X$X$X$X$X$X$X$X$X$X$X$X$X",
"$X$X$X$X$X$X$X$X$X$X$X$X$X$X$X$X$X$X$X$X$X$X$X$X$X$X$X$X$X$X$X$X$X$X$X$X$X$X$X$X$X$X$X$X$X$X$X$X$X$X$X$X$X$X$X$X$X$X$X$X$X$X$X$X$X$X$X$X$X$X$X$X$X$X$X$X$X$X$X$X$X$X$X$X$X$X$X$X$X$X$X$X$X$X$X$X$X$X$X$X$X$X$X$X$X$X$X$X$X$X$X$X$X$X$X$X$X$X$X$X$X$X$X$X$X$X$X$X$X$X$X$X$X$X$X",
"U.$X$X$X$X$X$X$X$X$X$X$X$X$X$X$X$X$X$X$X$X$X$X$X$X$X$X$X$X$X$X$X$X$X$X$X$X$X$X$X$X$X$X$X$X$X$X$X$X$X$X$X$X$X$X$X$X$X$X$X$X$X$X$X$X$X$X$X$X$X$X$X$X$X$X$X$X$X$X$X$X$X$X$X$X$X$X$X$X$X$X$X$X$X$X$X$X$X$X$X$X$X$X$X$X$X$X$X$X$X$X$X$X$X$X$X$X$X$X$X$X$X$X$X$X$X$X$X$X$X$X$X$X$XU.",
"v U.$X$X$X$X$X$X$X$X$X$X$X$X$X$X$X$X$X$X$X$X$X$X$X$X$X$X$X$X$X$X$X$X$X$X$X$X$X$X$X$X$X$X$X$X$X$X$X$X$X$X$X$X$X$X$X$X$X$X$X$X$X$X$X$X$X$X$X$X$X$X$X$X$X$X$X$X$X$X$X$X$X$X$X$X$X$X$X$X$X$X$X$X$X$X$X$X$X$X$X$X$X$X$X$X$X$X$X$X$X$X$X$X$X$X$X$X$X$X$X$X$X$X$X$X$X$X$X$X$X$X$XU.c "
};
