/* XPM */
static char *trans_1[] = {
/* columns rows colors chars-per-pixel */
"135 43 186 2 ",
"   c #383F49",
".  c #39404A",
"X  c #3A414A",
"o  c #3A414B",
"O  c #3B424C",
"+  c #3C434D",
"@  c #3D444D",
"#  c #3D444E",
"$  c #3E454F",
"%  c #3F464F",
"&  c #414751",
"*  c #414852",
"=  c #424952",
"-  c #444B54",
";  c #454C55",
":  c #464D56",
">  c #474D57",
",  c #484E57",
"<  c #484F58",
"1  c #495059",
"2  c #4B515A",
"3  c #4C525B",
"4  c #4C535C",
"5  c #4D535C",
"6  c #4E545D",
"7  c #4F565E",
"8  c #50565F",
"9  c #515760",
"0  c #525861",
"q  c #535962",
"w  c #545A63",
"e  c #555B63",
"r  c #565C65",
"t  c #575D66",
"y  c #595F67",
"u  c #5A5F68",
"i  c #5A6068",
"p  c #5B6169",
"a  c #5D636B",
"s  c #5E646C",
"d  c #60656D",
"f  c #61666E",
"g  c #61676F",
"h  c #626870",
"j  c #636870",
"k  c #646971",
"l  c #646A72",
"z  c #656B72",
"x  c #676C74",
"c  c #686D75",
"v  c #686E75",
"b  c #696E76",
"n  c #6B7077",
"m  c #6C7178",
"M  c #6C7179",
"N  c #6D727A",
"B  c #6F747B",
"V  c #6F747C",
"C  c #71767D",
"Z  c #72777E",
"A  c #73787F",
"S  c #757A81",
"D  c #767A81",
"F  c #767B82",
"G  c #797D84",
"H  c #7A7E85",
"J  c #7B8086",
"K  c #7D8289",
"L  c #7F848A",
"P  c #81858B",
"I  c #81868C",
"U  c #83878E",
"Y  c #84888E",
"T  c #84898F",
"R  c #868A90",
"E  c #888C92",
"W  c #888D93",
"Q  c #8A8E94",
"!  c #8B8F95",
"~  c #8C9095",
"^  c #8C9096",
"/  c #8E9298",
"(  c #8F9398",
")  c #8F9399",
"_  c #90949A",
"`  c #91959A",
"'  c #93969C",
"]  c #93979D",
"[  c #94989D",
"{  c #96999F",
"}  c #979BA0",
"|  c #989CA1",
" . c #9A9EA3",
".. c #9DA1A6",
"X. c #A0A3A8",
"o. c #A1A4A9",
"O. c #A1A5A9",
"+. c #A3A6AB",
"@. c #A4A7AB",
"#. c #A4A8AC",
"$. c #A5A8AD",
"%. c #A6A9AE",
"&. c #A8ABAF",
"*. c #A8ABB0",
"=. c #ABAEB2",
"-. c #ACAFB3",
";. c #ADB0B4",
":. c #AEB1B5",
">. c #AFB1B5",
",. c #B0B3B7",
"<. c #B3B6BA",
"1. c #B4B7BA",
"2. c #B5B7BB",
"3. c #B6B8BC",
"4. c #B7BABD",
"5. c #B8BABE",
"6. c #B9BBBF",
"7. c #BABCBF",
"8. c #BABDC0",
"9. c #BBBDC1",
"0. c #BCBEC2",
"q. c #BDBFC2",
"w. c #BDC0C3",
"e. c #BEC1C4",
"r. c #BFC1C4",
"t. c #C1C3C6",
"y. c #C2C4C7",
"u. c #C4C6C9",
"i. c #C4C7C9",
"p. c #C5C7CA",
"a. c #C7C9CC",
"s. c #C8CACC",
"d. c #C8CACD",
"f. c #C9CBCE",
"g. c #CACCCE",
"h. c #CBCDCF",
"j. c #CBCDD0",
"k. c #CCCED1",
"l. c #CDCFD1",
"z. c #CED0D2",
"x. c #CFD0D3",
"c. c #CFD1D3",
"v. c #D0D2D4",
"b. c #D2D3D6",
"n. c #D3D4D6",
"m. c #D3D5D7",
"M. c #D4D6D8",
"N. c #D5D6D8",
"B. c #D6D8DA",
"V. c #D7D9DB",
"C. c #D8D9DB",
"Z. c #D9DADC",
"A. c #DADBDD",
"S. c #DADCDD",
"D. c #DBDCDE",
"F. c #DCDDDF",
"G. c #DDDEE0",
"H. c #DDDFE0",
"J. c #DEDFE1",
"K. c #DFE0E2",
"L. c #E0E1E2",
"P. c #E1E2E4",
"I. c #E2E3E5",
"U. c #E3E4E5",
"Y. c #E4E5E6",
"T. c #E4E5E7",
"R. c #E5E6E7",
"E. c #E7E8E9",
"W. c #E8E9EA",
"Q. c #E9EAEB",
"!. c #EAEBEC",
"~. c #EBEBEC",
"^. c #ECEDEE",
"/. c #EDEEEF",
"(. c #EEEEEF",
"). c #EFEFF0",
"_. c #EFF0F1",
"`. c #F0F1F1",
"'. c #F1F1F2",
"]. c #F2F2F3",
"[. c #F3F3F4",
"{. c #F3F4F4",
"}. c #F4F4F5",
"|. c #F5F5F6",
" X c #F6F6F6",
".X c #F6F7F7",
/* pixels */
"e x g d d d d d d d d d d d d d d d d d d d d d d d d d d d d d d d d d d d d d d d d d d d d d d d d d d d d d d d d d d d d d d d d d d d d d d d d d d d d d d d d d d d d d d d d d d d d d d d d d d d d d d d d d d d d d d d d d d d d d d d d d d d d d d d d d g x e ",
"x                                                                                                                                                                                                                                                                           x ",
"k                                                                                                                                                                                                                                                                           k ",
"k                                                                                                                                                                                                                                                                           k ",
"k                                                                                                                                                                                                                                                                           k ",
"k                                                                                                                                                                                                                                                                           k ",
"k                                                                                                                                                                                                                                                                           k ",
"k                                                                                                                                                                                                                                                                           k ",
"k                                                                                                                                                                                                                                                                           k ",
"k                                                                                                                                                                                                                                                                           k ",
"k                                                                                                                                                                                                                                                                           k ",
"k                                                                                                                                                                                                                                                                           k ",
"k                                                                                                                                                                                                                                                                           k ",
"k                                                                                                                                                             7 0 0 5                                                                                                       k ",
"k                       Z ..........................Y                                                                                                         T..X.Xm.                                                                                                      k ",
"k                       @..X.X.X.X.X.X.X.X.X.X.X.X.Xp.                                                                                                        T..X.Xm.                                    x.!.!.m.                                                          k ",
"k                       @..X.X.X.X.X.X.X.X.X.X.X.X.Xp.                                                                                                        T..X.Xm.                                    A..X.XJ.                                                          k ",
"k                       Z ........y..X.X.Xn.........Y                                                                                                         T..X.Xm.                                    A..X.XJ.                                                          k ",
"k                                 R .X.X.X*.        _ 4.4.4.+ x w.L.Z.  X W =.j.C.Y.L.v.*.d            .4.4.,.  m w.P.G.:.7           Z 3.l.P.K.b.6.] t       T..X.Xm.      r } 7.v.G.E.G.y.( -       ` 4./..X.X(.4.4.4.'       o G 4.A.T.S.3.V                             k ",
"k                                 R .X.X.X*.        0..X.X.XU }..X.X(.  @ .X.X.X.X.X.X.X.X|.)         j..X.X^.} .X.X.X.X.XY.<       ...X.X.X.X.X.X.X.X|       T..X.Xm.      ~ .X.X.X.X.X.X.X.XI.q     q..X.X.X.X.X.X.X.Xr.    1 j..X.X.X.X.X.X.X2.@                         k ",
"k                                 R .X.X.X*.        0..X.X.X'..X.X.X(.  @ .XE.t.;.%.w.'..X.X Xu       j..X.X.X.X.X~..X.X.X.X..    2 |..X.XD.*.*.r.I..X|       T..X.Xm.      ~ .Xn.7.#.-.B..X.X.Xd.    q..X.X.X.X.X.X.X.Xr.  O z..X.X.Xl.&.l..X.X.X$.                        k ",
"k                                 R .X.X.X*.        0..X.X.X{.{ t 9 G   o Z +         M .X.X.X .      j..X.X.XC.9   D .X.X.Xs.    c .X.X.X,       . f k       T..X.Xm.      i e         . 8..X.X.X4       A..X.XJ.          K .X.X.X+.    . <..X.X}.0                       k ",
"k                                 R .X.X.X*.        0..X.X.X..              = v J ~ ` [ .X.X.X7.      j..X.X.XM       R..X.XL.    w .X.X.Xt.E j &             T..X.Xm.          e C P ` ` w..X.X.Xn       A..X.XJ.          7..X.X.Xh 0 0 0 L .X.X.XQ                       k ",
"k                                 R .X.X.X*.        0..X.X.Xy           @ @.]..X.X.X.X.X.X.X.Xu.      j..X.X X%       A..X.X!.    o C..X.X.X.X.X}.V.} &       T..X.Xm.      i c..X.X.X.X.X.X.X.X.XS       A..X.XJ.          N..X.X.X.X.X.X.X.X.X.X.X$.                      k ",
"k                                 R .X.X.X*.        0..X.X.X*           o..X.X.X'.x.u.i..X.X.Xi.      j..X.X/.        M..X.X!.      7 3.|..X.X.X.X.X.Xu.      T..X.Xm.    = T..X.X.XU.d.u.A..X.X.XD       A..X.XJ.          A..X.X.X.X.X.X.X.X.X.X.X>.                      k ",
"k                                 R .X.X.X*.        0..X.X.X#           W..X.XE.5     > .X.X.Xi.      j..X.X^.        n..X.X!.          = b ^ 1.Q..X.X.X6     T..X.Xm.    G .X.X.X=.X     { .X.X.XD       A..X.XJ.          s..X.X}.l s s s s s s s 8                       k ",
"k                                 R .X.X.X*.        0..X.X.X#         @ .X.X.Xh.      Y .X.X.Xi.      j..X.X^.        n..X.X!.    # ,           S .X.X.Xc     T..X.Xm.    ! .X.X.XJ     o v..X.X.XD       k..X.X^.#         } .X.X.XI           X S &                       k ",
"k                                 R .X.X.X*.        0..X.X.X#           T..X.X|./ z ` )..X.X.Xi.      j..X.X^.        n..X.X!.    3 [.e.~ S h A g..X.X.Xq     T..X.Xm.    S .X.X.XB.C N w..X.X.X.XD       2..X.X.XA.9.4.b   1 ^..X.X`...N j F O.K..X:                       k ",
"k                                 R .X.X.X*.        0..X.X.X#           ' .X.X.X.X.X.Xa..X.X.Xi.      j..X.X^.        n..X.X!.    3 .X.X.X.X.X.X.X.X.Xw.      T..X.Xm.    $ F..X.X.X.X.X Xd..X.X.XD       Z .X.X.X.X.X.XU     B )..X.X.X.X.X.X.X.X.X:                       k ",
"k                                 I !.!.!.O.        <.!.!.!.#           X  ._..X.X{.,.- !.!.!.9.      y.!.!.L.        d.!.!.H.    = 5.L..X.X.X.X.XW.X.%       A.!.!.f.      0 h..X.X.XT.H T !.!.!.Z         H p.L.!.!.!.K       r 3._..X.X.X.X).e.W +                       k ",
"k                                                                           # p j -                                                     ; t z a 3 o                             , l y o                                             + u x a 2 o                             k ",
"k                                                                                                                                                                                                                                                                           k ",
"k                                                                                                                                                                                                                                                                           k ",
"k                                                                                                                                                                                                                                                                           k ",
"k                                                                                                                                                                                                                                                                           k ",
"k                                                                                                                                                                                                                                                                           k ",
"k                                                                                                                                                                                                                                                                           k ",
"k                                                                                                                                                                                                                                                                           k ",
"k                                                                                                                                                                                                                                                                           k ",
"k                                                                                                                                                                                                                                                                           k ",
"k                                                                                                                                                                                                                                                                           k ",
"x                                                                                                                                                                                                                                                                           x ",
"e x g d d d d d d d d d d d d d d d d d d d d d d d d d d d d d d d d d d d d d d d d d d d d d d d d d d d d d d d d d d d d d d d d d d d d d d d d d d d d d d d d d d d d d d d d d d d d d d d d d d d d d d d d d d d d d d d d d d d d d d d d d d d d d d d d d g x e "
};
