/* XPM */
static char *trans_0[] = {
/* columns rows colors chars-per-pixel */
"135 43 135 2 ",
"   c #383F49",
".  c #39404A",
"X  c #3A414A",
"o  c #3A414B",
"O  c #3B424C",
"+  c #3C434D",
"@  c #3D444D",
"#  c #3D444E",
"$  c #3E454F",
"%  c #404750",
"&  c #414751",
"*  c #414852",
"=  c #424952",
"-  c #434A53",
";  c #444A54",
":  c #444B54",
">  c #464D56",
",  c #474D57",
"<  c #484E57",
"1  c #484F58",
"2  c #495059",
"3  c #4A5059",
"4  c #4B515A",
"5  c #4C525B",
"6  c #4C535C",
"7  c #4D535C",
"8  c #4E545D",
"9  c #4F555E",
"0  c #4F565E",
"q  c #515760",
"w  c #525860",
"e  c #525861",
"r  c #535961",
"t  c #545A63",
"y  c #555B63",
"u  c #565C64",
"i  c #565C65",
"p  c #575D66",
"a  c #585E66",
"s  c #595F67",
"d  c #5A5F68",
"f  c #5B6169",
"g  c #5C6169",
"h  c #5C626A",
"j  c #5D626B",
"k  c #5D636B",
"l  c #5E646C",
"z  c #5F656D",
"x  c #60656D",
"c  c #61676F",
"v  c #626870",
"b  c #636870",
"n  c #646971",
"m  c #646A72",
"M  c #656B72",
"N  c #666B73",
"B  c #676C74",
"V  c #686D75",
"C  c #686E75",
"Z  c #696E76",
"A  c #6A6F77",
"S  c #6B7077",
"D  c #6C7178",
"F  c #6C7179",
"G  c #6D727A",
"H  c #6E737A",
"J  c #6F747C",
"K  c #70757C",
"L  c #71767D",
"P  c #73777F",
"I  c #747980",
"U  c #757A81",
"Y  c #767A81",
"T  c #767B82",
"R  c #777C83",
"E  c #787D84",
"W  c #797D84",
"Q  c #7A7E85",
"!  c #7A7F86",
"~  c #7C8187",
"^  c #7D8188",
"/  c #7D8289",
"(  c #7E8389",
")  c #7F848A",
"_  c #81858B",
"`  c #81868C",
"'  c #82878D",
"]  c #83878E",
"[  c #84888E",
"{  c #84898F",
"}  c #858A90",
"|  c #868A90",
" . c #878B91",
".. c #888C92",
"X. c #888D93",
"o. c #898D93",
"O. c #8B8F95",
"+. c #8C9095",
"@. c #8C9096",
"#. c #8D9197",
"$. c #8E9298",
"%. c #8F9398",
"&. c #8F9399",
"*. c #90949A",
"=. c #91959A",
"-. c #92969B",
";. c #93969C",
":. c #93979D",
">. c #94989D",
",. c #95999E",
"<. c #96999F",
"1. c #969A9F",
"2. c #979BA0",
"3. c #989CA1",
"4. c #999CA2",
"5. c #9A9DA2",
"6. c #9A9EA3",
"7. c #9B9FA4",
"8. c #9C9FA4",
"9. c #9DA0A5",
"0. c #9DA1A6",
"q. c #9EA2A6",
"w. c #9FA2A7",
"e. c #A0A3A8",
"r. c #A1A4A9",
"t. c #A1A5A9",
"y. c #A2A5AA",
"u. c #A3A6AB",
"i. c #A4A7AB",
"p. c #A4A8AC",
"a. c #A5A8AD",
"s. c #A6A9AE",
"d. c #A7AAAE",
"f. c #A8ABAF",
"g. c #A8ABB0",
/* pixels */
"w b k g g g g g g g g g g g g g g g g g g g g g g g g g g g g g g g g g g g g g g g g g g g g g g g g g g g g g g g g g g g g g g g g g g g g g g g g g g g g g g g g g g g g g g g g g g g g g g g g g g g g g g g g g g g g g g g g g g g g g g g g g g g g g g g g g k b w ",
"b                                                                                                                                                                                                                                                                           b ",
"x                                                                                                                                                                                                                                                                           x ",
"x                                                                                                                                                                                                                                                                           x ",
"x                                                                                                                                                                                                                                                                           x ",
"x                                                                                                                                                                                                                                                                           x ",
"x                                                                                                                                                                                                                                                                           x ",
"x                                                                                                                                                                                                                                                                           x ",
"x                                                                                                                                                                                                                                                                           x ",
"x                                                                                                                                                                                                                                                                           x ",
"x                                                                                                                                                                                                                                                                           x ",
"x                                                                                                                                                                                                                                                                           x ",
"x                                                                                                                                                                                                                                                                           x ",
"x                                                                                                                                                             > , , :                                                                                                       x ",
"x                       d I I I I I I I I I I I I I m                                                                                                         0.g.g.:.                                                                                                      x ",
"x                       R g.g.g.g.g.g.g.g.g.g.g.g.g.+.                                                                                                        0.g.g.:.                                    =.r.r.:.                                                          x ",
"x                       R g.g.g.g.g.g.g.g.g.g.g.g.g.+.                                                                                                        0.g.g.:.                                    2.g.g.6.                                                          x ",
"x                       d I I I I o.g.g.g.:.I I I I m                                                                                                         0.g.g.:.                                    2.g.g.6.                                                          x ",
"x                                 N g.g.g.!         F ] ] ] o t  .7.1.  . V ~ %.1.0.7.-.! 0           P ] ] )   i  .8.4./ >           d ' *.8.6.;.[ H 4       0.g.g.:.      3 K { -.5.w.4.o.D %       F ] u.g.g.i.] ] ] G       X l ] 2.0.3.' s                             x ",
"x                                 N g.g.g.!         | g.g.g.n d.g.g.u.  o g.g.g.g.g.g.g.g.f.D         &.g.g.y.K g.g.g.g.g.0.*       I g.g.g.g.g.g.g.g.L       0.g.g.:.      Z g.g.g.g.g.g.g.g.9.1      .g.g.g.g.g.g.g.g...    = &.g.g.g.g.g.g.g.` o                         x ",
"x                                 N g.g.g.!         | g.g.g.a.g.g.g.u.  o g.w.X./ W  .a.g.g.f.5       &.g.g.g.g.g.t.g.g.g.g.I     - f.g.g.3.! ! ..9.g.L       0.g.g.:.      Z g.:.{ E ^ <.g.g.g.#.     .g.g.g.g.g.g.g.g...  X =.g.g.g.*.Q *.g.g.g.E                         x ",
"x                                 N g.g.g.!         | g.g.g.d.J 4 , l   X d o         p g.g.g.P       &.g.g.g.1.,   j g.g.g.@.    t g.g.g.*       . 0 e       0.g.g.:.      6 2         . } g.g.g.;       2.g.g.6.          c g.g.g.R     . _ g.g.d.,                       x ",
"x                                 N g.g.g.!         | g.g.g.I               $ y x Z F H g.g.g.{       &.g.g.g.p       q.g.g.7.    1 g.g.g.X.B e #             0.g.g.:.          2 d b F F  .g.g.g.u       2.g.g.6.          { g.g.g.q , , , v g.g.g.C                       x ",
"x                                 N g.g.g.!         | g.g.g.5           o R s.g.g.g.g.g.g.g.g.O.      &.g.g.f.+       2.g.g.r.    X 1.g.g.g.g.g.d.<.K #       0.g.g.:.      6 -.g.g.g.g.g.g.g.g.g.h       2.g.g.6.          ,.g.g.g.g.g.g.g.g.g.g.g.E                       x ",
"x                                 N g.g.g.!         | g.g.g.#           Y g.g.g.a.=.O.O.g.g.g.O.      &.g.g.u.        >.g.g.r.      > ' f.g.g.g.g.g.g.O.      0.g.g.:.    $ 0.g.g.g.9.#.O.2.g.g.g.j       2.g.g.6.          2.g.g.g.g.g.g.g.g.g.g.g.(                       x ",
"x                                 N g.g.g.!         | g.g.g.O           e.g.g.w.:     & g.g.g.O.      &.g.g.y.        :.g.g.r.          $ y A ` r.g.g.g.:     0.g.g.:.    l g.g.g.~ .     J g.g.g.j       2.g.g.6.          @.g.g.d.r 9 9 9 9 9 9 9 >                       x ",
"x                                 N g.g.g.!         | g.g.g.O         o g.g.g.%.      m g.g.g.O.      &.g.g.y.        :.g.g.r.    O *           h g.g.g.t     0.g.g.:.    Z g.g.g.x     X -.g.g.g.j       &.g.g.y.O         K g.g.g.b           . h @                       x ",
"x                                 N g.g.g.!         | g.g.g.O           0.g.g.f.S r F i.g.g.g.O.      &.g.g.y.        :.g.g.r.    ; s...Z h q f $.g.g.g.1     0.g.g.:.    h g.g.g.<.d p  .g.g.g.g.j       ` g.g.g.2.} ] y   = y.g.g.p.I p e j T 6.g.&                       x ",
"x                                 N g.g.g.!         | g.g.g.O           G g.g.g.g.g.g.@.g.g.g.O.      &.g.g.y.        :.g.g.r.    ; g.g.g.g.g.g.g.g.g. .      0.g.g.:.    + 4.g.g.g.g.g.f.#.g.g.g.j       d g.g.g.g.g.g.n     a i.g.g.g.g.g.g.g.g.g.&                       x ",
"x                                 b r.r.r.T         _ r.r.r.O           . P p.g.g.d.) % r.r.r.}       o.r.r.7.        #.r.r.5.    $ [ 7.g.g.g.g.g.e.U +       2.r.r.$.      < %.g.g.g.0.z M r.r.r.d         z +.7.r.r.r.c       3 ' p.g.g.g.g.i...V o                       x ",
"x                                                                           O 7 q %                                                     % 4 r 8 ; X                             * r 5 X                                             o 5 t 8 - X                             x ",
"x                                                                                                                                                                                                                                                                           x ",
"x                                                                                                                                                                                                                                                                           x ",
"x                                                                                                                                                                                                                                                                           x ",
"x                                                                                                                                                                                                                                                                           x ",
"x                                                                                                                                                                                                                                                                           x ",
"x                                                                                                                                                                                                                                                                           x ",
"x                                                                                                                                                                                                                                                                           x ",
"x                                                                                                                                                                                                                                                                           x ",
"x                                                                                                                                                                                                                                                                           x ",
"x                                                                                                                                                                                                                                                                           x ",
"b                                                                                                                                                                                                                                                                           b ",
"w b k g g g g g g g g g g g g g g g g g g g g g g g g g g g g g g g g g g g g g g g g g g g g g g g g g g g g g g g g g g g g g g g g g g g g g g g g g g g g g g g g g g g g g g g g g g g g g g g g g g g g g g g g g g g g g g g g g g g g g g g g g g g g g g g g g k b w "
};
