/* XPM */
static char *up_0[] = {
/* columns rows colors chars-per-pixel */
"101 101 82 1 ",
"  c #383F49",
". c #394049",
"X c #39404A",
"o c #3A414A",
"O c #3A414B",
"+ c #3B424C",
"@ c #3C434D",
"# c #3D444D",
"$ c #3D444E",
"% c #3E454E",
"& c #3E454F",
"* c #3F464F",
"= c #404750",
"- c #414852",
"; c #434A53",
": c #444B54",
"> c #464D56",
", c #484E57",
"< c #495059",
"1 c #4B515A",
"2 c #4D535C",
"3 c #4F565E",
"4 c #51565E",
"5 c #52575F",
"6 c #515760",
"7 c #525861",
"8 c #535961",
"9 c #545A63",
"0 c #565C64",
"q c #595F67",
"w c #5B5F66",
"e c #5B6066",
"r c #5C6066",
"t c #5B6169",
"y c #5E646C",
"u c #61666E",
"i c #646971",
"p c #666B73",
"a c #686B70",
"s c #686C71",
"d c #696C71",
"f c #686E75",
"g c #696E76",
"h c #6E737A",
"j c #6F747B",
"k c #747980",
"l c #7D7F82",
"z c #7A7E85",
"x c #7A7F86",
"c c #7E8082",
"v c #7E8083",
"b c #7F8183",
"n c #7F8184",
"m c #7D8289",
"M c #818385",
"N c #828386",
"B c #81858B",
"V c #84888E",
"C c #878B91",
"Z c #888D93",
"A c #8C9095",
"S c #8E9298",
"D c #8F9399",
"F c #90949A",
"G c #92969B",
"H c #94989D",
"J c #96999F",
"K c #989CA1",
"L c #9A9DA2",
"P c #9C9FA4",
"I c #9DA0A5",
"U c #9EA2A6",
"Y c #A0A3A8",
"T c #A1A4A9",
"R c #A2A5AA",
"E c #A3A6AB",
"W c #A4A7AB",
"Q c #A4A8AC",
"! c #A6A9AE",
"~ c #A7AAAE",
"^ c #A8ABAF",
"/ c #A8ABB0",
/* pixels */
"  .rcMnbbbbbbbbbbbbbbbbbbbbbbbbbbbbbbbbbbbbbbbbbbbbbbbbbbbbbbbbbbbbbbbbbbbbbbbbbbbbbbbbbbbbbbbnMvw.  ",
" %ca%                                                                                           %sc% ",
".c4                                                                                               5v.",
"ra                                                                                                 se",
"v%                                                                                                 *c",
"N                                                                                                   M",
"N                                                                                                   N",
"N                                                                                                   N",
"N                                                                                                   N",
"N                                                                                                   N",
"N                                                                                                   N",
"N                                                                                                   N",
"N                                                                                                   N",
"N                                                                                                   N",
"N                                                                                                   N",
"N                                                                                                   N",
"N                                                                                                   N",
"N                                                                                                   N",
"N                                                                                                   N",
"N                                                                                                   N",
"N                                                                                                   N",
"N                                                                                                   N",
"N                                                                                                   N",
"N                                                                                                   N",
"N                                                                                                   N",
"N                                                                                                   N",
"N                                                                                                   N",
"N                                                                                                   N",
"N                                                                                                   N",
"N                                                                                                   N",
"N                                                                                                   N",
"N                                                                                                   N",
"N                                                                                                   N",
"N                                                                                                   N",
"N                                                                                                   N",
"N                                                                                                   N",
"N                                                                                                   N",
"N                                                                                                   N",
"N                                                                                                   N",
"N                                                 8                                                 N",
"N                                                7!g                                                N",
"N                                               ;I/~9                                               N",
"N                                              OS///U:                                              N",
"N                                              x/////F+                                             N",
"N                                             u///////x                                             N",
"N                                            2W////////i                                            N",
"N                                           =L/////////Q3                                           N",
"N                                          XZ///////////P-                                          N",
"N                                          k/////////////Ao                                         N",
"N                                         t^//////////////k                                         N",
"N                                        <R///////////////^y                                        N",
"N                                       $J/////////////////E1                                       N",
"N                                      XV///////////////////K&                                      N",
"N                                      h/////////////////////CX                                     N",
"N                                     0~//////////////////////j                                     N",
"N                                    >Y///////////////////////^q                                    N",
"N                                   @G/////////////////////////T,                                   N",
"N                                   m///////////////////////////H#                                  N",
"N                                  f/////////////////////////////B                                  N",
"N                                 6!//////////////////////////////g                                 N",
"N                                ;I///////////////////////////////~9                                N",
"N                               OS/////////////////////////////////U:                               N",
"N                               z///////////////////////////////////D+                              N",
"N                              7GGGGGGGGGGGGGGGGGGGGGGGGGGGGGGGGGGGGGp                              N",
"N                                                                                                   N",
"N                                                                                                   N",
"N                                                                                                   N",
"N                                                                                                   N",
"N                                                                                                   N",
"N                                                                                                   N",
"N                                                                                                   N",
"N                                                                                                   N",
"N                                                                                                   N",
"N                                                                                                   N",
"N                                                                                                   N",
"N                                                                                                   N",
"N                                                                                                   N",
"N                                                                                                   N",
"N                                                                                                   N",
"N                                                                                                   N",
"N                                                                                                   N",
"N                                                                                                   N",
"N                                                                                                   N",
"N                                                                                                   N",
"N                                                                                                   N",
"N                                                                                                   N",
"N                                                                                                   N",
"N                                                                                                   N",
"N                                                                                                   N",
"N                                                                                                   N",
"N                                                                                                   N",
"N                                                                                                   N",
"N                                                                                                   N",
"N                                                                                                   N",
"N                                                                                                   N",
"N                                                                                                   M",
"c%                                                                                                 *v",
"ws                                                                                                 de",
".c5                                                                                               5l.",
" %vs*                                                                                           *dl% ",
"  .ecNnbbbbbbbbbbbbbbbbbbbbbbbbbbbbbbbbbbbbbbbbbbbbbbbbbbbbbbbbbbbbbbbbbbbbbbbbbbbbbbbbbbbbbbbnNce.  "
};
