/* XPM */
static char *up_2[] = {
/* columns rows colors chars-per-pixel */
"101 101 91 1 ",
"  c #323842",
". c #333842",
"X c #343842",
"o c #353943",
"O c #363842",
"+ c #373843",
"@ c #353A44",
"# c #383942",
"$ c #393843",
"% c #3A3943",
"& c #3D3843",
"* c #3E3943",
"= c #403944",
"- c #423A44",
"; c #463944",
": c #483843",
"> c #4A3A44",
", c #4E3A44",
"< c #503944",
"1 c #533944",
"2 c #563A45",
"3 c #5A3A46",
"4 c #5F3B46",
"5 c #603A45",
"6 c #603B46",
"7 c #633B46",
"8 c #673B46",
"9 c #6B3C46",
"0 c #6F3C46",
"q c #733D47",
"w c #773E47",
"e c #7D3C48",
"r c #414750",
"t c #424751",
"y c #464A54",
"u c #6D7176",
"i c #6E7177",
"p c #803D49",
"a c #843D48",
"s c #863E49",
"d c #8E3E49",
"f c #8F3E49",
"g c #963F4A",
"h c #A03F4B",
"j c #A13F4B",
"k c #A23F4A",
"l c #A63F4C",
"z c #98404A",
"x c #AA404B",
"c c #B0414C",
"v c #B4404C",
"b c #B7414C",
"n c #BB414D",
"m c #C2414D",
"M c #C0424D",
"N c #C3414E",
"B c #C6414E",
"V c #C8424E",
"C c #CC424E",
"Z c #CE424E",
"A c #D1434F",
"S c #D5434F",
"D c #D6434F",
"F c #DE434F",
"G c #DF434F",
"H c #D8444F",
"J c #DD4350",
"K c #DB4450",
"L c #E1434F",
"P c #E4434F",
"I c #E5434F",
"U c #E2444F",
"Y c #E44450",
"T c #E54450",
"R c #E64450",
"E c #E74450",
"W c #8C8F95",
"Q c #8C9095",
"! c #8C9196",
"~ c #8E9198",
"^ c #9D9FA4",
"/ c #9DA0A5",
"( c #9EA2A6",
") c #9FA2A6",
"_ c #D0D1D3",
"` c #D0D1D4",
"' c #D0D2D4",
"] c #D1D2D4",
"[ c #D2D3D5",
"{ c #D4D5D7",
"} c #D5D6D8",
/* pixels */
"  @~_}[```````````````````````````````````````````````````````````````````````````````````````[}]!@  ",
" y]^r...........................................................................................r/]y ",
"@]u...............................................................................................i]@",
"~^.................................................................................................(Q",
"'r.................................................................................................t_",
"{...................................................................................................}",
"{...................................................................................................{",
"{...................................................................................................{",
"{...................................................................................................{",
"{...................................................................................................{",
"{...................................................................................................{",
"{...................................................................................................{",
"{...................................................................................................{",
"{...................................................................................................{",
"{...................................................................................................{",
"{...................................................................................................{",
"{...................................................................................................{",
"{...................................................................................................{",
"{...................................................................................................{",
"{...................................................................................................{",
"{...................................................................................................{",
"{...................................................................................................{",
"{...................................................................................................{",
"{...................................................................................................{",
"{...................................................................................................{",
"{...................................................................................................{",
"{...................................................................................................{",
"{...................................................................................................{",
"{...................................................................................................{",
"{...................................................................................................{",
"{...................................................................................................{",
"{...................................................................................................{",
"{...................................................................................................{",
"{...................................................................................................{",
"{...................................................................................................{",
"{...................................................................................................{",
"{...................................................................................................{",
"{...................................................................................................{",
"{...................................................................................................{",
"{.................................................6.................................................{",
"{................................................5Ps................................................{",
"{...............................................;DEY7...............................................{",
"{..............................................+MEEEH:..............................................{",
"{..............................................jEEEEEN#.............................................{",
"{.............................................wEEEEEEEk.............................................{",
"{............................................2LEEEEEEEEe............................................{",
"{...........................................=AEEEEEEEEEU3...........................................{",
"{..........................................obEEEEEEEEEEES-..........................................{",
"{..........................................gEEEEEEEEEEEEEnO.........................................{",
"{.........................................0REEEEEEEEEEEEEEz.........................................{",
"{........................................<FEEEEEEEEEEEEEEERq........................................{",
"{.......................................&CEEEEEEEEEEEEEEEEEG1.......................................{",
"{......................................XcEEEEEEEEEEEEEEEEEEEZ*......................................{",
"{......................................dEEEEEEEEEEEEEEEEEEEEEvo.....................................{",
"{.....................................8TEEEEEEEEEEEEEEEEEEEEEEf.....................................{",
"{....................................>KEEEEEEEEEEEEEEEEEEEEEEEI9....................................{",
"{...................................$BEEEEEEEEEEEEEEEEEEEEEEEEEJ,...................................{",
"{...................................lEEEEEEEEEEEEEEEEEEEEEEEEEEEV%..................................{",
"{..................................aEEEEEEEEEEEEEEEEEEEEEEEEEEEEEx..................................{",
"{.................................4PEEEEEEEEEEEEEEEEEEEEEEEEEEEEEEs.................................{",
"{................................;DEEEEEEEEEEEEEEEEEEEEEEEEEEEEEEEY7................................{",
"{...............................+MEEEEEEEEEEEEEEEEEEEEEEEEEEEEEEEEEH:...............................{",
"{...............................hEEEEEEEEEEEEEEEEEEEEEEEEEEEEEEEEEEEm#..............................{",
"{..............................4BBBBBBBBBBBBBBBBBBBBBBBBBBBBBBBBBBBBBp..............................{",
"{...................................................................................................{",
"{...................................................................................................{",
"{...................................................................................................{",
"{...................................................................................................{",
"{...................................................................................................{",
"{...................................................................................................{",
"{...................................................................................................{",
"{...................................................................................................{",
"{...................................................................................................{",
"{...................................................................................................{",
"{...................................................................................................{",
"{...................................................................................................{",
"{...................................................................................................{",
"{...................................................................................................{",
"{...................................................................................................{",
"{...................................................................................................{",
"{...................................................................................................{",
"{...................................................................................................{",
"{...................................................................................................{",
"{...................................................................................................{",
"{...................................................................................................{",
"{...................................................................................................{",
"{...................................................................................................{",
"{...................................................................................................{",
"{...................................................................................................{",
"{...................................................................................................{",
"{...................................................................................................{",
"{...................................................................................................{",
"{...................................................................................................{",
"{...................................................................................................{",
"{...................................................................................................{",
"{...................................................................................................}",
"_r.................................................................................................t_",
"!/.................................................................................................)W",
"@]i...............................................................................................i_@",
" y](t...........................................................................................t)_y ",
"  @Q_{[```````````````````````````````````````````````````````````````````````````````````````[{_Q@  "
};
