/* XPM */
static char *uzoom_0[] = {
/* columns rows colors chars-per-pixel */
"58 58 166 2 ",
"   c #383F49",
".  c #39404A",
"X  c #3A414A",
"o  c #3A414B",
"O  c #3B424C",
"+  c #3C434C",
"@  c #3C434D",
"#  c #3D444D",
"$  c #3E454E",
"%  c #3F464F",
"&  c #3F4650",
"*  c #404750",
"=  c #414751",
"-  c #414851",
";  c #424952",
":  c #444A53",
">  c #444B54",
",  c #454B54",
"<  c #464C55",
"1  c #474D56",
"2  c #474E57",
"3  c #494F58",
"4  c #495058",
"5  c #4A5059",
"6  c #4B515A",
"7  c #4C525A",
"8  c #4E535B",
"9  c #4D535C",
"0  c #4E545D",
"q  c #4F555E",
"w  c #50565E",
"e  c #51565E",
"r  c #51575F",
"t  c #52575E",
"y  c #52575F",
"u  c #535961",
"i  c #545960",
"p  c #545861",
"a  c #555961",
"s  c #555A61",
"d  c #545A62",
"f  c #555B63",
"g  c #565B63",
"h  c #575B63",
"j  c #565C64",
"k  c #595E66",
"l  c #5A5F67",
"z  c #5B6068",
"x  c #5C6168",
"c  c #5C6169",
"v  c #5E636A",
"b  c #5F646B",
"n  c #5F646C",
"m  c #60656C",
"M  c #62666C",
"N  c #63676C",
"B  c #62666D",
"V  c #61666E",
"C  c #62676E",
"Z  c #63686F",
"A  c #64686D",
"S  c #65686E",
"D  c #65696E",
"F  c #64686F",
"G  c #656970",
"H  c #666B72",
"J  c #676B72",
"K  c #686C73",
"L  c #696E75",
"P  c #6B6F75",
"I  c #6B7077",
"U  c #6C7177",
"Y  c #6D7177",
"T  c #6E7278",
"R  c #70737A",
"E  c #71747A",
"W  c #71767C",
"Q  c #72767C",
"!  c #73767C",
"~  c #74777D",
"^  c #73787E",
"/  c #75797F",
"(  c #767A7F",
")  c #767A80",
"_  c #797C81",
"`  c #787C82",
"'  c #797D83",
"]  c #7B7F84",
"[  c #7C7E84",
"{  c #7D8186",
"}  c #7E8187",
"|  c #82858A",
" . c #83868B",
".. c #84878B",
"X. c #87898E",
"o. c #888A8F",
"O. c #888B8F",
"+. c #8B8D91",
"@. c #8B8E93",
"#. c #8D8F93",
"$. c #8E9195",
"%. c #919296",
"&. c #909397",
"*. c #919498",
"=. c #929498",
"-. c #939498",
";. c #96979B",
":. c #97999D",
">. c #999A9D",
",. c #999B9E",
"<. c #999B9F",
"1. c #9D9FA2",
"2. c #9E9FA2",
"3. c #9EA0A3",
"4. c #A0A1A4",
"5. c #A0A2A4",
"6. c #A1A2A5",
"7. c #A2A3A6",
"8. c #A3A4A6",
"9. c #A2A4A7",
"0. c #A5A6A8",
"q. c #A5A7A9",
"w. c #A7A8AA",
"e. c #A8A9AB",
"r. c #A8A9AC",
"t. c #A9AAAC",
"y. c #ABABAE",
"u. c #ABACAE",
"i. c #ACADAF",
"p. c #ADADAF",
"a. c #AEAEB0",
"s. c #B0B0B2",
"d. c #B1B1B3",
"f. c #B2B2B4",
"g. c #B3B3B5",
"h. c #B3B4B5",
"j. c #B3B4B6",
"k. c #B4B4B6",
"l. c #B5B5B6",
"z. c #B6B6B7",
"x. c #B6B6B8",
"c. c #B6B7B9",
"v. c #B8B8B9",
"b. c #B8B8BA",
"n. c #B9B9BA",
"m. c #B9BABB",
"M. c #BBBABC",
"N. c #BCBCBD",
"B. c #BDBCBD",
"V. c #BEBEBF",
"C. c #BFBEBF",
"Z. c #C0BFC0",
"A. c #C0C0C1",
"S. c #C1C1C1",
"D. c #C2C1C2",
"F. c #C3C2C3",
"G. c #C3C3C3",
"H. c #C5C5C5",
"J. c #C6C5C6",
"K. c #C8C7C7",
"L. c #C8C7C8",
"P. c #C9C8C8",
"I. c #CAC9C9",
"U. c #CAC9CA",
"Y. c #CBCACA",
"T. c #CCCBCB",
/* pixels */
"  t A A D D D D D D D D D D D D D D D D D D D D D D D D D D D D D D D D D D D D D D D D D D D D D D D D D D S S y   ",
"t i                                                                                                             s e ",
"S                                                                                                                 S ",
"N                                                                                                                 M ",
"M                                                                                                                 M ",
"M                                                                                                                 M ",
"M                                                                                                                 M ",
"M                                                                                                                 M ",
"M                                                                                                                 M ",
"M                                                                                                                 M ",
"M                                               : q 1 X                                                           M ",
"M                                     X k X.h.K.T.T.T.I.m.%.B @                                                   M ",
"M                                   m s.T.C.-.) J z G ~ +.v.T.N.E .                                               M ",
"M                               ; 5.T.t.b X                 u <.Y.d.0                                             M ",
"M                             q c.A.H                           h h.F.V                                           M ",
"M                           9 S.g.6                               * 4.Y.C                                         M ",
"M                         = k.l.-                                   X 3.G.w                                       M ",
"M                         >.D.8                                       % f.j.o                                     M ",
"M                       j Y.R                                           p U.^                                     M ",
"M                       q.g..                                             ;.V.$                                   M ",
"M                     4 Y.I                                               8 T.K                                   M ",
"M                     ` K.*                                                 f.;.                                  M ",
"M                     6.8.                                                  ..A.                                  M ",
"M                     j.+.                                                  I T.1                                 M ",
"M                     G.[               8 n n n n n n n n n g               c T.d                                 M ",
"M                   . Y.W               v.T.T.T.T.T.T.T.T.T.Y.:             r T.l                                 M ",
"M                     D.{               - 7 7 7 7 7 7 7 7 7 ,               v T.d                                 M ",
"M                     g.@.                                                  T T.:                                 M ",
"M                     3.w.                                                  O.B.                                  M ",
"M                     ! Y.:                                                 x.%.                                  M ",
"M                     , U.W                                               u T.Z                                   M ",
"M                       2.b.+                                             1.n.+                                   M ",
"M                       w I._                                           z T.U                                     M ",
"M                         $.J.f                                       > m.i.X                                     M ",
"M                         @ i.N.2                                   @ r.V.3                                       M ",
"M                           1 M.M.d                               < u.T.x                                         M ",
"M                             2 p.H./ o                         F N.D.P.:.X                                       M ",
"M                               @ &.U.z.Y &               O V e.T.9.2 L Y.=..                                     M ",
"M                                   u 7.T.K.7. .( L Q | ,.F.T.a.K .     T U.#.                                    M ",
"M                                       5 _ 0.S.T.T.T.Z.y. .k             ~ Y.o.                                  M ",
"M                                               # ; O                       _ T.|                                 M ",
"M                                                                             ' T.}                               M ",
"M                                                                                .T.]                             M ",
"M                                                                                 X.Y.^                           M ",
"M                                                                                 . $.U.Y                         M ",
"M                                                                                   . *.Y.P                       M ",
"M                                                                                     . ,.L.z                     M ",
"M                                                                                       o +.c                     M ",
"M                                                                                                                 M ",
"M                                                                                                                 M ",
"M                                                                                                                 M ",
"M                                                                                                                 M ",
"M                                                                                                                 M ",
"M                                                                                                                 M ",
"N                                                                                                                 N ",
"S                                                                                                                 S ",
"e a                                                                                                             s t ",
"  e S A D D D D D D D D D D D D D D D D D D D D D D D D D D D D D D D D D D D D D D D D D D D D D D D D D D A S t   "
};
