/* XPM */
static char *uzoom_1[] = {
/* columns rows colors chars-per-pixel */
"58 58 166 2 ",
"   c #383F49",
".  c #39404A",
"X  c #3A414A",
"o  c #3A414B",
"O  c #3B424C",
"+  c #3C434D",
"@  c #3D444D",
"#  c #3D444E",
"$  c #3E454F",
"%  c #3F464F",
"&  c #404750",
"*  c #414852",
"=  c #424952",
"-  c #434A53",
";  c #444A54",
":  c #444B54",
">  c #454C55",
",  c #464D56",
"<  c #484E57",
"1  c #484F58",
"2  c #4A5059",
"3  c #4B515A",
"4  c #4C525B",
"5  c #4C535C",
"6  c #4F555E",
"7  c #4F565E",
"8  c #50565F",
"9  c #525861",
"0  c #535961",
"q  c #545A63",
"w  c #555B63",
"e  c #565C65",
"r  c #575D66",
"t  c #585E66",
"y  c #5A6068",
"u  c #5C626A",
"i  c #5D626B",
"p  c #5E646C",
"a  c #5F656D",
"s  c #60656D",
"d  c #61666E",
"f  c #61676F",
"g  c #646971",
"h  c #666B73",
"j  c #676C74",
"k  c #686E75",
"l  c #696E76",
"z  c #6B7077",
"x  c #6C7178",
"c  c #6C7179",
"v  c #6D727A",
"b  c #6E737A",
"n  c #6F747C",
"m  c #70757C",
"M  c #71767D",
"N  c #72777E",
"B  c #73777F",
"V  c #73787F",
"C  c #747980",
"Z  c #767B82",
"A  c #777C83",
"S  c #787D84",
"D  c #797D84",
"F  c #7A7F86",
"G  c #7C8187",
"H  c #7D8289",
"J  c #7E8389",
"K  c #7F848A",
"L  c #81858B",
"P  c #83878E",
"I  c #84888E",
"U  c #858A90",
"Y  c #868A90",
"T  c #878B91",
"R  c #888C92",
"E  c #888D93",
"W  c #8A8E94",
"Q  c #8B9095",
"!  c #8C9096",
"~  c #8E9298",
"^  c #8F9398",
"/  c #8F9399",
"(  c #90949A",
")  c #92969B",
"_  c #93969C",
"`  c #95999E",
"'  c #96999F",
"]  c #9B9FA4",
"[  c #9DA0A5",
"{  c #9DA1A6",
"}  c #9EA2A6",
"|  c #A2A5AA",
" . c #A3A6AB",
".. c #A4A7AB",
"X. c #A7AAAE",
"o. c #A8ABB0",
"O. c #AAADB1",
"+. c #ACAFB3",
"@. c #AFB1B5",
"#. c #AFB2B6",
"$. c #B0B3B7",
"%. c #B1B4B8",
"&. c #B2B4B8",
"*. c #B6B8BC",
"=. c #B8BABE",
"-. c #BABCBF",
";. c #BABDC0",
":. c #BBBDC1",
">. c #C0C2C5",
",. c #C1C3C6",
"<. c #C1C4C7",
"1. c #C4C6C9",
"2. c #C4C7C9",
"3. c #C5C7CA",
"4. c #C6C8CB",
"5. c #C7C9CC",
"6. c #C8CACC",
"7. c #CACCCE",
"8. c #CBCDCF",
"9. c #CDCFD1",
"0. c #CED0D2",
"q. c #CFD0D3",
"w. c #D0D2D4",
"e. c #D2D3D6",
"r. c #D3D4D6",
"t. c #D4D6D8",
"y. c #D5D6D8",
"u. c #D6D7D9",
"i. c #D9DADC",
"p. c #DBDCDE",
"a. c #DCDDDF",
"s. c #DDDEE0",
"d. c #DDDFE0",
"f. c #DEDFE1",
"g. c #DFE0E2",
"h. c #E0E1E2",
"j. c #E1E2E3",
"k. c #E1E2E4",
"l. c #E2E3E5",
"z. c #E4E5E6",
"x. c #E4E5E7",
"c. c #E5E6E7",
"v. c #E6E7E8",
"b. c #E8E8EA",
"n. c #E9EAEB",
"m. c #EBEBEC",
"M. c #ECEDEE",
"N. c #EEEEEF",
"B. c #EFEFF0",
"V. c #EFF0F1",
"C. c #F0F1F1",
"Z. c #F1F1F2",
"A. c #F2F2F3",
"S. c #F3F3F4",
"D. c #F3F4F4",
"F. c #F6F7F7",
"G. c #F7F7F8",
"H. c #F9F9F9",
"J. c gray98",
"K. c #FAFAFB",
"L. c #FBFBFB",
"P. c gray99",
"I. c #FDFDFD",
"U. c #FDFDFE",
"Y. c #FEFEFE",
"T. c white",
/* pixels */
"  b ) ) ` ` ` ` ` ` ` ` ` ` ` ` ` ` ` ` ` ` ` ` ` ` ` ` ` ` ` ` ` ` ` ` ` ` ` ` ` ` ` ` ` ` ` ` ` ` ` ` ` ` _ _ v   ",
"b N                                                                                                             V c ",
"_                                                                                                                 _ ",
"^                                                                                                                 / ",
"/                                                                                                                 / ",
"/                                                                                                                 / ",
"/                                                                                                                 / ",
"/                                                                                                                 / ",
"/                                                                                                                 / ",
"/                                                                                                                 / ",
"/                                               < r 4 X                                                           / ",
"/                                     X g | d.J.T.T.T.P.v.@.m #                                                   / ",
"/                                   b i.T.N.&.! A j C R X.z.T.n.I o                                               / ",
"/                               , 2.T.w.x X                 u :.Y.p.e                                             / ",
"/                             r l.V.Z                           d d.S.n                                           / ",
"/                           q C.s.9                               - 1.I.M                                         / ",
"/                         ; g.h.:                                   X <.D.t                                       / ",
"/                         -.A.w                                       = a.f.O                                     / ",
"/                       f Y.P                                           i U.E                                     / ",
"/                       8.s.o                                             *.M.&                                   / ",
"/                     7 Y.H                                               w T.S                                   / ",
"/                     ~ J.-                                                 a.*.                                  / ",
"/                     3.6.                                                  } V.                                  / ",
"/                     f.X.                                                  H T.4                                 / ",
"/                     D._               w v v v v v v v v v s               l T.p                                 / ",
"/                   o Y.U               z.T.T.T.T.T.T.T.T.T.Y.<             y T.h                                 / ",
"/                     Z.`               : 0 0 0 0 0 0 0 0 0 2               z T.p                                 / ",
"/                     s.o.                                                  L T.<                                 / ",
"/                     <.9.                                                  ..m.                                  / ",
"/                     T I.<                                                 k.@.                                  / ",
"/                     2 U.U                                               u T.N                                   / ",
"/                       ,.x.@                                             >.c.@                                   / ",
"/                       t P.^                                           j T.J                                     / ",
"/                         +.G.a                                       1 v.t.X                                     / ",
"/                         $ t.n.5                                   # q.M.6                                       / ",
"/                           4 b.b.p                               3 r.T.k                                         / ",
"/                             5 y.F.W O                         V n.Z.L.=.X                                       / ",
"/                               $ #.U.j.K *               + n 0.T.5.5 F I.%..                                     / ",
"/                                   u 4.T.H.4.{ Q F Y ] ;.S.T.u.D .     L U.O.                                    / ",
"/                                       8 ^ 7.C.T.T.T.B.e.[ g             R Y. .                                  / ",
"/                                               % > +                       ^ T.]                                 / ",
"/                                                                             ( T.'                               / ",
"/                                                                               { T.)                             / ",
"/                                                                                 | Y.E                           / ",
"/                                                                                 . +.U.K                         / ",
"/                                                                                   . $.I.G                       / ",
"/                                                                                     o ;.K.j                     / ",
"/                                                                                       O X.l                     / ",
"/                                                                                                                 / ",
"/                                                                                                                 / ",
"/                                                                                                                 / ",
"/                                                                                                                 / ",
"/                                                                                                                 / ",
"/                                                                                                                 / ",
"^                                                                                                                 ^ ",
"_                                                                                                                 _ ",
"c B                                                                                                             C x ",
"  c _ ) ` ` ` ` ` ` ` ` ` ` ` ` ` ` ` ` ` ` ` ` ` ` ` ` ` ` ` ` ` ` ` ` ` ` ` ` ` ` ` ` ` ` ` ` ` ` ` ` ` ` ) _ x   "
};
