<?xml version="1.0" encoding="UTF-8" standalone="no"?>
<!-- Created with Inkscape (http://www.inkscape.org/) -->

<svg
   xmlns:dc="http://purl.org/dc/elements/1.1/"
   xmlns:cc="http://creativecommons.org/ns#"
   xmlns:rdf="http://www.w3.org/1999/02/22-rdf-syntax-ns#"
   xmlns:svg="http://www.w3.org/2000/svg"
   xmlns="http://www.w3.org/2000/svg"
   xmlns:sodipodi="http://sodipodi.sourceforge.net/DTD/sodipodi-0.dtd"
   xmlns:inkscape="http://www.inkscape.org/namespaces/inkscape"
   width="58"
   height="58"
   viewBox="0 0 15.345833 15.345834"
   version="1.1"
   id="svg6957"
   sodipodi:docname="zoom_1.svg"
   inkscape:export-filename="/home/samad/Bureau/__42__/fdf/res/__buttons__/png/zoom_0.png"
   inkscape:export-xdpi="96"
   inkscape:export-ydpi="96"
   inkscape:version="0.92.2 5c3e80d, 2017-08-06">
  <defs
     id="defs6951" />
  <sodipodi:namedview
     id="base"
     pagecolor="#383f49"
     bordercolor="#666666"
     borderopacity="1.0"
     inkscape:pageopacity="1"
     inkscape:pageshadow="2"
     inkscape:zoom="5.6568543"
     inkscape:cx="10.099869"
     inkscape:cy="37.79575"
     inkscape:document-units="mm"
     inkscape:current-layer="layer1"
     showgrid="false"
     units="px"
     inkscape:showpageshadow="false"
     inkscape:pagecheckerboard="false"
     inkscape:window-width="1680"
     inkscape:window-height="992"
     inkscape:window-x="0"
     inkscape:window-y="0"
     inkscape:window-maximized="1" />
  <metadata
     id="metadata6954">
    <rdf:RDF>
      <cc:Work
         rdf:about="">
        <dc:format>image/svg+xml</dc:format>
        <dc:type
           rdf:resource="http://purl.org/dc/dcmitype/StillImage" />
        <dc:title></dc:title>
      </cc:Work>
    </rdf:RDF>
  </metadata>
  <g
     inkscape:label="box"
     inkscape:groupmode="layer"
     id="layer1"
     transform="translate(0,-281.65415)">
    <rect
       style="opacity:1;fill:#383f49;fill-opacity:1;fill-rule:nonzero;stroke:#ffffff;stroke-width:0.11512973;stroke-miterlimit:4;stroke-dasharray:none;stroke-opacity:1"
       id="rect913-6-5-5-2"
       width="15.230704"
       height="15.230705"
       x="-296.94244"
       y="0.058707632"
       ry="0.88337928"
       inkscape:export-xdpi="96"
       inkscape:export-ydpi="96"
       inkscape:export-filename="/home/samad/Bureau/__42__/fdf/res/__buttons__/png/left_0.png"
       transform="rotate(-90)" />
  </g>
  <g
     inkscape:groupmode="layer"
     id="layer10"
     inkscape:label="center"
     style="display:none">
    <g
       id="g7539"
       transform="translate(-0.11512852)">
      <rect
         y="0.057580955"
         x="0.058707632"
         height="7.6729169"
         width="15.345834"
         id="rect7518"
         style="opacity:0.98999999;fill:#ff2a2a;fill-opacity:0.41921399;fill-rule:nonzero;stroke:none;stroke-width:0.28284273;stroke-miterlimit:4;stroke-dasharray:none;stroke-opacity:1" />
      <rect
         y="-0.057538979"
         x="0.058707632"
         height="15.345834"
         width="7.6729169"
         id="rect7518-5"
         style="opacity:0.98999999;fill:#ffff00;fill-opacity:0.41921399;fill-rule:nonzero;stroke:none;stroke-width:0.2828427;stroke-miterlimit:4;stroke-dasharray:none;stroke-opacity:1" />
    </g>
  </g>
  <g
     inkscape:groupmode="layer"
     id="layer11"
     inkscape:label="zoom 0">
    <g
       id="g8173"
       transform="matrix(0.18443859,0,0,0.18443859,2.7215486,2.862058)">
      <g
         id="g8171">
        <path
           id="path8167"
           data-old_color="#000000"
           class="active-path"
           data-original="#000000"
           d="m 28.983,20 h -6 v -6 c 0,-0.552 -0.448,-1 -1,-1 -0.552,0 -1,0.448 -1,1 v 6 h -6 c -0.552,0 -1,0.448 -1,1 0,0.552 0.448,1 1,1 h 6 v 6 c 0,0.552 0.448,1 1,1 0.552,0 1,-0.448 1,-1 v -6 h 6 c 0.552,0 1,-0.448 1,-1 0,-0.552 -0.448,-1 -1,-1 z"
           inkscape:connector-curvature="0"
           style="fill:#ffffff;fill-opacity:1" />
        <path
           id="path8169"
           data-old_color="#000000"
           class="active-path"
           data-original="#000000"
           d="M 51.704,51.273 36.845,35.82 c 3.79,-3.801 6.138,-9.041 6.138,-14.82 0,-11.58 -9.42,-21 -21,-21 -11.58,0 -21,9.42 -21,21 0,11.58 9.42,21 21,21 5.083,0 9.748,-1.817 13.384,-4.832 l 14.895,15.491 c 0.196,0.205 0.458,0.307 0.721,0.307 0.25,0 0.499,-0.093 0.693,-0.279 0.398,-0.383 0.41,-1.016 0.028,-1.414 z M 2.983,21 c 0,-10.477 8.523,-19 19,-19 10.477,0 19,8.523 19,19 0,10.477 -8.523,19 -19,19 -10.477,0 -19,-8.523 -19,-19 z"
           inkscape:connector-curvature="0"
           style="fill:#ffffff;fill-opacity:1" />
      </g>
    </g>
  </g>
  <g
     inkscape:groupmode="layer"
     id="layer12"
     inkscape:label="zoom 1" />
  <g
     inkscape:groupmode="layer"
     id="layer13"
     inkscape:label="uzoom 0" />
  <g
     inkscape:groupmode="layer"
     id="layer14"
     inkscape:label="uzoom 1" />
</svg>
