/* XPM */
static char *down_0[] = {
/* columns rows colors chars-per-pixel */
"101 101 81 1 ",
"  c #1B2D3B",
". c #1C2E3C",
"X c #233441",
"o c #243542",
"O c #253643",
"+ c #263743",
"@ c #273744",
"# c #283946",
"$ c #293A46",
"% c #2A3B47",
"& c #2B3B48",
"* c #2C3B48",
"= c #2C3C48",
"- c #2D3D49",
"; c #2D3E4A",
": c #30404C",
"> c #31414D",
", c #33434F",
"< c #344450",
"1 c #374652",
"2 c #394854",
"3 c #3B4A56",
"4 c #3D4C57",
"5 c #434F59",
"6 c #404F5A",
"7 c #435059",
"8 c #41505B",
"9 c #42515C",
"0 c #45535E",
"q c #48545D",
"w c #49555D",
"e c #475560",
"r c #4B5963",
"t c #4D5B66",
"y c #525F69",
"u c #53616B",
"i c #57646E",
"p c #58656E",
"a c #5D666C",
"s c #5E666D",
"d c #5E676D",
"f c #5A6771",
"g c #5E6B74",
"h c #606C76",
"j c #65717A",
"k c #66727B",
"l c #767A7E",
"z c #767B7F",
"x c #6B7780",
"c c #6C7880",
"v c #6D7881",
"b c #777C80",
"n c #717C85",
"m c #747F87",
"M c #797D81",
"N c #797E81",
"B c #7B8083",
"V c #7C8083",
"C c #77828A",
"Z c #79838B",
"A c #7D878F",
"S c #7F8991",
"D c #828C94",
"F c #848E95",
"G c #879097",
"H c #889299",
"J c #8B949B",
"K c #8E969D",
"L c #8F989F",
"P c #919AA0",
"I c #939BA2",
"U c #959DA3",
"Y c #969EA5",
"T c #979FA5",
"R c #99A1A7",
"E c #9AA2A8",
"W c #9BA3A9",
"Q c #9DA5AB",
"! c #9EA5AB",
"~ c #9FA6AC",
"^ c #A0A7AD",
/* pixels */
"  .wzVNMMMMMMMMMMMMMMMMMMMMMMMMMMMMMMMMMMMMMMMMMMMMMMMMMMMMMMMMMMMMMMMMMMMMMMMMMMMMMMMMMMMMMMMNVbq.  ",
" Xza*ooooooooooooooooooooooooooooooooooooooooooooooooooooooooooooooooooooooooooooooooooooooooooo*szX ",
".z5ooooooooooooooooooooooooooooooooooooooooooooooooooooooooooooooooooooooooooooooooooooooooooooooo7z.",
"waooooooooooooooooooooooooooooooooooooooooooooooooooooooooooooooooooooooooooooooooooooooooooooooooosq",
"b*ooooooooooooooooooooooooooooooooooooooooooooooooooooooooooooooooooooooooooooooooooooooooooooooooo=z",
"VoooooooooooooooooooooooooooooooooooooooooooooooooooooooooooooooooooooooooooooooooooooooooooooooooooB",
"VoooooooooooooooooooooooooooooooooooooooooooooooooooooooooooooooooooooooooooooooooooooooooooooooooooV",
"VoooooooooooooooooooooooooooooooooooooooooooooooooooooooooooooooooooooooooooooooooooooooooooooooooooV",
"VoooooooooooooooooooooooooooooooooooooooooooooooooooooooooooooooooooooooooooooooooooooooooooooooooooV",
"VoooooooooooooooooooooooooooooooooooooooooooooooooooooooooooooooooooooooooooooooooooooooooooooooooooV",
"VoooooooooooooooooooooooooooooooooooooooooooooooooooooooooooooooooooooooooooooooooooooooooooooooooooV",
"VoooooooooooooooooooooooooooooooooooooooooooooooooooooooooooooooooooooooooooooooooooooooooooooooooooV",
"VoooooooooooooooooooooooooooooooooooooooooooooooooooooooooooooooooooooooooooooooooooooooooooooooooooV",
"VoooooooooooooooooooooooooooooooooooooooooooooooooooooooooooooooooooooooooooooooooooooooooooooooooooV",
"VoooooooooooooooooooooooooooooooooooooooooooooooooooooooooooooooooooooooooooooooooooooooooooooooooooV",
"VoooooooooooooooooooooooooooooooooooooooooooooooooooooooooooooooooooooooooooooooooooooooooooooooooooV",
"VoooooooooooooooooooooooooooooooooooooooooooooooooooooooooooooooooooooooooooooooooooooooooooooooooooV",
"VoooooooooooooooooooooooooooooooooooooooooooooooooooooooooooooooooooooooooooooooooooooooooooooooooooV",
"VoooooooooooooooooooooooooooooooooooooooooooooooooooooooooooooooooooooooooooooooooooooooooooooooooooV",
"VoooooooooooooooooooooooooooooooooooooooooooooooooooooooooooooooooooooooooooooooooooooooooooooooooooV",
"VoooooooooooooooooooooooooooooooooooooooooooooooooooooooooooooooooooooooooooooooooooooooooooooooooooV",
"VoooooooooooooooooooooooooooooooooooooooooooooooooooooooooooooooooooooooooooooooooooooooooooooooooooV",
"VoooooooooooooooooooooooooooooooooooooooooooooooooooooooooooooooooooooooooooooooooooooooooooooooooooV",
"VoooooooooooooooooooooooooooooooooooooooooooooooooooooooooooooooooooooooooooooooooooooooooooooooooooV",
"VoooooooooooooooooooooooooooooooooooooooooooooooooooooooooooooooooooooooooooooooooooooooooooooooooooV",
"VoooooooooooooooooooooooooooooooooooooooooooooooooooooooooooooooooooooooooooooooooooooooooooooooooooV",
"VoooooooooooooooooooooooooooooooooooooooooooooooooooooooooooooooooooooooooooooooooooooooooooooooooooV",
"VoooooooooooooooooooooooooooooooooooooooooooooooooooooooooooooooooooooooooooooooooooooooooooooooooooV",
"VoooooooooooooooooooooooooooooooooooooooooooooooooooooooooooooooooooooooooooooooooooooooooooooooooooV",
"VoooooooooooooooooooooooooooooooooooooooooooooooooooooooooooooooooooooooooooooooooooooooooooooooooooV",
"VoooooooooooooooooooooooooooooooooooooooooooooooooooooooooooooooooooooooooooooooooooooooooooooooooooV",
"VoooooooooooooooooooooooooooooooooooooooooooooooooooooooooooooooooooooooooooooooooooooooooooooooooooV",
"VoooooooooooooooooooooooooooooooooooooooooooooooooooooooooooooooooooooooooooooooooooooooooooooooooooV",
"VoooooooooooooooooooooooooooooooooooooooooooooooooooooooooooooooooooooooooooooooooooooooooooooooooooV",
"VoooooooooooooooooooooooooooooooooooooooooooooooooooooooooooooooooooooooooooooooooooooooooooooooooooV",
"VoooooooooooooooooooooooooooooooooooooooooooooooooooooooooooooooooooooooooooooooooooooooooooooooooooV",
"VoooooooooooooooooooooooooooooooooooooooooooooooooooooooooooooooooooooooooooooooooooooooooooooooooooV",
"VooooooooooooooooooooooooooooooiGGGGGGGGGGGGGGGGGGGGGGGGGGGGGGGGGGGGG6ooooooooooooooooooooooooooooooV",
"Voooooooooooooooooooooooooooooo@D^^^^^^^^^^^^^^^^^^^^^^^^^^^^^^^^^^^xoooooooooooooooooooooooooooooooV",
"Vooooooooooooooooooooooooooooooo:I^^^^^^^^^^^^^^^^^^^^^^^^^^^^^^^^^F@oooooooooooooooooooooooooooooooV",
"Voooooooooooooooooooooooooooooooo6Q^^^^^^^^^^^^^^^^^^^^^^^^^^^^^^^U>ooooooooooooooooooooooooooooooooV",
"Vooooooooooooooooooooooooooooooooof^^^^^^^^^^^^^^^^^^^^^^^^^^^^^^Q9oooooooooooooooooooooooooooooooooV",
"Voooooooooooooooooooooooooooooooooon^^^^^^^^^^^^^^^^^^^^^^^^^^^^^pooooooooooooooooooooooooooooooooooV",
"Voooooooooooooooooooooooooooooooooo#G^^^^^^^^^^^^^^^^^^^^^^^^^^^moooooooooooooooooooooooooooooooooooV",
"Vooooooooooooooooooooooooooooooooooo,Y^^^^^^^^^^^^^^^^^^^^^^^^^H$oooooooooooooooooooooooooooooooooooV",
"Voooooooooooooooooooooooooooooooooooo0!^^^^^^^^^^^^^^^^^^^^^^^T<ooooooooooooooooooooooooooooooooooooV",
"Voooooooooooooooooooooooooooooooooooooh^^^^^^^^^^^^^^^^^^^^^^~eoooooooooooooooooooooooooooooooooooooV",
"VoooooooooooooooooooooooooooooooooooooOC^^^^^^^^^^^^^^^^^^^^^gooooooooooooooooooooooooooooooooooooooV",
"Voooooooooooooooooooooooooooooooooooooo%J^^^^^^^^^^^^^^^^^^^ZOooooooooooooooooooooooooooooooooooooooV",
"Vooooooooooooooooooooooooooooooooooooooo1R^^^^^^^^^^^^^^^^^K&oooooooooooooooooooooooooooooooooooooooV",
"Voooooooooooooooooooooooooooooooooooooooor~^^^^^^^^^^^^^^^E2ooooooooooooooooooooooooooooooooooooooooV",
"Voooooooooooooooooooooooooooooooooooooooook^^^^^^^^^^^^^^~toooooooooooooooooooooooooooooooooooooooooV",
"VoooooooooooooooooooooooooooooooooooooooooOA^^^^^^^^^^^^^jooooooooooooooooooooooooooooooooooooooooooV",
"Voooooooooooooooooooooooooooooooooooooooooo-L^^^^^^^^^^^S+ooooooooooooooooooooooooooooooooooooooooooV",
"Vooooooooooooooooooooooooooooooooooooooooooo3W^^^^^^^^^P;oooooooooooooooooooooooooooooooooooooooooooV",
"Vooooooooooooooooooooooooooooooooooooooooooooy^^^^^^^^W4ooooooooooooooooooooooooooooooooooooooooooooV",
"Vooooooooooooooooooooooooooooooooooooooooooooov^^^^^^^uoooooooooooooooooooooooooooooooooooooooooooooV",
"Vooooooooooooooooooooooooooooooooooooooooooooo@D^^^^^cooooooooooooooooooooooooooooooooooooooooooooooV",
"Voooooooooooooooooooooooooooooooooooooooooooooo:I^^^F@ooooooooooooooooooooooooooooooooooooooooooooooV",
"Vooooooooooooooooooooooooooooooooooooooooooooooo6Q^U>oooooooooooooooooooooooooooooooooooooooooooooooV",
"VoooooooooooooooooooooooooooooooooooooooooooooooofQ9ooooooooooooooooooooooooooooooooooooooooooooooooV",
"Vooooooooooooooooooooooooooooooooooooooooooooooooo8oooooooooooooooooooooooooooooooooooooooooooooooooV",
"VoooooooooooooooooooooooooooooooooooooooooooooooooooooooooooooooooooooooooooooooooooooooooooooooooooV",
"VoooooooooooooooooooooooooooooooooooooooooooooooooooooooooooooooooooooooooooooooooooooooooooooooooooV",
"VoooooooooooooooooooooooooooooooooooooooooooooooooooooooooooooooooooooooooooooooooooooooooooooooooooV",
"VoooooooooooooooooooooooooooooooooooooooooooooooooooooooooooooooooooooooooooooooooooooooooooooooooooV",
"VoooooooooooooooooooooooooooooooooooooooooooooooooooooooooooooooooooooooooooooooooooooooooooooooooooV",
"VoooooooooooooooooooooooooooooooooooooooooooooooooooooooooooooooooooooooooooooooooooooooooooooooooooV",
"VoooooooooooooooooooooooooooooooooooooooooooooooooooooooooooooooooooooooooooooooooooooooooooooooooooV",
"VoooooooooooooooooooooooooooooooooooooooooooooooooooooooooooooooooooooooooooooooooooooooooooooooooooV",
"VoooooooooooooooooooooooooooooooooooooooooooooooooooooooooooooooooooooooooooooooooooooooooooooooooooV",
"VoooooooooooooooooooooooooooooooooooooooooooooooooooooooooooooooooooooooooooooooooooooooooooooooooooV",
"VoooooooooooooooooooooooooooooooooooooooooooooooooooooooooooooooooooooooooooooooooooooooooooooooooooV",
"VoooooooooooooooooooooooooooooooooooooooooooooooooooooooooooooooooooooooooooooooooooooooooooooooooooV",
"VoooooooooooooooooooooooooooooooooooooooooooooooooooooooooooooooooooooooooooooooooooooooooooooooooooV",
"VoooooooooooooooooooooooooooooooooooooooooooooooooooooooooooooooooooooooooooooooooooooooooooooooooooV",
"VoooooooooooooooooooooooooooooooooooooooooooooooooooooooooooooooooooooooooooooooooooooooooooooooooooV",
"VoooooooooooooooooooooooooooooooooooooooooooooooooooooooooooooooooooooooooooooooooooooooooooooooooooV",
"VoooooooooooooooooooooooooooooooooooooooooooooooooooooooooooooooooooooooooooooooooooooooooooooooooooV",
"VoooooooooooooooooooooooooooooooooooooooooooooooooooooooooooooooooooooooooooooooooooooooooooooooooooV",
"VoooooooooooooooooooooooooooooooooooooooooooooooooooooooooooooooooooooooooooooooooooooooooooooooooooV",
"VoooooooooooooooooooooooooooooooooooooooooooooooooooooooooooooooooooooooooooooooooooooooooooooooooooV",
"VoooooooooooooooooooooooooooooooooooooooooooooooooooooooooooooooooooooooooooooooooooooooooooooooooooV",
"VoooooooooooooooooooooooooooooooooooooooooooooooooooooooooooooooooooooooooooooooooooooooooooooooooooV",
"VoooooooooooooooooooooooooooooooooooooooooooooooooooooooooooooooooooooooooooooooooooooooooooooooooooV",
"VoooooooooooooooooooooooooooooooooooooooooooooooooooooooooooooooooooooooooooooooooooooooooooooooooooV",
"VoooooooooooooooooooooooooooooooooooooooooooooooooooooooooooooooooooooooooooooooooooooooooooooooooooV",
"VoooooooooooooooooooooooooooooooooooooooooooooooooooooooooooooooooooooooooooooooooooooooooooooooooooV",
"VoooooooooooooooooooooooooooooooooooooooooooooooooooooooooooooooooooooooooooooooooooooooooooooooooooV",
"VoooooooooooooooooooooooooooooooooooooooooooooooooooooooooooooooooooooooooooooooooooooooooooooooooooV",
"VoooooooooooooooooooooooooooooooooooooooooooooooooooooooooooooooooooooooooooooooooooooooooooooooooooV",
"VoooooooooooooooooooooooooooooooooooooooooooooooooooooooooooooooooooooooooooooooooooooooooooooooooooV",
"VoooooooooooooooooooooooooooooooooooooooooooooooooooooooooooooooooooooooooooooooooooooooooooooooooooV",
"VoooooooooooooooooooooooooooooooooooooooooooooooooooooooooooooooooooooooooooooooooooooooooooooooooooV",
"VoooooooooooooooooooooooooooooooooooooooooooooooooooooooooooooooooooooooooooooooooooooooooooooooooooV",
"VoooooooooooooooooooooooooooooooooooooooooooooooooooooooooooooooooooooooooooooooooooooooooooooooooooB",
"z*ooooooooooooooooooooooooooooooooooooooooooooooooooooooooooooooooooooooooooooooooooooooooooooooooo=z",
"qsooooooooooooooooooooooooooooooooooooooooooooooooooooooooooooooooooooooooooooooooooooooooooooooooodq",
".z7ooooooooooooooooooooooooooooooooooooooooooooooooooooooooooooooooooooooooooooooooooooooooooooooo7l.",
" Xzs=ooooooooooooooooooooooooooooooooooooooooooooooooooooooooooooooooooooooooooooooooooooooooooo=dlX ",
"  .qzVNMMMMMMMMMMMMMMMMMMMMMMMMMMMMMMMMMMMMMMMMMMMMMMMMMMMMMMMMMMMMMMMMMMMMMMMMMMMMMMMMMMMMMMMNVzq.  "
};
