/* XPM */
static char *trans_0[] = {
/* columns rows colors chars-per-pixel */
"135 43 134 2 ",
"   c #1B2D3B",
".  c #1C2E3C",
"X  c #1D2F3D",
"o  c #1E2F3D",
"O  c #1F303E",
"+  c #1F313F",
"@  c #203240",
"#  c #213340",
"$  c #223441",
"%  c #243543",
"&  c #253643",
"*  c #263744",
"=  c #273845",
"-  c #283946",
";  c #283947",
":  c #293A47",
">  c #2B3C49",
",  c #2C3D4A",
"<  c #2D3D4A",
"1  c #2E3E4B",
"2  c #2F3F4C",
"3  c #30404D",
"4  c #30414D",
"5  c #31424E",
"6  c #32424F",
"7  c #334350",
"8  c #344451",
"9  c #354551",
"0  c #364652",
"q  c #384754",
"w  c #394854",
"e  c #394955",
"r  c #3B4B57",
"t  c #3C4B57",
"y  c #3D4C58",
"u  c #3E4D59",
"i  c #3F4E5A",
"p  c #404F5B",
"a  c #41505B",
"s  c #41505C",
"d  c #43525E",
"f  c #44535E",
"g  c #45535E",
"h  c #45545F",
"j  c #465560",
"k  c #475561",
"l  c #485661",
"z  c #495762",
"x  c #4A5964",
"c  c #4B5965",
"v  c #4C5A65",
"b  c #4D5A65",
"n  c #4D5B66",
"m  c #4E5C67",
"M  c #4F5D68",
"N  c #505E68",
"B  c #515E69",
"V  c #525F6A",
"C  c #52606B",
"Z  c #53616B",
"A  c #54626C",
"S  c #55636D",
"D  c #56636E",
"F  c #57646E",
"G  c #58656F",
"H  c #596670",
"J  c #5A6772",
"K  c #5B6872",
"L  c #5C6973",
"P  c #5E6B75",
"I  c #606C76",
"U  c #616D77",
"Y  c #626E78",
"T  c #636F78",
"R  c #637079",
"E  c #64717A",
"W  c #65717B",
"Q  c #66727C",
"!  c #67737C",
"~  c #69757E",
"^  c #6A757F",
"/  c #6B767F",
"(  c #6B7780",
")  c #6C7881",
"_  c #6E7A82",
"`  c #6F7A83",
"'  c #707B84",
"]  c #717C85",
"[  c #727D86",
"{  c #737E86",
"}  c #747F87",
"|  c #747F88",
" . c #758089",
".. c #768189",
"X. c #77828A",
"o. c #78838B",
"O. c #7A848C",
"+. c #7B858D",
"@. c #7C868E",
"#. c #7C878F",
"$. c #7D8890",
"%. c #7E8890",
"&. c #7F8991",
"*. c #808A92",
"=. c #818B93",
"-. c #828C93",
";. c #838D94",
":. c #848D95",
">. c #858E96",
",. c #858F96",
"<. c #869097",
"1. c #879198",
"2. c #889199",
"3. c #89929A",
"4. c #8A939A",
"5. c #8B949B",
"6. c #8C959C",
"7. c #8D969D",
"8. c #8E979E",
"9. c #8F989F",
"0. c #9099A0",
"q. c #919AA0",
"w. c #929BA1",
"e. c #939BA2",
"r. c #949CA3",
"t. c #959DA4",
"y. c #959EA4",
"u. c #969FA5",
"i. c #979FA6",
"p. c #98A0A7",
"a. c #99A1A7",
"s. c #9AA2A8",
"d. c #9BA3A9",
"f. c #9CA4AA",
/* pixels */
"w b j g g g g g g g g g g g g g g g g g g g g g g g g g g g g g g g g g g g g g g g g g g g g g g g g g g g g g g g g g g g g g g g g g g g g g g g g g g g g g g g g g g g g g g g g g g g g g g g g g g g g g g g g g g g g g g g g g g g g g g g g g g g g g g g g g j b w ",
"b                                                                                                                                                                                                                                                                           b ",
"z                                                                                                                                                                                                                                                                           z ",
"z                                                                                                                                                                                                                                                                           z ",
"z                                                                                                                                                                                                                                                                           z ",
"z                                                                                                                                                                                                                                                                           z ",
"z                                                                                                                                                                                                                                                                           z ",
"z                                                                                                                                                                                                                                                                           z ",
"z                                                                                                                                                                                                                                                                           z ",
"z                                                                                                                                                                                                                                                                           z ",
"z                                                                                                                                                                                                                                                                           z ",
"z                                                                                                                                                                                                                                                                           z ",
"z                                                                                                                                                                                                                                                                           z ",
"z                                                                                                                                                             > , , :                                                                                                       z ",
"z                       s I I I I I I I I I I I I I m                                                                                                         9.f.f.:.                                                                                                      z ",
"z                       R f.f.f.f.f.f.f.f.f.f.f.f.f.+.                                                                                                        9.f.f.:.                                    =.e.e.:.                                                          z ",
"z                       R f.f.f.f.f.f.f.f.f.f.f.f.f.+.                                                                                                        9.f.f.:.                                    2.f.f.6.                                                          z ",
"z                       s I I I I o.f.f.f.:.I I I I m                                                                                                         9.f.f.:.                                    2.f.f.6.                                                          z ",
"z                                 N f.f.f.!         F ] ] ] o r  .7.1.  . V ~ %.1.9.7.-.! 0           P ] ] )   u  .7.4./ >           s ' *.7.6.;.[ H 4       9.f.f.:.      3 K { -.5.q.4.o.D %       F ] y.f.f.u.] ] ] G       X k ] 2.9.3.' a                             z ",
"z                                 N f.f.f.!         | f.f.f.n s.f.f.y.  o f.f.f.f.f.f.f.f.d.D         &.f.f.t.K f.f.f.f.f.9.*       I f.f.f.f.f.f.f.f.L       9.f.f.:.      Z f.f.f.f.f.f.f.f.8.1      .f.f.f.f.f.f.f.f...    = &.f.f.f.f.f.f.f.` o                         z ",
"z                                 N f.f.f.!         | f.f.f.p.f.f.f.y.  o f.q.X./ W  .p.f.f.d.5       &.f.f.f.f.f.r.f.f.f.f.I     - d.f.f.3.! ! ..8.f.L       9.f.f.:.      Z f.:.{ E ^ <.f.f.f.#.     .f.f.f.f.f.f.f.f...  X =.f.f.f.*.Q *.f.f.f.E                         z ",
"z                                 N f.f.f.!         | f.f.f.s.J 4 , k   X s o         i f.f.f.P       &.f.f.f.1.,   h f.f.f.@.    r f.f.f.*       . 0 w       9.f.f.:.      6 2         . } f.f.f.;       2.f.f.6.          x f.f.f.R     . _ f.f.s.,                       z ",
"z                                 N f.f.f.!         | f.f.f.I               $ t z Z F H f.f.f.{       &.f.f.f.i       0.f.f.7.    1 f.f.f.X.B w #             9.f.f.:.          2 s v F F  .f.f.f.y       2.f.f.6.          { f.f.f.q , , , c f.f.f.C                       z ",
"z                                 N f.f.f.!         | f.f.f.5           o R a.f.f.f.f.f.f.f.f.O.      &.f.f.d.+       2.f.f.e.    X 1.f.f.f.f.f.s.<.K #       9.f.f.:.      6 -.f.f.f.f.f.f.f.f.f.f       2.f.f.6.          ,.f.f.f.f.f.f.f.f.f.f.f.E                       z ",
"z                                 N f.f.f.!         | f.f.f.#           Y f.f.f.p.=.O.O.f.f.f.O.      &.f.f.y.        >.f.f.e.      > ' d.f.f.f.f.f.f.O.      9.f.f.:.    $ 9.f.f.f.8.#.O.2.f.f.f.h       2.f.f.6.          2.f.f.f.f.f.f.f.f.f.f.f.(                       z ",
"z                                 N f.f.f.!         | f.f.f.O           w.f.f.q.:     & f.f.f.O.      &.f.f.t.        :.f.f.e.          $ t A ` e.f.f.f.:     9.f.f.:.    k f.f.f.~ .     J f.f.f.h       2.f.f.6.          @.f.f.s.e 9 9 9 9 9 9 9 >                       z ",
"z                                 N f.f.f.!         | f.f.f.O         o f.f.f.%.      m f.f.f.O.      &.f.f.t.        :.f.f.e.    O *           f f.f.f.r     9.f.f.:.    Z f.f.f.z     X -.f.f.f.h       &.f.f.t.O         K f.f.f.v           . f @                       z ",
"z                                 N f.f.f.!         | f.f.f.O           9.f.f.d.S e F u.f.f.f.O.      &.f.f.t.        :.f.f.e.    ; a...Z f q d $.f.f.f.1     9.f.f.:.    f f.f.f.<.s i  .f.f.f.f.h       ` f.f.f.2.} ] t   = t.f.f.i.I i w h T 6.f.&                       z ",
"z                                 N f.f.f.!         | f.f.f.O           G f.f.f.f.f.f.@.f.f.f.O.      &.f.f.t.        :.f.f.e.    ; f.f.f.f.f.f.f.f.f. .      9.f.f.:.    + 4.f.f.f.f.f.d.#.f.f.f.h       s f.f.f.f.f.f.n     p u.f.f.f.f.f.f.f.f.f.&                       z ",
"z                                 v e.e.e.T         _ e.e.e.O           . P i.f.f.s.) % e.e.e.}       o.e.e.7.        #.e.e.5.    $ [ 7.f.f.f.f.f.w.U +       2.e.e.$.      < %.f.f.f.9.l M e.e.e.s         l +.7.e.e.e.x       3 ' i.f.f.f.f.u...V o                       z ",
"z                                                                           O 7 q %                                                     % 4 e 8 ; X                             * e 5 X                                             o 5 r 8 - X                             z ",
"z                                                                                                                                                                                                                                                                           z ",
"z                                                                                                                                                                                                                                                                           z ",
"z                                                                                                                                                                                                                                                                           z ",
"z                                                                                                                                                                                                                                                                           z ",
"z                                                                                                                                                                                                                                                                           z ",
"z                                                                                                                                                                                                                                                                           z ",
"z                                                                                                                                                                                                                                                                           z ",
"z                                                                                                                                                                                                                                                                           z ",
"z                                                                                                                                                                                                                                                                           z ",
"z                                                                                                                                                                                                                                                                           z ",
"b                                                                                                                                                                                                                                                                           b ",
"w b j g g g g g g g g g g g g g g g g g g g g g g g g g g g g g g g g g g g g g g g g g g g g g g g g g g g g g g g g g g g g g g g g g g g g g g g g g g g g g g g g g g g g g g g g g g g g g g g g g g g g g g g g g g g g g g g g g g g g g g g g g g g g g g g g g j b w "
};
