/* XPM */
static char *_01[] = {
/* columns rows colors chars-per-pixel */
"19 21 2 1 ",
"  c None",
". c red",
/* pixels */
"       ......      ",
"    ...........    ",
"   .............   ",
"  .....      ....  ",
"  ...         .... ",
" ....          ... ",
" ...           ....",
"....            ...",
"....           ....",
"...................",
"...................",
"....               ",
"....               ",
"....               ",
" ...               ",
" ....              ",
"  ....             ",
"  .....        ... ",
"   ............... ",
"     ............. ",
"       ........    "
};
