/* XPM */
static char *_04[] = {
/* columns rows colors chars-per-pixel */
"17 28 2 1 ",
"  c None",
". c red",
/* pixels */
"...              ",
"...              ",
"...              ",
"...              ",
"...              ",
"...              ",
"...              ",
"...      ..      ",
"...   ........   ",
"...  ..........  ",
".......    ..... ",
".....       .... ",
".....        ....",
"....         ....",
"....          ...",
"...           ...",
"...           ...",
"...           ...",
"...           ...",
"...           ...",
"...           ...",
"...           ...",
"...           ...",
"...           ...",
"...           ...",
"...           ...",
"...           ...",
"...           ..."
};
