/* XPM */
static char *_07[] = {
/* columns rows colors chars-per-pixel */
"18 28 2 1 ",
"  c None",
". c red",
/* pixels */
"...               ",
"...               ",
"...               ",
"...               ",
"...               ",
"...               ",
"...               ",
"...               ",
"...          .... ",
"...        .....  ",
"...       .....   ",
"...      ....     ",
"...     ....      ",
"...    ....       ",
"...   ....        ",
"...  ....         ",
"........          ",
".......           ",
"........          ",
"...  ....         ",
"...   ....        ",
"...    ....       ",
"...     ....      ",
"...      ....     ",
"...       ....    ",
"...        ....   ",
"...         ....  ",
"...          ....."
};
