/* XPM */
static char *_10[] = {
/* columns rows colors chars-per-pixel */
"17 21 2 1 ",
"  c None",
". c red",
/* pixels */
"...    ......    ",
"...  .........   ",
"... ...........  ",
".......    ..... ",
".....        ... ",
"....         ....",
"....         ....",
"....          ...",
"...           ...",
"...           ...",
"...           ...",
"...           ...",
"...           ...",
"...           ...",
"...           ...",
"...           ...",
"...           ...",
"...           ...",
"...           ...",
"...           ...",
"...           ..."
};
