/* XPM */
static char *_12[] = {
/* columns rows colors chars-per-pixel */
"18 29 2 1 ",
"  c None",
". c red",
/* pixels */
"...    .....      ",
"...  .........    ",
"... ...........   ",
"......     .....  ",
".....        .... ",
".....        .... ",
"....          ... ",
"....          ....",
"....          ....",
"...           ....",
"...            ...",
"...            ...",
"...           ....",
"....          ....",
"....          ....",
"....          ... ",
".....        .... ",
"......      ....  ",
".......    .....  ",
"... ...........   ",
"...   ........    ",
"...     ...       ",
"...               ",
"...               ",
"...               ",
"...               ",
"...               ",
"...               ",
"...               "
};
