/* XPM */
static char *_15[] = {
/* columns rows colors chars-per-pixel */
"16 21 2 1 ",
"  c None",
". c red",
/* pixels */
"    .........   ",
"  ............. ",
" .............. ",
" ....        .. ",
"....            ",
"....            ",
"....            ",
"....            ",
" ......         ",
"  .........     ",
"   ..........   ",
"      ......... ",
"          ..... ",
"            ....",
"            ....",
"            ....",
"            ....",
"...        .... ",
"............... ",
".............   ",
"   ........     "
};
