/* XPM */
static char *_16[] = {
/* columns rows colors chars-per-pixel */
"13 26 2 1 ",
"  c None",
". c red",
/* pixels */
"   ...       ",
"   ...       ",
"   ...       ",
"   ...       ",
"   ...       ",
"  ....       ",
".............",
".............",
"  ....       ",
"   ...       ",
"   ...       ",
"   ...       ",
"   ...       ",
"   ...       ",
"   ...       ",
"   ...       ",
"   ...       ",
"   ...       ",
"   ...       ",
"   ...       ",
"   ...       ",
"   ...       ",
"   ....      ",
"   ..........",
"    .........",
"      ......."
};
