/* XPM */
static char *_20[] = {
/* columns rows colors chars-per-pixel */
"20 20 2 1 ",
"  c None",
". c red",
/* pixels */
" ....          .... ",
"  ....        ....  ",
"   ....       ....  ",
"   ....      ....   ",
"    ....    ....    ",
"     ....  ....     ",
"      .... ....     ",
"      ........      ",
"       ......       ",
"        ....        ",
"       ......       ",
"       .......      ",
"      ........      ",
"     ....  ....     ",
"    ....    ....    ",
"   ....      ....   ",
"   ....      ....   ",
"  ....        ....  ",
" ....          .... ",
"....            ...."
};
