/* XPM */
static char *_21[] = {
/* columns rows colors chars-per-pixel */
"20 28 2 1 ",
"  c None",
". c red",
/* pixels */
"....            ....",
" ...            ... ",
" ....          .... ",
" ....          .... ",
"  ...          ...  ",
"  ....        ....  ",
"   ...        ...   ",
"   ....      ....   ",
"    ...      ....   ",
"    ...      ...    ",
"    ....    ....    ",
"     ...    ...     ",
"     ....  ....     ",
"      ...  ....     ",
"      ...  ...      ",
"      ........      ",
"       ......       ",
"       ......       ",
"        ....        ",
"        ....        ",
"        ....        ",
"        ...         ",
"       ....         ",
"       ...          ",
"      ....          ",
"  .......           ",
"  .......           ",
"  .....             "
};
