/* XPM */
static char *_5[] = {
/* columns rows colors chars-per-pixel */
"25 27 2 1 ",
"  c None",
". c red",
/* pixels */
"          .....          ",
"          .....          ",
"         .......         ",
"         .......         ",
"         ... ...         ",
"        .... ....        ",
"        ...   ...        ",
"        ...   ...        ",
"       ....   ....       ",
"       ...     ...       ",
"      ....     ....      ",
"      ....     ....      ",
"      ...       ...      ",
"     ....       ....     ",
"     ...         ...     ",
"    ....         ....    ",
"    ....         ....    ",
"    .................    ",
"   ...................   ",
"   ...................   ",
"   ...             ...   ",
"  ....             ....  ",
"  ....              ...  ",
" ....               .... ",
" ....               .... ",
" ...                 ... ",
"....                 ...."
};
