/* XPM */
static char *_5[] = {
/* columns rows colors chars-per-pixel */
"30 30 100 2 ",
"   c #DC0000",
".  c #DC0101",
"X  c #DC0202",
"o  c #DD0404",
"O  c #DD0909",
"+  c #DD0A0A",
"@  c #DE0C0C",
"#  c #DE0E0E",
"$  c #DE0F0F",
"%  c #DE1010",
"&  c #DF1616",
"*  c #DF1717",
"=  c #E01A1A",
"-  c #E01E1E",
";  c #E01F1F",
":  c #E02020",
">  c #E12222",
",  c #E12424",
"<  c #E12525",
"1  c #E12828",
"2  c #E22929",
"3  c #E22B2B",
"4  c #E22E2E",
"5  c #E33232",
"6  c #E33535",
"7  c #E43737",
"8  c #E43838",
"9  c #E43A3A",
"0  c #E53E3E",
"q  c #E54141",
"w  c #E54343",
"e  c #E54444",
"r  c #E64949",
"t  c #E64C4C",
"y  c #E74D4D",
"u  c #E75050",
"i  c #E85A5A",
"p  c #E85B5B",
"a  c #E95C5C",
"s  c #E95E5E",
"d  c #E96161",
"f  c #EA6464",
"g  c #EA6868",
"h  c #EB6D6D",
"j  c #EC7272",
"k  c #EC7474",
"l  c #EC7575",
"z  c #EC7777",
"x  c #ED7A7A",
"c  c #ED7C7C",
"v  c #ED7D7D",
"b  c #ED7F7F",
"n  c #EE8080",
"m  c #EE8484",
"M  c #EE8585",
"N  c #EF8888",
"B  c #EF8C8C",
"V  c #F08F8F",
"C  c #F09090",
"Z  c #F19696",
"A  c #F19999",
"S  c #F19C9C",
"D  c #F2A0A0",
"F  c #F3A4A4",
"G  c #F3AAAA",
"H  c #F4ADAD",
"J  c #F4B1B1",
"K  c #F5B6B6",
"L  c #F5B8B8",
"P  c #F6BBBB",
"I  c #F6BCBC",
"U  c #F6BDBD",
"Y  c #F6BFBF",
"T  c #F7C5C5",
"R  c #F7C7C7",
"E  c #F7C8C8",
"W  c #F8C9C9",
"Q  c #F9D0D0",
"!  c #F9D1D1",
"~  c #F9D2D2",
"^  c #F9D4D4",
"/  c #FAD9D9",
"(  c #FADADA",
")  c #FADDDD",
"_  c #FBDFDF",
"`  c #FBE1E1",
"'  c #FCE6E6",
"]  c #FCE7E7",
"[  c #FCE8E8",
"{  c #FDEFEF",
"}  c #FDF0F0",
"|  c #FDF4F4",
" . c #FEF5F5",
".. c #FEF6F6",
"X. c #FEFAFA",
"o. c #FEFBFB",
"O. c #FFFCFC",
"+. c #FFFDFD",
"@. c #FFFEFE",
"#. c white",
/* pixels */
"#.#.#.#.#.#.#.#.#.#.#.#.#.#.#.#.#.#.#.#.#.#.#.#.#.#.#.#.#.#.",
"#.#.#.#.#.#.#.#.#.#.#.#.K z z z V #.#.#.#.#.#.#.#.#.#.#.#.#.",
"#.#.#.#.#.#.#.#.#.#.#.#.4       . ) #.#.#.#.#.#.#.#.#.#.#.#.",
"#.#.#.#.#.#.#.#.#.#.#.W           n #.#.#.#.#.#.#.#.#.#.#.#.",
"#.#.#.#.#.#.#.#.#.#.#.g           : +.#.#.#.#.#.#.#.#.#.#.#.",
"#.#.#.#.#.#.#.#.#.#...%     r       U #.#.#.#.#.#.#.#.#.#.#.",
"#.#.#.#.#.#.#.#.#.#.F     . ) 1     a #.#.#.#.#.#.#.#.#.#.#.",
"#.#.#.#.#.#.#.#.#.#.w     0 #.m     O { #.#.#.#.#.#.#.#.#.#.",
"#.#.#.#.#.#.#.#.#._ X     S #.` X     A #.#.#.#.#.#.#.#.#.#.",
"#.#.#.#.#.#.#.#.#.b     O { #.#.q     8 #.#.#.#.#.#.#.#.#.#.",
"#.#.#.#.#.#.#.#.@.>     i #.#.#.D       ~ #.#.#.#.#.#.#.#.#.",
"#.#.#.#.#.#.#.#.P       L #.#.#.| @     k #.#.#.#.#.#.#.#.#.",
"#.#.#.#.#.#.#.#.i     = O.#.#.#.#.s     * X.#.#.#.#.#.#.#.#.",
"#.#.#.#.#.#.#.} +     l #.#.#.#.#.I       J #.#.#.#.#.#.#.#.",
"#.#.#.#.#.#.#.Z       ! #.#.#.#.#.+.-     u #.#.#.#.#.#.#.#.",
"#.#.#.#.#.#.#.6     5 #.#.#.#.#.#.#.x     o ] #.#.#.#.#.#.#.",
"#.#.#.#.#.#.^       C #.#.#.#.#.#.#./ .     B #.#.#.#.#.#.#.",
"#.#.#.#.#.#.j     o [ #.#.#.#.#.#.#.#.7     3 #.#.#.#.#.#.#.",
"#.#.#.#.#.X.&     2 G G G G G G G G G i       E #.#.#.#.#.#.",
"#.#.#.#.#.H                                   g #.#.#.#.#.#.",
"#.#.#.#.#.t                                   $  .#.#.#.#.#.",
"#.#.#.#.' o     , e e e e e e e e e e e 9       F #.#.#.#.#.",
"#.#.#.#.N       Y #.#.#.#.#.#.#.#.#.#.#.o.*     w #.#.#.#.#.",
"#.#.#.#.2     = O.#.#.#.#.#.#.#.#.#.#.#.#.h     . ) #.#.#.#.",
"#.#.#.T       l #.#.#.#.#.#.#.#.#.#.#.#.#.R       b #.#.#.#.",
"#.#.#.f       Q #.#.#.#.#.#.#.#.#.#.#.#.#.#.<     ; +.#.#.#.",
"#.#.| #     2 #.#.#.#.#.#.#.#.#.#.#.#.#.#.#.v       I #.#.#.",
"#.#.D       M #.#.#.#.#.#.#.#.#.#.#.#.#.#.#.(       p #.#.#.",
"#.#.c e e e _ #.#.#.#.#.#.#.#.#.#.#.#.#.#.#.#.d e e y o.#.#.",
"#.#.#.#.#.#.#.#.#.#.#.#.#.#.#.#.#.#.#.#.#.#.#.#.#.#.#.#.#.#."
};
