/* XPM */
static char *_7[] = {
/* columns rows colors chars-per-pixel */
"30 30 101 2 ",
"   c #DC0000",
".  c #DC0101",
"X  c #DC0202",
"o  c #DC0303",
"O  c #DD0404",
"+  c #DD0505",
"@  c #DD0A0A",
"#  c #DE0C0C",
"$  c #DE0D0D",
"%  c #DE0E0E",
"&  c #DE0F0F",
"*  c #DE1111",
"=  c #DF1515",
"-  c #DF1616",
";  c #DF1717",
":  c #DF1818",
">  c #DF1919",
",  c #E01A1A",
"<  c #E01B1B",
"1  c #E01C1C",
"2  c #E01D1D",
"3  c #E01F1F",
"4  c #E12121",
"5  c #E12323",
"6  c #E12424",
"7  c #E12727",
"8  c #E12828",
"9  c #E22A2A",
"0  c #E22E2E",
"q  c #E33131",
"w  c #E33434",
"e  c #E33535",
"r  c #E43737",
"t  c #E43A3A",
"y  c #E43B3B",
"u  c #E53E3E",
"i  c #E54141",
"p  c #E54242",
"a  c #E54343",
"s  c #E64747",
"d  c #E64949",
"f  c #E74E4E",
"g  c #E74F4F",
"h  c #E85A5A",
"j  c #E96060",
"k  c #EA6767",
"l  c #EC7575",
"z  c #ED7B7B",
"x  c #ED7D7D",
"c  c #ED7F7F",
"v  c #EE8181",
"b  c #EE8585",
"n  c #EF8888",
"m  c #EF8B8B",
"M  c #EF8C8C",
"N  c #EF8D8D",
"B  c #EF8E8E",
"V  c #F09292",
"C  c #F09595",
"Z  c #F19B9B",
"A  c #F3A5A5",
"S  c #F3AAAA",
"D  c #F4B0B0",
"F  c #F5B3B3",
"G  c #F6BBBB",
"H  c #F6BCBC",
"J  c #F6BEBE",
"K  c #F7C3C3",
"L  c #F7C5C5",
"P  c #F7C6C6",
"I  c #F7C8C8",
"U  c #F8C9C9",
"Y  c #F8CBCB",
"T  c #F8CCCC",
"R  c #F8CDCD",
"E  c #F8CFCF",
"W  c #F9D0D0",
"Q  c #F9D2D2",
"!  c #F9D4D4",
"~  c #F9D5D5",
"^  c #FAD9D9",
"/  c #FADADA",
"(  c #FADBDB",
")  c #FADCDC",
"_  c #FADDDD",
"`  c #FBE2E2",
"'  c #FBE5E5",
"]  c #FCE8E8",
"[  c #FDEFEF",
"{  c #FDF2F2",
"}  c #FDF3F3",
"|  c #FEF5F5",
" . c #FEF6F6",
".. c #FEF8F8",
"X. c #FEF9F9",
"o. c #FEFAFA",
"O. c #FEFBFB",
"+. c #FFFCFC",
"@. c #FFFDFD",
"#. c #FFFEFE",
"$. c white",
/* pixels */
"$.$.$.$.$.$.$.$.$.$.$.$.$.$.$.$.$.$.$.$.$.$.$.$.$.$.$.$.$.$.",
"$.$.$.$.$.$.$.$.$.$.$...G l t 6 % o = 8 h V ` $.$.$.$.$.$.$.",
"$.$.$.$.$.$.$.$.$.X.C ,                     X s K $.$.$.$.$.",
"$.$.$.$.$.$.$.$._ 9                             . j $.$.$.$.",
"$.$.$.$.$.$.$.U -       . d C E ' { ` U M i X     = $.$.$.$.",
"$.$.$.$.$.$.' ;       e Y $.$.$.$.$.$.$.$.$.Q f   = $.$.$.$.",
"$.$.$.$.$.+.u       d | $.$.$.$.$.$.$.$.$.$.$.$.A 3 $.$.$.$.",
"$.$.$.$.$.S       5 } $.$.$.$.$.$.$.$.$.$.$.$.$.$.) $.$.$.$.",
"$.$.$.$.$.w       J $.$.$.$.$.$.$.$.$.$.$.$.$.$.$.$.$.$.$.$.",
"$.$.$.$.R       0 $.$.$.$.$.$.$.$.$.$.$.$.$.$.$.$.$.$.$.$.$.",
"$.$.$.$.N       m $.$.$.$.$.$.$.$.$.$.$.$.$.$.$.$.$.$.$.$.$.",
"$.$.$.$.g       L $.$.$.$.$.$.$.$.$.$.$.$.$.$.$.$.$.$.$.$.$.",
"$.$.$.$.7     . | $.$.$.$.$.$.$.$.$.$.$.$.$.$.$.$.$.$.$.$.$.",
"$.$.$.$.=     $ $.$.$.$.$.$.$.$.$.$.$.$.$.$.$.$.$.$.$.$.$.$.",
"$.$.$.#.O     1 $.$.$.$.$.$.$.$.$.$.$.$.$.$.$.$.$.$.$.$.$.$.",
"$.$.$.@.X     3 $.$.$.$.$.$.$.$.$.$.$.$.$.$.$.$.$.$.$.$.$.$.",
"$.$.$.$.*     & $.$.$.$.$.$.$.$.$.$.$.$.$.$.$.$.$.$.$.$.$.$.",
"$.$.$.$.5     X O.$.$.$.$.$.$.$.$.$.$.$.$.$.$.$.$.$.$.$.$.$.",
"$.$.$.$.p       W $.$.$.$.$.$.$.$.$.$.$.$.$.$.$.$.$.$.$.$.$.",
"$.$.$.$.c       Z $.$.$.$.$.$.$.$.$.$.$.$.$.$.$.$.$.$.$.$.$.",
"$.$.$.$.H       s $.$.$.$.$.$.$.$.$.$.$.$.$.$.$.$.$.$.$.$.$.",
"$.$.$.$.o.2     X / $.$.$.$.$.$.$.$.$.$.$.$.$.$.$.$.$.$.$.$.",
"$.$.$.$.$.B       a #.$.$.$.$.$.$.$.$.$.$.$.$.$.$. .$.$.$.$.",
"$.$.$.$.$.} 3       x $.$.$.$.$.$.$.$.$.$.$.$.$.! y $.$.$.$.",
"$.$.$.$.$.$.I +       k { $.$.$.$.$.$.$.$.$.| n # = $.$.$.$.",
"$.$.$.$.$.$.$.Z o       - b E #.$.$.$.+.P z >     = $.$.$.$.",
"$.$.$.$.$.$.$.$.F #           @ 3 q < +           r $.$.$.$.",
"$.$.$.$.$.$.$.$.$.( h X                       : V O.$.$.$.$.",
"$.$.$.$.$.$.$.$.$.$.$.~ v y O           4 h D o.$.$.$.$.$.$.",
"$.$.$.$.$.$.$.$.$.$.$.$.$.$.+.] ! T ^ [ $.$.$.$.$.$.$.$.$.$."
};
