/* XPM */
static char *_8[] = {
/* columns rows colors chars-per-pixel */
"30 30 88 1 ",
"  c #DC0000",
". c #DC0101",
"X c #DC0202",
"o c #DD0404",
"O c #DD0909",
"+ c #DD0A0A",
"@ c #DE0C0C",
"# c #DE0E0E",
"$ c #DE0F0F",
"% c #DE1212",
"& c #DF1515",
"* c #E01A1A",
"= c #E12121",
"- c #E12323",
"; c #E12424",
": c #E12727",
"> c #E22C2C",
", c #E22D2D",
"< c #E33232",
"1 c #E43939",
"2 c #E54040",
"3 c #E54242",
"4 c #E54444",
"5 c #E64747",
"6 c #E75151",
"7 c #E85757",
"8 c #E85959",
"9 c #E85A5A",
"0 c #E95D5D",
"q c #E95E5E",
"w c #E95F5F",
"e c #E96060",
"r c #E96262",
"t c #EA6767",
"y c #EB6E6E",
"u c #EB6F6F",
"i c #EB7070",
"p c #EC7171",
"a c #EC7272",
"s c #EC7373",
"d c #EC7777",
"f c #EC7878",
"g c #ED7C7C",
"h c #ED7F7F",
"j c #EE8080",
"k c #EE8181",
"l c #EE8383",
"z c #EE8484",
"x c #EE8585",
"c c #EF8989",
"v c #F09090",
"b c #F09393",
"n c #F19696",
"m c #F19C9C",
"M c #F29D9D",
"N c #F29F9F",
"B c #F2A0A0",
"V c #F3A5A5",
"C c #F3A8A8",
"Z c #F3A9A9",
"A c #F3AAAA",
"S c #F4ADAD",
"D c #F4AFAF",
"F c #F4B1B1",
"G c #F5B6B6",
"H c #F5B8B8",
"J c #F6BBBB",
"K c #F6C0C0",
"L c #F6C1C1",
"P c #F7C3C3",
"I c #F7C6C6",
"U c #F7C7C7",
"Y c #F9D4D4",
"T c #F9D6D6",
"R c #FADADA",
"E c #FADCDC",
"W c #FBE4E4",
"Q c #FBE5E5",
"! c #FCE6E6",
"~ c #FCECEC",
"^ c #FDF0F0",
"/ c #FEF8F8",
"( c #FEFAFA",
") c #FEFBFB",
"_ c #FFFCFC",
"` c #FFFDFD",
"' c #FFFEFE",
"] c white",
/* pixels */
"]]]]]]]]]]]]]]]]]]]]]]]]]]]]]]",
"]]]]]KdddddddlvMSY_]]]]]]]]]]]",
"]]]]]c            +1xQ]]]]]]]]",
"]]]]]c               o6R]]]]]]",
"]]]]]c   0ddddue5%     OB]]]]]",
"]]]]]c   I]]]]]]]]Yp$   .n]]]]",
"]]]]]c   I]]]]]]]]]]!2   oU]]]",
"]]]]]c   I]]]]]]]]]]])4   <']]",
"]]]]]c   I]]]]]]]]]]]]~&   H]]",
"]]]]]c   I]]]]]]]]]]]]]j   r]]",
"]]]]]c   I]]]]]]]]]]]]]!.  -]]",
"]]]]]c   I]]]]]]]]]]]]]];   W]",
"]]]]]c   I]]]]]]]]]]]]]]8   P]",
"]]]]]c   I]]]]]]]]]]]]]]u   F]",
"]]]]]c   I]]]]]]]]]]]]]]h   N]",
"]]]]]c   I]]]]]]]]]]]]]]k   m]",
"]]]]]c   I]]]]]]]]]]]]]]i   D]",
"]]]]]c   I]]]]]]]]]]]]]]q   L]",
"]]]]]c   I]]]]]]]]]]]]]],   E]",
"]]]]]c   I]]]]]]]]]]]]]^X  *]]",
"]]]]]c   I]]]]]]]]]]]]]b   9]]",
"]]]]]c   I]]]]]]]]]]]]/;   C]]",
"]]]]]c   I]]]]]]]]]]]]t   =(]]",
"]]]]]c   I]]]]]]]]]]/y    D]]]",
"]]]]]c   I]]]]]]]]/B>    a]]]]",
"]]]]]c   zAAAABvf3#    .s']]]]",
"]]]]]c                :G]]]]]]",
"]]]]]c             @7J`]]]]]]]",
"]]]]]Z44444446wygVT_]]]]]]]]]]",
"]]]]]]]]]]]]]]]]]]]]]]]]]]]]]]"
};
