/* XPM */
static char *_9[] = {
/* columns rows colors chars-per-pixel */
"30 30 24 1 ",
"  c #DC0000",
". c #E33232",
"X c #E54040",
"o c #E64A4A",
"O c #E75151",
"+ c #EA6868",
"@ c #EC7878",
"# c #ED7C7C",
"$ c #EE8080",
"% c #EF8989",
"& c #F08F8F",
"* c #F19A9A",
"= c #F29E9E",
"- c #F3A4A4",
"; c #F4ACAC",
": c #F7C3C3",
"> c #F7C6C6",
", c #F9D0D0",
"< c #FADCDC",
"1 c #FCECEC",
"2 c #FDEFEF",
"3 c #FDF2F2",
"4 c #FEF8F8",
"5 c white",
/* pixels */
"555555555555555555555555555555",
"55555:################=5555555",
"55555%                X5555555",
"55555%                X5555555",
"55555%   O++++++++++++&5555555",
"55555%   >55555555555555555555",
"55555%   >55555555555555555555",
"55555%   >55555555555555555555",
"55555%   >55555555555555555555",
"55555%   >55555555555555555555",
"55555%   >55555555555555555555",
"55555%   >55555555555555555555",
"55555%   $------------25555555",
"55555%                ,5555555",
"55555%                ,5555555",
"55555%   .XXXXXXXXXXXX<5555555",
"55555%   >55555555555555555555",
"55555%   >55555555555555555555",
"55555%   >55555555555555555555",
"55555%   >55555555555555555555",
"55555%   >55555555555555555555",
"55555%   >55555555555555555555",
"55555%   >55555555555555555555",
"55555%   >55555555555555555555",
"55555%   >55555555555555555555",
"55555%   @*************4555555",
"55555%                 1555555",
"55555%                 1555555",
"55555;ooooooooooooooooo3555555",
"555555555555555555555555555555"
};
