/* XPM */
static char *_9[] = {
/* columns rows colors chars-per-pixel */
"18 27 2 1 ",
"  c None",
". c red",
/* pixels */
"..................",
"..................",
"..................",
"....              ",
"....              ",
"....              ",
"....              ",
"....              ",
"....              ",
"....              ",
"....              ",
"................. ",
"................. ",
"................. ",
"....              ",
"....              ",
"....              ",
"....              ",
"....              ",
"....              ",
"....              ",
"....              ",
"....              ",
"....              ",
"..................",
"..................",
".................."
};
