/* XPM */
static char *_1[] = {
/* columns rows colors chars-per-pixel */
"24 28 2 1 ",
"  c None",
". c red",
/* pixels */
"          ........      ",
"       ..............   ",
"     .................. ",
"    ......        ..... ",
"   .....            ... ",
"  .....               . ",
"  ....                  ",
" ....                   ",
" ....                   ",
" ...                    ",
"....                    ",
"....                    ",
"....                    ",
"....           .........",
"....          ..........",
"....          ..........",
"....                ....",
"....                ....",
" ...                ....",
" ....               ....",
" ....               ....",
"  ....              ....",
"  .....             ....",
"   .....            ....",
"    ......        ......",
"     .................. ",
"       ..............   ",
"          ........      "
};
