/* XPM */
static char *_5[] = {
/* columns rows colors chars-per-pixel */
"21 28 2 1 ",
"  c None",
". c red",
/* pixels */
"....             ....",
"....             ....",
"....             ....",
"....             ....",
"....             ....",
"....             ....",
"....             ....",
"....             ....",
"....             ....",
"....             ....",
"....             ....",
"....             ....",
"....             ....",
"....             ....",
"....             ....",
"....             ....",
"....             ....",
"....             ....",
"....             ....",
"....             ....",
"....             ....",
" ...             ... ",
" ....           .... ",
" .....         ..... ",
"  ......     ......  ",
"   ...............   ",
"    .............    ",
"       .......       "
};
