/* XPM */
static char *_7[] = {
/* columns rows colors chars-per-pixel */
"34 27 2 1 ",
"  c None",
". c red",
/* pixels */
"....           ....           ....",
"....           ....           ....",
" ...          ......          ... ",
" ....         ......         .... ",
" ....         ......         .... ",
" ....         ......         .... ",
"  ...        ...  ...        ...  ",
"  ....       ...  ...       ....  ",
"  ....       ...  ...       ....  ",
"  ....       ...  ...       ....  ",
"   ...      ...    ...      ...   ",
"   ....     ...    ...     ....   ",
"   ....     ...    ...     ....   ",
"   ....     ...    ...     ....   ",
"    ...    ...      ...    ...    ",
"    ....   ...      ...   ....    ",
"    ....   ...      ...   ....    ",
"    ....   ...      ...   ....    ",
"     ...  ...        ...  ...     ",
"     ...  ...        ... ....     ",
"     .... ...        ... ....     ",
"     .... ...        ... ....     ",
"      ......          ......      ",
"      ......          ......      ",
"      ......          ......      ",
"      ......          ......      ",
"       ....            ....       "
};
