/* XPM */
static char *_8[] = {
/* columns rows colors chars-per-pixel */
"23 27 2 1 ",
"  c None",
". c red",
/* pixels */
"  ...             .... ",
"  ....            ...  ",
"   ....          ....  ",
"    ...         ....   ",
"    ....        ...    ",
"     ....      ....    ",
"      ...     ....     ",
"      ....   ....      ",
"       ....  ....      ",
"        ... ....       ",
"        .......        ",
"         ......        ",
"         .....         ",
"         .....         ",
"        .......        ",
"        .......        ",
"       .... ....       ",
"      ....   ....      ",
"      ....   ....      ",
"     ....     ....     ",
"    ....       ....    ",
"    ....       ....    ",
"   ....         ....   ",
"  ....           ....  ",
"  ....           ....  ",
" ....             .... ",
"....               ...."
};
