/* XPM */
static char *_0[] = {
/* columns rows colors chars-per-pixel */
"22 27 2 1 ",
"  c None",
". c red",
/* pixels */
"......................",
"......................",
"......................",
"                 .... ",
"                ....  ",
"               ....   ",
"              .....   ",
"             .....    ",
"             ....     ",
"            ....      ",
"           ....       ",
"          .....       ",
"         .....        ",
"         ....         ",
"        ....          ",
"       ....           ",
"      .....           ",
"     .....            ",
"     ....             ",
"    ....              ",
"   ....               ",
"  ....                ",
" .....                ",
" ....                 ",
"......................",
"......................",
"......................"
};
