/* XPM */
static char *a[] = {
/* columns rows colors chars-per-pixel */
"43 55 173 2 ",
"   c red",
".  c #FF0101",
"X  c #FF0202",
"o  c #FF0303",
"O  c #FF0505",
"+  c #FF0606",
"@  c #FF0707",
"#  c #FF0808",
"$  c #FF0909",
"%  c #FF0A0A",
"&  c #FF0B0B",
"*  c #FF0C0C",
"=  c #FF0D0D",
"-  c #FF0E0E",
";  c #FF0F0F",
":  c #FF1010",
">  c #FF1111",
",  c #FF1313",
"<  c #FF1414",
"1  c #FF1616",
"2  c #FF1919",
"3  c #FF1A1A",
"4  c #FF1B1B",
"5  c #FF1C1C",
"6  c #FF1E1E",
"7  c #FF2020",
"8  c #FF2121",
"9  c #FF2222",
"0  c #FF2323",
"q  c #FF2424",
"w  c #FF2626",
"e  c #FF2828",
"r  c #FF2929",
"t  c #FF2D2D",
"y  c #FF2E2E",
"u  c #FF2F2F",
"i  c #FF3030",
"p  c #FF3131",
"a  c #FF3333",
"s  c #FF3434",
"d  c #FF3636",
"f  c #FF3838",
"g  c #FF3C3C",
"h  c #FF3D3D",
"j  c #FF3E3E",
"k  c #FF4141",
"l  c #FF4242",
"z  c #FF4343",
"x  c #FF4444",
"c  c #FF4747",
"v  c #FF4848",
"b  c #FF4949",
"n  c #FF4B4B",
"m  c #FF4D4D",
"M  c #FF4F4F",
"N  c #FF5050",
"B  c #FF5252",
"V  c #FF5555",
"C  c #FF5656",
"Z  c #FF5858",
"A  c #FF5959",
"S  c #FF5B5B",
"D  c #FF5C5C",
"F  c #FF5D5D",
"G  c #FF5E5E",
"H  c #FF6060",
"J  c #FF6161",
"K  c #FF6262",
"L  c #FF6363",
"P  c #FF6565",
"I  c #FF6666",
"U  c #FF6767",
"Y  c #FF6868",
"T  c #FF6969",
"R  c #FF6A6A",
"E  c #FF6B6B",
"W  c #FF6C6C",
"Q  c #FF6D6D",
"!  c #FF7171",
"~  c #FF7272",
"^  c #FF7373",
"/  c #FF7676",
"(  c #FF7777",
")  c #FF7979",
"_  c #FF7A7A",
"`  c #FF7B7B",
"'  c #FF7C7C",
"]  c #FF7D7D",
"[  c #FF7E7E",
"{  c #FF7F7F",
"}  c #FF8181",
"|  c #FF8383",
" . c #FF8787",
".. c #FF8888",
"X. c #FF8A8A",
"o. c #FF8B8B",
"O. c #FF8C8C",
"+. c #FF8D8D",
"@. c #FF8E8E",
"#. c #FF9090",
"$. c #FF9595",
"%. c #FF9898",
"&. c #FF9999",
"*. c #FF9B9B",
"=. c #FF9C9C",
"-. c #FF9E9E",
";. c #FF9F9F",
":. c #FFA1A1",
">. c #FFA3A3",
",. c #FFA4A4",
"<. c #FFA6A6",
"1. c #FFA7A7",
"2. c #FFA8A8",
"3. c #FFA9A9",
"4. c #FFACAC",
"5. c #FFB1B1",
"6. c #FFB2B2",
"7. c #FFB3B3",
"8. c #FFB4B4",
"9. c #FFB6B6",
"0. c #FFB7B7",
"q. c #FFB8B8",
"w. c #FFB9B9",
"e. c #FFBBBB",
"r. c #FFBCBC",
"t. c #FFBFBF",
"y. c #FFC0C0",
"u. c #FFC1C1",
"i. c #FFC3C3",
"p. c #FFC5C5",
"a. c #FFC6C6",
"s. c #FFC7C7",
"d. c #FFCCCC",
"f. c #FFCDCD",
"g. c #FFCECE",
"h. c #FFCFCF",
"j. c #FFD1D1",
"k. c #FFD2D2",
"l. c #FFD3D3",
"z. c #FFD5D5",
"x. c #FFD7D7",
"c. c #FFD8D8",
"v. c #FFDADA",
"b. c #FFDBDB",
"n. c #FFDCDC",
"m. c #FFDDDD",
"M. c #FFDEDE",
"N. c #FFE0E0",
"B. c #FFE1E1",
"V. c #FFE2E2",
"C. c #FFE4E4",
"Z. c #FFE5E5",
"A. c #FFE8E8",
"S. c #FFE9E9",
"D. c #FFEAEA",
"F. c #FFEBEB",
"G. c #FFECEC",
"H. c #FFEDED",
"J. c #FFEEEE",
"K. c #FFEFEF",
"L. c #FFF0F0",
"P. c #FFF1F1",
"I. c #FFF3F3",
"U. c #FFF4F4",
"Y. c #FFF5F5",
"T. c #FFF6F6",
"R. c #FFF9F9",
"E. c snow",
"W. c #FFFBFB",
"Q. c #FFFCFC",
"!. c #FFFDFD",
"~. c #FFFEFE",
"^. c white",
/* pixels */
"^.^.^.^.^.^.^.^.^.^.^.^.^.^.^.P.u.#./ P V x j b V I ~  .4.z.!.^.^.^.^.^.^.^.^.^.^.^.^.",
"^.^.^.^.^.^.^.^.^.^.^.J.:.Z q .                             : m =.H.^.^.^.^.^.^.^.^.^.",
"^.^.^.^.^.^.^.^.S.$.x O                                           % U V.^.^.^.^.^.^.^.",
"^.^.^.^.^.^.j.K @                                                     % o.~.^.^.^.^.^.",
"^.^.^.^.t.z                                                               B R.^.^.^.^.",
"^.^.^.^.$.                                                                  M !.^.^.^.",
"^.^.^.^.Y.,                                                                   | ^.^.^.",
"^.^.^.^.^.'                       $ f S Q [ ..} ! V 5                         @ b.^.^.",
"^.^.^.^.^.A.@             - C ;.k.W.^.^.^.^.^.^.^.^.^.M./ :                     D ^.^.",
"^.^.^.^.^.^.L       ; U w.R.^.^.^.^.^.^.^.^.^.^.^.^.^.^.^.F.c                   + S.^.",
"^.^.^.^.^.^.z.. u %.I.^.^.^.^.^.^.^.^.^.^.^.^.^.^.^.^.^.^.^.!.G                   &.^.",
"^.^.^.^.^.^.^.l.^.^.^.^.^.^.^.^.^.^.^.^.^.^.^.^.^.^.^.^.^.^.^.T.p                 N ^.",
"^.^.^.^.^.^.^.^.^.^.^.^.^.^.^.^.^.^.^.^.^.^.^.^.^.^.^.^.^.^.^.^.e.                3 ^.",
"^.^.^.^.^.^.^.^.^.^.^.^.^.^.^.^.^.^.^.^.^.^.^.^.^.^.^.^.^.^.^.^.^.p                 F.",
"^.^.^.^.^.^.^.^.^.^.^.^.^.^.^.^.^.^.^.^.^.^.^.^.^.^.^.^.^.^.^.^.^.]                 f.",
"^.^.^.^.^.^.^.^.^.^.^.^.^.^.^.^.^.^.^.^.^.^.^.^.^.^.^.^.^.^.^.^.^.q.                8.",
"^.^.^.^.^.^.^.^.^.^.^.^.^.^.^.^.^.^.^.^.^.^.^.^.^.^.^.^.^.^.^.^.^.B.                3.",
"^.^.^.^.^.^.^.^.^.^.^.^.^.^.^.^.^.^.^.^.^.^.^.^.^.^.^.^.^.^.^.^.^.I.                :.",
"^.^.^.^.^.^.^.^.^.^.^.^.^.^.^.^.^.^.^.^.^.^.^.^.^.^.^.^.^.^.^.^.^.^.O               -.",
"^.^.^.^.^.^.^.^.^.^.^.^.^.^.^.^.^.^.^.^.^.^.^.^.^.^.^.^.^.^.^.^.^.^.$               -.",
"^.^.^.^.^.^.^.^.^.^.^.^.^.^.^.^.^.^.^.^.^.^.^.^.^.^.^.^.^.^.^.^.^.^.$               -.",
"^.^.^.^.^.^.^.^.^.^.^.^.^.^.^.^.^.^.^.^.^.^.^.^.^.^.^.^.^.^.^.^.^.^.$               -.",
"^.^.^.^.^.^.^.^.^.^.^.^.^.^.^.^.^.Y.h.8.:.@.` Y V b x d a q 9 > ;                   -.",
"^.^.^.^.^.^.^.^.^.^.^.^.~.g.+.V 7 .                                                 -.",
"^.^.^.^.^.^.^.^.^.^.g.W 2                                                           -.",
"^.^.^.^.^.^.^.^.0.g                                                                 -.",
"^.^.^.^.^.^.N.n                                                                     -.",
"^.^.^.^.^.6.:                                                     X                 -.",
"^.^.^.^.;.X                             6 v R ] #.>.9.t.d.c.N.J.E.L.                -.",
"^.^.^.8.X                       y _ i.P.^.^.^.^.^.^.^.^.^.^.^.^.^.L.                -.",
"^.^.C.>                   X A x.^.^.^.^.^.^.^.^.^.^.^.^.^.^.^.^.^.L.                -.",
"^.^.F                   9 h.^.^.^.^.^.^.^.^.^.^.^.^.^.^.^.^.^.^.^.L.                -.",
"^.m.X                 s D.^.^.^.^.^.^.^.^.^.^.^.^.^.^.^.^.^.^.^.^.K.                -.",
"^.)                 * m.^.^.^.^.^.^.^.^.^.^.^.^.^.^.^.^.^.^.^.^.^.N.                -.",
"^.t                 X.^.^.^.^.^.^.^.^.^.^.^.^.^.^.^.^.^.^.^.^.^.^.d.                -.",
"J..               o A.^.^.^.^.^.^.^.^.^.^.^.^.^.^.^.^.^.^.^.^.^.^.w.                -.",
"s.                h ^.^.^.^.^.^.^.^.^.^.^.^.^.^.^.^.^.^.^.^.^.^.^.@.                -.",
"4.                J ^.^.^.^.^.^.^.^.^.^.^.^.^.^.^.^.^.^.^.^.^.^.^.n                 -.",
":.                ) ^.^.^.^.^.^.^.^.^.^.^.^.^.^.^.^.^.^.^.^.^.^.E.=                 -.",
"1.                [ ^.^.^.^.^.^.^.^.^.^.^.^.^.^.^.^.^.^.^.^.^.^.4.                  -.",
"e.                E ^.^.^.^.^.^.^.^.^.^.^.^.^.^.^.^.^.^.^.^.^.!.s                   -.",
"h.                z ^.^.^.^.^.^.^.^.^.^.^.^.^.^.^.^.^.^.^.^.^.*.                    -.",
"A.                $ T.^.^.^.^.^.^.^.^.^.^.^.^.^.^.^.^.^.^.^.l.&                     -.",
"^.4                 #.^.^.^.^.^.^.^.^.^.^.^.^.^.^.^.^.^.^.v.3                       -.",
"^.G                 < M.^.^.^.^.^.^.^.^.^.^.^.^.^.^.^.^.e.,                         -.",
"^.7.                  e c.^.^.^.^.^.^.^.^.^.^.^.^.^.n.L .                           -.",
"^.Q.8                   % ` V.^.^.^.^.^.^.^.^.K.6.A o             5 H               -.",
"^.^.,.                      X e S ^ | ' T C i o                 * g.s.              -.",
"^.^.~.c                                                       + 8.^.E.%             -.",
"^.^.^.S.0                                                   # 8.^.^.^.l             -.",
"^.^.^.^.M.q                                               1 t.^.^.^.^.{             -.",
"^.^.^.^.^.G.m                                           k Z.^.^.^.^.^.r.            -.",
"^.^.^.^.^.^.^.3.w                                   q 2.~.^.^.^.^.^.^.U.O           -.",
"^.^.^.^.^.^.^.^.!.9.J 0                     . r Y y.~.^.^.^.^.^.^.^.^.^.{ I I I I I p.",
"^.^.^.^.^.^.^.^.^.^.^.^.Z.5.-.O._ ( | o.<.a.G.^.^.^.^.^.^.^.^.^.^.^.^.^.^.^.^.^.^.^.^."
};
