/* XPM */
static char *L[] = {
/* columns rows colors chars-per-pixel */
"23 37 2 1 ",
"  c None",
". c #D40000",
/* pixels */
".....                  ",
".....                  ",
".....                  ",
".....                  ",
".....                  ",
".....                  ",
".....                  ",
".....                  ",
".....                  ",
".....                  ",
".....                  ",
".....                  ",
".....                  ",
".....                  ",
".....                  ",
".....                  ",
".....                  ",
".....                  ",
".....                  ",
".....                  ",
".....                  ",
".....                  ",
".....                  ",
".....                  ",
".....                  ",
".....                  ",
".....                  ",
".....                  ",
".....                  ",
".....                  ",
".....                  ",
".....                  ",
".....                  ",
".......................",
".......................",
".......................",
"......................."
};
