<?xml version="1.0" encoding="UTF-8" standalone="no"?>
<!-- Created with Inkscape (http://www.inkscape.org/) -->

<svg
   xmlns:dc="http://purl.org/dc/elements/1.1/"
   xmlns:cc="http://creativecommons.org/ns#"
   xmlns:rdf="http://www.w3.org/1999/02/22-rdf-syntax-ns#"
   xmlns:svg="http://www.w3.org/2000/svg"
   xmlns="http://www.w3.org/2000/svg"
   xmlns:sodipodi="http://sodipodi.sourceforge.net/DTD/sodipodi-0.dtd"
   xmlns:inkscape="http://www.inkscape.org/namespaces/inkscape"
   width="1200"
   height="927"
   viewBox="0 0 317.49999 245.26876"
   version="1.1"
   id="svg8"
   inkscape:version="0.92.2 5c3e80d, 2017-08-06"
   sodipodi:docname="information.svg">
  <defs
     id="defs2" />
  <sodipodi:namedview
     id="base"
     pagecolor="#323842"
     bordercolor="#666666"
     borderopacity="1.0"
     inkscape:pageopacity="0"
     inkscape:pageshadow="2"
     inkscape:zoom="0.31083712"
     inkscape:cx="154.18606"
     inkscape:cy="779.73547"
     inkscape:document-units="mm"
     inkscape:current-layer="layer2"
     showgrid="false"
     units="px"
     inkscape:showpageshadow="false"
     inkscape:window-width="1680"
     inkscape:window-height="992"
     inkscape:window-x="0"
     inkscape:window-y="0"
     inkscape:window-maximized="1" />
  <metadata
     id="metadata5">
    <rdf:RDF>
      <cc:Work
         rdf:about="">
        <dc:format>image/svg+xml</dc:format>
        <dc:type
           rdf:resource="http://purl.org/dc/dcmitype/StillImage" />
        <dc:title></dc:title>
      </cc:Work>
    </rdf:RDF>
  </metadata>
  <g
     inkscape:groupmode="layer"
     id="layer2"
     inkscape:label="BAckground box">
    <rect
       style="opacity:0.98999999;fill:#383f49;fill-opacity:1;fill-rule:nonzero;stroke:none;stroke-width:0.2;stroke-miterlimit:4;stroke-dasharray:none;stroke-opacity:1"
       id="rect2300"
       width="317.5"
       height="245.26875"
       x="-4.2632564e-14"
       y="0" />
    <text
       xml:space="preserve"
       style="font-style:normal;font-weight:normal;font-size:13.58461475px;line-height:1.25;font-family:sans-serif;letter-spacing:0px;word-spacing:0px;fill:#ececec;fill-opacity:1;stroke:none;stroke-width:0.33961535"
       x="111.48481"
       y="41.164902"
       id="text2272"><tspan
         sodipodi:role="line"
         id="tspan2270"
         x="111.48481"
         y="41.164902"
         style="font-style:normal;font-variant:normal;font-weight:bold;font-stretch:normal;font-size:38.03691864px;font-family:sans-serif;-inkscape-font-specification:'sans-serif Bold';fill:#ececec;stroke-width:0.33961535">FDF</tspan></text>
    <text
       xml:space="preserve"
       style="font-style:normal;font-variant:normal;font-weight:normal;font-stretch:normal;font-size:4.23333311px;line-height:1.25;font-family:'Noto Kufi Arabic';-inkscape-font-specification:'Noto Kufi Arabic';letter-spacing:0px;word-spacing:0px;fill:#000000;fill-opacity:1;stroke:none;stroke-width:0.26458332"
       x="209.15556"
       y="55.072617"
       id="text2322"><tspan
         sodipodi:role="line"
         id="tspan2320"
         x="209.15556"
         y="55.072617"
         style="stroke-width:0.26458332;-inkscape-font-specification:'sans-serif Bold';font-family:sans-serif;font-weight:bold;font-style:normal;font-stretch:normal;font-variant:normal;fill:#ececec;font-size:6.35px;fill-opacity:1">Author: Suddin</tspan></text>
    <text
       xml:space="preserve"
       style="font-style:normal;font-variant:normal;font-weight:normal;font-stretch:normal;font-size:4.23333311px;line-height:1.25;font-family:'Noto Kufi Arabic';-inkscape-font-specification:'Noto Kufi Arabic';letter-spacing:0px;word-spacing:0px;fill:#000000;fill-opacity:1;stroke:none;stroke-width:0.26458332"
       x="11.760179"
       y="102.77409"
       id="text2326"><tspan
         sodipodi:role="line"
         x="11.760179"
         y="102.77409"
         style="font-style:normal;font-variant:normal;font-weight:bold;font-stretch:normal;font-size:9.87777805px;font-family:sans-serif;-inkscape-font-specification:'sans-serif Bold';text-align:start;text-anchor:start;fill:#ececec;fill-opacity:1;stroke-width:0.26458332"
         id="tspan2347">Fdf is the first 42 project in the graphical branch.</tspan><tspan
         sodipodi:role="line"
         x="11.760179"
         y="115.12132"
         style="font-style:normal;font-variant:normal;font-weight:bold;font-stretch:normal;font-size:9.87777805px;font-family:sans-serif;-inkscape-font-specification:'sans-serif Bold';text-align:start;text-anchor:start;fill:#ececec;fill-opacity:1;stroke-width:0.26458332"
         id="tspan2506">This project is about creating a simplified 3D</tspan><tspan
         sodipodi:role="line"
         x="11.760179"
         y="127.46854"
         style="font-style:normal;font-variant:normal;font-weight:bold;font-stretch:normal;font-size:9.87777805px;font-family:sans-serif;-inkscape-font-specification:'sans-serif Bold';text-align:start;text-anchor:start;fill:#ececec;fill-opacity:1;stroke-width:0.26458332"
         id="tspan2508">graphic representation of a relief landscape in</tspan><tspan
         sodipodi:role="line"
         x="11.760179"
         y="139.81577"
         style="font-style:normal;font-variant:normal;font-weight:bold;font-stretch:normal;font-size:9.87777805px;font-family:sans-serif;-inkscape-font-specification:'sans-serif Bold';text-align:start;text-anchor:start;fill:#ececec;fill-opacity:1;stroke-width:0.26458332"
         id="tspan2504">Wire-frame. Wireframing is one of the methods used</tspan><tspan
         sodipodi:role="line"
         x="11.760179"
         y="152.16298"
         style="font-style:normal;font-variant:normal;font-weight:bold;font-stretch:normal;font-size:9.87777805px;font-family:sans-serif;-inkscape-font-specification:'sans-serif Bold';text-align:start;text-anchor:start;fill:#ececec;fill-opacity:1;stroke-width:0.26458332"
         id="tspan2510">in geometric modelling systems. A wireframe model</tspan><tspan
         sodipodi:role="line"
         x="11.760179"
         y="164.51021"
         style="font-style:normal;font-variant:normal;font-weight:bold;font-stretch:normal;font-size:9.87777805px;font-family:sans-serif;-inkscape-font-specification:'sans-serif Bold';text-align:start;text-anchor:start;fill:#ececec;fill-opacity:1;stroke-width:0.26458332"
         id="tspan2512">represents the shape of a solid object with its</tspan><tspan
         sodipodi:role="line"
         x="11.760179"
         y="176.85742"
         style="font-style:normal;font-variant:normal;font-weight:bold;font-stretch:normal;font-size:9.87777805px;font-family:sans-serif;-inkscape-font-specification:'sans-serif Bold';text-align:start;text-anchor:start;fill:#ececec;fill-opacity:1;stroke-width:0.26458332"
         id="tspan2514">characteristic lines and points. This project uses a</tspan><tspan
         sodipodi:role="line"
         x="11.760179"
         y="189.20465"
         style="font-style:normal;font-variant:normal;font-weight:bold;font-stretch:normal;font-size:9.87777805px;font-family:sans-serif;-inkscape-font-specification:'sans-serif Bold';text-align:start;text-anchor:start;fill:#ececec;fill-opacity:1;stroke-width:0.26458332"
         id="tspan2516">graphical library called mlx (mini lib).</tspan></text>
    <g
       transform="matrix(0.045937,0,0,0.045937,33.699407,210.00958)"
       id="g2639" />
    <g
       id="g3247"
       transform="translate(2.7539402)">
      <path
         style="fill:#ffffff;stroke-width:0.045937"
         id="path2637"
         d="m 62.908828,218.28215 c -0.900733,-1.5433 -2.122519,-2.76513 -3.665681,-3.66577 -1.543391,-0.90069 -3.228315,-1.35092 -5.055964,-1.35092 -1.82742,0 -3.512894,0.45037 -5.055964,1.35092 -1.5433,0.90059 -2.76504,2.12247 -3.665773,3.66577 -0.900595,1.54326 -1.350915,3.2285 -1.350915,5.05569 0,2.19487 0.640362,4.16855 1.921407,5.92156 1.280907,1.75314 2.93565,2.96624 4.96409,3.63945 0.236116,0.0438 0.410906,0.013 0.524555,-0.0917 0.113694,-0.10483 0.170472,-0.23612 0.170472,-0.39332 0,-0.0262 -0.0023,-0.2622 -0.0066,-0.70821 -0.0045,-0.446 -0.0066,-0.83509 -0.0066,-1.16707 l -0.301668,0.0522 c -0.192339,0.0352 -0.434978,0.0502 -0.727918,0.0459 -0.292803,-0.004 -0.596768,-0.0348 -0.911482,-0.0918 -0.314852,-0.0565 -0.607701,-0.1877 -0.878775,-0.39317 -0.270936,-0.20548 -0.463275,-0.47444 -0.576969,-0.80647 l -0.13115,-0.30181 c -0.08742,-0.20093 -0.225045,-0.42414 -0.413065,-0.6688 -0.18802,-0.24489 -0.378154,-0.4109 -0.570492,-0.49832 l -0.09183,-0.0657 c -0.06119,-0.0437 -0.117966,-0.0964 -0.170472,-0.15752 -0.05246,-0.0611 -0.09174,-0.12233 -0.117966,-0.18361 -0.02628,-0.0613 -0.0045,-0.11162 0.06555,-0.15108 0.07005,-0.0395 0.196656,-0.0586 0.380358,-0.0586 l 0.262208,0.0392 c 0.174883,0.035 0.3912,0.13974 0.649228,0.31471 0.25789,0.17484 0.46989,0.40213 0.636044,0.6818 0.201204,0.35858 0.443613,0.63182 0.727918,0.81984 0.284074,0.18802 0.570491,0.28186 0.858975,0.28186 0.288485,0 0.537647,-0.0219 0.747579,-0.0654 0.209703,-0.0437 0.406451,-0.10947 0.590153,-0.19684 0.07869,-0.58607 0.29294,-1.0363 0.642567,-1.35101 -0.498325,-0.0524 -0.946348,-0.13124 -1.344301,-0.23612 -0.397722,-0.10501 -0.808721,-0.27544 -1.232719,-0.51174 -0.424228,-0.23597 -0.776152,-0.52901 -1.055862,-0.87859 -0.279756,-0.34976 -0.50935,-0.80895 -0.688458,-1.37714 -0.1792,-0.56843 -0.268823,-1.22413 -0.268823,-1.9673 0,-1.05816 0.345446,-1.95862 1.036201,-2.70188 -0.323581,-0.79553 -0.293032,-1.68735 0.09174,-2.67537 0.253572,-0.0788 0.629612,-0.0197 1.127937,0.177 0.498416,0.19675 0.86334,0.36529 1.095138,0.50503 0.231798,0.13969 0.417522,0.25807 0.557446,0.35408 0.813314,-0.22725 1.652629,-0.3409 2.518174,-0.3409 0.865545,0 1.705044,0.11365 2.518404,0.3409 l 0.498371,-0.31462 c 0.340806,-0.20993 0.74326,-0.40232 1.206397,-0.5772 0.463413,-0.17479 0.817771,-0.22293 1.062707,-0.14415 0.393312,0.98806 0.428362,1.87983 0.10469,2.67537 0.690709,0.74326 1.036293,1.64395 1.036293,2.70188 0,0.74317 -0.08995,1.40094 -0.268869,1.97373 -0.179155,0.57288 -0.410723,1.0316 -0.694797,1.37714 -0.284396,0.3455 -0.638571,0.63623 -1.062569,0.87216 -0.424091,0.23612 -0.835227,0.40655 -1.232949,0.51156 -0.397907,0.10501 -0.84593,0.18393 -1.344255,0.23639 0.454501,0.39331 0.681797,1.01415 0.681797,1.86224 v 2.76711 c 0,0.15719 0.05466,0.28843 0.164087,0.39331 0.109284,0.10469 0.28187,0.13551 0.517986,0.0916 2.028716,-0.67311 3.683458,-1.88626 4.96432,-3.6394 1.280723,-1.753 1.921315,-3.72669 1.921315,-5.92156 -4.6e-4,-1.82696 -0.45101,-3.51206 -1.351191,-5.05532 z"
         inkscape:connector-curvature="0" />
      <text
         id="text3241"
         y="228.6534"
         x="72.344994"
         style="font-style:normal;font-variant:normal;font-weight:normal;font-stretch:normal;font-size:4.23333311px;line-height:1.25;font-family:'Noto Kufi Arabic';-inkscape-font-specification:'Noto Kufi Arabic';letter-spacing:0px;word-spacing:0px;fill:#000000;fill-opacity:1;stroke:none;stroke-width:0.26458332"
         xml:space="preserve"><tspan
           style="font-style:normal;font-variant:normal;font-weight:bold;font-stretch:normal;font-size:11.28888893px;font-family:sans-serif;-inkscape-font-specification:'sans-serif Bold';fill:#ececec;fill-opacity:1;stroke-width:0.26458332"
           y="228.6534"
           x="72.344994"
           id="tspan3239"
           sodipodi:role="line">https://github.com/suddin0/fdf</tspan></text>
    </g>
    <flowRoot
       xml:space="preserve"
       id="flowRoot3249"
       style="fill:black;fill-opacity:1;stroke:none;font-family:'Noto Kufi Arabic';font-style:normal;font-weight:normal;font-size:16px;line-height:1.25;letter-spacing:0px;word-spacing:0px;-inkscape-font-specification:'Noto Kufi Arabic';font-stretch:normal;font-variant:normal"><flowRegion
         id="flowRegion3251"><rect
           id="rect3253"
           width="1119.5574"
           height="381.22861"
           x="41.822548"
           y="347.91858" /></flowRegion><flowPara
         id="flowPara3255"></flowPara></flowRoot>  </g>
  <g
     inkscape:label="Fdf logo"
     inkscape:groupmode="layer"
     id="layer1"
     transform="translate(0,-51.731224)" />
</svg>
