/* XPM */
static char *_00[] = {
/* columns rows colors chars-per-pixel */
"12 19 65 1 ",
"  c #020202",
". c #040202",
"X c #050202",
"o c #060202",
"O c #0B0202",
"+ c #130202",
"@ c #160202",
"# c #180202",
"$ c #1D0202",
"% c #1E0202",
"& c #220202",
"* c #240202",
"= c #250202",
"- c #270202",
"; c #280202",
": c #320202",
"> c #350202",
", c #370202",
"< c #380202",
"1 c #440101",
"2 c #470101",
"3 c #550101",
"4 c #570101",
"5 c #590101",
"6 c #610101",
"7 c #630101",
"8 c #640101",
"9 c #710101",
"0 c #720101",
"q c #750101",
"w c #910101",
"e c #940101",
"r c #990101",
"t c #9F0101",
"y c #A10101",
"u c #A90101",
"i c #AB0101",
"p c #AE0101",
"a c #AF0101",
"s c #B50101",
"d c #B60101",
"f c #C50000",
"g c #CB0000",
"h c #CD0000",
"j c #D00000",
"k c #D30000",
"l c #DA0000",
"z c #DB0000",
"x c #E10000",
"c c #E30000",
"v c #E40000",
"b c #E60000",
"n c #E70000",
"m c #ED0000",
"M c #EF0000",
"N c #F00000",
"B c #F30000",
"V c #F40000",
"C c #F60000",
"Z c #F70000",
"A c #F80000",
"S c #F90000",
"D c #FA0000",
"F c #FC0000",
"G c red",
/* pixels */
"         ,GG",
"         ,GG",
"         ,GG",
"         ,GG",
"    X+.  ,GG",
"  -pSGDd:,GG",
" >NGFhgDZ9GG",
"OzGh&  $fAGG",
"7GV%    @mGG",
"sGy      wGG",
"vG0      6GG",
"AG3      1GG",
"CG4      2GG",
"xGq      8GG",
"aGu      rGG",
"5GS;    %BGG",
"ojGl<  :kBGG",
" -bGGnbGM7GG",
"  #exAct*=ii"
};
