/* XPM */
static char *_06[] = {
/* columns rows colors chars-per-pixel */
"5 23 20 1 ",
"  c #020202",
". c #080202",
"X c #2C0202",
"o c #370202",
"O c #3B0202",
"+ c #430101",
"@ c #400202",
"# c #4A0101",
"$ c #550101",
"% c #B20101",
"& c #BC0101",
"* c #C30000",
"= c #D00000",
"- c #DA0000",
"; c #EE0000",
": c #F00000",
"> c #F30000",
", c #F70000",
"< c #FD0000",
"1 c red",
/* pixels */
"  O11",
"  O11",
"  X&&",
"     ",
"     ",
"  o;;",
"  O11",
"  O11",
"  O11",
"  O11",
"  O11",
"  O11",
"  O11",
"  O11",
"  O11",
"  O11",
"  O11",
"  O11",
"  @1,",
"  $1-",
" .%1%",
"=:1<+",
"1>*# "
};
