/* XPM */
static char *_07[] = {
/* columns rows colors chars-per-pixel */
"12 18 47 1 ",
"  c #020202",
". c #050202",
"X c #070202",
"o c #080202",
"O c #0A0202",
"+ c #0D0202",
"@ c #120202",
"# c #160202",
"$ c #1F0202",
"% c #290202",
"& c #2E0202",
"* c #320202",
"= c #3A0202",
"- c #3E0202",
"; c #470101",
": c #480101",
"> c #4C0101",
", c #4E0101",
"< c #560101",
"1 c #660101",
"2 c #670101",
"3 c #6E0101",
"4 c #780101",
"5 c #990101",
"6 c #9C0101",
"7 c #A50101",
"8 c #AA0101",
"9 c #B90101",
"0 c #BC0101",
"q c #C20000",
"w c #C30000",
"e c #C60000",
"r c #D90000",
"t c #DA0000",
"y c #DF0000",
"u c #E50000",
"i c #ED0000",
"p c #EE0000",
"a c #F00000",
"s c #F20000",
"d c #F40000",
"f c #F90000",
"g c #FB0000",
"h c #FC0000",
"j c #FD0000",
"k c #FE0000",
"l c red",
/* pixels */
"ll-         ",
"ll-         ",
"ll-         ",
"ll-         ",
"ll-         ",
"ll-    O7pt*",
"ll-   #qlt% ",
"ll-  &yl0@  ",
"ll- :al6X   ",
"ll-2gh4     ",
"llwls>      ",
"llalr$      ",
"ll,elu&     ",
"ll-+9li=    ",
"ll- o8ld;   ",
"ll-  .5lf<  ",
"ll-    4lh1 ",
"ll-     3jk4"
};
