/* XPM */
static char *_09[] = {
/* columns rows colors chars-per-pixel */
"19 14 50 1 ",
"  c #020202",
". c #060202",
"X c #0A0202",
"o c #0B0202",
"O c #0E0202",
"+ c #170202",
"@ c #1B0202",
"# c #1D0202",
"$ c #260202",
"% c #280202",
"& c #290202",
"* c #2E0202",
"= c #300202",
"- c #410101",
"; c #480101",
": c #4B0101",
"> c #550101",
", c #5A0101",
"< c #5C0101",
"1 c #6A0101",
"2 c #6C0101",
"3 c #6F0101",
"4 c #720101",
"5 c #8B0101",
"6 c #920101",
"7 c #930101",
"8 c #950101",
"9 c #9C0101",
"0 c #9E0101",
"q c #A50101",
"w c #AB0101",
"e c #AE0101",
"r c #B50101",
"t c #BF0000",
"y c #BE0101",
"u c #CE0000",
"i c #D20000",
"p c #D60000",
"a c #D70000",
"s c #E70000",
"d c #EA0000",
"f c #EB0000",
"g c #EC0000",
"h c #EF0000",
"j c #F00000",
"k c #F10000",
"l c #F60000",
"z c #F70000",
"x c #FB0000",
"c c red",
/* pixels */
"ww@$qszu,  .4izd0+ ",
"cc>hcxccc1.rccxcciX",
"ccgy* #ech5j<Xo<lc3",
"ccpX   Okcc:    6ct",
"cc2     rca     ;cf",
"cc-     9ce     =cx",
"cc&     7c8     %cc",
"cc%     7c7     %cc",
"cc%     7c7     %cc",
"cc%     7c7     %cc",
"cc%     7c7     %cc",
"cc%     7c7     %cc",
"cc%     7c7     %cc",
"cc%     7c7     %cc"
};
