/* XPM */
static char *_10[] = {
/* columns rows colors chars-per-pixel */
"11 14 35 1 ",
"  c #020202",
". c #030202",
"X c #080202",
"o c #0F0202",
"O c #110202",
"+ c #120202",
"@ c #1C0202",
"# c #1F0202",
"$ c #2A0202",
"% c #2D0202",
"& c #2E0202",
"* c #330202",
"= c #390202",
"- c #470101",
"; c #4E0101",
": c #510101",
"> c #660101",
", c #6B0101",
"< c #730101",
"1 c #8F0101",
"2 c #990101",
"3 c #9F0101",
"4 c #AB0101",
"5 c #BF0101",
"6 c #C80000",
"7 c #CB0000",
"8 c #DD0000",
"9 c #E10000",
"0 c #E30000",
"q c #E70000",
"w c #E90000",
"e c #EB0000",
"r c #FA0000",
"t c #FB0000",
"y c red",
/* pixels */
"44#@20r91O ",
"yy:qytyyy7X",
"yye6=.+>ry,",
"yy8o    3y5",
"yy<     ;yw",
"yy-     *yt",
"yy&     $yy",
"yy%     $yy",
"yy%     $yy",
"yy%     $yy",
"yy%     $yy",
"yy%     $yy",
"yy%     $yy",
"yy%     $yy"
};
