/* XPM */
static char *_11[] = {
/* columns rows colors chars-per-pixel */
"12 14 55 1 ",
"  c #020202",
". c #070202",
"X c #080202",
"o c #090202",
"O c #100202",
"+ c #110202",
"@ c #120202",
"# c #250202",
"$ c #260202",
"% c #270202",
"& c #280202",
"* c #2B0202",
"= c #2D0202",
"- c #380202",
"; c #3B0202",
": c #3C0202",
"> c #520101",
", c #530101",
"< c #570101",
"1 c #5C0101",
"2 c #5D0101",
"3 c #5F0101",
"4 c #610101",
"5 c #710101",
"6 c #760101",
"7 c #810101",
"8 c #820101",
"9 c #830101",
"0 c #A40101",
"q c #A50101",
"w c #AB0101",
"e c #B10101",
"r c #B30101",
"t c #B40101",
"y c #D00000",
"u c #D10000",
"i c #D20000",
"p c #D30000",
"a c #D40000",
"s c #D90000",
"d c #DA0000",
"f c #DE0000",
"g c #E00000",
"h c #E20000",
"j c #E40000",
"k c #E80000",
"l c #E90000",
"z c #F40000",
"x c #F50000",
"c c #F60000",
"v c #F70000",
"b c #F80000",
"n c #F90000",
"m c #FA0000",
"M c red",
/* pixels */
"  @9axxp8+  ",
" &hMMkkMMg$ ",
"opMd-  ;fMuX",
"4Mb&    =mM2",
"tMq      wMe",
"jM5      6Mh",
"bM>      <Mv",
"vM,      <Mc",
"jM5      6Mh",
"rM0      wMe",
"3Mv#    *nM1",
"opMs-  :fMy.",
" %gMMllMMf$ ",
"  +8izzu7O  "
};
