/* XPM */
static char *_13[] = {
/* columns rows colors chars-per-pixel */
"12 19 67 1 ",
"  c #020202",
". c #060202",
"X c #0F0202",
"o c #110202",
"O c #150202",
"+ c #160202",
"@ c #170202",
"# c #180202",
"$ c #1A0202",
"% c #210202",
"& c #220202",
"* c #250202",
"= c #260202",
"- c #2C0202",
"; c #310202",
": c #360202",
"> c #370202",
", c #380202",
"< c #3C0202",
"1 c #420101",
"2 c #460101",
"3 c #480101",
"4 c #530101",
"5 c #570101",
"6 c #580101",
"7 c #5F0101",
"8 c #620101",
"9 c #650101",
"0 c #6B0101",
"q c #700101",
"w c #760101",
"e c #800101",
"r c #8C0101",
"t c #950101",
"y c #9C0101",
"u c #9D0101",
"i c #AB0101",
"p c #AD0101",
"a c #B50101",
"s c #B60101",
"d c #B80101",
"f c #B90101",
"g c #BF0101",
"h c #C70000",
"j c #CE0000",
"k c #D20000",
"l c #D70000",
"z c #DD0000",
"x c #DF0000",
"c c #E20000",
"v c #E30000",
"b c #E40000",
"n c #E50000",
"m c #E60000",
"M c #E80000",
"N c #EA0000",
"B c #EE0000",
"V c #F00000",
"C c #F10000",
"Z c #F30000",
"A c #F50000",
"S c #F70000",
"D c #F90000",
"F c #FA0000",
"G c #FC0000",
"H c #FD0000",
"J c red",
/* pixels */
"  @tcDvu%*ii",
" =nJJNMJB8JJ",
".jJz<  :lCJJ",
"5JF-    &AJJ",
"pJi      yJJ",
"xJw      9JJ",
"SJ6      3JJ",
"DJ4      1JJ",
"mJq      7JJ",
"fJy      rJJ",
"0JV+    XMJJ",
"XbJgO  oaGJJ",
" 1SJZdsVHeJJ",
"  ,hJJJk2>JJ",
"    #;$  >JJ",
"         >JJ",
"         >JJ",
"         >JJ",
"         >JJ"
};
