/* XPM */
static char *_14[] = {
/* columns rows colors chars-per-pixel */
"8 14 24 1 ",
"  c #020202",
". c #0B0202",
"X c #130202",
"o c #140202",
"O c #290202",
"+ c #2E0202",
"@ c #430101",
"# c #400202",
"$ c #4D0101",
"% c #5A0101",
"& c #5F0101",
"* c #6B0101",
"= c #8A0101",
"- c #9D0101",
"; c #AB0101",
": c #D80000",
"> c #E10000",
", c #E40000",
"< c #EC0000",
"1 c #EF0000",
"2 c #F50000",
"3 c #F60000",
"4 c #FE0000",
"5 c red",
/* pixels */
";;+o=:31",
"55&>5554",
"55<,%X.#",
"552O    ",
"55-     ",
"55*     ",
"55$     ",
"55@     ",
"55@     ",
"55@     ",
"55@     ",
"55@     ",
"55@     ",
"55@     "
};
