/* XPM */
static char *_15[] = {
/* columns rows colors chars-per-pixel */
"10 14 61 1 ",
"  c #020202",
". c #050202",
"X c #0B0202",
"o c #0F0202",
"O c #1B0202",
"+ c #1C0202",
"@ c #1D0202",
"# c #210202",
"$ c #230202",
"% c #250202",
"& c #280202",
"* c #2E0202",
"= c #3A0202",
"- c #420101",
"; c #410202",
": c #4C0101",
"> c #4D0101",
", c #4E0101",
"< c #5E0101",
"1 c #630101",
"2 c #700101",
"3 c #7B0101",
"4 c #7C0101",
"5 c #820101",
"6 c #8C0101",
"7 c #8F0101",
"8 c #900101",
"9 c #920101",
"0 c #9E0101",
"q c #A60101",
"w c #AA0101",
"e c #B40101",
"r c #B60101",
"t c #C00000",
"y c #C30000",
"u c #C40000",
"i c #C70000",
"p c #C90000",
"a c #CF0000",
"s c #D00000",
"d c #D10000",
"f c #D50000",
"g c #DB0000",
"h c #DC0000",
"j c #DD0000",
"k c #E00000",
"l c #E30000",
"z c #E40000",
"x c #E70000",
"c c #E80000",
"v c #EA0000",
"b c #EC0000",
"n c #ED0000",
"m c #F00000",
"M c #F60000",
"N c #F70000",
"B c #F90000",
"V c #FB0000",
"C c #FC0000",
"Z c #FE0000",
"A c red",
/* pixels */
" O9abNlu5O",
"%cAZxjMAA,",
"qAy%   $4=",
"jA-       ",
"sA1       ",
"6AB0:o    ",
"orAAACt2X ",
"  ;8fAAAg&",
"     +2bAe",
"       <Av",
".      >Am",
"k4#   *dAw",
"AAAnhvAAh@",
">7izVmp3o "
};
