/* XPM */
static char *_17[] = {
/* columns rows colors chars-per-pixel */
"11 14 32 1 ",
"  c #020202",
". c #040202",
"X c #080202",
"o c #0E0202",
"O c #100202",
"+ c #120202",
"@ c #1D0202",
"# c #2A0202",
"$ c #2B0202",
"% c #330202",
"& c #3B0202",
"* c #450101",
"= c #4E0101",
"- c #500101",
"; c #670101",
": c #6A0101",
"> c #720101",
", c #8B0101",
"< c #9B0101",
"1 c #A00101",
"2 c #AB0101",
"3 c #BF0101",
"4 c #C90000",
"5 c #DD0000",
"6 c #DF0000",
"7 c #E30000",
"8 c #E80000",
"9 c #EB0000",
"0 c #F90000",
"q c #FA0000",
"w c #FB0000",
"e c red",
/* pixels */
"ee#     #ee",
"ee#     #ee",
"ee#     #ee",
"ee#     #ee",
"ee#     #ee",
"ee#     #ee",
"ee#     #ee",
"ee#     $ee",
"we%     *ee",
"9e=     >ee",
"3e1    o5ee",
":eq;+.&49ee",
"X4eeewe8-ee",
" O,607<@@22"
};
