/* XPM */
static char *_18[] = {
/* columns rows colors chars-per-pixel */
"13 13 56 1 ",
"  c #020202",
". c #030202",
"X c #040202",
"o c #050202",
"O c #090202",
"+ c #100202",
"@ c #120202",
"# c #130202",
"$ c #150202",
"% c #160202",
"& c #1E0202",
"* c #210202",
"= c #2F0202",
"- c #310202",
"; c #330202",
": c #350202",
"> c #440101",
", c #450101",
"< c #480101",
"1 c #4A0101",
"2 c #570101",
"3 c #580101",
"4 c #6C0101",
"5 c #6D0101",
"6 c #6E0101",
"7 c #700101",
"8 c #7F0101",
"9 c #800101",
"0 c #840101",
"q c #850101",
"w c #910101",
"e c #930101",
"r c #950101",
"t c #A60101",
"y c #A80101",
"u c #A90101",
"i c #AB0101",
"p c #AF0101",
"a c #B90101",
"s c #BB0101",
"d c #CE0000",
"f c #CF0000",
"g c #D10000",
"h c #DD0000",
"j c #DF0000",
"k c #E20000",
"l c #E30000",
"z c #EC0000",
"x c #ED0000",
"c c #F60000",
"v c #F70000",
"b c #F80000",
"n c #F90000",
"m c #FC0000",
"M c #FD0000",
"N c red",
/* pixels */
"dN0       qNd",
"5Nlo     XkN4",
"@cN<     1Nv#",
" yNu     iNt ",
" ,Nn%   $bN> ",
" .hN6   7NjX ",
"  9Ng   fN8  ",
"  &mN; :NM*  ",
"   sNe rNa   ",
"   3Nx+zN2   ",
"   OzNpNzO   ",
"    eNNNw    ",
"    =NNN-    "
};
