/* XPM */
static char *_20[] = {
/* columns rows colors chars-per-pixel */
"13 13 68 1 ",
"  c #020202",
". c #040202",
"X c #050202",
"o c #070202",
"O c #0A0202",
"+ c #0B0202",
"@ c #0C0202",
"# c #160202",
"$ c #180202",
"% c #190202",
"& c #1A0202",
"* c #1D0202",
"= c #230202",
"- c #240202",
"; c #260202",
": c #290202",
"> c #2A0202",
", c #310202",
"< c #3D0202",
"1 c #3E0202",
"2 c #410202",
"3 c #440101",
"4 c #490101",
"5 c #4F0101",
"6 c #500101",
"7 c #560101",
"8 c #600101",
"9 c #680101",
"0 c #6D0101",
"q c #810101",
"w c #820101",
"e c #880101",
"r c #8A0101",
"t c #8F0101",
"y c #910101",
"u c #990101",
"i c #9F0101",
"p c #A10101",
"a c #A50101",
"s c #B40101",
"d c #BA0101",
"f c #BC0101",
"g c #BD0101",
"h c #BF0101",
"j c #C40000",
"k c #C70000",
"l c #CE0000",
"z c #CF0000",
"x c #D00000",
"c c #D20000",
"v c #E20000",
"b c #E40000",
"n c #E50000",
"m c #E70000",
"M c #EA0000",
"N c #ED0000",
"B c #EF0000",
"V c #F00000",
"C c #F10000",
"Z c #F20000",
"A c #F30000",
"S c #F60000",
"D c #FA0000",
"F c #FB0000",
"G c #FC0000",
"H c #FD0000",
"J c #FE0000",
"K c red",
/* pixels */
",SK0     2FK8",
" 9KD<   %nKu ",
"  pKv# XfKx+ ",
"  +zKgXrKB-  ",
"   :ZKsJJ5   ",
"    6JKKe    ",
"    *CKG=    ",
"   ojKHKko   ",
"   tKN1MKy   ",
"  5JH4 3GK7  ",
" ;VKq   wKA> ",
"OlKhX   .dKc@",
"iKm&     $bKa"
};
