/* XPM */
static char *_22[] = {
/* columns rows colors chars-per-pixel */
"11 13 34 1 ",
"  c #020202",
". c #040202",
"X c #050202",
"o c #080202",
"O c #0A0202",
"+ c #100202",
"@ c #130202",
"# c #1B0202",
"$ c #250202",
"% c #290202",
"& c #360202",
"* c #3B0202",
"= c #430101",
"- c #480101",
"; c #800101",
": c #810101",
"> c #830101",
", c #930101",
"< c #990101",
"1 c #AC0101",
"2 c #B20101",
"3 c #BC0101",
"4 c #C00000",
"5 c #CE0000",
"6 c #D20000",
"7 c #DE0000",
"8 c #E80000",
"9 c #E90000",
"0 c #EB0000",
"q c #F30000",
"w c #F50000",
"e c #F80000",
"r c #FA0000",
"t c red",
/* pixels */
"2tttttttttt",
">33333339tt",
"       =et;",
"      &qt< ",
"     $8t2X ",
"    #7t4O  ",
"   +5t6@   ",
"  o3t7#    ",
" .1t0%     ",
" ,tw*      ",
":tr-       ",
"tt933333333",
"ttttttttttt"
};
