/* XPM */
static char *_23[] = {
/* columns rows colors chars-per-pixel */
"9 22 45 1 ",
"  c #020202",
". c #0B0202",
"X c #140202",
"o c #160202",
"O c #2B0202",
"+ c #420101",
"@ c #410202",
"# c #440101",
"$ c #470101",
"% c #610101",
"& c #620101",
"* c #6F0101",
"= c #730101",
"- c #750101",
"; c #770101",
": c #820101",
"> c #870101",
", c #880101",
"< c #9E0101",
"1 c #A40101",
"2 c #A50101",
"3 c #A60101",
"4 c #A70101",
"5 c #A80101",
"6 c #AB0101",
"7 c #B60101",
"8 c #B80101",
"9 c #BC0101",
"0 c #C00000",
"q c #CF0000",
"w c #D50000",
"e c #DD0000",
"r c #E60000",
"t c #E70000",
"y c #E80000",
"u c #EB0000",
"i c #EC0000",
"p c #ED0000",
"a c #EE0000",
"s c #EF0000",
"d c #F00000",
"f c #F20000",
"g c #F70000",
"h c #F80000",
"j c red",
/* pixels */
"    O4wij",
"   .tja96",
"   #jpX  ",
"   &j7   ",
"   -j3   ",
"   ;j1   ",
"   ;j1   ",
"   :j<   ",
"   5j>   ",
"  $hj@   ",
"efjy*    ",
"qyju=    ",
"  @gj+   ",
"   3j,   ",
"   :j<   ",
"   ;j1   ",
"   ;j1   ",
"   -j3   ",
"   %j8   ",
"   #jso  ",
"   .rjd06",
"    O2wij"
};
