/* XPM */
static char *_27[] = {
/* columns rows colors chars-per-pixel */
"13 13 64 1 ",
"  c #020202",
". c #090202",
"X c #0A0202",
"o c #0B0202",
"O c #0C0202",
"+ c #0D0202",
"@ c #0E0202",
"# c #0F0202",
"$ c #100202",
"% c #110202",
"& c #120202",
"* c #2F0202",
"= c #320202",
"- c #330202",
"; c #340202",
": c #360202",
"> c #3B0202",
", c #3C0202",
"< c #470101",
"1 c #480101",
"2 c #4C0101",
"3 c #4D0101",
"4 c #4E0101",
"5 c #650101",
"6 c #690101",
"7 c #6B0101",
"8 c #6C0101",
"9 c #6E0101",
"0 c #720101",
"q c #910101",
"w c #920101",
"e c #950101",
"r c #960101",
"t c #970101",
"y c #9B0101",
"u c #9C0101",
"i c #AF0101",
"p c #B50101",
"a c #B70101",
"s c #B80101",
"d c #B90101",
"f c #C10000",
"g c #C30000",
"h c #C40000",
"j c #C50000",
"k c #C60000",
"l c #C90000",
"z c #CD0000",
"x c #CE0000",
"c c #CF0000",
"v c #D20000",
"b c #D40000",
"n c #E30000",
"m c #E40000",
"M c #E60000",
"N c #E70000",
"B c #E90000",
"V c #EA0000",
"C c #EB0000",
"Z c #F60000",
"A c #F70000",
"S c #F80000",
"D c #F90000",
"F c red",
/* pixels */
"*i#       #s>",
"aFg#.<51.@gFd",
"&lFxnFFFNcFk$",
" %vFDu0ySFb$ ",
" oMA:   :AC+ ",
" 2Fq     eF4 ",
" 7F6     8F7 ",
" 3Fw     rF3 ",
" oBZ-   ;Smo ",
" #vFAt9tSFz# ",
"$jFvVFFFmzFh$",
"dFh#O482X@fFp",
",a#       @i="
};
