/* XPM */
static char *_3[] = {
/* columns rows colors chars-per-pixel */
"2 18 9 1 ",
"  c #020202",
". c #130202",
"X c #2B0202",
"o c #D30000",
"O c #D50000",
"+ c #E00000",
"@ c #EC0000",
"# c #F80000",
"$ c red",
/* pixels */
"$$",
"$$",
"$$",
"$$",
"$$",
"$$",
"$$",
"$$",
"##",
"@@",
"++",
"oO",
"XX",
"  ",
"..",
"$$",
"$$",
"$$"
};
