/* XPM */
static char *_6[] = {
/* columns rows colors chars-per-pixel */
"11 22 69 1 ",
"  c #020202",
". c #030202",
"X c #040202",
"o c #050202",
"O c #0A0202",
"+ c #0C0202",
"@ c #0E0202",
"# c #150202",
"$ c #180202",
"% c #1E0202",
"& c #210202",
"* c #260202",
"= c #2C0202",
"- c #2F0202",
"; c #300202",
": c #310202",
"> c #320202",
", c #370202",
"< c #380202",
"1 c #390202",
"2 c #3C0202",
"3 c #3D0202",
"4 c #410202",
"5 c #480101",
"6 c #4B0101",
"7 c #4F0101",
"8 c #570101",
"9 c #5B0101",
"0 c #610101",
"q c #630101",
"w c #6A0101",
"e c #6C0101",
"r c #800101",
"t c #820101",
"y c #830101",
"u c #8C0101",
"i c #9A0101",
"p c #9D0101",
"a c #9E0101",
"s c #9F0101",
"d c #A10101",
"f c #B20101",
"g c #B50101",
"h c #B60101",
"j c #B90101",
"k c #BC0101",
"l c #C00000",
"z c #C20000",
"x c #C30000",
"c c #C40000",
"v c #CC0000",
"b c #CE0000",
"n c #D20000",
"m c #D50000",
"M c #D70000",
"N c #E40000",
"B c #F00000",
"V c #F10000",
"C c #F20000",
"Z c #F30000",
"A c #F50000",
"S c #F60000",
"D c #F70000",
"F c #F80000",
"G c #F90000",
"H c #FA0000",
"J c #FB0000",
"K c #FE0000",
"L c red",
/* pixels */
"    ;A     ",
"    ;A     ",
"   X6F>#   ",
" =fZLLLLNp ",
";CLndHugBA ",
"hLso;A  +9 ",
"VL- ;A     ",
"SL1 ;A     ",
"zLc%;A     ",
"2DLJmH8$   ",
" ;fDLLLKz, ",
"   O0JkFLF3",
"    ;A &vLl",
"    ;A  4LA",
"    ;A  :LC",
"t@  ;A .iLj",
"LVaqwFexLD<",
"yMLLLLLLb3 ",
"  *5rG7%   ",
"    >A     ",
"    :A     ",
"    ;A     "
};
