/* XPM */
static char *_7[] = {
/* columns rows colors chars-per-pixel */
"20 18 88 1 ",
"  c #020202",
". c #030202",
"X c #040202",
"o c #050202",
"O c #060202",
"+ c #070202",
"@ c #080202",
"# c #0A0202",
"$ c #160202",
"% c #190202",
"& c #1B0202",
"* c #1D0202",
"= c #210202",
"- c #220202",
"; c #240202",
": c #270202",
"> c #280202",
", c #290202",
"< c #2A0202",
"1 c #2C0202",
"2 c #2D0202",
"3 c #2E0202",
"4 c #300202",
"5 c #320202",
"6 c #3A0202",
"7 c #3E0202",
"8 c #410101",
"9 c #580101",
"0 c #5D0101",
"q c #5E0101",
"w c #610101",
"e c #650101",
"r c #660101",
"t c #670101",
"y c #680101",
"u c #690101",
"i c #6C0101",
"p c #710101",
"a c #750101",
"s c #8C0101",
"d c #8F0101",
"f c #900101",
"g c #920101",
"h c #9A0101",
"j c #9B0101",
"k c #9D0101",
"l c #A10101",
"z c #A30101",
"x c #A50101",
"c c #B60101",
"v c #B70101",
"b c #B90101",
"n c #BF0101",
"m c #C00000",
"M c #C30000",
"N c #C40000",
"B c #C50000",
"V c #C60000",
"C c #CA0000",
"Z c #CE0000",
"A c #D10000",
"S c #D40000",
"D c #DA0000",
"F c #DD0000",
"G c #E00000",
"H c #E30000",
"J c #E40000",
"K c #E60000",
"L c #EA0000",
"P c #EB0000",
"I c #ED0000",
"U c #EE0000",
"Y c #EF0000",
"T c #F00000",
"R c #F10000",
"E c #F20000",
"W c #F30000",
"Q c #F40000",
"! c #F50000",
"~ c #F60000",
"^ c #F70000",
"/ c #F80000",
"( c #F90000",
") c #FA0000",
"_ c #FB0000",
"` c #FD0000",
"' c #FE0000",
"] c red",
/* pixels */
" 2vQQv2      XCE*   ",
"-U(hh(Y;     y]a    ",
"k]e  e]l    $IS+    ",
"S/@  @^K    k'8     ",
"!G    F'X  6`x      ",
"JI    P~  oZR&      ",
"n]1  1]V  i]p       ",
"0]N,,B]q %YAO       ",
".f']]'d. l'7  3uy1  ",
"  1tr1  7'l .g']]'s ",
"       OAY% w]M><C]9",
"       p]i  M',  5]m",
"      &RZo  LL    RT",
"      x`6  .(F    H)",
"     8'k    D~+  #_G",
"    +SI$    z]w  u]j",
"    a]y     :R(hj)I=",
"   *ECX      4bWWc1 "
};
