/* XPM */
static char *_8[] = {
/* columns rows colors chars-per-pixel */
"17 18 97 2 ",
"   c #020202",
".  c #030202",
"X  c #050202",
"o  c #060202",
"O  c #070202",
"+  c #080202",
"@  c #090202",
"#  c #0C0202",
"$  c #0D0202",
"%  c #0E0202",
"&  c #0F0202",
"*  c #130202",
"=  c #140202",
"-  c #170202",
";  c #190202",
":  c #1A0202",
">  c #200202",
",  c #210202",
"<  c #270202",
"1  c #2C0202",
"2  c #380202",
"3  c #390202",
"4  c #420101",
"5  c #400202",
"6  c #460101",
"7  c #4F0101",
"8  c #500101",
"9  c #520101",
"0  c #550101",
"q  c #560101",
"w  c #590101",
"e  c #5C0101",
"r  c #5D0101",
"t  c #5F0101",
"y  c #600101",
"u  c #610101",
"i  c #660101",
"p  c #6C0101",
"a  c #700101",
"s  c #720101",
"d  c #760101",
"f  c #7B0101",
"g  c #7E0101",
"h  c #810101",
"j  c #850101",
"k  c #8B0101",
"l  c #950101",
"z  c #970101",
"x  c #980101",
"c  c #A00101",
"v  c #A20101",
"b  c #A30101",
"n  c #A70101",
"m  c #AA0101",
"M  c #AB0101",
"N  c #AE0101",
"B  c #B10101",
"V  c #B50101",
"C  c #B60101",
"Z  c #BA0101",
"A  c #BC0101",
"S  c #BF0000",
"D  c #BF0101",
"F  c #C30000",
"G  c #C60000",
"H  c #CE0000",
"J  c #D20000",
"K  c #D40000",
"L  c #D50000",
"P  c #D60000",
"I  c #D70000",
"U  c #DB0000",
"Y  c #DD0000",
"T  c #DE0000",
"R  c #E20000",
"E  c #E30000",
"W  c #E40000",
"Q  c #E80000",
"!  c #EA0000",
"~  c #EB0000",
"^  c #EE0000",
"/  c #F00000",
"(  c #F10000",
")  c #F20000",
"_  c #F30000",
"`  c #F40000",
"'  c #F50000",
"]  c #F60000",
"[  c #F70000",
"{  c #F80000",
"}  c #F90000",
"|  c #FA0000",
" . c #FB0000",
".. c #FC0000",
"X. c #FD0000",
"o. c #FE0000",
"O. c red",
/* pixels */
"      & j L [ ( L c 9             ",
"    - I O.O.^ W O.O.O.            ",
"    z O._ 7     % q D             ",
"    T O.h                         ",
"    Y O.p                         ",
"    v O.J $                       ",
"    , ` O.C o                     ",
"    0 ] O.O.b X                   ",
"  u o.} l ..O.n o         ; M M * ",
"1 [ O.e   r ..O.m O       5 O.) . ",
"v O.A       w  .O.N O     f O.N   ",
"E O.p         q | O.B + . L O.8   ",
"{ O.t           9 } O.V y O.H .   ",
"U O.x             7 } O.o. .3     ",
"k O.{ 2             p O.O.P #     ",
"= R O._ a *     > g _ O.o.O.S $   ",
"  < K O.O.X.Q / O.O.] d 6 ' O.F & ",
"    @ i Z ! ..~ G h :     4 M M s "
};
