/* XPM */
static char *_9[] = {
/* columns rows colors chars-per-pixel */
"11 18 20 1 ",
"  c #020202",
". c #070202",
"X c #0D0202",
"o c #130202",
"O c #3D0202",
"+ c #670101",
"@ c #6E0101",
"# c #8F0101",
"$ c #970101",
"% c #9A0101",
"& c #A00101",
"* c #A40101",
"= c #AD0101",
"- c #CA0000",
"; c #D10000",
": c #EA0000",
"> c #EB0000",
", c #F80000",
"< c #FB0000",
"1 c red",
/* pixels */
"O@&;<1:    ",
"111111:    ",
",-%+=1:    ",
".   #1:    ",
"    #1:    ",
"    #1:    ",
"    #1:    ",
"    #1:    ",
"    #1:    ",
"    #1:    ",
"    #1:    ",
"    #1:    ",
"    #1:    ",
"    #1:    ",
"    #1:    ",
"Xooo$1>oooo",
"*1111111111",
"*1111111111"
};
