/* XPM */
static char *_4[] = {
/* columns rows colors chars-per-pixel */
"12 18 83 1 ",
"  c #020202",
". c #030202",
"X c #040202",
"o c #050202",
"O c #060202",
"+ c #0B0202",
"@ c #0D0202",
"# c #0E0202",
"$ c #110202",
"% c #120202",
"& c #170202",
"* c #190202",
"= c #1F0202",
"- c #210202",
"; c #220202",
": c #230202",
"> c #300202",
", c #310202",
"< c #340202",
"1 c #390202",
"2 c #4B0101",
"3 c #4C0101",
"4 c #4F0101",
"5 c #540101",
"6 c #5A0101",
"7 c #5C0101",
"8 c #600101",
"9 c #640101",
"0 c #660101",
"q c #6C0101",
"w c #6E0101",
"e c #730101",
"r c #780101",
"t c #7F0101",
"y c #800101",
"u c #850101",
"i c #880101",
"p c #8D0101",
"a c #8F0101",
"s c #920101",
"d c #930101",
"f c #970101",
"g c #980101",
"h c #9F0101",
"j c #A90101",
"k c #AA0101",
"l c #AF0101",
"z c #B30101",
"x c #B40101",
"c c #B90101",
"v c #BC0101",
"b c #BF0000",
"n c #C40000",
"m c #C60000",
"M c #C90000",
"N c #CB0000",
"B c #CD0000",
"V c #D20000",
"C c #D30000",
"Z c #D60000",
"A c #D90000",
"S c #DB0000",
"D c #DD0000",
"F c #DE0000",
"G c #DF0000",
"H c #E10000",
"J c #E30000",
"K c #E80000",
"L c #E90000",
"P c #EA0000",
"I c #EC0000",
"U c #ED0000",
"Y c #EF0000",
"T c #F00000",
"R c #F20000",
"E c #F30000",
"W c #F40000",
"Q c #F70000",
"! c #F80000",
"~ c #F90000",
"^ c #FC0000",
"/ c #FE0000",
"( c red",
/* pixels */
"   #rMUQGl8 ",
"  ,H((((((F ",
" -P(B3#O;6g ",
" c(m+       ",
"<((>        ",
"p(N         ",
"n(a+wxMze$  ",
"K(uZ(((((K1 ",
"Q(Q^t,=5S(L*",
"~((t    ;Q(i",
"U(!@     h(V",
"C(A      e(E",
"j(V      q(Q",
"0(Wo     s(A",
"&W(9    %U(d",
" y(Y4X -v(R;",
" ok((TJ/(E2 ",
"  .7bI!Df:  "
};
