/* XPM */
static char *_5[] = {
/* columns rows colors chars-per-pixel */
"11 18 43 1 ",
"  c #020202",
". c #030202",
"X c #050202",
"o c #0A0202",
"O c #0B0202",
"+ c #0E0202",
"@ c #130202",
"# c #140202",
"$ c #190202",
"% c #1E0202",
"& c #270202",
"* c #2F0202",
"= c #410101",
"- c #450101",
"; c #520101",
": c #570101",
"> c #5A0101",
", c #5E0101",
"< c #6C0101",
"1 c #700101",
"2 c #730101",
"3 c #770101",
"4 c #840101",
"5 c #890101",
"6 c #9E0101",
"7 c #A20101",
"8 c #AF0101",
"9 c #B40101",
"0 c #B70101",
"q c #BB0101",
"w c #C80000",
"e c #CC0000",
"r c #D40000",
"t c #DE0000",
"y c #E40000",
"u c #F00000",
"i c #F10000",
"p c #F40000",
"a c #F80000",
"s c #FB0000",
"d c #FD0000",
"f c #FE0000",
"g c red",
/* pixels */
"ggggggggggg",
"ggggggggggr",
"@@@@@@@$ug3",
"       ;gd%",
"       8gq ",
"      #ag, ",
"      <gp+ ",
"      wg7  ",
"     &fg-  ",
"     4gyX  ",
"    .tg5   ",
"    =gg*   ",
"    6ge    ",
"   oug1    ",
"   >gs$    ",
"   0g9     ",
"  $sg:     ",
"  2giO     "
};
