/* XPM */
static char *_7[] = {
/* columns rows colors chars-per-pixel */
"12 18 83 1 ",
"  c #020202",
". c #030202",
"X c #040202",
"o c #050202",
"O c #060202",
"+ c #070202",
"@ c #0A0202",
"# c #0D0202",
"$ c #0E0202",
"% c #0F0202",
"& c #100202",
"* c #120202",
"= c #150202",
"- c #1B0202",
"; c #200202",
": c #210202",
"> c #220202",
", c #240202",
"< c #260202",
"1 c #310202",
"2 c #320202",
"3 c #340202",
"4 c #3A0202",
"5 c #4B0101",
"6 c #4F0101",
"7 c #510101",
"8 c #550101",
"9 c #590101",
"0 c #5D0101",
"q c #610101",
"w c #650101",
"e c #660101",
"r c #6A0101",
"t c #6C0101",
"y c #6E0101",
"u c #720101",
"i c #770101",
"p c #7E0101",
"a c #810101",
"s c #820101",
"d c #860101",
"f c #8A0101",
"g c #8B0101",
"h c #910101",
"j c #920101",
"k c #960101",
"l c #990101",
"z c #9E0101",
"x c #A80101",
"c c #A90101",
"v c #AD0101",
"b c #AF0101",
"n c #B70101",
"m c #BB0101",
"M c #C00000",
"N c #C10000",
"B c #C80000",
"V c #C90000",
"C c #CE0000",
"Z c #D00000",
"A c #D10000",
"S c #D20000",
"D c #D30000",
"F c #D40000",
"G c #D80000",
"H c #DA0000",
"J c #DB0000",
"K c #DF0000",
"L c #E00000",
"P c #E10000",
"I c #E60000",
"U c #E70000",
"Y c #EB0000",
"T c #EC0000",
"R c #ED0000",
"E c #F00000",
"W c #F30000",
"Q c #F40000",
"! c #F70000",
"~ c #F80000",
"^ c #F90000",
"/ c #FC0000",
"( c red",
/* pixels */
"  <lK^RM0.  ",
" 5Q((Y^((cX ",
",W(m, +7E(p ",
"k(T*    e(W=",
"J(h     oQ(w",
"!(t      A(x",
"Q(u      G(S",
"D(z     $~(Y",
"f(!:    a((~",
"-Y(H8;2s/!(!",
" 4U(((((Fd(I",
"  %yvMbr@j(N",
"         C(g",
"        3((1",
"       #V(n ",
" l9:O&6Z(Y> ",
" P((((((L1  ",
" qbK!RBi#   "
};
