/* XPM */
static char *_2[] = {
/* columns rows colors chars-per-pixel */
"15 13 45 1 ",
"  c #020202",
". c #030202",
"X c #0C0202",
"o c #0D0202",
"O c #130202",
"+ c #160202",
"@ c #1A0202",
"# c #200202",
"$ c #210202",
"% c #270202",
"& c #380202",
"* c #3D0202",
"= c #400202",
"- c #570101",
"; c #580101",
": c #5F0101",
"> c #670101",
", c #700101",
"< c #730101",
"1 c #780101",
"2 c #890101",
"3 c #930101",
"4 c #970101",
"5 c #9B0101",
"6 c #9D0101",
"7 c #AB0101",
"8 c #B20101",
"9 c #B40101",
"0 c #BC0101",
"q c #C40000",
"w c #CC0000",
"e c #D00000",
"r c #D50000",
"t c #D80000",
"y c #DA0000",
"u c #E20000",
"i c #E90000",
"p c #ED0000",
"a c #F00000",
"s c #F70000",
"d c #F90000",
"f c #FA0000",
"g c #FD0000",
"h c #FE0000",
"j c red",
/* pixels */
"r1@            ",
"jjg0:o         ",
";9fjja6=.      ",
"  O>qhjju2%    ",
"     $1yjjjw,+ ",
"       .*4pjjs7",
"          X5jjj",
"        &3ijjs7",
"     #1tjjjw,+ ",
"  O:0hjju2%    ",
"-8djja6=.      ",
"jjg0:o         ",
"e<@            "
};
