/* XPM */
static char *_3[] = {
/* columns rows colors chars-per-pixel */
"9 18 46 1 ",
"  c #020202",
". c #050202",
"X c #080202",
"o c #0D0202",
"O c #0E0202",
"+ c #160202",
"@ c #1C0202",
"# c #1D0202",
"$ c #230202",
"% c #2D0202",
"& c #2F0202",
"* c #380202",
"= c #3D0202",
"- c #430101",
"; c #410202",
": c #440101",
"> c #450101",
", c #470101",
"< c #550101",
"1 c #5E0101",
"2 c #5F0101",
"3 c #6B0101",
"4 c #6C0101",
"5 c #6F0101",
"6 c #7C0101",
"7 c #8D0101",
"8 c #9A0101",
"9 c #AA0101",
"0 c #B00101",
"q c #B40101",
"w c #BC0101",
"e c #BF0101",
"r c #D60000",
"t c #E20000",
"y c #E50000",
"u c #E70000",
"i c #EC0000",
"p c #ED0000",
"a c #F30000",
"s c #F40000",
"d c #FA0000",
"f c #FB0000",
"g c #FC0000",
"h c #FD0000",
"j c #FE0000",
"k c red",
/* pixels */
"o4eiht8# ",
"ykkfgkku$",
"kq=.X<ak9",
",     6kp",
"      1ks",
"      0kw",
"     5kd*",
"    1hj2 ",
"   -dk3  ",
"   rk7   ",
"  @kk+   ",
"  %kh    ",
"  &kd    ",
"  O>:    ",
"         ",
"  ;kkO   ",
"  ;kkO   ",
"  ;kkO   "
};
