/* XPM */
static char *_4[] = {
/* columns rows colors chars-per-pixel */
"21 21 136 2 ",
"   c #020202",
".  c #030202",
"X  c #040202",
"o  c #050202",
"O  c #070202",
"+  c #090202",
"@  c #0B0202",
"#  c #0C0202",
"$  c #0D0202",
"%  c #0E0202",
"&  c #0F0202",
"*  c #120202",
"=  c #140202",
"-  c #150202",
";  c #160202",
":  c #170202",
">  c #180202",
",  c #1A0202",
"<  c #1B0202",
"1  c #1F0202",
"2  c #200202",
"3  c #220202",
"4  c #230202",
"5  c #240202",
"6  c #250202",
"7  c #260202",
"8  c #270202",
"9  c #280202",
"0  c #2F0202",
"q  c #300202",
"w  c #310202",
"e  c #320202",
"r  c #360202",
"t  c #3A0202",
"y  c #3C0202",
"u  c #3D0202",
"i  c #3F0202",
"p  c #410101",
"a  c #420101",
"s  c #450101",
"d  c #480101",
"f  c #490101",
"g  c #4B0101",
"h  c #4F0101",
"j  c #500101",
"k  c #520101",
"l  c #530101",
"z  c #550101",
"x  c #590101",
"c  c #600101",
"v  c #610101",
"b  c #620101",
"n  c #640101",
"m  c #660101",
"M  c #690101",
"N  c #6B0101",
"B  c #700101",
"V  c #720101",
"C  c #740101",
"Z  c #750101",
"A  c #780101",
"S  c #7A0101",
"D  c #7F0101",
"F  c #800101",
"G  c #820101",
"H  c #850101",
"J  c #870101",
"K  c #8B0101",
"L  c #8C0101",
"P  c #8D0101",
"I  c #900101",
"U  c #910101",
"Y  c #920101",
"T  c #970101",
"R  c #980101",
"E  c #9A0101",
"W  c #9B0101",
"Q  c #A10101",
"!  c #A20101",
"~  c #A30101",
"^  c #A60101",
"/  c #AA0101",
"(  c #AD0101",
")  c #AE0101",
"_  c #AF0101",
"`  c #B00101",
"'  c #B20101",
"]  c #B30101",
"[  c #B40101",
"{  c #B60101",
"}  c #B70101",
"|  c #BB0101",
" . c #BC0101",
".. c #BD0101",
"X. c #BF0000",
"o. c #BE0101",
"O. c #BF0101",
"+. c #C20000",
"@. c #C30000",
"#. c #C40000",
"$. c #C60000",
"%. c #C90000",
"&. c #CA0000",
"*. c #CD0000",
"=. c #CE0000",
"-. c #D10000",
";. c #D20000",
":. c #D50000",
">. c #D60000",
",. c #D90000",
"<. c #DD0000",
"1. c #DE0000",
"2. c #DF0000",
"3. c #E00000",
"4. c #E20000",
"5. c #E30000",
"6. c #E60000",
"7. c #E70000",
"8. c #E80000",
"9. c #E90000",
"0. c #EA0000",
"q. c #EB0000",
"w. c #EC0000",
"e. c #EE0000",
"r. c #EF0000",
"t. c #F00000",
"y. c #F20000",
"u. c #F50000",
"i. c #F60000",
"p. c #F70000",
"a. c #F90000",
"s. c #FB0000",
"d. c #FC0000",
"f. c #FD0000",
"g. c #FE0000",
"h. c red",
/* pixels */
"            5 Z | 3.i.r.:.( x $           ",
"        2 Q d.h.i.&.{ O.>.d.h.e.m .       ",
"      s q.h.} g O         > N 5.h.| #     ",
"    d s.y.k                   % W h...@   ",
"  8 t.0.0                       . I h.U   ",
"  _ h.h       O b Q ^ F 4 $ A f   X +.f.7 ",
"e g./       - *.h.h.h.h.i.V h.E     p h.K ",
"H h.a       ) h.%.y & w [ g.h.E     X w.=.",
"%.q..     6 g.q.*       o -.h.E       #.t.",
"7.%.      c h.R           B h.E       X.p.",
"a.]       V h.S           j h.E       2.1.",
"8.@.      n h.Y           M h.E     3 f.~ ",
"*.7..     q h.<.+          .h.E   . / h.t ",
"L h.r       +.h./ ;   @ K h.h.E 1 ^ h.P   ",
"u h.!       5 4.h.h.6.d.g.U h.u.g.p.S X   ",
"  ..f.y       = G X.$.! i : *.` C ,       ",
"  q i.9.5                                 ",
"    z f.9.p                   < v         ",
"      l y.g.( i o         5 J r.h.u       ",
"        9 _ g.h.r.$.' o.3.h.h.,.h         ",
"            0 D @.5.a.e.;.T f .           "
};
