/* XPM */
static char *_5[] = {
/* columns rows colors chars-per-pixel */
"16 18 73 1 ",
"  c #020202",
". c #030202",
"X c #040202",
"o c #050202",
"O c #080202",
"+ c #090202",
"@ c #0B0202",
"# c #0D0202",
"$ c #0E0202",
"% c #0F0202",
"& c #180202",
"* c #1A0202",
"= c #1C0202",
"- c #1E0202",
"; c #230202",
": c #2C0202",
"> c #2F0202",
", c #3B0202",
"< c #430101",
"1 c #410202",
"2 c #450101",
"3 c #520101",
"4 c #560101",
"5 c #570101",
"6 c #5A0101",
"7 c #600101",
"8 c #610101",
"9 c #670101",
"0 c #680101",
"q c #690101",
"w c #720101",
"e c #730101",
"r c #750101",
"t c #760101",
"y c #7C0101",
"u c #7D0101",
"i c #850101",
"p c #870101",
"a c #880101",
"s c #980101",
"d c #990101",
"f c #9B0101",
"g c #A10101",
"h c #A20101",
"j c #A30101",
"k c #A90101",
"l c #AA0101",
"z c #AB0101",
"x c #B20101",
"c c #B50101",
"v c #BE0101",
"b c #BF0101",
"n c #CF0000",
"m c #D00000",
"M c #D70000",
"N c #DB0000",
"B c #DE0000",
"V c #DF0000",
"C c #E20000",
"Z c #E40000",
"A c #EC0000",
"S c #EE0000",
"D c #F00000",
"F c #F30000",
"G c #F40000",
"H c #F50000",
"J c #F90000",
"K c #FA0000",
"L c #FB0000",
"P c #FC0000",
"I c #FD0000",
"U c #FE0000",
"Y c red",
/* pixels */
"      iYYp      ",
"     .BYYZo     ",
"     <YSSY2     ",
"     hYffYj     ",
"    #FY11YG%    ",
"    7YCX.VY8    ",
"    vYa  aYb    ",
"   -PY>  :YU;   ",
"   yYm    nYu   ",
"   MYt    rYN.  ",
"  ,YI-    =PY,  ",
"  sYFzzzzzzFYd  ",
" OAYYYYYYYYYYD@ ",
" 4YJq9999990HY5 ",
" cYx        lYc ",
"&KY6        3YL*",
"eYH$        +DYw",
"mYk          gYm"
};
