/* XPM */
static char *_6[] = {
/* columns rows colors chars-per-pixel */
"13 18 54 1 ",
"  c #020202",
". c #070202",
"X c #0B0202",
"o c #110202",
"O c #1B0202",
"+ c #1D0202",
"@ c #1F0202",
"# c #210202",
"$ c #220202",
"% c #290202",
"& c #2A0202",
"* c #320202",
"= c #350202",
"- c #370202",
"; c #4F0101",
": c #500101",
"> c #550101",
", c #5E0101",
"< c #670101",
"1 c #690101",
"2 c #6C0101",
"3 c #7A0101",
"4 c #7C0101",
"5 c #7F0101",
"6 c #860101",
"7 c #880101",
"8 c #920101",
"9 c #970101",
"0 c #9A0101",
"q c #9F0101",
"w c #AB0101",
"e c #B10101",
"r c #BB0101",
"t c #BF0000",
"y c #BF0101",
"u c #C10000",
"i c #C20000",
"p c #C30000",
"a c #C60000",
"s c #C80000",
"d c #CA0000",
"f c #CB0000",
"g c #D30000",
"h c #D90000",
"j c #DF0000",
"k c #E30000",
"l c #EB0000",
"z c #ED0000",
"x c #F10000",
"c c #F50000",
"v c #F90000",
"b c #FD0000",
"n c #FE0000",
"m c red",
/* pixels */
"mmmmmmnla3o  ",
"mmmmmmmmmmk& ",
"mm4   X%7bms ",
"mm4      8mm#",
"mm4      :mm-",
"mm4      1mmO",
"mm4     @jmt ",
"mmd000qrvmf# ",
"mmmmmmmmmy=  ",
"mme<<<26pmn5 ",
"mm4      ,mm;",
"mm4       gmi",
"mm4       wmz",
"mm4       umx",
"mm4      +cmp",
"mm4   .$>hmm>",
"mmmmmmmmmmb5 ",
"mmmmmmmxg9*  "
};
