/* XPM */
static char *_8[] = {
/* columns rows colors chars-per-pixel */
"15 18 51 1 ",
"  c #020202",
". c #040202",
"X c #050202",
"o c #0A0202",
"O c #0C0202",
"+ c #0D0202",
"@ c #130202",
"# c #140202",
"$ c #150202",
"% c #270202",
"& c #280202",
"* c #2B0202",
"= c #2D0202",
"- c #360202",
"; c #6A0101",
": c #6B0101",
"> c #6C0101",
", c #710101",
"< c #850101",
"1 c #860101",
"2 c #880101",
"3 c #8A0101",
"4 c #8F0101",
"5 c #950101",
"6 c #960101",
"7 c #A10101",
"8 c #A30101",
"9 c #A40101",
"0 c #A60101",
"q c #A70101",
"w c #A80101",
"e c #A90101",
"r c #C20000",
"t c #C40000",
"y c #C80000",
"u c #CA0000",
"i c #D20000",
"p c #D30000",
"a c #D50000",
"s c #D60000",
"d c #D70000",
"f c #E40000",
"g c #E50000",
"h c #E80000",
"j c #EA0000",
"k c #F50000",
"l c #F70000",
"z c #F80000",
"x c #FD0000",
"c c #FE0000",
"v c red",
/* pixels */
"vvvvvzjp0>$    ",
"vvvvvvvvvvz4o  ",
"vv:  .#-,svvu+ ",
"vv:      X2vv9 ",
"vv:        wvx=",
"vv:        %xv1",
"vv:         avt",
"vv:         qvg",
"vv:         5vl",
"vv:         6vk",
"vv:         wvf",
"vv:         dvr",
"vv:        &cv<",
"vv:        evx*",
"vv:      X2vv7 ",
"vv:  .#-,svvyO ",
"vvvvvvvvvvl3o  ",
"vvvvvlhi8;@    "
};
