/* XPM */
static char *_9[] = {
/* columns rows colors chars-per-pixel */
"11 18 14 1 ",
"  c #020202",
". c #0C0202",
"X c #0F0202",
"o c #320202",
"O c #460101",
"+ c #500101",
"@ c #580101",
"# c #6F0101",
"$ c #710101",
"% c #9C0101",
"& c #A00101",
"* c #BD0101",
"= c #CB0000",
"- c red",
/* pixels */
"----------=",
"----------=",
"--@XXXXXXX.",
"--+        ",
"--+        ",
"--+        ",
"--+        ",
"--*&&&&&&&O",
"----------$",
"--%#######o",
"--+        ",
"--+        ",
"--+        ",
"--+        ",
"--+        ",
"--@XXXXXXXX",
"-----------",
"-----------"
};
