/* XPM */
static char *_4[] = {
/* columns rows colors chars-per-pixel */
"6 23 19 1 ",
"  c #020202",
". c #050202",
"X c #0B0202",
"o c #130202",
"O c #320202",
"+ c #5D0101",
"@ c #620101",
"# c #720101",
"$ c #7A0101",
"% c #880101",
"& c #8F0101",
"* c #B30101",
"= c #BE0101",
"- c #D00000",
"; c #D10000",
": c #E10000",
"> c #F40000",
", c #F60000",
"< c red",
/* pixels */
"   @<<",
"   @<<",
"   @<<",
"   @<<",
"   @<<",
"   @<<",
"   @<<",
"   @<<",
"   @<<",
"   @<<",
"   @<<",
"   @<<",
"   @<<",
"   @<<",
"   @<<",
"   @<<",
"   @<<",
"   #<,",
"   %<:",
"   ;<*",
"oO&<<+",
"<<<<=.",
"<>-$X "
};
