/* XPM */
static char *_9[] = {
/* columns rows colors chars-per-pixel */
"16 18 53 1 ",
"  c #020202",
". c #0A0202",
"X c #0B0202",
"o c #0E0202",
"O c #0F0202",
"+ c #160202",
"@ c #170202",
"# c #1E0202",
"$ c #1F0202",
"% c #200202",
"& c #210202",
"* c #220202",
"= c #230202",
"- c #410101",
"; c #420101",
": c #4B0101",
"> c #4C0101",
", c #7D0101",
"< c #7E0101",
"1 c #7F0101",
"2 c #800101",
"3 c #870101",
"4 c #880101",
"5 c #890101",
"6 c #8B0101",
"7 c #910101",
"8 c #920101",
"9 c #940101",
"0 c #950101",
"q c #9D0101",
"w c #9E0101",
"e c #9F0101",
"r c #AF0101",
"t c #BB0101",
"y c #BD0101",
"u c #BF0000",
"i c #BF0101",
"p c #C00000",
"a c #C90000",
"s c #CA0000",
"d c #DA0000",
"f c #DB0000",
"g c #DC0000",
"h c #E30000",
"j c #E50000",
"k c #F40000",
"l c #F50000",
"z c #F70000",
"x c #F80000",
"c c #F90000",
"v c #FA0000",
"b c #FB0000",
"n c red",
/* pixels */
"    -wfklge;    ",
"  ornnnlknnnro  ",
" Xanv4*  &3vna. ",
" 9nv:      :vn8 ",
"%bn4        4nv$",
"1nx+        @cn<",
"yni          unt",
"jn7          8nh",
"zn1          1nz",
"zn<          2nl",
"jn7          8nh",
"ynu          pnt",
"1nc+        @cn,",
"%bn4        5nv#",
" 0nv>      >vn8 ",
" Xsnv6=  *5vnsX ",
"  OrnnnllnnnrO  ",
"    -qdkkfw;    "
};
