/* XPM */
static char *_0[] = {
/* columns rows colors chars-per-pixel */
"11 18 35 1 ",
"  c #020202",
". c #030202",
"X c #0D0202",
"o c #0E0202",
"O c #1C0202",
"+ c #210202",
"@ c #3C0202",
"# c #450101",
"$ c #4B0101",
"% c #4F0101",
"& c #5A0101",
"* c #620101",
"= c #760101",
"- c #790101",
"; c #7E0101",
": c #910101",
"> c #990101",
", c #9D0101",
"< c #AA0101",
"1 c #AD0101",
"2 c #B30101",
"3 c #BC0101",
"4 c #BE0101",
"5 c #C30000",
"6 c #D00000",
"7 c #E10000",
"8 c #E60000",
"9 c #EB0000",
"0 c #EE0000",
"q c #F40000",
"w c #F60000",
"e c #FA0000",
"r c #FB0000",
"t c #FC0000",
"y c red",
/* pixels */
"yyyyyr82%  ",
"yyyyyyyyy>.",
"yy%  o@5yy&",
"yy%    X7y4",
"yy%     :y0",
"yy%     -ye",
"yy%     ,y8",
"yy%    +qy1",
"yy;##$-9yt@",
"yyyyyyyyw* ",
"yy6333<=O  ",
"yy%        ",
"yy%        ",
"yy%        ",
"yy%        ",
"yy%        ",
"yy%        ",
"yy%        "
};
