/* XPM */
static char *_2[] = {
/* columns rows colors chars-per-pixel */
"14 18 54 1 ",
"  c #020202",
". c #050202",
"X c #060202",
"o c #090202",
"O c #0E0202",
"+ c #130202",
"@ c #150202",
"# c #180202",
"$ c #1E0202",
"% c #230202",
"& c #240202",
"* c #2A0202",
"= c #370202",
"- c #3B0202",
"; c #3C0202",
": c #410202",
"> c #4B0101",
", c #540101",
"< c #5C0101",
"1 c #5D0101",
"2 c #620101",
"3 c #670101",
"4 c #680101",
"5 c #6D0101",
"6 c #6F0101",
"7 c #710101",
"8 c #760101",
"9 c #8D0101",
"0 c #8E0101",
"q c #900101",
"w c #9A0101",
"e c #9E0101",
"r c #A00101",
"t c #A90101",
"y c #BF0000",
"u c #BE0101",
"i c #BF0101",
"p c #C50000",
"a c #C60000",
"s c #CD0000",
"d c #CF0000",
"f c #D70000",
"g c #D80000",
"h c #E20000",
"j c #EE0000",
"k c #F00000",
"l c #F10000",
"z c #F40000",
"x c #F50000",
"c c #F60000",
"v c #F90000",
"b c #FD0000",
"n c #FE0000",
"m c red",
/* pixels */
"mmmmmmkd0&    ",
"mmmmmmmmmx>   ",
"mm6  X%8zmj+  ",
"mm6     4mm2  ",
"mm6     @mm9  ",
"mm6     obmq  ",
"mm6     -mm5  ",
"mm6    $smx#  ",
"mmpwwricmv,   ",
"mmmmmmmmh*    ",
"mmt337rcmaO   ",
"mm6    =lme   ",
"mm6     5mn;  ",
"mm6     Xfmu  ",
"mm6      <mm: ",
"mm6      .fmu ",
"mm6       1mm:",
"mm6       .gmy"
};
