/* XPM */
static char *_5[] = {
/* columns rows colors chars-per-pixel */
"14 18 32 1 ",
"  c #020202",
". c #030202",
"X c #050202",
"o c #060202",
"O c #1A0202",
"+ c #1B0202",
"@ c #1F0202",
"# c #580101",
"$ c #590101",
"% c #5B0101",
"& c #5C0101",
"* c #7B0101",
"= c #7C0101",
"- c #7E0101",
"; c #860101",
": c #880101",
"> c #A20101",
", c #A30101",
"< c #AF0101",
"1 c #B00101",
"2 c #B10101",
"3 c #C50000",
"4 c #C80000",
"5 c #DD0000",
"6 c #DE0000",
"7 c #E20000",
"8 c #E40000",
"9 c #F50000",
"0 c #F60000",
"q c #F70000",
"w c #F80000",
"e c red",
/* pixels */
"ee-        -ee",
"ee-        -ee",
"ee-        -ee",
"ee-        -ee",
"ee-        -ee",
"ee-        -ee",
"ee-        -ee",
"ee-        -ee",
"ee-        -ee",
"ee-        -ee",
"ee-        -ee",
"qe;        :e9",
"8e>        ,e7",
"2e5.      .6e<",
"%ee%      &ee$",
"o4ew*@  @=we3X",
" +4eeewweee3O ",
"  o$170071#X  "
};
