/* XPM */
static char *_6[] = {
/* columns rows colors chars-per-pixel */
"16 18 72 1 ",
"  c #020202",
". c #030202",
"X c #050202",
"o c #060202",
"O c #070202",
"+ c #080202",
"@ c #0B0202",
"# c #0D0202",
"$ c #0F0202",
"% c #110202",
"& c #120202",
"* c #180202",
"= c #1A0202",
"- c #1D0202",
"; c #1E0202",
": c #220202",
"> c #230202",
", c #350202",
"< c #360202",
"1 c #3B0202",
"2 c #430101",
"3 c #450101",
"4 c #4D0101",
"5 c #560101",
"6 c #600101",
"7 c #610101",
"8 c #620101",
"9 c #650101",
"0 c #660101",
"q c #720101",
"w c #730101",
"e c #790101",
"r c #7A0101",
"t c #7C0101",
"y c #7D0101",
"u c #850101",
"i c #870101",
"p c #910101",
"a c #920101",
"s c #980101",
"d c #990101",
"f c #A20101",
"g c #A30101",
"h c #A40101",
"j c #A70101",
"k c #AA0101",
"l c #B50101",
"z c #BD0101",
"x c #BE0101",
"c c #BF0101",
"v c #C10000",
"b c #C20000",
"n c #D00000",
"m c #D30000",
"M c #D60000",
"N c #D70000",
"B c #DB0000",
"V c #DE0000",
"C c #E40000",
"Z c #E80000",
"A c #EA0000",
"S c #EC0000",
"D c #F00000",
"F c #F30000",
"G c #F40000",
"H c #F60000",
"J c #F70000",
"K c #FA0000",
"L c #FB0000",
"P c #FC0000",
"I c #FE0000",
"U c red",
/* pixels */
"nUj          hUn",
"wUH%        #FUq",
"*KU8        6UL=",
" lUc        zUl ",
" 5UI:      -PU5 ",
" +SUr      eUD@ ",
"  sUM      mUd  ",
"  1UU<    ,UU1  ",
"   NUa    pUB.  ",
"   tUAO  oZUy   ",
"   ;PU4  4UI>   ",
"    xUk  kUc    ",
"    6UJ&%HU7    ",
"    #FU90UG$    ",
"     fUvbUg     ",
"     2UIIU3     ",
"     .VUUCX     ",
"      uUUi      "
};
