/* XPM */
static char *_7[] = {
/* columns rows colors chars-per-pixel */
"22 18 114 2 ",
"   c #020202",
".  c #030202",
"X  c #040202",
"o  c #060202",
"O  c #070202",
"+  c #080202",
"@  c #0A0202",
"#  c #0C0202",
"$  c #0F0202",
"%  c #160202",
"&  c #170202",
"*  c #180202",
"=  c #200202",
"-  c #220202",
";  c #250202",
":  c #260202",
">  c #270202",
",  c #280202",
"<  c #290202",
"1  c #2A0202",
"2  c #2D0202",
"3  c #2F0202",
"4  c #300202",
"5  c #310202",
"6  c #320202",
"7  c #380202",
"8  c #390202",
"9  c #3A0202",
"0  c #3C0202",
"q  c #410101",
"w  c #430101",
"e  c #400202",
"r  c #460101",
"t  c #510101",
"y  c #520101",
"u  c #530101",
"i  c #5C0101",
"p  c #5E0101",
"a  c #600101",
"s  c #610101",
"d  c #620101",
"f  c #630101",
"g  c #650101",
"h  c #660101",
"j  c #690101",
"k  c #6B0101",
"l  c #6D0101",
"z  c #6E0101",
"x  c #6F0101",
"c  c #700101",
"v  c #710101",
"b  c #740101",
"n  c #750101",
"m  c #770101",
"M  c #780101",
"N  c #7D0101",
"B  c #7F0101",
"V  c #820101",
"C  c #8D0101",
"Z  c #8E0101",
"A  c #8F0101",
"S  c #900101",
"D  c #990101",
"F  c #9B0101",
"G  c #9D0101",
"H  c #9E0101",
"J  c #A00101",
"K  c #A20101",
"L  c #A30101",
"P  c #A40101",
"I  c #A60101",
"U  c #A80101",
"Y  c #AA0101",
"T  c #AC0101",
"R  c #AD0101",
"E  c #B10101",
"W  c #B20101",
"Q  c #B40101",
"!  c #B50101",
"~  c #BA0101",
"^  c #BC0101",
"/  c #BF0000",
"(  c #BF0101",
")  c #C10000",
"_  c #C30000",
"`  c #C90000",
"'  c #CB0000",
"]  c #CC0000",
"[  c #D50000",
"{  c #D70000",
"}  c #D80000",
"|  c #DB0000",
" . c #DC0000",
".. c #DF0000",
"X. c #E00000",
"o. c #E10000",
"O. c #E50000",
"+. c #E60000",
"@. c #E70000",
"#. c #E90000",
"$. c #EB0000",
"%. c #ED0000",
"&. c #EE0000",
"*. c #F10000",
"=. c #F30000",
"-. c #F40000",
";. c #F50000",
":. c #F70000",
">. c #F80000",
",. c #F90000",
"<. c #FB0000",
"1. c #FC0000",
"2. c #FE0000",
"3. c red",
/* pixels */
"o.3.B             b 3.3.c             V 3.X.",
"P 3.^             E 3.3.R             / 3.K ",
"h 3.-.O         . $.;.*.#..         + ;.3.g ",
"1 3.3.8         2 3.( ~ 3.<         0 3.3., ",
"  +.3.n         j 3.V B 3.h         M 3.@.  ",
"  T 3.W         I 3.r w 3.L         ! 3.Y   ",
"  x 3.&.X       o.<.$ # ,...      X %.3.l   ",
"  6 3.3.3     - 3.'     ` 3.=     5 3.3.4   ",
"  X %.3.k     p 3.A     C 3.i     l 3.&.X   ",
"    Q 3.U     F 3.u     y 3.D     Y 3.W     ",
"    m 3.+.    { 2.*     % 2.[     O.3.n     ",
"    9 3.3.; & 2.}         } 2.* : 3.3.7     ",
"    o =.3.s u 3.G         G 3.t f 3.=.O     ",
"      ^ 3.H S 3.a         d 3.Z J 3.~       ",
"      B 3.| ] 3.;         > 3.'  .3.N       ",
"      q 3.3.1.+.            @.1.3.3.e       ",
"      @ :.3.3.Y             R 3.3.>.@       ",
"        _ 3.3.z             v 3.3.)         "
};
