/* XPM */
static char *_0[] = {
/* columns rows colors chars-per-pixel */
"14 18 49 1 ",
"  c #020202",
". c #030202",
"X c #040202",
"o c #070202",
"O c #0C0202",
"+ c #0E0202",
"@ c #130202",
"# c #140202",
"$ c #150202",
"% c #1D0202",
"& c #1F0202",
"* c #290202",
"= c #2A0202",
"- c #350202",
"; c #390202",
": c #410101",
"> c #450101",
", c #530101",
"< c #540101",
"1 c #590101",
"2 c #640101",
"3 c #6F0101",
"4 c #780101",
"5 c #820101",
"6 c #8C0101",
"7 c #900101",
"8 c #960101",
"9 c #A40101",
"0 c #A50101",
"q c #B40101",
"w c #B90101",
"e c #BA0101",
"r c #BC0101",
"t c #C50000",
"y c #C60000",
"u c #D20000",
"i c #D50000",
"p c #DF0000",
"a c #E00000",
"s c #E80000",
"d c #EB0000",
"f c #F20000",
"g c #F70000",
"h c #F90000",
"j c #FB0000",
"k c #FC0000",
"l c #FD0000",
"z c #FE0000",
"x c red",
/* pixels */
"rxxxxxxxxxxxxr",
"rxxxxxxxxxxxxe",
"+@@@@@@@@@7xj:",
"         >kx4 ",
"        &dxq. ",
"       otxa$  ",
"       8xg-   ",
"      1xx2    ",
"     *fx0     ",
"    +ixuO     ",
"    9xf=      ",
"   3xz<       ",
"  ;hx6        ",
" #pxyo        ",
"Xwxs%         ",
"5xz,@@@@@@@@@@",
"lxxxxxxxxxxxxx",
"xxxxxxxxxxxxxx"
};
