/* XPM */
static char *_4[] = {
/* columns rows colors chars-per-pixel */
"15 7 44 1 ",
"  c #020202",
". c #030202",
"X c #040202",
"o c #070202",
"O c #080202",
"+ c #0C0202",
"@ c #0E0202",
"# c #120202",
"$ c #150202",
"% c #160202",
"& c #180202",
"* c #1A0202",
"= c #1B0202",
"- c #1D0202",
"; c #1E0202",
": c #200202",
"> c #220202",
", c #240202",
"< c #2D0202",
"1 c #310202",
"2 c #480101",
"3 c #8D0101",
"4 c #940101",
"5 c #9F0101",
"6 c #A60101",
"7 c #B70101",
"8 c #BC0101",
"9 c #C50000",
"0 c #C80000",
"q c #CA0000",
"w c #CD0000",
"e c #D00000",
"r c #D30000",
"t c #D50000",
"y c #D60000",
"u c #D80000",
"i c #DA0000",
"p c #DF0000",
"a c #E00000",
"s c #E10000",
"d c #E50000",
"f c #ED0000",
"g c #F00000",
"h c red",
/* pixels */
"     <fhg1     ",
"    ;shhhd>    ",
"   $yha2ahy$   ",
"  +9hp, :ihq@  ",
" o7hu-   *rh8O ",
".5ht=     &eh6X",
"3hw%       #0h4"
};
