/* XPM */
static char *_8[] = {
/* columns rows colors chars-per-pixel */
"12 19 66 1 ",
"  c #020202",
". c #040202",
"X c #060202",
"o c #0A0202",
"O c #130202",
"+ c #150202",
"@ c #170202",
"# c #1C0202",
"$ c #1E0202",
"% c #220202",
"& c #240202",
"* c #260202",
"= c #270202",
"- c #2C0202",
"; c #300202",
": c #320202",
"> c #330202",
", c #390202",
"< c #3A0202",
"1 c #450101",
"2 c #470101",
"3 c #570101",
"4 c #580101",
"5 c #5C0101",
"6 c #610101",
"7 c #620101",
"8 c #650101",
"9 c #730101",
"0 c #760101",
"q c #790101",
"w c #910101",
"e c #930101",
"r c #990101",
"t c #A00101",
"y c #A60101",
"u c #AB0101",
"i c #AD0101",
"p c #AE0101",
"a c #B30101",
"s c #B60101",
"d c #C30000",
"f c #CB0000",
"g c #CD0000",
"h c #CE0000",
"j c #D10000",
"k c #D20000",
"l c #D90000",
"z c #DD0000",
"x c #DF0000",
"c c #E00000",
"v c #E20000",
"b c #E30000",
"n c #E40000",
"m c #E50000",
"M c #E80000",
"N c #ED0000",
"B c #EF0000",
"V c #F30000",
"C c #F50000",
"Z c #F60000",
"A c #F70000",
"S c #F80000",
"D c #FA0000",
"F c #FB0000",
"G c #FC0000",
"H c red",
/* pixels */
"HH,         ",
"HH,         ",
"HH,         ",
"HH,         ",
"HH,  .O.    ",
"HH,:sFHSp*  ",
"HH9ADfhGHB> ",
"HHSd#  &jHlo",
"HHN+    %ZH6",
"HHw      yHa",
"HH7      0Hv",
"HH1      4HA",
"HH2      5HC",
"HH8      qHx",
"HHr      pHi",
"HHV$    -DH3",
"HHVk;  <zHgX",
"HH8BHmMHHn* ",
"uu=&tbSce@  "
};
