/* XPM */
static char *_9[] = {
/* columns rows colors chars-per-pixel */
"10 14 44 1 ",
"  c #020202",
". c #040202",
"X c #050202",
"o c #070202",
"O c #080202",
"+ c #180202",
"@ c #2A0202",
"# c #2B0202",
"$ c #390202",
"% c #3D0202",
"& c #410202",
"* c #4D0101",
"= c #500101",
"- c #530101",
"; c #540101",
": c #550101",
"> c #590101",
", c #6A0101",
"< c #6C0101",
"1 c #9A0101",
"2 c #AA0101",
"3 c #AB0101",
"4 c #AC0101",
"5 c #AD0101",
"6 c #B00101",
"7 c #BF0101",
"8 c #C10000",
"9 c #C40000",
"0 c #CB0000",
"q c #DB0000",
"w c #DE0000",
"e c #E10000",
"r c #E30000",
"t c #E40000",
"y c #ED0000",
"u c #EE0000",
"i c #F30000",
"p c #F50000",
"a c #F60000",
"s c #F70000",
"d c #F90000",
"f c #FB0000",
"g c #FC0000",
"h c red",
/* pixels */
"  O,8ydw6>",
" +0hhieghh",
"X8ht*X O&3",
"-ha#      ",
"5h1       ",
"eh;       ",
"sh$       ",
"sh$       ",
"eh:       ",
"4h1       ",
"=ha@      ",
".7hr*X o%2",
" +0hhpefhh",
"  O<9usq5-"
};
