/* XPM */
static char *rotate_1[] = {
/* columns rows colors chars-per-pixel */
"135 43 155 2 ",
"   c #1B2D3B",
".  c #1C2E3C",
"X  c #1D2F3D",
"o  c #1E2F3D",
"O  c #1F303E",
"+  c #1F313F",
"@  c #203240",
"#  c #223441",
"$  c #243543",
"%  c #263744",
"&  c #273845",
"*  c #283946",
"=  c #283947",
"-  c #293A47",
";  c #2A3B48",
":  c #2E3E4B",
">  c #30404D",
",  c #30414D",
"<  c #31424E",
"1  c #32424F",
"2  c #354551",
"3  c #364652",
"4  c #394854",
"5  c #3B4B57",
"6  c #3C4B57",
"7  c #3D4C58",
"8  c #3F4E5A",
"9  c #404F5B",
"0  c #41505B",
"q  c #42515D",
"w  c #44535E",
"e  c #45535E",
"r  c #45545F",
"t  c #465560",
"y  c #475561",
"u  c #485661",
"i  c #495762",
"p  c #4A5964",
"a  c #4B5965",
"s  c #4D5A65",
"d  c #4D5B66",
"f  c #4E5C67",
"g  c #505E68",
"h  c #515E69",
"j  c #52606B",
"k  c #54626C",
"l  c #55636D",
"z  c #56636E",
"x  c #57646E",
"c  c #58656F",
"v  c #5A6771",
"b  c #5D6A74",
"n  c #5F6C75",
"m  c #606C76",
"M  c #616D77",
"N  c #626E78",
"B  c #636F78",
"V  c #637079",
"C  c #64717A",
"Z  c #65717B",
"A  c #66727C",
"S  c #67737C",
"D  c #69757E",
"F  c #6A757F",
"G  c #6B767F",
"H  c #6C7881",
"J  c #6E7A82",
"K  c #707B84",
"L  c #717C85",
"P  c #727D86",
"I  c #737E86",
"U  c #747F87",
"Y  c #747F88",
"T  c #77828A",
"R  c #78838B",
"E  c #7A848C",
"W  c #7C878F",
"Q  c #7D8890",
"!  c #7E8890",
"~  c #808A92",
"^  c #828C93",
"/  c #848D95",
"(  c #858E96",
")  c #858F96",
"_  c #869097",
"`  c #89929A",
"'  c #8A939A",
"]  c #8C959C",
"[  c #8D969D",
"{  c #8F989F",
"}  c #9099A0",
"|  c #919AA0",
" . c #929BA1",
".. c #939BA2",
"X. c #949CA3",
"o. c #98A0A7",
"O. c #99A1A7",
"+. c #9BA3A9",
"@. c #9DA4AA",
"#. c #9EA5AB",
"$. c #9FA7AD",
"%. c #A1A9AE",
"&. c #A2A9AF",
"*. c #A3AAB0",
"=. c #A4ABB1",
"-. c #A5ACB1",
";. c #A6ADB2",
":. c #A6ADB3",
">. c #A7AEB4",
",. c #A8AFB4",
"<. c #ABB2B7",
"1. c #ADB3B8",
"2. c #AFB5BA",
"3. c #B0B7BB",
"4. c #B2B8BD",
"5. c #B5BBBF",
"6. c #B7BCC1",
"7. c #B7BDC2",
"8. c #B8BEC2",
"9. c #B9BFC3",
"0. c #BAC0C4",
"q. c #BBC0C5",
"w. c #C0C5C8",
"e. c #C0C5C9",
"r. c #C1C6CA",
"t. c #C2C7CB",
"y. c #C3C8CC",
"u. c #C4C9CC",
"i. c #C5C9CD",
"p. c #C6CACE",
"a. c #C7CBCF",
"s. c #C8CCCF",
"d. c #C8CDD0",
"f. c #C9CED1",
"g. c #CBCFD2",
"h. c #CCD0D3",
"j. c #CDD1D4",
"k. c #CED2D5",
"l. c #CFD3D5",
"z. c #D1D5D8",
"x. c #D2D6D9",
"c. c #D3D7D9",
"v. c #D4D7DA",
"b. c #D5D8DB",
"n. c #D6D9DC",
"m. c #D7DADC",
"M. c #D9DCDE",
"N. c #D9DCDF",
"B. c #DBDEE0",
"V. c #DCDFE1",
"C. c #DEE1E3",
"Z. c #DFE1E3",
"A. c #E0E2E4",
"S. c #E1E3E5",
"D. c #E1E4E6",
/* pixels */
"4 s t e e e e e e e e e e e e e e e e e e e e e e e e e e e e e e e e e e e e e e e e e e e e e e e e e e e e e e e e e e e e e e e e e e e e e e e e e e e e e e e e e e e e e e e e e e e e e e e e e e e e e e e e e e e e e e e e e e e e e e e e e e e e e e e e e t s 4 ",
"s                                                                                                                                                                                                                                                                           s ",
"i                                                                                                                                                                                                                                                                           i ",
"i                                                                                                                                                                                                                                                                           i ",
"i                                                                                                                                                                                                                                                                           i ",
"i                                                                                                                                                                                                                                                                           i ",
"i                                                                                                                                                                                                                                                                           i ",
"i                                                                                                                                                                                                                                                                           i ",
"i                                                                                                                                                                                                                                                                           i ",
"i                                                                                                                                                                                                                                                                           i ",
"i                                                                                                                                                                                                                                                                           i ",
"i                                                                                                                                                                                                                                                                           i ",
"i                                                                                                                                                                                                                                                                           i ",
"i                                                                                                                                                                                                                                                                           i ",
"i                                                       ^ a.a.a.a.a.a.6.-./ 4                                         2 b b b ,                                         g b b c                                                                                             i ",
"i                                                       | D.D.D.D.D.D.D.D.D.C.A                                       D D.D.D.b                                         0.D.D.z.                                                                                            i ",
"i                                                       | D.D.D.D.D.D.D.D.D.D.B.:                                     D D.D.D.b                                         0.D.D.z.                                                                                            i ",
"i                                                       | D.D.D.H   $ l M.D.D.D.M               3 d g 0 O             D D.D.D.b               % 7 p g a ,               0.D.D.z.                  $ t g i &                                                                 i ",
"i                                                       | D.D.D.H       O.D.D.D.H         X K f.D.D.D.D.M.} ;     a D.D.D.D.D.D.D.D.D.7   l a.S.D.D.D.D.D.y.V       @.D.D.D.D.D.D.D.D.3.      7 ;.Z.D.D.D.Z.*.3                                                             i ",
"i                                                       | D.D.D.H       +.D.D.D.k       X %.D.D.D.D.D.D.D.D.d.,   a D.D.D.D.D.D.D.D.D.7   F D.D.D.D.D.D.D.D.D.J     @.D.D.D.D.D.D.D.D.3.    h N.D.D.D.D.D.D.D.c.8                                                           i ",
"i                                                       | D.D.D.H   = v N.D.D.d.+       I D.D.D.x.W L 7.D.D.D.2.  5 $.9.D.D.D.5.$.$.$.<   F 8.Y x r i I m.D.D.c.@   I $.v.D.D.V.$.$.$.!   ; v.D.D.n.K t F v.D.D.t.o                                                         i ",
"i                                                       | D.D.D.D.D.D.D.D.D.i.5         g.D.D.S.9     @ u.D.D.D.9     D D.D.D.b           O             E D.D.D.u       0.D.D.z.          T D.D.D.V       G D.D.D.c                                                         i ",
"i                                                       | D.D.D.D.D.D.D.D.f.7         2 D.D.D.6.        W D.D.D.K     D D.D.D.b             5 ~ $.4.t.a.z.D.D.D.b       0.D.D.z.          ,.D.D.D.~ R R R [ D.D.D.`                                                         i ",
"i                                                       | D.D.D.t.2.h.D.D.D.M.q       u D.D.D.$.        V D.D.D./     D D.D.D.b           L Z.D.D.D.D.D.D.D.D.D.C       0.D.D.z.          0.D.D.D.D.D.D.D.D.D.D.D.@.                                                        i ",
"i                                                       | D.D.D.H   o { D.D.D.e.o     q D.D.D.:.        H D.D.D.Q     D D.D.D.b         1 Z.D.D.M.` G G O.D.D.D.C       0.D.D.z.          5.D.D.S.0.0.0.0.0.0.0.0.)                                                         i ",
"i                                                       | D.D.D.H     @ p.D.D.D.F     * Z.D.D.g.o       X.D.D.D.m     A D.D.D.n         N D.D.D.Y       ^ D.D.D.C       8.D.D.c.          o.D.D.D.4                                                                         i ",
"i                                                       | D.D.D.H       C D.D.D.s.O     1.D.D.D.Q     i N.D.D.M.;     j D.D.D.O., = %   A D.D.D.!     1 z.D.D.D.C       =.D.D.S.k ; = @   c D.D.D.-.#       X a &.,                                                         i ",
"i                                                       | D.D.D.H       o p.D.D.D.S     w V.D.D.D.j.r.Z.D.D.D.E       1 S.D.D.D.D.D.y.  5 S.D.D.Z.*.@.b.A.D.D.D.C       / D.D.D.D.D.D.P   . 1.D.D.D.k.#...>.l.D.D.1                                                         i ",
"i                                                       | D.D.D.H         A D.D.D.a.o     z b.D.D.D.D.D.D.S._ .         [ D.D.D.D.D.y.    [ D.D.D.D.D.l.( D.D.D.C       > g.D.D.D.D.D.P     * ,.D.D.D.D.D.D.D.D.Z.,                                                         i ",
"i                                                       N  . . .a         O [  . . .6       ; R <.r.a.5.' 8               a U ]  . .~     . Z >.y.q.' : i  . . .y         % B ! |  . .f         f | 6.a.w.<.X.m -                                                           i ",
"i                                                                                                                                                                                                                                                                           i ",
"i                                                                                                                                                                                                                                                                           i ",
"i                                                                                                                                                                                                                                                                           i ",
"i                                                                                                                                                                                                                                                                           i ",
"i                                                                                                                                                                                                                                                                           i ",
"i                                                                                                                                                                                                                                                                           i ",
"i                                                                                                                                                                                                                                                                           i ",
"i                                                                                                                                                                                                                                                                           i ",
"i                                                                                                                                                                                                                                                                           i ",
"i                                                                                                                                                                                                                                                                           i ",
"i                                                                                                                                                                                                                                                                           i ",
"s                                                                                                                                                                                                                                                                           s ",
"4 s t e e e e e e e e e e e e e e e e e e e e e e e e e e e e e e e e e e e e e e e e e e e e e e e e e e e e e e e e e e e e e e e e e e e e e e e e e e e e e e e e e e e e e e e e e e e e e e e e e e e e e e e e e e e e e e e e e e e e e e e e e e e e e e e e e t s 4 "
};
