/* XPM */
static char *trans_1[] = {
/* columns rows colors chars-per-pixel */
"135 43 172 2 ",
"   c #1B2D3B",
".  c #1C2E3C",
"X  c #1D2F3D",
"o  c #1E2F3D",
"O  c #1F303E",
"+  c #1F313F",
"@  c #203240",
"#  c #213340",
"$  c #223441",
"%  c #243543",
"&  c #253643",
"*  c #263744",
"=  c #283947",
"-  c #293A47",
";  c #2A3B48",
":  c #2B3C49",
">  c #2C3D4A",
",  c #2D3D4A",
"<  c #2F3F4C",
"1  c #30404D",
"2  c #30414D",
"3  c #31424E",
"4  c #334350",
"5  c #344451",
"6  c #354551",
"7  c #364652",
"8  c #384754",
"9  c #394854",
"0  c #394955",
"q  c #3B4B57",
"w  c #3C4B57",
"e  c #3D4C58",
"r  c #3E4D59",
"t  c #3F4E5A",
"y  c #404F5B",
"u  c #42515D",
"i  c #44535E",
"p  c #45545F",
"a  c #475561",
"s  c #485661",
"d  c #495762",
"f  c #495863",
"g  c #4A5964",
"h  c #4C5A65",
"j  c #4D5B66",
"k  c #4E5C67",
"l  c #505E68",
"z  c #515E69",
"x  c #525F6A",
"c  c #52606B",
"v  c #54626C",
"b  c #56636E",
"n  c #57646E",
"m  c #596670",
"M  c #5A6772",
"N  c #5B6872",
"B  c #5C6973",
"V  c #5F6C75",
"C  c #606C76",
"Z  c #616D77",
"A  c #637079",
"S  c #65717B",
"D  c #66727C",
"F  c #67737C",
"G  c #69757E",
"H  c #6A757F",
"J  c #6B767F",
"K  c #6C7881",
"L  c #6E7A82",
"P  c #6F7A83",
"I  c #717C85",
"U  c #727D86",
"Y  c #737E86",
"T  c #747F88",
"R  c #758089",
"E  c #768189",
"W  c #77828A",
"Q  c #78838B",
"!  c #79838C",
"~  c #7A848C",
"^  c #7B858D",
"/  c #7C878F",
"(  c #7E8890",
")  c #7F8991",
"_  c #828C93",
"`  c #858E96",
"'  c #879198",
"]  c #889199",
"[  c #89929A",
"{  c #8A939A",
"}  c #8B949B",
"|  c #8C959C",
" . c #8D969D",
".. c #8F989F",
"X. c #9099A0",
"o. c #939BA2",
"O. c #959DA4",
"+. c #959EA4",
"@. c #969FA5",
"#. c #98A0A7",
"$. c #9CA4AA",
"%. c #9DA4AA",
"&. c #9EA5AB",
"*. c #9FA7AD",
"=. c #A0A8AE",
"-. c #A1A9AE",
";. c #A2A9AF",
":. c #A3AAB0",
">. c #A4ABB1",
",. c #A5ACB1",
"<. c #A6ADB2",
"1. c #A6ADB3",
"2. c #A7AEB4",
"3. c #A8AFB4",
"4. c #A9B0B5",
"5. c #ABB2B7",
"6. c #ADB3B8",
"7. c #AEB4B9",
"8. c #AFB5BA",
"9. c #AFB6BB",
"0. c #B0B7BB",
"q. c #B1B7BC",
"w. c #B2B8BD",
"e. c #B3B9BE",
"r. c #B4BABE",
"t. c #B5BBBF",
"y. c #B6BBC0",
"u. c #B7BCC1",
"i. c #B7BDC2",
"p. c #B8BEC2",
"a. c #B9BFC3",
"s. c #BAC0C4",
"d. c #BBC0C5",
"f. c #BCC1C5",
"g. c #BDC2C6",
"h. c #BEC3C7",
"j. c #BFC4C8",
"k. c #C0C5C9",
"l. c #C1C6CA",
"z. c #C2C7CB",
"x. c #C3C8CC",
"c. c #C4C9CC",
"v. c #C5C9CD",
"b. c #C6CACE",
"n. c #C7CBCF",
"m. c #C8CCCF",
"M. c #C8CDD0",
"N. c #C9CED1",
"B. c #CACED2",
"V. c #CCD0D3",
"C. c #CDD1D4",
"Z. c #CED2D5",
"A. c #CFD3D5",
"S. c #D0D3D6",
"D. c #D1D5D8",
"F. c #D2D6D9",
"G. c #D3D7D9",
"H. c #D4D7DA",
"J. c #D5D8DB",
"K. c #D7DADC",
"L. c #D8DBDD",
"P. c #D9DCDE",
"I. c #D9DCDF",
"U. c #DADDDF",
"Y. c #DBDEE0",
"T. c #DCDFE1",
"R. c #DDE0E2",
"E. c #DEE1E3",
"W. c #DFE1E3",
"Q. c #E0E2E4",
"!. c #E1E3E5",
"~. c #E1E4E6",
/* pixels */
"w z g d d d d d d d d d d d d d d d d d d d d d d d d d d d d d d d d d d d d d d d d d d d d d d d d d d d d d d d d d d d d d d d d d d d d d d d d d d d d d d d d d d d d d d d d d d d d d d d d d d d d d d d d d d d d d d d d d d d d d d d d d d d d d d d d d g z w ",
"z                                                                                                                                                                                                                                                                           z ",
"j                                                                                                                                                                                                                                                                           j ",
"j                                                                                                                                                                                                                                                                           j ",
"j                                                                                                                                                                                                                                                                           j ",
"j                                                                                                                                                                                                                                                                           j ",
"j                                                                                                                                                                                                                                                                           j ",
"j                                                                                                                                                                                                                                                                           j ",
"j                                                                                                                                                                                                                                                                           j ",
"j                                                                                                                                                                                                                                                                           j ",
"j                                                                                                                                                                                                                                                                           j ",
"j                                                                                                                                                                                                                                                                           j ",
"j                                                                                                                                                                                                                                                                           j ",
"j                                                                                                                                                             4 7 7 2                                                                                                       j ",
"j                       n ` ` ` ` ` ` ` ` ` ` ` ` ` H                                                                                                         A.~.~.g.                                                                                                      j ",
"j                       } ~.~.~.~.~.~.~.~.~.~.~.~.~.8.                                                                                                        A.~.~.g.                                    p.H.H.g.                                                          j ",
"j                       } ~.~.~.~.~.~.~.~.~.~.~.~.~.8.                                                                                                        A.~.~.g.                                    x.~.~.M.                                                          j ",
"j                       n ` ` ` ` 5.~.~.~.f.` ` ` ` H                                                                                                         A.~.~.g.                                    x.~.~.M.                                                          j ",
"j                                 K ~.~.~.X.        W *.*.*.O h 1.B.z.  X P o.t.l.Z.B.s.X.i           _ *.*.#.  z 1.V.n.@.4           n &.u.V.N.d.-.~ w       A.~.~.g.      q ( ;.s.n.D.n.5.R =       Q *.L.~.~.P.*.*.*.!       o V *.x.A.c.&.v                             j ",
"j                                 K ~.~.~.X.        ,.~.~.~.G W.~.~.P.  + ~.~.~.~.~.~.~.~.Q.E         t.~.~.K.( ~.~.~.~.~.Z.>       ` ~.~.~.~.~.~.~.~.)       A.~.~.g.      Y ~.~.~.~.~.~.~.~.V.8     <.~.~.~.~.~.~.~.~.3.    , t.~.~.~.~.~.~.~.%.+                         j ",
"j                                 K ~.~.~.X.        ,.~.~.~.T.~.~.~.P.  + ~.D.4.+. .1.T.~.~.!.r       t.~.~.~.~.~.J.~.~.~.~.`     < Q.~.~.v.X.X.3.V.~.)       A.~.~.g.      Y ~.f.;.| O.k.~.~.~.q.    <.~.~.~.~.~.~.~.~.3.  o i.~.~.~.u...u.~.~.~. .                        j ",
"j                                 K ~.~.~.X.        ,.~.~.~.W./ w 6 V   o n O         x ~.~.~._       t.~.~.~.l.6   N ~.~.~.0.    j ~.~.~.:       . p d       A.~.~.g.      t 0         . :.~.~.~.2       x.~.~.M.          A ~.~.~.{     . $.~.~.W.7                       j ",
"j                                 K ~.~.~.X.        ,.~.~.~.`               * k Z Y Q ^ ~.~.~.;.      t.~.~.~.x       S.~.~.B.    9 ~.~.~.4.L s %             A.~.~.g.          0 b D Q Q 1.~.~.~.l       x.~.~.M.          ;.~.~.~.a 7 7 7 S ~.~.~.I                       j ",
"j                                 K ~.~.~.X.        ,.~.~.~.e           + } R.~.~.~.~.~.~.~.~.6.      t.~.~.!.$       x.~.~.H.    o l.~.~.~.~.~.W.k.( %       A.~.~.g.      t a.~.~.~.~.~.~.~.~.~.M       x.~.~.M.          j.~.~.~.~.~.~.~.~.~.~.~. .                      j ",
"j                                 K ~.~.~.X.        ,.~.~.~.&           ] ~.~.~.T.p.6.7.~.~.~.7.      t.~.~.L.        h.~.~.H.      4 &.Q.~.~.~.~.~.~.6.      A.~.~.g.    * A.~.~.~.C.q.6.x.~.~.~.N       x.~.~.M.          x.~.~.~.~.~.~.~.~.~.~.~.@.                      j ",
"j                                 K ~.~.~.X.        ,.~.~.~.@           F.~.~.D.2     ; ~.~.~.7.      t.~.~.K.        f.~.~.H.          * k Y %.G.~.~.~.3     A.~.~.g.    V ~.~.~.o.X     / ~.~.~.N       x.~.~.M.          0.~.~.W.f u u u u u u u 5                       j ",
"j                                 K ~.~.~.X.        ,.~.~.~.@         + ~.~.~.r.      H ~.~.~.7.      t.~.~.K.        f.~.~.H.    @ :           M ~.~.~.j     A.~.~.g.    U ~.~.~.Z     o s.~.~.~.N       y.~.~.K.@         ( ~.~.~.F           X M %                       j ",
"j                                 K ~.~.~.X.        ,.~.~.~.@           A.~.~.Q.T g Q I.~.~.~.7.      t.~.~.K.        f.~.~.H.    1 E.2.Y M a m e.~.~.~.8     A.~.~.g.    M ~.~.~.k.b c 1.~.~.~.~.N       %.~.~.~.x.>.*.k   , K.~.~.Y.` c s B [ N.~.;                       j ",
"j                                 K ~.~.~.X.        ,.~.~.~.@           ! ~.~.~.~.~.~.9.~.~.~.7.      t.~.~.K.        f.~.~.H.    1 ~.~.~.~.~.~.~.~.~.1.      A.~.~.g.    # b.~.~.~.~.~.!.q.~.~.~.N       n ~.~.~.~.~.~.G     v I.~.~.~.~.~.~.~.~.~.;                       j ",
"j                                 F H.H.H.[         $.H.H.H.@           X _ U.~.~.W.#.= H.H.H.>.      5.H.H.B.        q.H.H.m.    * =.B.~.~.~.~.~.F.' $       x.H.H.w.      7 r.~.~.~.A.C J H.H.H.n         C 8.B.H.H.H.A       q &.U.~.~.~.~.I.2.P O                       j ",
"j                                                                           @ y s =                                                     - w g u 1 o                             : f e o                                             O r h u < o                             j ",
"j                                                                                                                                                                                                                                                                           j ",
"j                                                                                                                                                                                                                                                                           j ",
"j                                                                                                                                                                                                                                                                           j ",
"j                                                                                                                                                                                                                                                                           j ",
"j                                                                                                                                                                                                                                                                           j ",
"j                                                                                                                                                                                                                                                                           j ",
"j                                                                                                                                                                                                                                                                           j ",
"j                                                                                                                                                                                                                                                                           j ",
"j                                                                                                                                                                                                                                                                           j ",
"j                                                                                                                                                                                                                                                                           j ",
"z                                                                                                                                                                                                                                                                           z ",
"w z g d d d d d d d d d d d d d d d d d d d d d d d d d d d d d d d d d d d d d d d d d d d d d d d d d d d d d d d d d d d d d d d d d d d d d d d d d d d d d d d d d d d d d d d d d d d d d d d d d d d d d d d d d d d d d d d d d d d d d d d d d d d d d d d d d g z w "
};
