/* XPM */
static char *_02[] = {
/* columns rows colors chars-per-pixel */
"11 25 26 1 ",
"  c #020202",
". c #0C0202",
"X c #0E0202",
"o c #160202",
"O c #170202",
"+ c #1E0202",
"@ c #360202",
"# c #400202",
"$ c #450101",
"% c #4A0101",
"& c #560101",
"* c #780101",
"= c #860101",
"- c #8E0101",
"; c #920101",
": c #950101",
"> c #AA0101",
", c #AC0101",
"< c #B70101",
"1 c #D10000",
"2 c #DD0000",
"3 c #E10000",
"4 c #EA0000",
"5 c #F20000",
"6 c #FB0000",
"7 c red",
/* pixels */
"    o=15777",
"   +3777777",
"   ,772-***",
"  .674X    ",
"  @77>     ",
"  $77:     ",
"  %77;     ",
"7777777777#",
"7777777777#",
"&&=77<&&&&O",
"  %77;     ",
"  %77;     ",
"  %77;     ",
"  %77;     ",
"  %77;     ",
"  %77;     ",
"  %77;     ",
"  %77;     ",
"  %77;     ",
"  %77;     ",
"  %77;     ",
"  %77;     ",
"  %77;     ",
"  %77;     ",
"  %77;     "
};
