/* XPM */
static char *_03[] = {
/* columns rows colors chars-per-pixel */
"16 25 105 2 ",
"   c #020202",
".  c #030202",
"X  c #040202",
"o  c #050202",
"O  c #070202",
"+  c #080202",
"@  c #090202",
"#  c #0A0202",
"$  c #0B0202",
"%  c #0C0202",
"&  c #0F0202",
"*  c #110202",
"=  c #120202",
"-  c #130202",
";  c #140202",
":  c #150202",
">  c #190202",
",  c #1C0202",
"<  c #200202",
"1  c #210202",
"2  c #220202",
"3  c #230202",
"4  c #260202",
"5  c #270202",
"6  c #280202",
"7  c #290202",
"8  c #2C0202",
"9  c #2D0202",
"0  c #2F0202",
"q  c #310202",
"w  c #320202",
"e  c #330202",
"r  c #350202",
"t  c #370202",
"y  c #3C0202",
"u  c #410202",
"i  c #440101",
"p  c #450101",
"a  c #470101",
"s  c #490101",
"d  c #4C0101",
"f  c #560101",
"g  c #600101",
"h  c #6B0101",
"j  c #6F0101",
"k  c #710101",
"l  c #730101",
"z  c #790101",
"x  c #7D0101",
"c  c #7E0101",
"v  c #7F0101",
"b  c #810101",
"n  c #820101",
"m  c #840101",
"M  c #850101",
"N  c #910101",
"B  c #920101",
"V  c #950101",
"C  c #970101",
"Z  c #9A0101",
"A  c #A30101",
"S  c #A40101",
"D  c #A50101",
"F  c #A70101",
"G  c #AA0101",
"H  c #AB0101",
"J  c #AD0101",
"K  c #B20101",
"L  c #BA0101",
"P  c #BD0101",
"I  c #BE0101",
"U  c #C00000",
"Y  c #C10000",
"T  c #C60000",
"R  c #C80000",
"E  c #CB0000",
"W  c #D10000",
"Q  c #D20000",
"!  c #D30000",
"~  c #D70000",
"^  c #DA0000",
"/  c #DC0000",
"(  c #DE0000",
")  c #DF0000",
"_  c #E00000",
"`  c #E20000",
"'  c #E30000",
"]  c #E40000",
"[  c #E50000",
"{  c #E80000",
"}  c #E90000",
"|  c #F00000",
" . c #F20000",
".. c #F30000",
"X. c #F50000",
"o. c #F60000",
"O. c #F70000",
"+. c #F80000",
"@. c #F90000",
"#. c #FA0000",
"$. c #FB0000",
"%. c #FC0000",
"&. c #FD0000",
"*. c #FE0000",
"=. c red",
/* pixels */
"      O h Y } @._ J d     N Z Z ",
"    2 ! =.=.=.=.=.=.=.S @ | =.=.",
"  : ( =.=.#.K b v H O.=.V | =.=.",
"  D =.=.` 0         4 ~ =.*.=.=.",
"4 *.=.$.q             3 X.=.=.=.",
"n =.=.F                 B =.=.=.",
"P =.=.f                 u =.=.=.",
"[ =.=.6                 = =.=.=.",
"o.=.=.-                   @.=.=.",
"@.=.=.*                   o.=.=.",
"} =.=.1                 $ =.=.=.",
"R =.=.s                 r =.=.=.",
"N =.=.B                 x =.=.=.",
"y =.=.| >             & [ =.=.=.",
"  T =.=.U &         # K =.=.=.=.",
"  8 X.=.=.` z a p l ^ =.I  .=.=.",
"    i ..=.=.=.=.=.=.=.Q >  .=.+.",
"      < A ..=.=.=.] M % o &.=.{ ",
"          + 6 e , X     7 =.=.E ",
"                        k =.=.C ",
"                      ; ' =.=.a ",
"    c 9             4 E =.=.Q . ",
"    ~ =.! Z z j m L %.=.=.o.w   ",
"    ~ =.=.=.=.=.=.=.=.=.) t     ",
"    5 h J W [ @. ./ G g +       "
};
