/* XPM */
static char *_09[] = {
/* columns rows colors chars-per-pixel */
"12 8 36 1 ",
"  c #020202",
". c #040202",
"X c #080202",
"o c #170202",
"O c #2C0202",
"+ c #340202",
"@ c #400202",
"# c #590101",
"$ c #5D0101",
"% c #5E0101",
"& c #630101",
"* c #670101",
"= c #710101",
"- c #790101",
"; c #860101",
": c #980101",
"> c #A10101",
", c #A20101",
"< c #A70101",
"1 c #AE0101",
"2 c #B00101",
"3 c #B30101",
"4 c #B40101",
"5 c #B50101",
"6 c #C90000",
"7 c #CC0000",
"8 c #E00000",
"9 c #E10000",
"0 c #E20000",
"q c #E60000",
"w c #E90000",
"e c #EE0000",
"r c #F20000",
"t c #F40000",
"y c #FE0000",
"u c red",
/* pixels */
"7#,re;.=9t3o",
"uw=O*y4<+@8>",
"u:   60X  -q",
"u&   25   %y",
"u$   11   $u",
"u$   11   $u",
"u$   11   $u",
"u$   11   $u"
};
