/* XPM */
static char *_10[] = {
/* columns rows colors chars-per-pixel */
"15 18 45 1 ",
"  c #020202",
". c #030202",
"X c #040202",
"o c #060202",
"O c #0E0202",
"+ c #100202",
"@ c #150202",
"# c #220202",
"$ c #240202",
"% c #260202",
"& c #310202",
"* c #380202",
"= c #420101",
"- c #560101",
"; c #6D0101",
": c #7B0101",
"> c #810101",
", c #840101",
"< c #860101",
"1 c #8D0101",
"2 c #8F0101",
"3 c #930101",
"4 c #9A0101",
"5 c #A00101",
"6 c #A90101",
"7 c #BA0101",
"8 c #BB0101",
"9 c #C90000",
"0 c #CD0000",
"q c #CE0000",
"w c #DA0000",
"e c #DC0000",
"r c #DD0000",
"t c #E30000",
"y c #F00000",
"u c #F20000",
"i c #F30000",
"p c #F40000",
"a c #F50000",
"s c #F80000",
"d c #FA0000",
"f c #FC0000",
"g c #FD0000",
"h c #FE0000",
"j c red",
/* pixels */
"443  *5esy9:O  ",
"jjp.<gjjjjjjr$ ",
"jjp>jd7218hjjqo",
"jjhh0%    =ajj-",
"jjjt@      ,jj6",
"jjj;       &jjw",
"jjj#       +jju",
"jjfX        ijh",
"jjp         yjj",
"jjp         yjj",
"jjp         yjj",
"jjp         yjj",
"jjp         yjj",
"jjp         yjj",
"jjp         yjj",
"jjp         yjj",
"jjp         yjj",
"jjp         yjj"
};
