/* XPM */
static char *_13[] = {
/* columns rows colors chars-per-pixel */
"16 25 74 1 ",
"  c #020202",
". c #030202",
"X c #050202",
"o c #090202",
"O c #0D0202",
"+ c #0E0202",
"@ c #100202",
"# c #110202",
"$ c #170202",
"% c #190202",
"& c #1B0202",
"* c #1C0202",
"= c #270202",
"- c #300202",
"; c #320202",
": c #3B0202",
"> c #3E0202",
", c #430101",
"< c #4A0101",
"1 c #4B0101",
"2 c #550101",
"3 c #590101",
"4 c #5A0101",
"5 c #5E0101",
"6 c #5F0101",
"7 c #620101",
"8 c #630101",
"9 c #650101",
"0 c #6E0101",
"q c #760101",
"w c #780101",
"e c #790101",
"r c #7B0101",
"t c #800101",
"y c #810101",
"u c #850101",
"i c #910101",
"p c #950101",
"a c #980101",
"s c #9A0101",
"d c #9C0101",
"f c #A20101",
"g c #A30101",
"h c #A90101",
"j c #AD0101",
"k c #B00101",
"l c #B30101",
"z c #B60101",
"x c #B70101",
"c c #BF0101",
"v c #C50000",
"b c #C80000",
"n c #CE0000",
"m c #D10000",
"M c #D20000",
"N c #D50000",
"B c #D60000",
"V c #E00000",
"C c #E20000",
"Z c #E90000",
"A c #EB0000",
"S c #ED0000",
"D c #F00000",
"F c #F20000",
"G c #F30000",
"H c #F40000",
"J c #F70000",
"K c #F80000",
"L c #F90000",
"P c #FA0000",
"I c #FB0000",
"U c #FC0000",
"Y c #FE0000",
"T c red",
/* pixels */
"   X8cZLVj<  iss",
"  %bTTTTTTTgoDTT",
" +MTTUzytkPTpDTT",
" iTTA:    -CTYTT",
"&PTY,      ;ITTT",
"qTTx        fTTT",
"lTT7        1TTT",
"VTT-        %TTT",
"GTT$        .ITT",
"ITT@         HTT",
"STT*        XYTT",
"NTT>        =TTT",
"fTTw        7TTT",
"4TTBX       vTTT",
"oZTTe      9TTTT",
" 5TTYu#  OeIFLTT",
"  aTTTJmnHTT3DTT",
"  .rKTTTTTD2 DTT",
"    &0dhi6+  DTT",
"             DTT",
"             DTT",
"             DTT",
"             DTT",
"             DTT",
"             DTT"
};
