/* XPM */
static char *_14[] = {
/* columns rows colors chars-per-pixel */
"5 8 14 1 ",
"  c #020202",
". c #360202",
"X c #400202",
"o c #5F0101",
"O c #6A0101",
"+ c #770101",
"@ c #8D0101",
"# c #950101",
"$ c #B40101",
"% c #CC0000",
"& c #E80000",
"* c #EE0000",
"= c #F90000",
"- c red",
/* pixels */
"%o#&=",
"-*@.X",
"-$   ",
"-+   ",
"-O   ",
"-O   ",
"-O   ",
"-O   "
};
