/* XPM */
static char *_14[] = {
/* columns rows colors chars-per-pixel */
"10 18 29 1 ",
"  c #020202",
". c #050202",
"X c #070202",
"o c #0B0202",
"O c #120202",
"+ c #140202",
"@ c #1C0202",
"# c #5C0101",
"$ c #5D0101",
"% c #7F0101",
"& c #9A0101",
"* c #9B0101",
"= c #A90101",
"- c #B40101",
"; c #B90101",
": c #BB0101",
"> c #BC0101",
", c #BD0101",
"< c #D10000",
"1 c #D20000",
"2 c #D50000",
"3 c #D80000",
"4 c #E40000",
"5 c #E60000",
"6 c #F70000",
"7 c #FB0000",
"8 c #FD0000",
"9 c #FE0000",
"0 c red",
/* pixels */
"&&% .#;474",
"00<+,00008",
"001-06:*=5",
"0080>@   X",
"0003o     ",
"000$      ",
"009O      ",
"004       ",
"002       ",
"00<       ",
"00<       ",
"00<       ",
"00<       ",
"00<       ",
"00<       ",
"00<       ",
"00<       ",
"00<       "
};
