/* XPM */
static char *_15[] = {
/* columns rows colors chars-per-pixel */
"14 19 83 1 ",
"  c #020202",
". c #040202",
"X c #050202",
"o c #060202",
"O c #070202",
"+ c #090202",
"@ c #0E0202",
"# c #140202",
"$ c #190202",
"% c #1B0202",
"& c #1D0202",
"* c #1E0202",
"= c #1F0202",
"- c #210202",
"; c #250202",
": c #260202",
"> c #280202",
", c #290202",
"< c #2A0202",
"1 c #2D0202",
"2 c #2E0202",
"3 c #360202",
"4 c #380202",
"5 c #3A0202",
"6 c #3E0202",
"7 c #400202",
"8 c #4D0101",
"9 c #680101",
"0 c #690101",
"q c #6B0101",
"w c #700101",
"e c #710101",
"r c #7B0101",
"t c #7C0101",
"y c #7F0101",
"u c #830101",
"i c #840101",
"p c #880101",
"a c #8A0101",
"s c #8E0101",
"d c #8F0101",
"f c #930101",
"g c #940101",
"h c #950101",
"j c #970101",
"k c #990101",
"l c #A10101",
"z c #A20101",
"x c #AA0101",
"c c #AC0101",
"v c #AE0101",
"b c #B30101",
"n c #B40101",
"m c #B50101",
"M c #B60101",
"N c #B70101",
"B c #BA0101",
"V c #BE0101",
"C c #BF0101",
"Z c #CA0000",
"A c #CF0000",
"S c #D20000",
"D c #D40000",
"F c #D50000",
"G c #D90000",
"H c #DB0000",
"J c #DF0000",
"K c #E20000",
"L c #E30000",
"P c #E40000",
"I c #E50000",
"U c #E60000",
"Y c #E80000",
"T c #ED0000",
"R c #EE0000",
"E c #F10000",
"W c #F60000",
"Q c #F80000",
"! c #F90000",
"~ c #FC0000",
"^ c #FD0000",
"/ c #FE0000",
"( c red",
/* pixels */
"  @qNPWQISbe1 ",
" 5L((((((((((O",
"*E((QmfuaxH((O",
"d((B#      ,so",
"Z((<          ",
"G((=          ",
"V((g.         ",
"0(((Gr3.      ",
"ob(((((En9&   ",
" XqF((((((^x% ",
"    :wvT((((K%",
"       X4z~((k",
"          t((L",
"          >((!",
"@         6((K",
"Tp2      -A((j",
"(((JcsihC~((U$",
"W((((((((((Z; ",
"+7yMSY/RDl8.  "
};
