/* XPM */
static char *_16[] = {
/* columns rows colors chars-per-pixel */
"11 23 28 1 ",
"  c #020202",
". c #050202",
"X c #070202",
"o c #0B0202",
"O c #130202",
"+ c #280202",
"@ c #580101",
"# c #670101",
"$ c #6A0101",
"% c #6C0101",
"& c #720101",
"* c #780101",
"= c #850101",
"- c #A40101",
"; c #AF0101",
": c #BC0101",
"> c #BD0101",
", c #CC0000",
"< c #DA0000",
"1 c #DF0000",
"2 c #E70000",
"3 c #EC0000",
"4 c #EE0000",
"5 c #EF0000",
"6 c #F80000",
"7 c #FC0000",
"8 c #FD0000",
"9 c red",
/* pixels */
"  199o     ",
"  199o     ",
"  199o     ",
"  199o     ",
"  199o     ",
"44899544444",
"99999999999",
"##399%#####",
"  199o     ",
"  199o     ",
"  199o     ",
"  199o     ",
"  199o     ",
"  199o     ",
"  199o     ",
"  199o     ",
"  199o     ",
"  <99O     ",
"  ,99+     ",
"  -99&     ",
"  @997;=***",
"  .>9999999",
"   X$:26999"
};
