/* XPM */
static char *_23[] = {
/* columns rows colors chars-per-pixel */
"6 14 33 1 ",
"  c #020202",
". c #120202",
"X c #140202",
"o c #150202",
"O c #380202",
"+ c #390202",
"@ c #3D0202",
"# c #3E0202",
"$ c #780101",
"% c #790101",
"& c #8B0101",
"* c #8E0101",
"= c #9C0101",
"- c #9D0101",
"; c #A40101",
": c #A80101",
"> c #A90101",
", c #AB0101",
"< c #AC0101",
"1 c #BB0101",
"2 c #BE0101",
"3 c #C00000",
"4 c #C20000",
"5 c #C90000",
"6 c #CF0000",
"7 c #D00000",
"8 c #E10000",
"9 c #E30000",
"0 c #E70000",
"q c #E80000",
"w c #F40000",
"e c #FC0000",
"r c #FD0000",
/* pixels */
"  .<qr",
"  %w@X",
"  -5  ",
"  ;4  ",
"  :3  ",
"  7:  ",
"*28O  ",
"&19+  ",
"  6>  ",
"  :3  ",
"  ;4  ",
"  =5  ",
"  $w#o",
"  .,0e"
};
