/* XPM */
static char *_25[] = {
/* columns rows colors chars-per-pixel */
"12 30 62 1 ",
"  c #020202",
". c #040202",
"X c #050202",
"o c #070202",
"O c #0F0202",
"+ c #100202",
"@ c #130202",
"# c #240202",
"$ c #2B0202",
"% c #2C0202",
"& c #2F0202",
"* c #300202",
"= c #330202",
"- c #340202",
"; c #3C0202",
": c #410101",
"> c #420101",
", c #410202",
"< c #450101",
"1 c #460101",
"2 c #500101",
"3 c #520101",
"4 c #540101",
"5 c #5A0101",
"6 c #5B0101",
"7 c #5E0101",
"8 c #650101",
"9 c #660101",
"0 c #6B0101",
"q c #6F0101",
"w c #770101",
"e c #780101",
"r c #7A0101",
"t c #7B0101",
"y c #860101",
"u c #900101",
"i c #910101",
"p c #930101",
"a c #940101",
"s c #970101",
"d c #A60101",
"f c #B80101",
"g c #BD0101",
"h c #C00000",
"j c #C20000",
"k c #C40000",
"l c #C60000",
"z c #C70000",
"x c #CB0000",
"c c #CC0000",
"v c #CF0000",
"b c #DE0000",
"n c #DF0000",
"m c #EB0000",
"M c #EC0000",
"N c #EF0000",
"B c #F20000",
"V c #F90000",
"C c #FA0000",
"Z c #FB0000",
"A c #FE0000",
"S c red",
/* pixels */
"SZMca%      ",
"SSSSSV>     ",
"<20hSSz     ",
"   obSA+    ",
"    dSS-    ",
"    uSS,    ",
"    ySS<    ",
"    ySS<    ",
"    ySS<    ",
"    ySS1    ",
"    rSS6    ",
"    8SSe    ",
"    &SSvX   ",
"     kSSh7;#",
"     @iNSSSS",
"     OsBSSSS",
"     gSSf3*#",
"    *SSx.   ",
"    9SSw    ",
"    tSS5    ",
"    ySS1    ",
"    ySS<    ",
"    ySS<    ",
"    ySS<    ",
"    uSS,    ",
"    dSS=    ",
"   onSAO    ",
"<4qjSSl     ",
"SSSSSV:     ",
"SCmcp$      "
};
