/* XPM */
static char *_27[] = {
/* columns rows colors chars-per-pixel */
"8 8 30 1 ",
"  c #020202",
". c #040202",
"X c #2F0202",
"o c #310202",
"O c #320202",
"+ c #350202",
"@ c #530101",
"# c #540101",
"$ c #550101",
"% c #560101",
"& c #570101",
"* c #590101",
"= c #980101",
"- c #9B0101",
"; c #A20101",
": c #A30101",
"> c #A90101",
", c #AA0101",
"< c #AB0101",
"1 c #AC0101",
"2 c #AE0101",
"3 c #AF0101",
"4 c #B00101",
"5 c #C50000",
"6 c #C60000",
"7 c #C70000",
"8 c #F30000",
"9 c #F50000",
"0 c #F60000",
"q c #F70000",
/* pixels */
"=$    #;",
"*q>88<0&",
" 17++74 ",
".9X  o0.",
".9X  O9.",
" 25oO6, ",
"%0309>9%",
":$ .. @-"
};
