/* XPM */
static char *_5[] = {
/* columns rows colors chars-per-pixel */
"10 11 48 1 ",
"  c #020202",
". c #030202",
"X c #040202",
"o c #070202",
"O c #090202",
"+ c #0B0202",
"@ c #0C0202",
"# c #0E0202",
"$ c #0F0202",
"% c #250202",
"& c #280202",
"* c #290202",
"= c #2B0202",
"- c #2D0202",
"; c #320202",
": c #350202",
"> c #3F0202",
", c #400202",
"< c #410202",
"1 c #450101",
"2 c #470101",
"3 c #490101",
"4 c #610101",
"5 c #640101",
"6 c #660101",
"7 c #7A0101",
"8 c #7D0101",
"9 c #8F0101",
"0 c #910101",
"q c #AA0101",
"w c #AD0101",
"e c #C10000",
"r c #C50000",
"t c #D00000",
"y c #D30000",
"u c #DD0000",
"i c #E30000",
"p c #E50000",
"a c #EA0000",
"s c #EE0000",
"d c #EF0000",
"f c #F10000",
"g c #F30000",
"h c #F40000",
"j c #F70000",
"k c #F80000",
"l c #F90000",
"z c #FB0000",
/* pixels */
"   Oj* e5 ",
"   >a.Oj& ",
"   7w >a. ",
"=uufduakuu",
"$12k61t011",
"  ;goXd:  ",
"119y14z31#",
"sszhsjkss-",
"  i< q8   ",
" %l@ p,   ",
" 4r %k+   "
};
