/* XPM */
static char *_5[] = {
/* columns rows colors chars-per-pixel */
"22 23 84 1 ",
"  c #020202",
". c #030202",
"X c #040202",
"o c #060202",
"O c #080202",
"+ c #090202",
"@ c #110202",
"# c #120202",
"$ c #140202",
"% c #180202",
"& c #190202",
"* c #1C0202",
"= c #1D0202",
"- c #1F0202",
"; c #2D0202",
": c #2E0202",
"> c #2F0202",
", c #320202",
"< c #330202",
"1 c #340202",
"2 c #380202",
"3 c #3A0202",
"4 c #3C0202",
"5 c #3F0202",
"6 c #4D0101",
"7 c #4E0101",
"8 c #4F0101",
"9 c #500101",
"0 c #510101",
"q c #550101",
"w c #570101",
"e c #590101",
"r c #5A0101",
"t c #5B0101",
"y c #6F0101",
"u c #700101",
"i c #710101",
"p c #770101",
"a c #7A0101",
"s c #7B0101",
"d c #7C0101",
"f c #890101",
"g c #8B0101",
"h c #8E0101",
"j c #8F0101",
"k c #900101",
"l c #950101",
"z c #970101",
"x c #980101",
"c c #990101",
"v c #9A0101",
"b c #9D0101",
"n c #AF0101",
"m c #B00101",
"M c #B60101",
"N c #B80101",
"B c #B90101",
"V c #BC0101",
"C c #C10000",
"Z c #C60000",
"A c #CE0000",
"S c #CF0000",
"D c #D50000",
"F c #D70000",
"G c #D80000",
"H c #DD0000",
"J c #E00000",
"K c #E40000",
"L c #E80000",
"P c #EB0000",
"I c #EC0000",
"U c #ED0000",
"Y c #EE0000",
"T c #EF0000",
"R c #F10000",
"E c #F20000",
"W c #F30000",
"Q c #F40000",
"! c #F50000",
"~ c #F60000",
"^ c #FC0000",
"/ c #FD0000",
"( c #FE0000",
") c red",
/* pixels */
"        $/)s   .L)x   ",
"        0))4   >))e   ",
"        k)!O   y))*   ",
"        A)B    m)F    ",
"       @^)a   XI)c    ",
"       6))3   <))r    ",
" -fffffC))hfffM))bffff",
" 2))))))))))))))))))))",
" 1YYYYR))QYYYT))~YYYYY",
"      8))5   ,))w     ",
"      j)!+   u))*     ",
"      S)V    n)G      ",
"     $/)d   .P)v      ",
"     0))4   :))t      ",
"HHHHHU))JHHHL))KHHHH; ",
"))))))))))))))))))))1 ",
"ffffz))Nfffg/)Zfffff= ",
"    7))2   ,))w       ",
"    h)Eo   i)(&       ",
"    A)M    m)D        ",
"   #^)p   XI)l        ",
"   9))2   ,))q        ",
"   k)Wo   u)(%        "
};
