/* XPM */
static char *_6[] = {
/* columns rows colors chars-per-pixel */
"15 29 84 1 ",
"  c #020202",
". c #030202",
"X c #050202",
"o c #060202",
"O c #0A0202",
"+ c #0B0202",
"@ c #120202",
"# c #150202",
"$ c #180202",
"% c #190202",
"& c #1C0202",
"* c #1E0202",
"= c #1F0202",
"- c #210202",
"; c #240202",
": c #270202",
"> c #280202",
", c #290202",
"< c #2E0202",
"1 c #330202",
"2 c #350202",
"3 c #370202",
"4 c #3B0202",
"5 c #3C0202",
"6 c #420101",
"7 c #430101",
"8 c #410202",
"9 c #480101",
"0 c #4D0101",
"q c #520101",
"w c #530101",
"e c #5F0101",
"r c #610101",
"t c #6B0101",
"y c #6C0101",
"u c #6E0101",
"i c #6F0101",
"p c #700101",
"a c #710101",
"s c #720101",
"d c #790101",
"f c #7B0101",
"g c #7F0101",
"h c #820101",
"j c #860101",
"k c #8C0101",
"l c #900101",
"z c #950101",
"x c #960101",
"c c #980101",
"v c #990101",
"b c #9C0101",
"n c #A50101",
"m c #AB0101",
"M c #AD0101",
"N c #AE0101",
"B c #AF0101",
"V c #B30101",
"C c #B60101",
"Z c #B70101",
"A c #BD0101",
"S c #BE0101",
"D c #CC0000",
"F c #D70000",
"G c #DB0000",
"H c #DF0000",
"J c #E00000",
"K c #E20000",
"L c #E40000",
"P c #EA0000",
"I c #EB0000",
"U c #EF0000",
"Y c #F00000",
"T c #F10000",
"R c #F30000",
"E c #F50000",
"W c #F60000",
"Q c #F70000",
"! c #F90000",
"~ c #FA0000",
"^ c #FB0000",
"/ c #FD0000",
"( c #FE0000",
") c red",
/* pixels */
"      u);      ",
"      u);      ",
"      u);      ",
"    O2v)t5*.   ",
"  3BW))))))IN9 ",
" y^)))W)U))))z ",
"8()Qh*u);O4gFz ",
"V))r  u);   .= ",
"I)Wo  u);      ",
"!)U.  u);      ",
"H))6  u);      ",
"l))Pr+u);      ",
"#G)))QK)s<.    ",
" %m/))))))Lk&  ",
"   >fAY)))))Tq ",
"      u)dnW))~2",
"      u); -D))N",
"      u);  ,))P",
"      u);   U)!",
"      u);  @()J",
"M>    u);  x))b",
")/Ze:Xu)10S))R;",
"!)))))E)))))I7 ",
"#tCR))))))Gj$  ",
"   .-5c)w$     ",
"      a);      ",
"      p);      ",
"      i);      ",
"      u);      "
};
