/* XPM */
static char *_8[] = {
/* columns rows colors chars-per-pixel */
"10 11 61 1 ",
"  c #020202",
". c #080202",
"X c #0A0202",
"o c #0C0202",
"O c #0D0202",
"+ c #0F0202",
"@ c #180202",
"# c #1A0202",
"$ c #210202",
"% c #240202",
"& c #270202",
"* c #2B0202",
"= c #2C0202",
"- c #2E0202",
"; c #370202",
": c #3D0202",
"> c #3E0202",
", c #440101",
"< c #450101",
"1 c #490101",
"2 c #4C0101",
"3 c #4E0101",
"4 c #550101",
"5 c #570101",
"6 c #660101",
"7 c #670101",
"8 c #6B0101",
"9 c #7E0101",
"0 c #850101",
"q c #870101",
"w c #890101",
"e c #8D0101",
"r c #950101",
"t c #970101",
"y c #9F0101",
"u c #B00101",
"i c #B50101",
"p c #B80101",
"a c #BC0101",
"s c #BF0000",
"d c #BE0101",
"f c #C10000",
"g c #C30000",
"h c #C60000",
"j c #C80000",
"k c #C90000",
"l c #CD0000",
"z c #CE0000",
"x c #DC0000",
"c c #DF0000",
"v c #E20000",
"b c #E50000",
"n c #E60000",
"m c #E90000",
"M c #EB0000",
"N c #EF0000",
"B c #F10000",
"V c #F50000",
"C c #FB0000",
"Z c #FE0000",
"A c red",
/* pixels */
" XrmVk,   ",
" qM2-74   ",
" dy       ",
" wb@      ",
" 6Aj+     ",
"1C7xgO  j5",
"lt $cso#A*",
"V8  %vaed ",
"zu   &nA; ",
"3Zy>:0VNi.",
" <fNBp>=h9"
};
