/* XPM */
static char *_0[] = {
/* columns rows colors chars-per-pixel */
"3 13 22 1 ",
"  c #020202",
". c #060202",
"X c #080202",
"o c #3A0202",
"O c #3B0202",
"+ c #4B0101",
"@ c #4E0101",
"# c #4F0101",
"$ c #500101",
"% c #560101",
"& c #570101",
"* c #740101",
"= c #8F0101",
"- c #A70101",
"; c #C30000",
": c #C90000",
"> c #CA0000",
", c #CF0000",
"< c #D00000",
"1 c #EC0000",
"2 c #EE0000",
"3 c #FA0000",
/* pixels */
" $;",
" <@",
"O1.",
"=- ",
">* ",
"2% ",
"3+ ",
"1& ",
":* ",
"=- ",
"o2X",
" ,#",
" #;"
};
