/* XPM */
static char *_0[] = {
/* columns rows colors chars-per-pixel */
"7 29 55 1 ",
"  c #020202",
". c #030202",
"X c #050202",
"o c #060202",
"O c #0B0202",
"+ c #0C0202",
"@ c #1C0202",
"# c #1D0202",
"$ c #270202",
"% c #280202",
"& c #2D0202",
"* c #2F0202",
"= c #390202",
"- c #3A0202",
"; c #400202",
": c #410202",
"> c #440101",
", c #4B0101",
"< c #4C0101",
"1 c #4D0101",
"2 c #540101",
"3 c #560101",
"4 c #620101",
"5 c #630101",
"6 c #7E0101",
"7 c #800101",
"8 c #8B0101",
"9 c #910101",
"0 c #920101",
"q c #9D0101",
"w c #9F0101",
"e c #B30101",
"r c #B50101",
"t c #B60101",
"y c #B80101",
"u c #C00000",
"i c #C10000",
"p c #C20000",
"a c #C30000",
"s c #C40000",
"d c #C60000",
"f c #C70000",
"g c #D60000",
"h c #D80000",
"j c #E40000",
"k c #E50000",
"l c #E70000",
"z c #E80000",
"x c #E90000",
"c c #EB0000",
"v c #EC0000",
"b c #FA0000",
"n c #FC0000",
"m c #FE0000",
"M c red",
/* pixels */
"    yMu",
"   :MM>",
"  .fMd ",
"  3MM, ",
"  aMlX ",
" %mM9  ",
" 8MM=  ",
" kMz.  ",
"$MMe   ",
"5MM6   ",
"wMM,   ",
"sMM&   ",
"hMM@   ",
"vMMO   ",
"bMn    ",
"cMM+   ",
"gMM#   ",
"pMM*   ",
"qMM<   ",
"4MM7   ",
"$MMr   ",
" jMz.  ",
" 8MM-  ",
" %mM0  ",
"  iMxo ",
"  2MM1 ",
"  .dMf ",
"   ;MM>",
"    tMu"
};
