/* XPM */
static char *_2[] = {
/* columns rows colors chars-per-pixel */
"7 7 14 1 ",
"  c #020202",
". c #060202",
"X c #210202",
"o c #4E0101",
"O c #4F0101",
"+ c #710101",
"@ c #720101",
"# c #810101",
"$ c #AE0101",
"% c #C70000",
"& c #C80000",
"* c #E10000",
"= c #E70000",
"- c red",
/* pixels */
"   *   ",
"+X * X+",
"O&#=#&O",
" .$-$. ",
"o%#=#%o",
"@X * X@",
"   *   "
};
