/* XPM */
static char *_2[] = {
/* columns rows colors chars-per-pixel */
"14 15 36 1 ",
"  c #020202",
". c #030202",
"X c #060202",
"o c #0A0202",
"O c #100202",
"+ c #110202",
"@ c #330202",
"# c #340202",
"$ c #360202",
"% c #370202",
"& c #3A0202",
"* c #3D0202",
"= c #3F0202",
"- c #4E0101",
"; c #570101",
": c #580101",
"> c #5F0101",
", c #810101",
"< c #820101",
"1 c #950101",
"2 c #9D0101",
"3 c #9F0101",
"4 c #C20000",
"5 c #C30000",
"6 c #C90000",
"7 c #CA0000",
"8 c #CB0000",
"9 c #D00000",
"0 c #D10000",
"q c #DE0000",
"w c #E10000",
"e c #E20000",
"r c #E70000",
"t c #FD0000",
"y c #FE0000",
"u c red",
/* pixels */
"      ww      ",
"      ww      ",
"oX    ww    Xo",
"<0&   ww   #8,",
"3yt1+ ww +1ty3",
" %5ur>ww-eu7= ",
"  .:quyyuq:.  ",
"    O9uu9O    ",
"  .;quyyuq;.  ",
" $4ur>ww-eu6* ",
"2yt1+ ww +1ty2",
",0&   ww   @8,",
"oX    ww    Xo",
"      ww      ",
"      ww      "
};
