/* XPM */
static char *_4[] = {
/* columns rows colors chars-per-pixel */
"5 8 16 1 ",
"  c #020202",
". c #130202",
"X c #150202",
"o c #200202",
"O c #550101",
"+ c #790101",
"@ c #8B0101",
"# c #9A0101",
"$ c #9C0101",
"% c #9E0101",
"& c #CA0000",
"* c #DD0000",
"= c #EF0000",
"- c #F70000",
"; c #FC0000",
": c red",
/* pixels */
" #:::",
" #:::",
" $::;",
" &::%",
".;:-o",
"O::@ ",
"#:=X ",
"*:+  "
};
