/* XPM */
static char *_8[] = {
/* columns rows colors chars-per-pixel */
"16 24 63 1 ",
"  c #020202",
". c #160202",
"X c #180202",
"o c #1E0202",
"O c #200202",
"+ c #210202",
"@ c #280202",
"# c #2B0202",
"$ c #2C0202",
"% c #2D0202",
"& c #2E0202",
"* c #2F0202",
"= c #310202",
"- c #340202",
"; c #410101",
": c #400202",
"> c #5E0101",
", c #5F0101",
"< c #600101",
"1 c #630101",
"2 c #690101",
"3 c #6A0101",
"4 c #730101",
"5 c #740101",
"6 c #770101",
"7 c #780101",
"8 c #7B0101",
"9 c #860101",
"0 c #870101",
"q c #8C0101",
"w c #8D0101",
"e c #910101",
"r c #920101",
"t c #930101",
"y c #970101",
"u c #980101",
"i c #990101",
"p c #9A0101",
"a c #AF0101",
"s c #B00101",
"d c #B30101",
"f c #B40101",
"g c #BF0000",
"h c #C10000",
"j c #C20000",
"k c #C90000",
"l c #CB0000",
"z c #D40000",
"x c #D50000",
"c c #D60000",
"v c #E00000",
"b c #E20000",
"n c #ED0000",
"m c #EF0000",
"M c #F20000",
"N c #F30000",
"B c #F80000",
"V c #F90000",
"C c #FA0000",
"Z c #FC0000",
"A c #FD0000",
"S c #FE0000",
"D c red",
/* pixels */
"    *tcNNcr&    ",
"   8CDDDDDDC7   ",
"  6DDDkqqkDDD4  ",
" =ADS2    2SDZ% ",
" dDDu      uDDa ",
"XZDZ+      oZDZ.",
"1DDh        hDD<",
"pDD0        9DDu",
"jDD>        >DDg",
"bDD;        :DDv",
"mDD-        =DDn",
"CDD$        @DDB",
"CDD#        @DDV",
"mDD-        =DDn",
"bDD;        :DDv",
"jDD,        >DDg",
"iDD0        9DDy",
"1DDh        hDD<",
"XZDZO      oZDZ.",
" fDDu      uDDs ",
" =ADS3    3SDZ& ",
"  7DDDlwwlDDD5  ",
"   8CDDDDDDC7   ",
"    &exMMze%    "
};
