/* XPM */
static char *_9[] = {
/* columns rows colors chars-per-pixel */
"14 24 22 1 ",
"  c #020202",
". c #0A0202",
"X c #1C0202",
"o c #3E0202",
"O c #4E0101",
"+ c #5A0101",
"@ c #610101",
"# c #670101",
"$ c #700101",
"% c #810101",
"& c #8B0101",
"* c #A30101",
"= c #BC0101",
"- c #CD0000",
"; c #D30000",
": c #D50000",
"> c #F00000",
", c #F20000",
"< c #F40000",
"1 c #FB0000",
"2 c #FE0000",
"3 c red",
/* pixels */
" XO%=<33-     ",
">3333333-     ",
"33333233-     ",
"1:*$o@33-     ",
".    +33-     ",
"     +33-     ",
"     +33-     ",
"     +33-     ",
"     +33-     ",
"     +33-     ",
"     +33-     ",
"     +33-     ",
"     +33-     ",
"     +33-     ",
"     +33-     ",
"     +33-     ",
"     +33-     ",
"     +33-     ",
"     +33-     ",
"     +33-     ",
"     +33-     ",
"#====;33,=====",
"&3333333333333",
"&3333333333333"
};
