/* XPM */
static char *_1[] = {
/* columns rows colors chars-per-pixel */
"7 11 49 1 ",
"  c #020202",
". c #060202",
"X c #150202",
"o c #160202",
"O c #190202",
"+ c #1B0202",
"@ c #210202",
"# c #3F0202",
"$ c #420101",
"% c #450101",
"& c #4B0101",
"* c #580101",
"= c #5F0101",
"- c #610101",
"; c #640101",
": c #6C0101",
"> c #6D0101",
", c #710101",
"< c #760101",
"1 c #780101",
"2 c #7F0101",
"3 c #810101",
"4 c #910101",
"5 c #960101",
"6 c #980101",
"7 c #9D0101",
"8 c #A40101",
"9 c #A70101",
"0 c #B00101",
"q c #B10101",
"w c #B60101",
"e c #BC0101",
"r c #C30000",
"t c #C40000",
"y c #C60000",
"u c #CD0000",
"i c #CF0000",
"p c #D60000",
"a c #D80000",
"s c #D90000",
"d c #E40000",
"f c #EA0000",
"g c #F10000",
"h c #F20000",
"j c #F40000",
"k c #F60000",
"l c #F70000",
"z c #FE0000",
"x c red",
/* pixels */
":ugki; ",
",>%$4x=",
"     y0",
"    .p6",
" o13yt+",
" @eth9X",
"    Oaq",
"     2j",
"     8d",
"w-#&5z<",
"7slfr* "
};
