/* XPM */
static char *_1[] = {
/* columns rows colors chars-per-pixel */
"16 24 98 2 ",
"   c #020202",
".  c #030202",
"X  c #050202",
"o  c #070202",
"O  c #090202",
"+  c #0D0202",
"@  c #100202",
"#  c #130202",
"$  c #150202",
"%  c #170202",
"&  c #1D0202",
"*  c #220202",
"=  c #240202",
"-  c #280202",
";  c #2A0202",
":  c #2B0202",
">  c #2E0202",
",  c #2F0202",
"<  c #300202",
"1  c #320202",
"2  c #340202",
"3  c #350202",
"4  c #370202",
"5  c #380202",
"6  c #3B0202",
"7  c #3C0202",
"8  c #3E0202",
"9  c #3F0202",
"0  c #460101",
"q  c #4C0101",
"w  c #500101",
"e  c #550101",
"r  c #590101",
"t  c #5B0101",
"y  c #600101",
"u  c #610101",
"i  c #630101",
"p  c #6A0101",
"a  c #6B0101",
"s  c #710101",
"d  c #780101",
"f  c #7E0101",
"g  c #7F0101",
"h  c #800101",
"j  c #810101",
"k  c #840101",
"l  c #880101",
"z  c #960101",
"x  c #970101",
"c  c #990101",
"v  c #9A0101",
"b  c #A00101",
"n  c #A50101",
"m  c #AB0101",
"M  c #B00101",
"N  c #B10101",
"B  c #B20101",
"V  c #B50101",
"C  c #BA0101",
"Z  c #BC0101",
"A  c #C40000",
"S  c #C50000",
"D  c #C60000",
"F  c #C90000",
"G  c #CA0000",
"H  c #CB0000",
"J  c #CC0000",
"K  c #CD0000",
"L  c #CE0000",
"P  c #CF0000",
"I  c #D10000",
"U  c #D20000",
"Y  c #D30000",
"T  c #D50000",
"R  c #D70000",
"E  c #D90000",
"W  c #DC0000",
"Q  c #DD0000",
"!  c #DF0000",
"~  c #E10000",
"^  c #E40000",
"/  c #E70000",
"(  c #E80000",
")  c #EE0000",
"_  c #EF0000",
"`  c #F00000",
"'  c #F10000",
"]  c #F20000",
"[  c #F30000",
"{  c #F40000",
"}  c #F60000",
"|  c #F70000",
" . c #F90000",
".. c #FA0000",
"X. c #FB0000",
"o. c #FD0000",
"O. c #FE0000",
"+. c red",
/* pixels */
"X > i c S E ) O.) U b q X       ",
"0 +.+.+.+.+.+.+.+.+.+.+.P 1     ",
"0 +.+.O.~ D N N G ] +.+.+.' 3   ",
"3 z e %           O a } +.+.Y . ",
"                      t +.+.+.5 ",
"                      X ' +.+.u ",
"                        ! +.+.i ",
"                      $ ..+.+.2 ",
"                    X n +.+.A   ",
"        & = = - 9 p L +.+.Q *   ",
"        J +.+.+.+.+.+.! j @     ",
"        J +.+.+.+.+.+.F s +     ",
"        y d d h x K +.+.+.W :   ",
"                    4 T +.+.^ $ ",
"                      % ( +.+.l ",
"                        g +.+.R ",
"                        w +.+.| ",
"                        r +.+.) ",
"                        v +.+.H ",
"O                     6  .+.+.f ",
"/ g ,             $ d [ +.+./ # ",
"+.+.+._ S M m B U X.+.+.+.` 7   ",
"{ +.+.+.+.+.+.+.+.+.+.+.Z ;     ",
"o 8 f V I / o.` ~ C k <         "
};
