/* XPM */
static char *_2[] = {
/* columns rows colors chars-per-pixel */
"17 24 46 1 ",
"  c #020202",
". c #030202",
"X c #040202",
"o c #0A0202",
"O c #0B0202",
"+ c #0C0202",
"@ c #150202",
"# c #170202",
"$ c #210202",
"% c #2C0202",
"& c #300202",
"* c #430101",
"= c #410202",
"- c #4B0101",
"; c #560101",
": c #5D0101",
"> c #620101",
", c #730101",
"< c #790101",
"1 c #7E0101",
"2 c #840101",
"3 c #890101",
"4 c #8D0101",
"5 c #9E0101",
"6 c #A00101",
"7 c #A30101",
"8 c #A60101",
"9 c #AC0101",
"0 c #B40101",
"q c #C20000",
"w c #C60000",
"e c #C70000",
"r c #D50000",
"t c #D90000",
"y c #DB0000",
"u c #DC0000",
"i c #E90000",
"p c #ED0000",
"a c #F30000",
"s c #F80000",
"d c #F90000",
"f c #FA0000",
"g c #FC0000",
"h c #FD0000",
"j c #FE0000",
"k c red",
/* pixels */
"         5kkk9   ",
"        =jkkk9   ",
"       Oykhkk9   ",
"       3ks6kk9   ",
"      &fk1<kk9   ",
"     Xwkto<kk9   ",
"     ,kj* <kk9   ",
"    $ak6  <kk9   ",
"    0kp#  <kk9   ",
"   :kk>   <kk9   ",
"  @ikq.   <kk9   ",
"  7kd%    <kk9   ",
" *jk2     <kk9   ",
"+ukyO     <kk9   ",
"4kk-      <kk9   ",
"gkr;;;;;;;8kke;;;",
"kkkkkkkkkkkkkkkkk",
"kkkkkkkkkkkkkkkkk",
";;;;;;;;;;8kke;;;",
"          <kk9   ",
"          <kk9   ",
"          <kk9   ",
"          <kk9   ",
"          <kk9   "
};
