/* XPM */
static char *_4[] = {
/* columns rows colors chars-per-pixel */
"7 11 54 1 ",
"  c #020202",
". c #030202",
"X c #080202",
"o c #0E0202",
"O c #140202",
"+ c #150202",
"@ c #170202",
"# c #250202",
"$ c #300202",
"% c #320202",
"& c #380202",
"* c #3C0202",
"= c #400202",
"- c #410202",
"; c #570101",
": c #5C0101",
"> c #620101",
", c #680101",
"< c #6B0101",
"1 c #6E0101",
"2 c #700101",
"3 c #870101",
"4 c #8C0101",
"5 c #8D0101",
"6 c #920101",
"7 c #990101",
"8 c #9A0101",
"9 c #9F0101",
"0 c #A60101",
"q c #A70101",
"w c #AC0101",
"e c #C00000",
"r c #C30000",
"t c #CB0000",
"y c #CD0000",
"u c #D00000",
"i c #D10000",
"p c #D60000",
"a c #D70000",
"s c #DD0000",
"d c #E30000",
"f c #E70000",
"g c #EA0000",
"h c #EB0000",
"j c #EE0000",
"k c #F30000",
"l c #F40000",
"z c #F50000",
"x c #F60000",
"c c #F70000",
"v c #F80000",
"b c #FA0000",
"n c #FE0000",
"m c red",
/* pixels */
" O8gcu&",
"Xta:-2*",
"1k@    ",
"r9X$+  ",
"j0dcmwo",
"bn;.%h4",
"fe   3s",
"yq   <z",
"6i.  7i",
"#l5%,v>",
" =yxp,."
};
