/* XPM */
static char *_7[] = {
/* columns rows colors chars-per-pixel */
"7 11 52 1 ",
"  c #020202",
". c #030202",
"X c #060202",
"o c #080202",
"O c #0F0202",
"+ c #110202",
"@ c #130202",
"# c #170202",
"$ c #230202",
"% c #2C0202",
"& c #320202",
"* c #3A0202",
"= c #3D0202",
"- c #3F0202",
"; c #410202",
": c #580101",
"> c #5D0101",
", c #640101",
"< c #670101",
"1 c #690101",
"2 c #6A0101",
"3 c #6F0101",
"4 c #860101",
"5 c #8D0101",
"6 c #8E0101",
"7 c #910101",
"8 c #970101",
"9 c #9A0101",
"0 c #A10101",
"q c #A60101",
"w c #A90101",
"e c #C10000",
"r c #CB0000",
"t c #CC0000",
"y c #D00000",
"u c #D20000",
"i c #D30000",
"p c #D70000",
"a c #D80000",
"s c #DE0000",
"d c #E20000",
"f c #E60000",
"g c #EA0000",
"h c #ED0000",
"j c #F30000",
"k c #F40000",
"l c #F50000",
"z c #F70000",
"x c #F80000",
"c c #FA0000",
"v c #FE0000",
"b c red",
/* pixels */
".1pzt- ",
",x<&6j$",
"i8  .u7",
"l2   qt",
"s4   ef",
"5g&.:vc",
"Owbzdqh",
"  +%X0e",
"    #k2",
"=3;>aro",
"*yzg9@ "
};
