/* XPM */
static char *_7[] = {
/* columns rows colors chars-per-pixel */
"16 24 108 2 ",
"   c #020202",
".  c #030202",
"X  c #040202",
"o  c #080202",
"O  c #090202",
"+  c #0D0202",
"@  c #110202",
"#  c #120202",
"$  c #140202",
"%  c #160202",
"&  c #170202",
"*  c #190202",
"=  c #1A0202",
"-  c #1E0202",
";  c #210202",
":  c #220202",
">  c #240202",
",  c #2B0202",
"<  c #2F0202",
"1  c #320202",
"2  c #330202",
"3  c #350202",
"4  c #360202",
"5  c #420101",
"6  c #470101",
"7  c #490101",
"8  c #4D0101",
"9  c #520101",
"0  c #540101",
"q  c #5A0101",
"w  c #5B0101",
"e  c #5E0101",
"r  c #620101",
"t  c #650101",
"y  c #690101",
"u  c #6B0101",
"i  c #6D0101",
"p  c #700101",
"a  c #750101",
"s  c #760101",
"d  c #770101",
"f  c #7A0101",
"g  c #810101",
"h  c #820101",
"j  c #840101",
"k  c #870101",
"l  c #8A0101",
"z  c #8C0101",
"x  c #8F0101",
"c  c #930101",
"v  c #940101",
"b  c #9A0101",
"n  c #9F0101",
"m  c #A00101",
"M  c #A10101",
"N  c #A20101",
"B  c #A40101",
"V  c #A50101",
"C  c #A60101",
"Z  c #A70101",
"A  c #AB0101",
"S  c #AC0101",
"D  c #AF0101",
"F  c #B00101",
"G  c #B20101",
"H  c #B50101",
"J  c #B70101",
"K  c #B80101",
"L  c #BA0101",
"P  c #BB0101",
"I  c #BD0101",
"U  c #C10000",
"Y  c #C20000",
"T  c #C50000",
"R  c #CC0000",
"E  c #CE0000",
"W  c #CF0000",
"Q  c #D10000",
"!  c #D20000",
"~  c #D40000",
"^  c #D90000",
"/  c #DB0000",
"(  c #DD0000",
")  c #DE0000",
"_  c #E00000",
"`  c #E40000",
"'  c #E60000",
"]  c #E70000",
"[  c #E80000",
"{  c #E90000",
"}  c #EA0000",
"|  c #EB0000",
" . c #EC0000",
".. c #F00000",
"X. c #F20000",
"o. c #F30000",
"O. c #F40000",
"+. c #F50000",
"@. c #F60000",
"#. c #F70000",
"$. c #F80000",
"%. c #F90000",
"&. c #FA0000",
"*. c #FB0000",
"=. c #FC0000",
"-. c #FD0000",
";. c #FE0000",
":. c red",
/* pixels */
"      O y J ' &.| E h ;         ",
"    4 _ :.:.:.:.:.:.:.o.r       ",
"  3 +.:.:.X.V g x ! :.:.;.e     ",
"o ( :.:.T *       . u -.:.$.:   ",
"r :.:.} %             z :.:.B   ",
"G :.:.k               & &.:.$.@ ",
"` :.:.6                 W :.:.w ",
"#.:.:.<                 H :.:.c ",
"O.:.:.2                 L :.:.I ",
") :.:.0                 / :.:.) ",
"Z :.:.n               , ;.:.:. .",
"9 :.:.%.1           X H :.:.:.%.",
"X R :.:.{ 8 .     = A :.:.:.:.#.",
"  > ' :.:.:.' Y Q =.:.:.v :.:.] ",
"    - K :.:.:.:.:.:...e 7 :.:.~ ",
"        1 f M D b t #   a :.:.C ",
"                        F :.:.p ",
"                      # @.:.-.: ",
"                      j :.:.J   ",
"                    5 $.:.=.4   ",
"  q i &         + s @.:.:.l     ",
"  h :.*.^ P S Y #.:.:.:.N X     ",
"  h :.:.:.:.:.:.:.:.+.d X       ",
"  $ q m Q [ %.` U s -           "
};
