/* XPM */
static char *_9[] = {
/* columns rows colors chars-per-pixel */
"5 20 19 1 ",
"  c #020202",
". c #0B0202",
"X c #1B0202",
"o c #360202",
"O c #4C0101",
"+ c #5D0101",
"@ c #7C0101",
"# c #900101",
"$ c #940101",
"% c #9A0101",
"& c #9E0101",
"* c #BA0101",
"= c #C00000",
"- c #DB0000",
"; c #EE0000",
": c #F30000",
"> c #F60000",
", c #FD0000",
"< c red",
/* pixels */
" %<<<",
" %<<<",
" %<<<",
" #;;;",
"     ",
"     ",
"     ",
"     ",
"     ",
"     ",
"     ",
"     ",
" +%%%",
" %<<<",
" %<<<",
" *<<=",
".><,o",
"O<<& ",
"$<:X ",
"-<@  "
};
