/* XPM */
static char *_0[] = {
/* columns rows colors chars-per-pixel */
"20 17 53 1 ",
"  c #020202",
". c #040202",
"X c #070202",
"o c #090202",
"O c #0B0202",
"+ c #0F0202",
"@ c #120202",
"# c #180202",
"$ c #190202",
"% c #1C0202",
"& c #1D0202",
"* c #1F0202",
"= c #200202",
"- c #240202",
"; c #260202",
": c #2D0202",
"> c #330202",
", c #3A0202",
"< c #3E0202",
"1 c #400202",
"2 c #4D0101",
"3 c #4E0101",
"4 c #560101",
"5 c #5F0101",
"6 c #700101",
"7 c #760101",
"8 c #780101",
"9 c #810101",
"0 c #890101",
"q c #920101",
"w c #940101",
"e c #990101",
"r c #A80101",
"t c #AB0101",
"y c #B40101",
"u c #BC0101",
"i c #CC0000",
"p c #D10000",
"a c #D50000",
"s c #D80000",
"d c #D90000",
"f c #E10000",
"g c #E30000",
"h c #E80000",
"j c #ED0000",
"k c #EF0000",
"l c #F40000",
"z c #F60000",
"x c #F90000",
"c c #FB0000",
"v c #FC0000",
"b c #FE0000",
"n c red",
/* pixels */
"                 %6i",
"              O4ycnn",
"           X2rznnnnl",
"         :0hnnnnvu5+",
"      =8dnnnnni6$   ",
"   @5ubnnnna9;      ",
"o3txnnnngq<         ",
"knnnnje1.           ",
"nnnbwO              ",
"knnnnhq,            ",
"o3txnnnnfq>         ",
"   @5ubnnnna9-      ",
"      *8snnnnni6#   ",
"         :0hnnnnvu5+",
"           X2rznnnnl",
"              O4ycnn",
"                 &7p"
};
