/* XPM */
static char *_2[] = {
/* columns rows colors chars-per-pixel */
"20 17 54 1 ",
"  c #020202",
". c #030202",
"X c #040202",
"o c #070202",
"O c #0B0202",
"+ c #0C0202",
"@ c #0D0202",
"# c #100202",
"$ c #130202",
"% c #180202",
"& c #1D0202",
"* c #1E0202",
"= c #1F0202",
"- c #230202",
"; c #270202",
": c #2C0202",
"> c #2D0202",
", c #3C0202",
"< c #3E0202",
"1 c #410101",
"2 c #4D0101",
"3 c #4E0101",
"4 c #5F0101",
"5 c #670101",
"6 c #700101",
"7 c #760101",
"8 c #810101",
"9 c #890101",
"0 c #940101",
"q c #990101",
"w c #9A0101",
"e c #9C0101",
"r c #A80101",
"t c #AB0101",
"y c #BC0101",
"u c #C40000",
"i c #CC0000",
"p c #CE0000",
"a c #D10000",
"s c #D50000",
"d c #DB0000",
"f c #DD0000",
"g c #E00000",
"h c #E90000",
"j c #EE0000",
"k c #EF0000",
"l c #F40000",
"z c #F60000",
"x c #F90000",
"c c #FA0000",
"v c #FC0000",
"b c #FD0000",
"n c #FE0000",
"m c red",
/* pixels */
"s8-                 ",
"mmbu5#              ",
"lmmmmzr2o           ",
"O3tcmmmmjw<.        ",
"   $4ynmmmmg9;      ",
"      =6pmmmmmi6%   ",
"         >8fmmmmvy4@",
"           X1ejmmmmk",
"              @qmmmm",
"           .,0hmmmmk",
"         :8dmmmmvy4+",
"      *6ummmmmi6%   ",
"   $4ynmmmmg9;      ",
"O3txmmmmjw<.        ",
"lmmmmzr2o           ",
"mmbu5#              ",
"a7&                 "
};
