/* XPM */
static char *_4[] = {
/* columns rows colors chars-per-pixel */
"28 28 162 2 ",
"   c #020202",
".  c #030202",
"X  c #040202",
"o  c #050202",
"O  c #060202",
"+  c #070202",
"@  c #080202",
"#  c #090202",
"$  c #0B0202",
"%  c #0E0202",
"&  c #0F0202",
"*  c #100202",
"=  c #120202",
"-  c #130202",
";  c #150202",
":  c #170202",
">  c #180202",
",  c #1A0202",
"<  c #1B0202",
"1  c #1E0202",
"2  c #1F0202",
"3  c #200202",
"4  c #230202",
"5  c #240202",
"6  c #250202",
"7  c #270202",
"8  c #280202",
"9  c #2B0202",
"0  c #2D0202",
"q  c #2E0202",
"w  c #310202",
"e  c #330202",
"r  c #350202",
"t  c #360202",
"y  c #370202",
"u  c #3B0202",
"i  c #3C0202",
"p  c #3D0202",
"a  c #3E0202",
"s  c #3F0202",
"d  c #410101",
"f  c #420101",
"g  c #430101",
"h  c #400202",
"j  c #410202",
"k  c #450101",
"l  c #470101",
"z  c #480101",
"x  c #490101",
"c  c #4A0101",
"v  c #4B0101",
"b  c #4D0101",
"n  c #4E0101",
"m  c #4F0101",
"M  c #500101",
"N  c #510101",
"B  c #530101",
"V  c #550101",
"C  c #560101",
"Z  c #570101",
"A  c #580101",
"S  c #5B0101",
"D  c #5D0101",
"F  c #5E0101",
"G  c #5F0101",
"H  c #610101",
"J  c #620101",
"K  c #630101",
"L  c #660101",
"P  c #690101",
"I  c #6A0101",
"U  c #6B0101",
"Y  c #6C0101",
"T  c #6D0101",
"R  c #700101",
"E  c #710101",
"W  c #750101",
"Q  c #760101",
"!  c #770101",
"~  c #780101",
"^  c #790101",
"/  c #7A0101",
"(  c #7C0101",
")  c #800101",
"_  c #810101",
"`  c #830101",
"'  c #8A0101",
"]  c #8C0101",
"[  c #8D0101",
"{  c #8F0101",
"}  c #920101",
"|  c #930101",
" . c #940101",
".. c #950101",
"X. c #960101",
"o. c #9A0101",
"O. c #9B0101",
"+. c #9C0101",
"@. c #9E0101",
"#. c #A00101",
"$. c #A20101",
"%. c #A40101",
"&. c #A60101",
"*. c #AE0101",
"=. c #B10101",
"-. c #B30101",
";. c #B50101",
":. c #B90101",
">. c #BB0101",
",. c #BC0101",
"<. c #BD0101",
"1. c #BF0000",
"2. c #BE0101",
"3. c #BF0101",
"4. c #C10000",
"5. c #C20000",
"6. c #C30000",
"7. c #C40000",
"8. c #C80000",
"9. c #C90000",
"0. c #CB0000",
"q. c #CC0000",
"w. c #CD0000",
"e. c #D00000",
"r. c #D10000",
"t. c #D20000",
"y. c #D40000",
"u. c #D50000",
"i. c #D70000",
"p. c #D80000",
"a. c #D90000",
"s. c #DA0000",
"d. c #DC0000",
"f. c #DD0000",
"g. c #DE0000",
"h. c #DF0000",
"j. c #E10000",
"k. c #E20000",
"l. c #E30000",
"z. c #E40000",
"x. c #E50000",
"c. c #E60000",
"v. c #E70000",
"b. c #EA0000",
"n. c #EB0000",
"m. c #EC0000",
"M. c #EF0000",
"N. c #F00000",
"B. c #F10000",
"V. c #F20000",
"C. c #F30000",
"Z. c #F40000",
"A. c #F60000",
"S. c #F70000",
"D. c #F80000",
"F. c #F90000",
"G. c #FA0000",
"H. c #FB0000",
"J. c #FC0000",
"K. c #FD0000",
"L. c #FE0000",
"P. c red",
/* pixels */
"                  4 U =.t.v.J.B.d.-.W 8                 ",
"              d 4.P.P.P.P.P.P.P.P.P.P.L.<.a             ",
"          < >.P.P.P.g.@.P N k Z R +.n.P.P.P.$.*         ",
"        u x.P.P.;.p .               O x w.P.P.u.3       ",
"      a D.P.c.x                         o U A.P.f.>     ",
"    4 b.P.t.,                               u B.P.1.X   ",
"  . 8.P.h.:                                   z K.P.I   ",
"  C P.J.y           6 | e.k.t.@.i   l o.(        .P.x.@ ",
". a.P.o.          S D.P.P.P.P.P.L.| ! P.w.      < F.P.Z ",
"t P.K.5         j K.P.H.%.L H } V.P.v.P.w.        -.P.#.",
"` P.6.        . u.P.A.s         4 j.P.P.w.        Q P.i.",
"4.P._         a P.P.(             x P.P.w.        A P.M.",
"s.P.V         ^ P.P.2             . c.P.w.        b P.D.",
"C.P.g         | P.Z.                2.P.w.        F P.z.",
"C.P.z         X.P.B.                :.P.w.        [ P.3.",
"d.P.G         ) P.L.;               p.P.w.      o h.P./ ",
"7.P._         v P.P.K             0 L.P.w.      Y P.Z., ",
"] P.9.        # v.P.c.1         $ 5.P.P.w.    N F.P.~   ",
"h P.K.2         J P.P.v.E r q D r.P.S.P.u.M *.L.P.@..   ",
"O c.P.O.          ' P.P.P.P.P.P.P.3._ P.P.P.P.B.T       ",
"  P P.J.w           c 2.G.P.J.0.I o Q P.Z.,.W =         ",
"  + a.P.g.>             . - .       = *                 ",
"    e C.P.9.:                                           ",
"      m J.P.k.y                         & | u           ",
"        n N.P.K.&.9                 * R l.P.v.<         ",
"          7 w.P.P.P.y.{ K b f V Q ;.Z.P.P.V.T X         ",
"            . V y.P.P.P.P.P.P.P.P.P.P.M.] 1             ",
"                  w ^ >.u.m.F.z.q...B %                 "
};
