/* XPM */
static char *_5[] = {
/* columns rows colors chars-per-pixel */
"10 11 45 1 ",
"  c #020202",
". c #030202",
"X c #040202",
"o c #060202",
"O c #100202",
"+ c #120202",
"@ c #130202",
"# c #160202",
"$ c #170202",
"% c #1D0202",
"& c #280202",
"* c #2C0202",
"= c #350202",
"- c #3A0202",
"; c #3B0202",
": c #420101",
"> c #4C0101",
", c #4D0101",
"< c #670101",
"1 c #690101",
"2 c #6F0101",
"3 c #810101",
"4 c #850101",
"5 c #860101",
"6 c #8A0101",
"7 c #8B0101",
"8 c #9F0101",
"9 c #AD0101",
"0 c #B70101",
"q c #BC0101",
"w c #C70000",
"e c #C80000",
"r c #CF0000",
"t c #DE0000",
"y c #E10000",
"u c #E50000",
"i c #E80000",
"p c #F20000",
"a c #F50000",
"s c #F70000",
"d c #F90000",
"f c #FA0000",
"g c #FD0000",
"h c #FE0000",
"j c red",
/* pixels */
"   Oas+   ",
"   <pp1   ",
"   w88e   ",
"  &h::j*  ",
"  6yX.t7  ",
" ou5  4io ",
" >j;@@-j, ",
" 9jjjjjj9 ",
"#d5====3d#",
"2g%    $f2",
"rq      0r"
};
