/* XPM */
static char *_6[] = {
/* columns rows colors chars-per-pixel */
"17 24 78 1 ",
"  c #020202",
". c #030202",
"X c #090202",
"o c #0F0202",
"O c #110202",
"+ c #120202",
"@ c #130202",
"# c #140202",
"$ c #160202",
"% c #170202",
"& c #1D0202",
"* c #1E0202",
"= c #220202",
"- c #250202",
"; c #280202",
": c #3D0202",
"> c #410101",
", c #400202",
"< c #440101",
"1 c #470101",
"2 c #490101",
"3 c #4C0101",
"4 c #590101",
"5 c #6B0101",
"6 c #6E0101",
"7 c #6F0101",
"8 c #710101",
"9 c #720101",
"0 c #740101",
"q c #760101",
"w c #770101",
"e c #810101",
"r c #820101",
"t c #890101",
"y c #8A0101",
"u c #900101",
"i c #920101",
"p c #9A0101",
"a c #9D0101",
"s c #A50101",
"d c #A60101",
"f c #AB0101",
"g c #AE0101",
"h c #B10101",
"j c #B70101",
"k c #BF0000",
"l c #BF0101",
"z c #C10000",
"x c #C40000",
"c c #C50000",
"v c #C70000",
"b c #C90000",
"n c #CB0000",
"m c #D00000",
"M c #D10000",
"N c #D20000",
"B c #D30000",
"V c #D40000",
"C c #DB0000",
"Z c #DC0000",
"A c #DE0000",
"S c #E00000",
"D c #E10000",
"F c #E40000",
"G c #E60000",
"H c #EB0000",
"J c #ED0000",
"K c #EE0000",
"L c #F00000",
"P c #F10000",
"I c #F40000",
"U c #F50000",
"Y c #F60000",
"T c #F70000",
"R c #F80000",
"E c #FD0000",
"W c #FE0000",
"Q c red",
/* pixels */
"QQQQQQQQEKma1.   ",
"QQQQQQQQQQQQQz*  ",
"QQQkffffjBTQQQZo ",
"QQQ,      OuQQQr ",
"QQQ,        gQQB ",
"QQQ,        4QQU ",
"QQQ,        2QQJ ",
"QQQ,        8QQn ",
"QQQ,       %SQQe ",
"QQQ3@@@@;>qFQQVo ",
"QQQQQQQQQQQQHi+  ",
"QQQQQQQQQQQQb5X  ",
"QQQdtttttacEQQM& ",
"QQQ,       -vQQNX",
"QQQ,        #JQQ6",
"QQQ,         pQQx",
"QQQ,         0QQL",
"QQQ,         wQQR",
"QQQ,         sQQD",
"QQQ,        =YQQs",
"QQQ,      .<CQQW:",
"QQQkffffflGQQQQy ",
"QQQQQQQQQQQQQI9  ",
"QQQQQQQQQPAh7$   "
};
