/* XPM */
static char *_8[] = {
/* columns rows colors chars-per-pixel */
"9 11 33 1 ",
"  c #020202",
". c #030202",
"X c #040202",
"o c #350202",
"O c #440101",
"+ c #500101",
"@ c #540101",
"# c #5D0101",
"$ c #610101",
"% c #650101",
"& c #660101",
"* c #740101",
"= c #900101",
"- c #A30101",
"; c #A60101",
": c #A80101",
"> c #A90101",
", c #AA0101",
"< c #AF0101",
"1 c #B10101",
"2 c #BD0101",
"3 c #BF0101",
"4 c #D70000",
"5 c #D80000",
"6 c #E20000",
"7 c #E30000",
"8 c #EC0000",
"9 c #ED0000",
"0 c #F70000",
"q c #F80000",
"w c #FB0000",
"e c #FE0000",
"r c red",
/* pixels */
"rrrq71@  ",
"r=oO&:e;X",
"r*    %r$",
"r*     43",
"r*     >9",
"r*     =w",
"r*     ,8",
"r*     52",
"r*    &r#",
"r=oO&:e-.",
"rrr06<+  "
};
