/* XPM */
static char *_9[] = {
/* columns rows colors chars-per-pixel */
"15 24 16 1 ",
"  c #020202",
". c #0B0202",
"X c #240202",
"o c #280202",
"O c #2B0202",
"+ c #3E0202",
"@ c #490101",
"# c #880101",
"$ c #930101",
"% c #A30101",
"& c #B90101",
"* c #BC0101",
"= c #BD0101",
"- c #C50000",
"; c #C60000",
": c red",
/* pixels */
"::::::::::::::&",
"::::::::::::::&",
":::;==========#",
":::o           ",
":::o           ",
":::o           ",
":::o           ",
":::o           ",
":::o           ",
":::@OOOOOOOOOO.",
"::::::::::::::+",
"::::::::::::::+",
":::%$$$$$$$$$$X",
":::o           ",
":::o           ",
":::o           ",
":::o           ",
":::o           ",
":::o           ",
":::o           ",
":::o           ",
":::-***********",
":::::::::::::::",
":::::::::::::::"
};
