/* XPM */
static char *_0[] = {
/* columns rows colors chars-per-pixel */
"6 11 11 1 ",
"  c #020202",
". c #420101",
"X c #480101",
"o c #6A0101",
"O c #6B0101",
"+ c #820101",
"@ c #910101",
"# c #B60101",
"$ c #BF0000",
"% c #D90000",
"& c red",
/* pixels */
"&&&&&&",
"&@....",
"&O    ",
"&O    ",
"&#+++X",
"&%$$$o",
"&O    ",
"&O    ",
"&O    ",
"&O    ",
"&O    "
};
