/* XPM */
static char *_4[] = {
/* columns rows colors chars-per-pixel */
"4 14 15 1 ",
"  c #020202",
". c #0C0202",
"X c #480101",
"o c #830101",
"O c #8C0101",
"+ c #950101",
"@ c #960101",
"# c #9E0101",
"$ c #C20000",
"% c #D70000",
"& c #DD0000",
"* c #F60000",
"= c #FC0000",
"- c #FE0000",
"; c red",
/* pixels */
"  @;",
"  @;",
"  @;",
"  @;",
"  @;",
"  @;",
"  @;",
"  @;",
"  @;",
"  @;",
"  #*",
"  $%",
"Xo-O",
"=&+."
};
