/* XPM */
static char *_7[] = {
/* columns rows colors chars-per-pixel */
"22 24 78 1 ",
"  c #020202",
". c #030202",
"X c #060202",
"o c #080202",
"O c #0A0202",
"+ c #0B0202",
"@ c #0C0202",
"# c #0D0202",
"$ c #110202",
"% c #130202",
"& c #150202",
"* c #1E0202",
"= c #200202",
"- c #210202",
"; c #2A0202",
": c #2B0202",
"> c #2D0202",
", c #2E0202",
"< c #2F0202",
"1 c #330202",
"2 c #3A0202",
"3 c #3F0202",
"4 c #480101",
"5 c #4A0101",
"6 c #4B0101",
"7 c #4C0101",
"8 c #4F0101",
"9 c #540101",
"0 c #570101",
"q c #5A0101",
"w c #5B0101",
"e c #5F0101",
"r c #670101",
"t c #690101",
"y c #6A0101",
"u c #6B0101",
"i c #710101",
"p c #780101",
"a c #7C0101",
"s c #7D0101",
"d c #800101",
"f c #890101",
"g c #8B0101",
"h c #8D0101",
"j c #920101",
"k c #990101",
"l c #9E0101",
"z c #AA0101",
"x c #AC0101",
"c c #AF0101",
"v c #B40101",
"b c #B80101",
"n c #BA0101",
"m c #BB0101",
"M c #BF0101",
"N c #C70000",
"B c #C80000",
"V c #C90000",
"C c #CA0000",
"Z c #CF0000",
"A c #D80000",
"S c #D90000",
"D c #DA0000",
"F c #DC0000",
"G c #E70000",
"H c #E80000",
"J c #EA0000",
"K c #EF0000",
"L c #F00000",
"P c #F20000",
"I c #F60000",
"U c #F70000",
"Y c #F80000",
"T c #F90000",
"R c #FB0000",
"E c #FC0000",
"W c #FD0000",
"Q c red",
/* pixels */
"QQQQU%          $IQQQQ",
"QQQQQy          uQQQQQ",
"QQQQQV          CQQQQQ",
"QQQBQQ:        >QQNQQQ",
"QQQtQQf        hQQtQQQ",
"QQQ:FQGX      XGQD<QQQ",
"QQQ;dQQ6      8QQa,QQQ",
"QQQ;-WQz      cQW=,QQQ",
"QQQ; MQT&    &YQn ,QQQ",
"QQQ; eQQu    iQQq ,QQQ",
"QQQ; #PQC    ZQL@ ,QQQ",
"QQQ;  lQQ<  1QQk  ,QQQ",
"QQQ;  3QQg  jQQ2  ,QQQ",
"QQQ;   AQHXoJQS.  ,QQQ",
"QQQ;   sQQ79QQp   ,QQQ",
"QQQ;   *EQxvQW*   ,QQQ",
"QQQ;    mQYRQb    ,QQQ",
"QQQ;    wQQQQ0    ,QQQ",
"QQQ;    OKQQL+    ,QQQ",
"QQQ;     5rr4     ,QQQ",
"QQQ;              ,QQQ",
"QQQ;              ,QQQ",
"QQQ;              ,QQQ",
"QQQ;              ,QQQ"
};
