/* XPM */
static char *_8[] = {
/* columns rows colors chars-per-pixel */
"8 11 23 1 ",
"  c #020202",
". c #2F0202",
"X c #320202",
"o c #350202",
"O c #360202",
"+ c #380202",
"@ c #3A0202",
"# c #3D0202",
"$ c #400202",
"% c #640101",
"& c #A40101",
"* c #A50101",
"= c #B10101",
"- c #B50101",
"; c #B60101",
": c #BA0101",
"> c #BB0101",
", c #BF0101",
"< c #C20000",
"1 c #FC0000",
"2 c #FD0000",
"3 c #FE0000",
"4 c red",
/* pixels */
"43X   %4",
"41=   %4",
"4*4+  %4",
"4%,-  %4",
"4%#4@ %4",
"4% >: %4",
"4% O3$%4",
"4%  ;<%4",
"4%  o3&4",
"4%   =14",
"4%   .24"
};
