/* XPM */
static char *_9[] = {
/* columns rows colors chars-per-pixel */
"22 24 88 1 ",
"  c #020202",
". c #080202",
"X c #090202",
"o c #0A0202",
"O c #0F0202",
"+ c #100202",
"@ c #110202",
"# c #120202",
"$ c #200202",
"% c #210202",
"& c #220202",
"* c #250202",
"= c #260202",
"- c #270202",
"; c #2B0202",
": c #2C0202",
"> c #320202",
", c #330202",
"< c #360202",
"1 c #380202",
"2 c #390202",
"3 c #3B0202",
"4 c #5B0101",
"5 c #5D0101",
"6 c #640101",
"7 c #660101",
"8 c #670101",
"9 c #6A0101",
"0 c #6C0101",
"q c #6D0101",
"w c #6E0101",
"e c #790101",
"r c #7A0101",
"t c #7B0101",
"y c #7D0101",
"u c #7E0101",
"i c #880101",
"p c #8A0101",
"a c #8F0101",
"s c #910101",
"d c #950101",
"f c #970101",
"g c #980101",
"h c #990101",
"j c #9A0101",
"k c #9B0101",
"l c #9C0101",
"z c #A50101",
"x c #A60101",
"c c #B20101",
"v c #B30101",
"b c #B40101",
"n c #B50101",
"m c #BF0000",
"M c #BE0101",
"N c #BF0101",
"B c #CE0000",
"V c #CF0000",
"C c #D00000",
"Z c #D10000",
"A c #DC0000",
"S c #DD0000",
"D c #DE0000",
"F c #DF0000",
"G c #E00000",
"H c #E10000",
"J c #E30000",
"K c #E50000",
"L c #E60000",
"P c #E70000",
"I c #EA0000",
"U c #EB0000",
"Y c #EC0000",
"T c #ED0000",
"R c #EE0000",
"E c #EF0000",
"W c #F00000",
"Q c #F10000",
"! c #F20000",
"~ c #F40000",
"^ c #F50000",
"/ c #F60000",
"( c #F70000",
") c #FA0000",
"_ c #FB0000",
"` c #FD0000",
"' c #FE0000",
"] c red",
/* pixels */
"      ;rNG^^Hmt:      ",
"    $z`]]]]]]]]'x$    ",
"   2I]]]WvddcE]]]I2   ",
"  <^]]Y7X    .6U]]^<  ",
" @S]]J=        %F]]A@ ",
" p]]),          >_]]i ",
"+W]]a            s]]EO",
"5]]'*            =']]4",
"k]]V              Z]]h",
"V]]j              l]]B",
"L]]t              y]]J",
"(]]0              q]]/",
"/]]0              w]]^",
"K]]t              u]]J",
"C]]j              l]]B",
"k]]V              Z]]h",
"5]]'*            -']]4",
"+W]]a            s]]EO",
" p]]_,          ,_]]i ",
" #D]]P;        &F]]S@ ",
"  1/]]R9o    X8T]]/1  ",
"   3U]]]!ngfbQ]]]U3   ",
"    $z`]]]]]]]]`x$    ",
"      ;eMD~^DMr:      "
};
