/* XPM */
static char *_0[] = {
/* columns rows colors chars-per-pixel */
"7 11 27 1 ",
"  c #020202",
". c #080202",
"X c #100202",
"o c #1A0202",
"O c #350202",
"+ c #410101",
"@ c #480101",
"# c #6C0101",
"$ c #780101",
"% c #8B0101",
"& c #8E0101",
"* c #8F0101",
"= c #930101",
"- c #990101",
"; c #9A0101",
": c #AB0101",
"> c #B10101",
", c #B70101",
"< c #C80000",
"1 c #D20000",
"2 c #D60000",
"3 c #DE0000",
"4 c #E80000",
"5 c #F30000",
"6 c #F40000",
"7 c #F80000",
"8 c red",
/* pixels */
"88872$.",
"8=O+%8*",
"8$   ,3",
"8$   -5",
"8$  X3<",
"81:>46@",
"8<;&#o ",
"8$     ",
"8$     ",
"8$     ",
"8$     "
};
