/* XPM */
static char *_3[] = {
/* columns rows colors chars-per-pixel */
"17 24 107 2 ",
"   c #020202",
".  c #030202",
"X  c #040202",
"o  c #060202",
"O  c #080202",
"+  c #090202",
"@  c #0C0202",
"#  c #0F0202",
"$  c #100202",
"%  c #110202",
"&  c #120202",
"*  c #150202",
"=  c #170202",
"-  c #1E0202",
";  c #210202",
":  c #250202",
">  c #290202",
",  c #2D0202",
"<  c #2E0202",
"1  c #300202",
"2  c #380202",
"3  c #390202",
"4  c #3A0202",
"5  c #410101",
"6  c #430101",
"7  c #470101",
"8  c #4C0101",
"9  c #4F0101",
"0  c #500101",
"q  c #530101",
"w  c #540101",
"e  c #550101",
"r  c #5B0101",
"t  c #620101",
"y  c #660101",
"u  c #670101",
"i  c #6B0101",
"p  c #6E0101",
"a  c #6F0101",
"s  c #710101",
"d  c #760101",
"f  c #7A0101",
"g  c #7C0101",
"h  c #7D0101",
"j  c #7E0101",
"k  c #810101",
"l  c #850101",
"z  c #880101",
"x  c #890101",
"c  c #8B0101",
"v  c #900101",
"b  c #910101",
"n  c #920101",
"m  c #930101",
"M  c #950101",
"N  c #960101",
"B  c #980101",
"V  c #9A0101",
"C  c #9B0101",
"Z  c #9D0101",
"A  c #A10101",
"S  c #A30101",
"D  c #A60101",
"F  c #AC0101",
"G  c #AD0101",
"H  c #AF0101",
"J  c #B00101",
"K  c #B60101",
"L  c #B90101",
"P  c #BB0101",
"I  c #BD0101",
"U  c #BF0101",
"Y  c #C00000",
"T  c #C30000",
"R  c #C40000",
"E  c #C70000",
"W  c #CB0000",
"Q  c #CC0000",
"!  c #CE0000",
"~  c #D20000",
"^  c #D40000",
"/  c #D50000",
"(  c #DB0000",
")  c #DC0000",
"_  c #DD0000",
"`  c #DE0000",
"'  c #DF0000",
"]  c #E00000",
"[  c #E10000",
"{  c #E30000",
"}  c #E60000",
"|  c #E80000",
" . c #EC0000",
".. c #EE0000",
"X. c #F00000",
"o. c #F10000",
"O. c #F30000",
"+. c #F40000",
"@. c #F50000",
"#. c #F60000",
"$. c #F90000",
"%. c #FA0000",
"&. c #FB0000",
"*. c #FC0000",
"=. c #FD0000",
"-. c #FE0000",
";. c red",
/* pixels */
"      % y G _ X.=.| ^ U n w =     ",
"    t ..;.;.;.;.;.;.;.;.;.;.-.g   ",
"  h ;.;.;.-.! H m N F ( -.;.;.c   ",
"4 =.;.;.L :             - i Q c   ",
"D ;.;.W o                     &   ",
"{ ;.;.u                           ",
"$.;.;.e                           ",
" .;.;.k                           ",
"L ;.;. .2                         ",
"0 ;.;.;.-.K i , .                 ",
"  v ;.;.;.;.;.;.o.Y x 8 +         ",
"    r ` ;.;.;.;.;.;.;.;...l $     ",
"      o 7 M ~ *.;.;.;.;.;.;.( >   ",
"              @ 3 d I &.;.;.;._ # ",
"                      < R ;.;.;.f ",
"                        @ ' ;.;.W ",
"                          z ;.;.o.",
"                          s ;.;.#.",
"                          B ;.;.) ",
"a *                     ; X.;.;.C ",
"} O.Z 6 o           X 8 ] ;.;.%.1 ",
"} ;.;.;.@.T S b A P } ;.;.;.-.p   ",
"C o.;.;.;.;.;.;.;.;.;.;.;.[ q     ",
"  O 5 j J / ..=.+.| E V 9 O       "
};
