/* XPM */
static char *_7[] = {
/* columns rows colors chars-per-pixel */
"30 24 135 2 ",
"   c #020202",
".  c #030202",
"X  c #040202",
"o  c #060202",
"O  c #070202",
"+  c #0A0202",
"@  c #0D0202",
"#  c #0F0202",
"$  c #110202",
"%  c #120202",
"&  c #140202",
"*  c #150202",
"=  c #180202",
"-  c #1A0202",
";  c #1B0202",
":  c #1C0202",
">  c #1D0202",
",  c #1E0202",
"<  c #1F0202",
"1  c #220202",
"2  c #240202",
"3  c #250202",
"4  c #260202",
"5  c #270202",
"6  c #2A0202",
"7  c #2C0202",
"8  c #2E0202",
"9  c #2F0202",
"0  c #310202",
"q  c #320202",
"w  c #370202",
"e  c #3C0202",
"r  c #3F0202",
"t  c #450101",
"y  c #460101",
"u  c #4B0101",
"i  c #4D0101",
"p  c #4E0101",
"a  c #4F0101",
"s  c #520101",
"d  c #540101",
"f  c #560101",
"g  c #570101",
"h  c #580101",
"j  c #590101",
"k  c #5B0101",
"l  c #5C0101",
"z  c #5D0101",
"x  c #5F0101",
"c  c #610101",
"v  c #620101",
"b  c #630101",
"n  c #640101",
"m  c #650101",
"M  c #660101",
"N  c #680101",
"B  c #6A0101",
"V  c #6B0101",
"C  c #6C0101",
"Z  c #6D0101",
"A  c #6E0101",
"S  c #700101",
"D  c #740101",
"F  c #780101",
"G  c #7C0101",
"H  c #820101",
"J  c #830101",
"K  c #8A0101",
"L  c #8B0101",
"P  c #8C0101",
"I  c #8E0101",
"U  c #900101",
"Y  c #920101",
"T  c #930101",
"R  c #950101",
"E  c #960101",
"W  c #970101",
"Q  c #9A0101",
"!  c #9B0101",
"~  c #9C0101",
"^  c #9E0101",
"/  c #A00101",
"(  c #A10101",
")  c #A20101",
"_  c #A30101",
"`  c #A40101",
"'  c #A50101",
"]  c #A60101",
"[  c #A70101",
"{  c #A90101",
"}  c #AA0101",
"|  c #AB0101",
" . c #AC0101",
".. c #AF0101",
"X. c #B10101",
"o. c #B50101",
"O. c #B90101",
"+. c #BF0101",
"@. c #C00000",
"#. c #C70000",
"$. c #C80000",
"%. c #C90000",
"&. c #CC0000",
"*. c #CE0000",
"=. c #D00000",
"-. c #D20000",
";. c #D30000",
":. c #D50000",
">. c #D80000",
",. c #D90000",
"<. c #DC0000",
"1. c #DE0000",
"2. c #DF0000",
"3. c #E00000",
"4. c #E10000",
"5. c #E20000",
"6. c #E40000",
"7. c #E50000",
"8. c #E60000",
"9. c #E70000",
"0. c #E80000",
"q. c #E90000",
"w. c #EA0000",
"e. c #EB0000",
"r. c #ED0000",
"t. c #EF0000",
"y. c #F30000",
"u. c #F50000",
"i. c #F80000",
"p. c #FA0000",
"a. c #FB0000",
"s. c #FC0000",
"d. c #FD0000",
"f. c #FE0000",
"g. c red",
/* pixels */
"3.g.g.z                 . e.g.g.w..                 c g.g.2.",
") g.g.!                 9 g.g.g.g.6                 / g.g.( ",
"b g.g.,.                Z g.g.g.g.N                 1.g.g.v ",
"2 g.g.g.;               | g.r.9.g.[               , g.g.g.2 ",
"  4.g.g.h             . 0.g.X.| g.8.              l g.g.5.  ",
"  ` g.g.W             6 g.g.D A g.g.4             ! g.g._   ",
"  m g.g.:.            N g.g.w 0 g.g.n             >.g.g.n   ",
"  5 g.g.f.=           ] g.y.o X t.g._           - f.g.g.3   ",
"    6.g.g.d           5.g.O.    o.g.5.          g g.g.7.    ",
"    [ g.g.Y         3 g.g.G     F g.g.1         R g.g.'     ",
"    N g.g.=.        v g.g.r     e g.g.x         ;.g.g.M     ",
"    6 g.g.d.*       ( g.i.+     O u.g.^       & d.g.g.5     ",
"      7.g.g.a       2.g.@.        +.g.<.      s g.g.8.      ",
"      } g.g.I     , g.g.J         H g.g.<     U g.g.[       ",
"      V g.g.&.    z g.g.y         t g.g.k     *.g.g.N       ",
"      7 g.g.s.%   ~ g.a.#         @ p.g.Q   $ s.g.g.6       ",
"      . q.g.g.u   ,.g.$.            %.g.>.  i g.g.q..       ",
"         .g.g.K - g.g.L             P g.g.: L g.g.{         ",
"        Z g.g.#.h g.g.p             a g.g.g %.g.g.B         ",
"        9 g.g.a._ g.d.&             & d.g.( p.g.g.7         ",
"        . e.g.g.p.g.=.                -.g.p.g.g.q..         ",
"          ..g.g.g.g.T                 E g.g.g.g.|           ",
"          S g.g.g.g.f                 j g.g.g.g.C           ",
"          q g.g.g.g.;                 > g.g.g.g.8           "
};
