/* XPM */
static char *_7[] = {
/* columns rows colors chars-per-pixel */
"14 11 63 1 ",
"  c #020202",
". c #060202",
"X c #0A0202",
"o c #0C0202",
"O c #0D0202",
"+ c #0E0202",
"@ c #1D0202",
"# c #1E0202",
"$ c #1F0202",
"% c #210202",
"& c #250202",
"* c #260202",
"= c #270202",
"- c #380202",
"; c #3A0202",
": c #410101",
"> c #420101",
", c #450101",
"< c #470101",
"1 c #5A0101",
"2 c #5C0101",
"3 c #5E0101",
"4 c #5F0101",
"5 c #600101",
"6 c #640101",
"7 c #650101",
"8 c #660101",
"9 c #770101",
"0 c #790101",
"q c #7F0101",
"w c #810101",
"e c #840101",
"r c #850101",
"t c #9A0101",
"y c #9C0101",
"u c #9E0101",
"i c #9F0101",
"p c #A00101",
"a c #A30101",
"s c #A50101",
"d c #A70101",
"f c #A90101",
"g c #B60101",
"h c #B80101",
"j c #BD0101",
"k c #BF0000",
"l c #C20000",
"z c #C60000",
"x c #C80000",
"c c #D90000",
"v c #DC0000",
"b c #DE0000",
"n c #DF0000",
"m c #E10000",
"M c #E20000",
"N c #E30000",
"B c #E40000",
"V c #F20000",
"C c #F50000",
"Z c #F70000",
"A c #F90000",
"S c #FA0000",
"D c red",
/* pixels */
"na   .VV.   sn",
"pM   ;ZC-   Bi",
"5D&  0kj9  =D4",
"$D6  hwqg  8D%",
" ba .V>:V. sv ",
" uN ;AoXZ- my ",
" 3D&0l  l9*D2 ",
" #D6he  rg7D@ ",
"  vdV,  <Vfc  ",
"  yASO  +SAt  ",
"  2Dz    xD1  "
};
