/* XPM */
static char *_0[] = {
/* columns rows colors chars-per-pixel */
"19 24 68 1 ",
"  c #020202",
". c #030202",
"X c #040202",
"o c #070202",
"O c #080202",
"+ c #0A0202",
"@ c #0C0202",
"# c #0E0202",
"$ c #100202",
"% c #130202",
"& c #150202",
"* c #1B0202",
"= c #1D0202",
"- c #210202",
"; c #240202",
": c #2B0202",
"> c #300202",
", c #340202",
"< c #3A0202",
"1 c #410101",
"2 c #410202",
"3 c #460101",
"4 c #4A0101",
"5 c #550101",
"6 c #5C0101",
"7 c #610101",
"8 c #6C0101",
"9 c #720101",
"0 c #750101",
"q c #790101",
"w c #7E0101",
"e c #810101",
"r c #870101",
"t c #8A0101",
"y c #930101",
"u c #970101",
"i c #A00101",
"p c #A40101",
"a c #A50101",
"s c #AA0101",
"d c #AF0101",
"f c #B40101",
"g c #B60101",
"h c #BC0101",
"j c #BF0101",
"k c #C30000",
"l c #C70000",
"z c #CD0000",
"x c #D00000",
"c c #D40000",
"v c #D50000",
"b c #D80000",
"n c #DC0000",
"m c #DF0000",
"M c #E40000",
"N c #E60000",
"B c #E80000",
"V c #EC0000",
"C c #EE0000",
"Z c #F20000",
"A c #F50000",
"S c #F70000",
"D c #F90000",
"F c #FB0000",
"G c #FC0000",
"H c #FD0000",
"J c #FE0000",
"K c red",
/* pixels */
"pKKKKKKKKKKKKKKKKKa",
"pKKKKKKKKKKKKKKKKKa",
"qhhhhhhhhhhhhhvKKKt",
"             #cKKx@",
"            .sKKC; ",
"            0KKH4  ",
"           1FKKw   ",
"          *NKKfX   ",
"         okKKm&    ",
"         uKKS,     ",
"        6KKK7      ",
"       >AKKy       ",
"      %nKKlO       ",
"     XgKKB=        ",
"     eKKF2         ",
"    3GKK9          ",
"   -VKKd.          ",
"  +zKKb$           ",
"  iKKZ:            ",
" 8KKJ5             ",
"<DKKr              ",
"MKKJjhhhhhhhhhhhhhh",
"KKKKKKKKKKKKKKKKKKK",
"KKKKKKKKKKKKKKKKKKK"
};
