/* XPM */
static char *_7[] = {
/* columns rows colors chars-per-pixel */
"15 19 78 1 ",
"  c #020202",
". c #030202",
"X c #050202",
"o c #070202",
"O c #080202",
"+ c #0C0202",
"@ c #110202",
"# c #180202",
"$ c #1D0202",
"% c #1F0202",
"& c #210202",
"* c #220202",
"= c #260202",
"- c #2A0202",
"; c #2B0202",
": c #2F0202",
"> c #390202",
", c #3C0202",
"< c #3E0202",
"1 c #3F0202",
"2 c #410101",
"3 c #4C0101",
"4 c #530101",
"5 c #680101",
"6 c #6F0101",
"7 c #710101",
"8 c #770101",
"9 c #780101",
"0 c #7B0101",
"q c #7C0101",
"w c #7E0101",
"e c #7F0101",
"r c #850101",
"t c #890101",
"y c #8D0101",
"u c #8E0101",
"i c #920101",
"p c #960101",
"a c #970101",
"s c #9C0101",
"d c #9E0101",
"f c #A00101",
"g c #A20101",
"h c #A50101",
"j c #AA0101",
"k c #AD0101",
"l c #AE0101",
"z c #AF0101",
"x c #B30101",
"c c #B70101",
"v c #C60000",
"b c #C80000",
"n c #CC0000",
"m c #CD0000",
"M c #CE0000",
"N c #CF0000",
"B c #D70000",
"V c #D90000",
"C c #DA0000",
"Z c #DB0000",
"A c #DD0000",
"S c #E00000",
"D c #E20000",
"F c #EA0000",
"G c #EB0000",
"H c #EF0000",
"J c #F10000",
"K c #F20000",
"L c #F30000",
"P c #F40000",
"I c #F50000",
"U c #F60000",
"Y c #F70000",
"T c #F90000",
"R c #FA0000",
"E c #FC0000",
"W c #FE0000",
"Q c red",
/* pixels */
"  $5lZLEGbt*   ",
" aWQQQQQQQQR8  ",
" xQEMgyyjFQQQ6 ",
" a7#     OeWQY#",
"           uQQ9",
"           %QQc",
"            KQD",
"   -qzNAAAAAEQL",
" @hWQQQQQQQQQQQ",
"ObQQWndy0999PQQ",
"6QQV:       JQQ",
"vQQ1       +WQQ",
"HQY.       2QQQ",
"TQTo       fQQQ",
"SQQ>      <EQQQ",
"dQQM&    3HWEQQ",
";YQQUktimQQrFQQ",
" 4IQQQQQQWuXFQQ",
"  =pCUKBs,  wtt"
};
