/* XPM */
static char *_8[] = {
/* columns rows colors chars-per-pixel */
"7 11 36 1 ",
"  c #020202",
". c #040202",
"X c #050202",
"o c #130202",
"O c #200202",
"+ c #210202",
"@ c #3B0202",
"# c #420101",
"$ c #4C0101",
"% c #580101",
"& c #5C0101",
"* c #620101",
"= c #640101",
"- c #690101",
"; c #6B0101",
": c #6C0101",
"> c #7B0101",
", c #870101",
"< c #940101",
"1 c #950101",
"2 c #970101",
"3 c #A40101",
"4 c #B80101",
"5 c #BF0000",
"6 c #CA0000",
"7 c #CC0000",
"8 c #DD0000",
"9 c #E30000",
"0 c #EB0000",
"q c #F00000",
"w c #F40000",
"e c #F60000",
"r c #F70000",
"t c #FB0000",
"y c #FC0000",
"u c red",
/* pixels */
"u$     ",
"u$     ",
"u$.Oo  ",
"u>8ey1X",
"u0@ #w*",
"u,   <6",
"u%   =q",
"u&   -0",
"u2   35",
"u0=+;t$",
"7%4r9: "
};
