/* XPM */
static char *_8[] = {
/* columns rows colors chars-per-pixel */
"16 25 72 1 ",
"  c #020202",
". c #030202",
"X c #040202",
"o c #050202",
"O c #080202",
"+ c #090202",
"@ c #0C0202",
"# c #0D0202",
"$ c #120202",
"% c #180202",
"& c #1A0202",
"* c #200202",
"= c #210202",
"- c #280202",
"; c #2B0202",
": c #2C0202",
"> c #320202",
", c #380202",
"< c #390202",
"1 c #3C0202",
"2 c #420101",
"3 c #460101",
"4 c #480101",
"5 c #490101",
"6 c #4B0101",
"7 c #4E0101",
"8 c #590101",
"9 c #610101",
"0 c #640101",
"q c #6A0101",
"w c #6F0101",
"e c #760101",
"r c #780101",
"t c #7C0101",
"y c #7F0101",
"u c #830101",
"i c #860101",
"p c #890101",
"a c #900101",
"s c #950101",
"d c #980101",
"f c #9B0101",
"g c #9D0101",
"h c #A50101",
"j c #A70101",
"k c #AB0101",
"l c #AE0101",
"z c #B30101",
"x c #B40101",
"c c #BA0101",
"v c #BD0101",
"b c #C70000",
"n c #D00000",
"m c #D20000",
"M c #D60000",
"N c #DD0000",
"B c #E00000",
"V c #E40000",
"C c #E70000",
"Z c #E80000",
"A c #EB0000",
"S c #EE0000",
"D c #F10000",
"F c #F30000",
"G c #F70000",
"H c #F80000",
"J c #F90000",
"K c #FA0000",
"L c #FC0000",
"P c #FD0000",
"I c #FE0000",
"U c red",
/* pixels */
"UUF             ",
"UUF             ",
"UUF             ",
"UUF             ",
"UUF             ",
"UUF             ",
"UUF  .1wir6O    ",
"UUF ,MUUUUUZ8   ",
"UUF2JUUASUUUUr  ",
"UUJCIs*  -jUUU4 ",
"UUUUt      dUUNo",
"UUUno      @VUU7",
"UUUq        iUUf",
"UUU:        3UUn",
"UUUO        =UUA",
"UUG         $UUK",
"UUP.        &UUD",
"UUU%        >UUB",
"UUU5        0UUz",
"UUUg        cUUe",
"UUUJ:      2UUK&",
"UUIUN;    <AUUa ",
"UUFsUHktyxLUUm# ",
"UUF+hUUUUUUUb%  ",
"ppu  7lBJCv9X   "
};
