/* XPM */
static char *_9[] = {
/* columns rows colors chars-per-pixel */
"14 19 62 1 ",
"  c #020202",
". c #080202",
"X c #090202",
"o c #110202",
"O c #140202",
"+ c #160202",
"@ c #170202",
"# c #190202",
"$ c #210202",
"% c #220202",
"& c #390202",
"* c #410101",
"= c #420101",
"- c #560101",
"; c #5C0101",
": c #5F0101",
"> c #6A0101",
", c #6B0101",
"< c #700101",
"1 c #730101",
"2 c #770101",
"3 c #7F0101",
"4 c #800101",
"5 c #880101",
"6 c #8C0101",
"7 c #8D0101",
"8 c #8E0101",
"9 c #8F0101",
"0 c #910101",
"q c #960101",
"w c #970101",
"e c #A20101",
"r c #A40101",
"t c #A90101",
"y c #AA0101",
"u c #AB0101",
"i c #B00101",
"p c #B10101",
"a c #B20101",
"s c #BA0101",
"d c #BF0000",
"f c #D30000",
"g c #D70000",
"h c #D80000",
"j c #DC0000",
"k c #DF0000",
"l c #E00000",
"z c #E20000",
"x c #E30000",
"c c #E50000",
"v c #E70000",
"b c #ED0000",
"n c #EE0000",
"m c #EF0000",
"M c #F00000",
"N c #F10000",
"B c #F30000",
"V c #F70000",
"C c #F90000",
"Z c #FA0000",
"A c #FB0000",
"S c red",
/* pixels */
"    O1sxVnfp<#",
"   ,MSSSSSSSSC",
"  6SSSBi08tzSS",
" ;SSSwo     &y",
"XvSS9         ",
":SSkX         ",
"rSS3          ",
"hSS*          ",
"mSS$          ",
"ASS@          ",
"bSS%          ",
"gSS=          ",
"eSS4          ",
";SSlX         ",
".cSS7         ",
" -SSSqo     &u",
"  5SSSBa08tkSS",
"   >NSSSSSSSSV",
"    +2dcZBji>O"
};
