/* XPM */
static char *_00[] = {
/* columns rows colors chars-per-pixel */
"7 11 39 1 ",
"  c #020202",
". c #040202",
"X c #050202",
"o c #130202",
"O c #200202",
"+ c #210202",
"@ c #3C0202",
"# c #410202",
"$ c #4B0101",
"% c #4E0101",
"& c #570101",
"* c #580101",
"= c #5D0101",
"- c #610101",
"; c #640101",
": c #650101",
"> c #660101",
", c #690101",
"< c #6E0101",
"1 c #7A0101",
"2 c #880101",
"3 c #910101",
"4 c #970101",
"5 c #980101",
"6 c #A10101",
"7 c #B70101",
"8 c #C10000",
"9 c #CC0000",
"0 c #DC0000",
"q c #E40000",
"w c #EB0000",
"e c #EC0000",
"r c #F10000",
"t c #F30000",
"y c #F60000",
"u c #F70000",
"i c #FA0000",
"p c #FC0000",
"a c red",
/* pixels */
"     $a",
"     $a",
"  oO.$a",
"X4py01a",
";t# @wa",
"93   2a",
"r-   *a",
"e>   =a",
"86   5a",
"%i,+:wa",
" <qu7&9"
};
