/* XPM */
static char *_13[] = {
/* columns rows colors chars-per-pixel */
"7 11 38 1 ",
"  c #020202",
". c #070202",
"X c #080202",
"o c #1F0202",
"O c #240202",
"+ c #300202",
"@ c #310202",
"# c #350202",
"$ c #4B0101",
"% c #4D0101",
"& c #560101",
"* c #570101",
"= c #5E0101",
"- c #600101",
"; c #650101",
": c #670101",
"> c #6A0101",
", c #6C0101",
"< c #6E0101",
"1 c #810101",
"2 c #850101",
"3 c #8E0101",
"4 c #9A0101",
"5 c #A30101",
"6 c #A40101",
"7 c #B60101",
"8 c #C00000",
"9 c #CC0000",
"0 c #CE0000",
"q c #E40000",
"w c #E70000",
"e c #E90000",
"r c #EB0000",
"t c #F00000",
"y c #F20000",
"u c #F70000",
"i c #FB0000",
"p c red",
/* pixels */
" <qu7&9",
"%i,O:rp",
"85   4p",
"r;   =p",
"y-   *p",
"03   2p",
">t# @ep",
".6pww1p",
"  o+X$p",
"     $p",
"     $p"
};
