/* XPM */
static char *_15[] = {
/* columns rows colors chars-per-pixel */
"6 9 42 1 ",
"  c #020202",
". c #080202",
"X c #160202",
"o c #1C0202",
"O c #1D0202",
"+ c #1E0202",
"@ c #2C0202",
"# c #3B0202",
"$ c #3C0202",
"% c #450101",
"& c #470101",
"* c #490101",
"= c #5C0101",
"- c #5D0101",
"; c #610101",
": c #620101",
"> c #630101",
", c #650101",
"< c #700101",
"1 c #9B0101",
"2 c #9F0101",
"3 c #A50101",
"4 c #AE0101",
"5 c #B30101",
"6 c #B50101",
"7 c #BA0101",
"8 c #C30000",
"9 c #C40000",
"0 c #C50000",
"q c #CD0000",
"w c #CF0000",
"e c #D70000",
"r c #D90000",
"t c #DE0000",
"y c #E60000",
"u c #E70000",
"i c #EC0000",
"p c #F20000",
"a c #F40000",
"s c #F60000",
"d c #F80000",
"f c #FE0000",
/* pixels */
"O4ise-",
"69%#:,",
"u=    ",
"7t<+  ",
"o3af8@",
"  .&wq",
"    ;p",
"0>$*q5",
"1rdy2X"
};
