/* XPM */
static char *_16[] = {
/* columns rows colors chars-per-pixel */
"5 10 20 1 ",
"  c #020202",
". c #070202",
"X c #0B0202",
"o c #130202",
"O c #190202",
"+ c #350202",
"@ c #3C0202",
"# c #4B0101",
"$ c #4E0101",
"% c #500101",
"& c #6F0101",
"* c #920101",
"= c #CC0000",
"- c #CE0000",
"; c #D90000",
": c #DB0000",
"> c #E20000",
", c #F90000",
"< c #FE0000",
"1 c red",
/* pixels */
"X1#  ",
"X1#  ",
"-1:==",
"@1&++",
"X1#  ",
"X1#  ",
"X1#  ",
".<$  ",
" >*Oo",
" %;,1"
};
