/* XPM */
static char *_26[] = {
/* columns rows colors chars-per-pixel */
"9 3 23 1 ",
"  c #020202",
". c #030202",
"X c #080202",
"o c #090202",
"O c #0C0202",
"+ c #440101",
"@ c #450101",
"# c #7F0101",
"$ c #860101",
"% c #9A0101",
"& c #9B0101",
"* c #A20101",
"= c #A40101",
"- c #AB0101",
"; c #AC0101",
": c #BB0101",
"> c #C20000",
", c #D60000",
"< c #D70000",
"1 c #DA0000",
"2 c #DB0000",
"3 c #DF0000",
"4 c red",
/* pixels */
"O$>=@. o&",
",3-142;3<",
"%X .+*:#O"
};
