/* XPM */
static char *_3[] = {
/* columns rows colors chars-per-pixel */
"9 9 7 1 ",
"  c #020202",
". c #190202",
"X c #1A0202",
"o c #1B0202",
"O c #2E0202",
"+ c #2F0202",
"@ c red",
/* pixels */
"   .@.   ",
"   .@.   ",
"   .@.   ",
"ooo+@+ooo",
"@@@@@@@@@",
"XXXO@OXXX",
"   .@.   ",
"   .@.   ",
"   .@.   "
};
