/* XPM */
static char *_7[] = {
/* columns rows colors chars-per-pixel */
"5 12 30 1 ",
"  c #020202",
". c #030202",
"X c #070202",
"o c #080202",
"O c #0E0202",
"+ c #0F0202",
"@ c #380202",
"# c #3A0202",
"$ c #460101",
"% c #470101",
"& c #540101",
"* c #560101",
"= c #630101",
"- c #650101",
"; c #870101",
": c #890101",
"> c #950101",
", c #970101",
"< c #A40101",
"1 c #A60101",
"2 c #B30101",
"3 c #B50101",
"4 c #D60000",
"5 c #D80000",
"6 c #E30000",
"7 c #E40000",
"8 c #EE0000",
"9 c #EF0000",
"0 c #F70000",
"q c #F80000",
/* pixels */
"   -4",
"   3;",
"  O0@",
"  *7.",
"  1> ",
" X8$ ",
" %9o ",
" ,<  ",
".6&  ",
"#q+  ",
":2   ",
"5=   "
};
