/* XPM */
static char *_6[] = {
/* columns rows colors chars-per-pixel */
"7 11 50 1 ",
"  c #020202",
". c #030202",
"X c #090202",
"o c #0A0202",
"O c #0E0202",
"+ c #0F0202",
"@ c #110202",
"# c #230202",
"$ c #240202",
"% c #2E0202",
"& c #620101",
"* c #640101",
"= c #650101",
"- c #6A0101",
"; c #6C0101",
": c #710101",
"> c #720101",
", c #780101",
"< c #790101",
"1 c #820101",
"2 c #830101",
"3 c #870101",
"4 c #8B0101",
"5 c #8D0101",
"6 c #9C0101",
"7 c #9E0101",
"8 c #9F0101",
"9 c #A10101",
"0 c #A20101",
"q c #A70101",
"w c #A80101",
"e c #AE0101",
"r c #B00101",
"t c #B40101",
"y c #B50101",
"u c #C00000",
"i c #CA0000",
"p c #CE0000",
"a c #D90000",
"s c #DA0000",
"d c #DC0000",
"f c #DD0000",
"g c #E10000",
"h c #E20000",
"j c #EE0000",
"k c #EF0000",
"l c #F20000",
"z c #F60000",
"x c #F70000",
"c c #FA0000",
/* pixels */
".,fxf<.",
";c*%=c;",
"yr   et",
"8u   u7",
"$s9-0a#",
"O6jik6+",
"qp@ @pw",
"l>   :l",
"h3   3g",
"5l&%&l4",
"o2dzd1X"
};
