/* XPM */
static char *_0[] = {
/* columns rows colors chars-per-pixel */
"9 8 33 1 ",
"  c #020202",
". c #030202",
"X c #050202",
"o c #060202",
"O c #0B0202",
"+ c #0D0202",
"@ c #130202",
"# c #160202",
"$ c #2B0202",
"% c #450101",
"& c #4E0101",
"* c #5B0101",
"= c #5E0101",
"- c #670101",
"; c #700101",
": c #830101",
"> c #890101",
", c #A30101",
"< c #AB0101",
"1 c #AF0101",
"2 c #B80101",
"3 c #BC0101",
"4 c #CA0000",
"5 c #CC0000",
"6 c #CF0000",
"7 c #DF0000",
"8 c #E00000",
"9 c #E70000",
"0 c #F10000",
"q c #F60000",
"w c #F90000",
"e c #FC0000",
"r c #FD0000",
/* pixels */
"      @-5",
"   o&1w8:",
" $>9q<&X ",
"4r3=+    ",
"4e2*O    ",
" $>90,%. ",
"   o&1w7:",
"      #;6"
};
