/* XPM */
static char *_3[] = {
/* columns rows colors chars-per-pixel */
"6 11 35 1 ",
"  c #020202",
". c #040202",
"X c #070202",
"o c #0A0202",
"O c #0C0202",
"+ c #0D0202",
"@ c #100202",
"# c #130202",
"$ c #180202",
"% c #190202",
"& c #1E0202",
"* c #200202",
"= c #260202",
"- c #2C0202",
"; c #3E0202",
": c #520101",
"> c #530101",
", c #5F0101",
"< c #630101",
"1 c #670101",
"2 c #730101",
"3 c #980101",
"4 c #A60101",
"5 c #AA0101",
"6 c #B60101",
"7 c #C20000",
"8 c #C70000",
"9 c #D90000",
"0 c #DD0000",
"q c #E20000",
"w c #EB0000",
"e c #F00000",
"r c #F10000",
"t c #FD0000",
"y c red",
/* pixels */
"18ew4$",
"q2;,e6",
"o   3r",
"   @96",
"  +70%",
"  50& ",
" Ot<  ",
" *y>  ",
" .#X  ",
" =0:  ",
" -y,  "
};
