/* XPM */
static char *_9[] = {
/* columns rows colors chars-per-pixel */
"7 11 13 1 ",
"  c #020202",
". c #3A0202",
"X c #420101",
"o c #520101",
"O c #790101",
"+ c #7E0101",
"@ c #7F0101",
"# c #9B0101",
"$ c #BB0101",
"% c #C30000",
"& c #DE0000",
"* c #DF0000",
"= c red",
/* pixels */
"======&",
"=#XXXX.",
"=O     ",
"=O     ",
"=$@@@@o",
"=*%%%%+",
"=O     ",
"=O     ",
"=O     ",
"=#XXXXX",
"======="
};
