/* XPM */
static char *_2[] = {
/* columns rows colors chars-per-pixel */
"8 11 8 1 ",
"  c #020202",
". c #6C0101",
"X c #6D0101",
"o c #7F0101",
"O c #B50101",
"+ c #C30000",
"@ c #DC0000",
"# c red",
/* pixels */
"#X    .#",
"#X    .#",
"#X    .#",
"#X    .#",
"#OooooO#",
"#@++++@#",
"#X    .#",
"#X    .#",
"#X    .#",
"#X    .#",
"#X    .#"
};
