/* XPM */
static char *_5[] = {
/* columns rows colors chars-per-pixel */
"9 11 37 1 ",
"  c #020202",
". c #030202",
"X c #070202",
"o c #0F0202",
"O c #170202",
"+ c #1A0202",
"@ c #200202",
"# c #240202",
"$ c #300202",
"% c #350202",
"& c #410101",
"* c #5F0101",
"= c #6B0101",
"- c #6E0101",
"; c #710101",
": c #7D0101",
"> c #830101",
", c #890101",
"< c #8C0101",
"1 c #8F0101",
"2 c #920101",
"3 c #960101",
"4 c #A00101",
"5 c #A40101",
"6 c #BD0101",
"7 c #CA0000",
"8 c #CB0000",
"9 c #CF0000",
"0 c #D60000",
"q c #DB0000",
"w c #E60000",
"e c #E90000",
"r c #F10000",
"t c #F40000",
"y c #F80000",
"u c #FE0000",
"i c red",
/* pixels */
"i,   +9w$",
"i,  #q0@ ",
"i, %e7O  ",
"i,&r6o   ",
"i8y5X    ",
"iti*     ",
"i<4u=    ",
"i,.3u-   ",
"i, .2u;  ",
"i,  .1i: ",
"i,    >i,"
};
