/* XPM */
static char *_1[] = {
/* columns rows colors chars-per-pixel */
"10 13 56 1 ",
"  c #020202",
". c #030202",
"X c #040202",
"o c #060202",
"O c #080202",
"+ c #0F0202",
"@ c #120202",
"# c #150202",
"$ c #3E0202",
"% c #3F0202",
"& c #410101",
"* c #430101",
"= c #410202",
"- c #460101",
"; c #480101",
": c #490101",
"> c #590101",
", c #5D0101",
"< c #5E0101",
"1 c #630101",
"2 c #6D0101",
"3 c #6E0101",
"4 c #700101",
"5 c #860101",
"6 c #8E0101",
"7 c #900101",
"8 c #910101",
"9 c #940101",
"0 c #9A0101",
"q c #9E0101",
"w c #A60101",
"e c #A70101",
"r c #AF0101",
"t c #B00101",
"y c #B10101",
"u c #BE0101",
"i c #BF0101",
"p c #C40000",
"a c #C80000",
"s c #CA0000",
"d c #CE0000",
"f c #D00000",
"g c #E10000",
"h c #E30000",
"j c #E60000",
"k c #E70000",
"l c #E80000",
"z c #F00000",
"x c #F30000",
"c c #F40000",
"v c #F50000",
"b c #F80000",
"n c #F90000",
"m c #FA0000",
"M c #FC0000",
"N c red",
/* pixels */
"  <acva,  ",
" 7M8&=8M6 ",
";N3    4N-",
"ygX    Xht",
"lr      yj",
"m9      9n",
"zw      ek",
"pd      fi",
"2N$    %N1",
"Osk;XX:luo",
" @wMvvN0+ ",
"   #%>xq. ",
"      *b5 "
};
