/* XPM */
static char *_6[] = {
/* columns rows colors chars-per-pixel */
"10 11 46 1 ",
"  c #020202",
". c #030202",
"X c #060202",
"o c #0A0202",
"O c #0B0202",
"+ c #100202",
"@ c #120202",
"# c #150202",
"$ c #170202",
"% c #1D0202",
"& c #1F0202",
"* c #280202",
"= c #2C0202",
"- c #3A0202",
"; c #4C0101",
": c #580101",
"> c #590101",
", c #670101",
"< c #690101",
"1 c #6F0101",
"2 c #7A0101",
"3 c #8A0101",
"4 c #8B0101",
"5 c #980101",
"6 c #AD0101",
"7 c #B70101",
"8 c #B80101",
"9 c #B90101",
"0 c #BB0101",
"q c #C70000",
"w c #C80000",
"e c #CF0000",
"r c #D70000",
"t c #D90000",
"y c #E50000",
"u c #E80000",
"i c #EE0000",
"p c #F00000",
"a c #F50000",
"s c #F70000",
"d c #F80000",
"f c #F90000",
"g c #FC0000",
"h c #FD0000",
"j c #FE0000",
"k c red",
/* pixels */
"e0      9e",
"1h&    %g1",
"#d2    2f$",
" 6t.   r6 ",
" ;k-  -k; ",
" Xy5  5uX ",
"  3pOoi4  ",
"  *j:>k=  ",
"   q78w   ",
"   ,gg<   ",
"   +as@   "
};
