/* XPM */
static char *_8[] = {
/* columns rows colors chars-per-pixel */
"9 11 58 1 ",
"  c #020202",
". c #030202",
"X c #040202",
"o c #050202",
"O c #060202",
"+ c #070202",
"@ c #090202",
"# c #0B0202",
"$ c #0C0202",
"% c #130202",
"& c #1B0202",
"* c #1E0202",
"= c #200202",
"- c #270202",
"; c #290202",
": c #2B0202",
"> c #300202",
", c #340202",
"< c #370202",
"1 c #490101",
"2 c #540101",
"3 c #570101",
"4 c #5E0101",
"5 c #680101",
"6 c #6D0101",
"7 c #750101",
"8 c #7C0101",
"9 c #7D0101",
"0 c #7F0101",
"q c #880101",
"w c #910101",
"e c #960101",
"r c #9A0101",
"t c #A60101",
"y c #AF0101",
"u c #B30101",
"i c #B50101",
"p c #BC0101",
"a c #BE0101",
"s c #C10000",
"d c #CA0000",
"f c #CF0000",
"g c #D00000",
"h c #D70000",
"j c #DB0000",
"k c #DD0000",
"l c #E70000",
"z c #E90000",
"x c #EE0000",
"c c #F20000",
"v c #F60000",
"b c #F70000",
"n c #F80000",
"m c #FA0000",
"M c #FB0000",
"N c #FC0000",
"B c #FE0000",
"V c red",
/* pixels */
"<N2   =c7",
" wl%  ug+",
" $kr 4M, ",
"  1B3zq  ",
"   tBj#  ",
"   0Ve   ",
"  ;bim>  ",
" .asXpdo ",
" 5n: -v6 ",
"&x9   8c*",
"yh@   Ofy"
};
