/* XPM */
static char *_9[] = {
/* columns rows colors chars-per-pixel */
"9 11 31 1 ",
"  c #020202",
". c #090202",
"X c #0B0202",
"o c #0C0202",
"O c #160202",
"+ c #190202",
"@ c #1E0202",
"# c #310202",
"$ c #370202",
"% c #3B0202",
"& c #3C0202",
"* c #5C0101",
"= c #5E0101",
"- c #6A0101",
"; c #6B0101",
": c #870101",
"> c #890101",
", c #AB0101",
"< c #AC0101",
"1 c #B10101",
"2 c #B60101",
"3 c #CC0000",
"4 c #D20000",
"5 c #D50000",
"6 c #D90000",
"7 c #EA0000",
"8 c #EC0000",
"9 c #F00000",
"0 c #FA0000",
"q c #FB0000",
"w c red",
/* pixels */
"<6X   .5,",
"O7>   :8+",
" =q$ #0* ",
"  14o32  ",
"  @949@  ",
"   ;w-   ",
"   &w%   ",
"   &w%   ",
"   &w%   ",
"   &w%   ",
"   &w%   "
};
