/* XPM */
static char *_2[] = {
/* columns rows colors chars-per-pixel */
"5 12 23 1 ",
"  c #020202",
". c #030202",
"X c #070202",
"o c #080202",
"O c #0E0202",
"+ c #0F0202",
"@ c #390202",
"# c #460101",
"$ c #470101",
"% c #550101",
"& c #640101",
"* c #880101",
"= c #960101",
"- c #A50101",
"; c #B40101",
": c #D70000",
"> c #DA0000",
", c #E30000",
"< c #E50000",
"1 c #EE0000",
"2 c #F00000",
"3 c #F70000",
"4 c #F80000",
/* pixels */
":&   ",
"*;   ",
"@4+  ",
".,%  ",
" =-  ",
" #2o ",
" X1$ ",
"  -= ",
"  %<.",
"  O3@",
"   ;*",
"   &>"
};
